  0
SECTION
  2
HEADER
  9
$ACADVER
  1
AC1032
  9
$ACADMAINTVER
 90
      175
  9
$DWGCODEPAGE
  3
ANSI_1252
  9
$LASTSAVEDBY
  1
huyth
  9
$REQUIREDVERSIONS
160
                 0
  9
$INSBASE
 10
0.0
 20
0.0
 30
0.0
  9
$EXTMIN
 10
-540.1370958314137
 20
-123.5710063877859
 30
0.0
  9
$EXTMAX
 10
-31.33699989286661
 20
272.1290438519644
 30
0.0
  9
$LIMMIN
 10
0.0
 20
0.0
  9
$LIMMAX
 10
12.0
 20
9.0
  9
$ORTHOMODE
 70
     0
  9
$REGENMODE
 70
     1
  9
$FILLMODE
 70
     1
  9
$QTEXTMODE
 70
     0
  9
$MIRRTEXT
 70
     0
  9
$LTSCALE
 40
1.0
  9
$ATTMODE
 70
     1
  9
$TEXTSIZE
 40
0.2
  9
$TRACEWID
 40
0.05
  9
$TEXTSTYLE
  7
STANDARD
  9
$CLAYER
  8
0
  9
$CELTYPE
  6
Continuous
  9
$CECOLOR
 62
   256
  9
$CELTSCALE
 40
1.0
  9
$DISPSILH
 70
     0
  9
$DIMSCALE
 40
1.0
  9
$DIMASZ
 40
0.18
  9
$DIMEXO
 40
0.0625
  9
$DIMDLI
 40
0.38
  9
$DIMRND
 40
0.0
  9
$DIMDLE
 40
0.0
  9
$DIMEXE
 40
0.18
  9
$DIMTP
 40
0.0
  9
$DIMTM
 40
0.0
  9
$DIMTXT
 40
0.18
  9
$DIMCEN
 40
0.09
  9
$DIMTSZ
 40
0.0
  9
$DIMTOL
 70
     0
  9
$DIMLIM
 70
     0
  9
$DIMTIH
 70
     1
  9
$DIMTOH
 70
     1
  9
$DIMSE1
 70
     0
  9
$DIMSE2
 70
     0
  9
$DIMTAD
 70
     0
  9
$DIMZIN
 70
     0
  9
$DIMBLK
  1

  9
$DIMASO
 70
     1
  9
$DIMSHO
 70
     1
  9
$DIMPOST
  1

  9
$DIMAPOST
  1

  9
$DIMALT
 70
     0
  9
$DIMALTD
 70
     2
  9
$DIMALTF
 40
25.4
  9
$DIMLFAC
 40
1.0
  9
$DIMTOFL
 70
     0
  9
$DIMTVP
 40
0.0
  9
$DIMTIX
 70
     0
  9
$DIMSOXD
 70
     0
  9
$DIMSAH
 70
     0
  9
$DIMBLK1
  1

  9
$DIMBLK2
  1

  9
$DIMSTYLE
  2
Standard
  9
$DIMCLRD
 70
     0
  9
$DIMCLRE
 70
     0
  9
$DIMCLRT
 70
     0
  9
$DIMTFAC
 40
1.0
  9
$DIMGAP
 40
0.09
  9
$DIMJUST
 70
     0
  9
$DIMSD1
 70
     0
  9
$DIMSD2
 70
     0
  9
$DIMTOLJ
 70
     1
  9
$DIMTZIN
 70
     0
  9
$DIMALTZ
 70
     0
  9
$DIMALTTZ
 70
     0
  9
$DIMUPT
 70
     0
  9
$DIMDEC
 70
     4
  9
$DIMTDEC
 70
     4
  9
$DIMALTU
 70
     2
  9
$DIMALTTD
 70
     2
  9
$DIMTXSTY
  7
STANDARD
  9
$DIMAUNIT
 70
     0
  9
$DIMADEC
 70
     0
  9
$DIMALTRND
 40
0.0
  9
$DIMAZIN
 70
     0
  9
$DIMDSEP
 70
    46
  9
$DIMATFIT
 70
     3
  9
$DIMFRAC
 70
     0
  9
$DIMLDRBLK
  1

  9
$DIMLUNIT
 70
     2
  9
$DIMLWD
 70
    -2
  9
$DIMLWE
 70
    -2
  9
$DIMTMOVE
 70
     0
  9
$DIMFXL
 40
1.0
  9
$DIMFXLON
 70
     0
  9
$DIMJOGANG
 40
0.7853981633974483
  9
$DIMTFILL
 70
     0
  9
$DIMTFILLCLR
 70
     0
  9
$DIMARCSYM
 70
     0
  9
$DIMLTYPE
  6

  9
$DIMLTEX1
  6

  9
$DIMLTEX2
  6

  9
$DIMTXTDIRECTION
 70
     0
  9
$LUNITS
 70
     2
  9
$LUPREC
 70
     4
  9
$SKETCHINC
 40
0.1
  9
$FILLETRAD
 40
0.0
  9
$AUNITS
 70
     0
  9
$AUPREC
 70
     0
  9
$MENU
  1
.
  9
$ELEVATION
 40
0.0
  9
$PELEVATION
 40
0.0
  9
$THICKNESS
 40
0.0
  9
$LIMCHECK
 70
     0
  9
$CHAMFERA
 40
0.0
  9
$CHAMFERB
 40
0.0
  9
$CHAMFERC
 40
0.0
  9
$CHAMFERD
 40
0.0
  9
$SKPOLY
 70
     0
  9
$TDCREATE
 40
2459518.958043982
  9
$TDUCREATE
 40
2459518.666377315
  9
$TDUPDATE
 40
2459518.959340277
  9
$TDUUPDATE
 40
2459518.667673611
  9
$TDINDWG
 40
0.0012962963
  9
$TDUSRTIMER
 40
0.0012962963
  9
$USRTIMER
 70
     1
  9
$ANGBASE
 50
0.0
  9
$ANGDIR
 70
     0
  9
$PDMODE
 70
     0
  9
$PDSIZE
 40
0.0
  9
$PLINEWID
 40
0.0
  9
$SPLFRAME
 70
     0
  9
$SPLINETYPE
 70
     6
  9
$SPLINESEGS
 70
     8
  9
$HANDSEED
  5
10073
  9
$SURFTAB1
 70
     6
  9
$SURFTAB2
 70
     6
  9
$SURFTYPE
 70
     6
  9
$SURFU
 70
     6
  9
$SURFV
 70
     6
  9
$UCSBASE
  2

  9
$UCSNAME
  2

  9
$UCSORG
 10
0.0
 20
0.0
 30
0.0
  9
$UCSXDIR
 10
1.0
 20
0.0
 30
0.0
  9
$UCSYDIR
 10
0.0
 20
1.0
 30
0.0
  9
$UCSORTHOREF
  2

  9
$UCSORTHOVIEW
 70
     0
  9
$UCSORGTOP
 10
0.0
 20
0.0
 30
0.0
  9
$UCSORGBOTTOM
 10
0.0
 20
0.0
 30
0.0
  9
$UCSORGLEFT
 10
0.0
 20
0.0
 30
0.0
  9
$UCSORGRIGHT
 10
0.0
 20
0.0
 30
0.0
  9
$UCSORGFRONT
 10
0.0
 20
0.0
 30
0.0
  9
$UCSORGBACK
 10
0.0
 20
0.0
 30
0.0
  9
$PUCSBASE
  2

  9
$PUCSNAME
  2

  9
$PUCSORG
 10
0.0
 20
0.0
 30
0.0
  9
$PUCSXDIR
 10
1.0
 20
0.0
 30
0.0
  9
$PUCSYDIR
 10
0.0
 20
1.0
 30
0.0
  9
$PUCSORTHOREF
  2

  9
$PUCSORTHOVIEW
 70
     0
  9
$PUCSORGTOP
 10
0.0
 20
0.0
 30
0.0
  9
$PUCSORGBOTTOM
 10
0.0
 20
0.0
 30
0.0
  9
$PUCSORGLEFT
 10
0.0
 20
0.0
 30
0.0
  9
$PUCSORGRIGHT
 10
0.0
 20
0.0
 30
0.0
  9
$PUCSORGFRONT
 10
0.0
 20
0.0
 30
0.0
  9
$PUCSORGBACK
 10
0.0
 20
0.0
 30
0.0
  9
$USERI1
 70
     0
  9
$USERI2
 70
     0
  9
$USERI3
 70
     0
  9
$USERI4
 70
     0
  9
$USERI5
 70
     0
  9
$USERR1
 40
0.0
  9
$USERR2
 40
0.0
  9
$USERR3
 40
0.0
  9
$USERR4
 40
0.0
  9
$USERR5
 40
0.0
  9
$WORLDVIEW
 70
     1
  9
$SHADEDGE
 70
     3
  9
$SHADEDIF
 70
    70
  9
$TILEMODE
 70
     1
  9
$MAXACTVP
 70
    64
  9
$PINSBASE
 10
0.0
 20
0.0
 30
0.0
  9
$PLIMCHECK
 70
     0
  9
$PEXTMIN
 10
1.000000000000000E+20
 20
1.000000000000000E+20
 30
1.000000000000000E+20
  9
$PEXTMAX
 10
-1.000000000000000E+20
 20
-1.000000000000000E+20
 30
-1.000000000000000E+20
  9
$PLIMMIN
 10
0.0
 20
0.0
  9
$PLIMMAX
 10
12.0
 20
9.0
  9
$UNITMODE
 70
     0
  9
$VISRETAIN
 70
     1
  9
$PLINEGEN
 70
     0
  9
$PSLTSCALE
 70
     1
  9
$TREEDEPTH
 70
  3020
  9
$CMLSTYLE
  2
Standard
  9
$CMLJUST
 70
     0
  9
$CMLSCALE
 40
1.0
  9
$PROXYGRAPHICS
 70
     1
  9
$MEASUREMENT
 70
     0
  9
$CELWEIGHT
370
    -1
  9
$ENDCAPS
280
     0
  9
$JOINSTYLE
280
     0
  9
$LWDISPLAY
290
     0
  9
$INSUNITS
 70
     4
  9
$HYPERLINKBASE
  1

  9
$STYLESHEET
  1

  9
$XEDIT
290
     1
  9
$CEPSNTYPE
380
     0
  9
$PSTYLEMODE
290
     1
  9
$FINGERPRINTGUID
  2
{8147DE20-4D8A-874E-B0FD-B82574C4FA8C}
  9
$VERSIONGUID
  2
{B411F3D1-153A-BB42-96BD-8FEFACC97B7A}
  9
$EXTNAMES
290
     1
  9
$PSVPSCALE
 40
0.0
  9
$OLESTARTUP
290
     0
  9
$SORTENTS
280
   127
  9
$INDEXCTL
280
     0
  9
$HIDETEXT
280
     0
  9
$XCLIPFRAME
280
     2
  9
$HALOGAP
280
     0
  9
$OBSCOLOR
 70
   257
  9
$OBSLTYPE
280
     0
  9
$INTERSECTIONDISPLAY
280
     0
  9
$INTERSECTIONCOLOR
 70
   257
  9
$DIMASSOC
280
     1
  9
$PROJECTNAME
  1

  9
$CAMERADISPLAY
290
     0
  9
$LENSLENGTH
 40
50.0
  9
$CAMERAHEIGHT
 40
0.0
  9
$STEPSPERSEC
 40
2.0
  9
$STEPSIZE
 40
6.0
  9
$3DDWFPREC
 40
2.0
  9
$PSOLWIDTH
 40
0.25
  9
$PSOLHEIGHT
 40
4.0
  9
$LOFTANG1
 40
1.570796326794896
  9
$LOFTANG2
 40
1.570796326794896
  9
$LOFTMAG1
 40
0.0
  9
$LOFTMAG2
 40
0.0
  9
$LOFTPARAM
 70
     7
  9
$LOFTNORMALS
280
     1
  9
$LATITUDE
 40
37.795
  9
$LONGITUDE
 40
-122.394
  9
$NORTHDIRECTION
 40
0.0
  9
$TIMEZONE
 70
 -8000
  9
$LIGHTGLYPHDISPLAY
280
     1
  9
$TILEMODELIGHTSYNCH
280
     1
  9
$CMATERIAL
347
10005
  9
$SOLIDHIST
280
     0
  9
$SHOWHIST
280
     1
  9
$DWFFRAME
280
     2
  9
$DGNFRAME
280
     0
  9
$REALWORLDSCALE
290
     1
  9
$INTERFERECOLOR
 62
     1
  9
$INTERFEREOBJVS
345
10027
  9
$INTERFEREVPVS
346
10024
  9
$CSHADOW
280
     0
  9
$SHADOWPLANELOCATION
 40
0.0
  0
ENDSEC
  0
SECTION
  2
CLASSES
  0
CLASS
  1
ACDBDICTIONARYWDFLT
  2
AcDbDictionaryWithDefault
  3
ObjectDBX Classes
 90
        0
 91
        1
280
     0
281
     0
  0
CLASS
  1
MATERIAL
  2
AcDbMaterial
  3
ObjectDBX Classes
 90
     1153
 91
        3
280
     0
281
     0
  0
CLASS
  1
VISUALSTYLE
  2
AcDbVisualStyle
  3
ObjectDBX Classes
 90
     4095
 91
       24
280
     0
281
     0
  0
CLASS
  1
TABLESTYLE
  2
AcDbTableStyle
  3
ObjectDBX Classes
 90
     4095
 91
        1
280
     0
281
     0
  0
CLASS
  1
SCALE
  2
AcDbScale
  3
ObjectDBX Classes
 90
     1153
 91
       17
280
     0
281
     0
  0
CLASS
  1
MLEADERSTYLE
  2
AcDbMLeaderStyle
  3
ACDB_MLEADERSTYLE_CLASS
 90
     4095
 91
        1
280
     0
281
     0
  0
CLASS
  1
ACDBSECTIONVIEWSTYLE
  2
AcDbSectionViewStyle
  3
ObjectDBX Classes
 90
     1025
 91
        1
280
     0
281
     0
  0
CLASS
  1
ACDBDETAILVIEWSTYLE
  2
AcDbDetailViewStyle
  3
ObjectDBX Classes
 90
     1025
 91
        1
280
     0
281
     0
  0
CLASS
  1
SORTENTSTABLE
  2
AcDbSortentsTable
  3
ObjectDBX Classes
 90
        0
 91
        1
280
     0
281
     0
  0
CLASS
  1
DICTIONARYVAR
  2
AcDbDictionaryVar
  3
ObjectDBX Classes
 90
        0
 91
        9
280
     0
281
     0
  0
CLASS
  1
CELLSTYLEMAP
  2
AcDbCellStyleMap
  3
ObjectDBX Classes
 90
     1152
 91
        1
280
     0
281
     0
  0
ENDSEC
  0
SECTION
  2
TABLES
  0
TABLE
  2
VPORT
  5
8
330
0
100
AcDbSymbolTable
 70
     1
  0
VPORT
  5
10059
330
8
100
AcDbSymbolTableRecord
100
AcDbViewportTableRecord
  2
*Active
 70
     0
 10
0.0
 20
0.0
 11
1.0
 21
1.0
 12
-432.1292942371705
 22
-48.77045641579528
 13
0.0
 23
0.0
 14
1.0
 24
1.0
 15
0.0
 25
0.0
 16
0.0
 26
0.0
 36
1.0
 17
0.0
 27
0.0
 37
0.0
 40
252.49263751959
 41
2.142136248948696
 42
50.0
 43
0.0
 44
0.0
 50
0.0
 51
0.0
 71
     0
 72
  1000
 73
     1
 74
     3
 75
     0
 76
     0
 77
     0
 78
     0
281
     0
 65
     1
110
0.0
120
0.0
130
0.0
111
1.0
121
0.0
131
0.0
112
0.0
122
1.0
132
0.0
 79
     0
146
0.0
348
10023
 60
     3
 61
     5
292
     1
282
     1
141
0.0
142
0.0
 63
   250
421
  3355443
1001
ACAD_NAV_VCDISPLAY
1070
     1
  0
ENDTAB
  0
TABLE
  2
LTYPE
  5
5
330
0
100
AcDbSymbolTable
 70
     1
  0
LTYPE
  5
14
330
5
100
AcDbSymbolTableRecord
100
AcDbLinetypeTableRecord
  2
BYBLOCK
 70
     0
  3

 72
    65
 73
     0
 40
0.0
  0
LTYPE
  5
15
330
5
100
AcDbSymbolTableRecord
100
AcDbLinetypeTableRecord
  2
BYLAYER
 70
     0
  3

 72
    65
 73
     0
 40
0.0
  0
LTYPE
  5
10001
330
5
100
AcDbSymbolTableRecord
100
AcDbLinetypeTableRecord
  2
Continuous
 70
     0
  3
Solid line
 72
    65
 73
     0
 40
0.0
  0
ENDTAB
  0
TABLE
  2
LAYER
  5
2
330
0
100
AcDbSymbolTable
 70
     1
  0
LAYER
  5
50
102
{ACAD_XDICTIONARY
360
10064
102
}
330
2
100
AcDbSymbolTableRecord
100
AcDbLayerTableRecord
  2
0
 70
     0
 62
     7
  6
Continuous
370
    -3
390
10003
347
10015
348
0
  0
ENDTAB
  0
TABLE
  2
STYLE
  5
3
330
0
100
AcDbSymbolTable
 70
     1
  0
STYLE
  5
11
330
3
100
AcDbSymbolTableRecord
100
AcDbTextStyleTableRecord
  2
STANDARD
 70
     0
 40
0.0
 41
1.0
 50
0.0
 71
     0
 42
0.2
  3

  4

  0
ENDTAB
  0
TABLE
  2
VIEW
  5
6
330
0
100
AcDbSymbolTable
 70
     0
  0
ENDTAB
  0
TABLE
  2
UCS
  5
7
330
0
100
AcDbSymbolTable
 70
     0
  0
ENDTAB
  0
TABLE
  2
APPID
  5
9
330
0
100
AcDbSymbolTable
 70
     2
  0
APPID
  5
12
330
9
100
AcDbSymbolTableRecord
100
AcDbRegAppTableRecord
  2
ACAD
 70
     0
  0
APPID
  5
10058
330
9
100
AcDbSymbolTableRecord
100
AcDbRegAppTableRecord
  2
ACAD_NAV_VCDISPLAY
 70
     0
  0
ENDTAB
  0
TABLE
  2
DIMSTYLE
  5
A
330
0
100
AcDbSymbolTable
 70
     1
100
AcDbDimStyleTable
 71
     0
  0
DIMSTYLE
105
10053
330
A
100
AcDbSymbolTableRecord
100
AcDbDimStyleTableRecord
  2
Standard
 70
     0
340
11
  0
ENDTAB
  0
TABLE
  2
BLOCK_RECORD
  5
1
330
0
100
AcDbSymbolTable
 70
     0
  0
BLOCK_RECORD
  5
1F
102
{ACAD_XDICTIONARY
360
1005C
102
}
330
1
100
AcDbSymbolTableRecord
100
AcDbBlockTableRecord
  2
*MODEL_SPACE
340
10055
 70
     0
280
     1
281
     0
  0
BLOCK_RECORD
  5
1B
330
1
100
AcDbSymbolTableRecord
100
AcDbBlockTableRecord
  2
*PAPER_SPACE
340
10056
 70
     0
280
     1
281
     0
  0
ENDTAB
  0
ENDSEC
  0
SECTION
  2
BLOCKS
  0
BLOCK
  5
20
330
1F
100
AcDbEntity
  8
0
100
AcDbBlockBegin
  2
*MODEL_SPACE
 70
     0
 10
0.0
 20
0.0
 30
0.0
  3
*MODEL_SPACE
  1

  0
ENDBLK
  5
21
330
1F
100
AcDbEntity
  8
0
100
AcDbBlockEnd
  0
BLOCK
  5
1C
330
1B
100
AcDbEntity
 67
     1
  8
0
100
AcDbBlockBegin
  2
*PAPER_SPACE
 70
     0
 10
0.0
 20
0.0
 30
0.0
  3
*PAPER_SPACE
  1

  0
ENDBLK
  5
1D
330
1B
100
AcDbEntity
 67
     1
  8
0
100
AcDbBlockEnd
  0
ENDSEC
  0
SECTION
  2
ENTITIES
  0
LWPOLYLINE
  5
100
330
1F
100
AcDbEntity
  8
0
100
AcDbPolyline
 90
       64
 70
     1
 43
0.0
 10
-524.4050954801402
 20
-122.7650059015608
 42
-0.2798866552114717
 10
-525.7350973111945
 20
-123.5710056574201
 10
-537.8870939237434
 20
-123.5710056574202
 42
-0.4142221178594941
 10
-540.1370958310924
 20
-121.3210056574201
 10
-540.1370958310857
 20
-31.62100680183718
 42
-0.4142238132815497
 10
-537.8870939237433
 20
-29.37100680183718
 10
-525.7350973111942
 20
-29.37100680183215
 42
-0.2798824600699322
 10
-524.4050954801382
 20
-30.17700655769659
 42
0.6065165371877106
 10
-518.8190969449817
 20
-30.17700655769801
 42
-0.2792164449225672
 10
-517.4890951139283
 20
-29.37100680183721
 10
-449.5350927335604
 20
-29.37100680182917
 42
-0.2798861782710484
 10
-448.2050985318976
 20
-30.17700655769591
 42
0.6065165371874089
 10
-442.6190999967453
 20
-30.17700655769989
 42
-0.2798824600706403
 10
-441.2890981656903
 20
-29.37100680183736
 10
-411.4350942594403
 20
-29.37100680183772
 42
-0.2798824600698136
 10
-410.1050924283876
 20
-30.17700655769602
 42
0.6065165371879098
 10
-404.5190938932321
 20
-30.17700655769636
 42
-0.279221526638233
 10
-403.1890920621803
 20
-29.37100680183738
 10
-354.2851003629603
 20
-29.37100680182894
 42
-0.2798824600706408
 10
-352.9550985318977
 20
-30.17700655769605
 42
0.6065165371874091
 10
-347.3690999967455
 20
-30.17700655770003
 42
-0.2798824600706448
 10
-346.0390981656903
 20
-29.37100680183747
 10
-259.0351003629603
 20
-29.37100680183093
 42
-0.2798851966273706
 10
-257.7050832731077
 20
-30.17700655769619
 42
0.6065165371874114
 10
-252.119084737956
 20
-30.17700655769983
 42
-0.279228948066813
 10
-250.7890981656903
 20
-29.37100680183761
 10
-238.6370901090503
 20
-29.37100680183755
 42
-0.4142252604171069
 10
-236.3870901090503
 20
-31.62100680183764
 10
-236.3870901090484
 20
-121.3210056574206
 42
-0.4142235649969845
 10
-238.6370901090505
 20
-123.5710056574206
 10
-250.7890981656905
 20
-123.5710056574175
 42
-0.2792331446618443
 10
-252.119084737954
 20
-122.7650059015582
 42
0.6065165371879889
 10
-257.7050832731099
 20
-122.7650059015618
 42
-0.2798893917353769
 10
-259.0351003629604
 20
-123.5710056574205
 10
-269.8390859586605
 20
-123.5710056574221
 42
-0.2792183019983319
 10
-271.1691030485019
 20
-122.7650059015623
 42
0.6065165371884885
 10
-276.7551015836598
 20
-122.7650059015619
 42
-0.2798839185939288
 10
-278.0850881559304
 20
-123.5710056574205
 10
-290.2370962125705
 20
-123.5710056574286
 42
-0.4142235649956758
 10
-292.4870962125705
 20
-121.3210056574205
 10
-292.4870962125633
 20
-105.7710045130115
 42
0.414401245122234
 10
-293.7370962125704
 20
-104.5210045130115
 10
-301.8121084196005
 20
-104.5210045130115
 42
0.4143768312142849
 10
-303.0621084196005
 20
-105.7710045130115
 10
-303.0621084195985
 20
-121.3210056574205
 42
-0.4142235649969799
 10
-305.3121084196005
 20
-123.5710056574205
 10
-322.2260946256505
 20
-123.5710056574184
 42
-0.2798866552118847
 10
-323.556096456704
 20
-122.7650059015581
 42
0.6065165371879852
 10
-329.1420949918642
 20
-122.7650059015594
 42
-0.2792257232204475
 10
-330.4720968229204
 20
-123.5710056574204
 10
-346.0390981656904
 20
-123.5710056574184
 42
-0.2798866552118912
 10
-347.369099996744
 20
-122.7650059015581
 42
0.6065165371879857
 10
-352.9550985319051
 20
-122.765005901559
 42
-0.2798866552118948
 10
-354.2851003629605
 20
-123.5710056574204
 10
-441.2890981656905
 20
-123.5710056574183
 42
-0.2798866552118884
 10
-442.619099996744
 20
-122.765005901558
 42
0.6065165371879865
 10
-448.2050985318985
 20
-122.7650059015623
 42
-0.2798903734198808
 10
-449.5350927335604
 20
-123.5710056574203
 10
-484.1510976774054
 20
-123.5710056574209
 42
-0.2798866552114727
 10
-485.4810995084602
 20
-122.7650059015612
 42
0.6065165371882873
 10
-491.0670980436163
 20
-122.7650059015613
 42
-0.279219270423855
 10
-492.3970922452764
 20
-123.5710056574202
 10
-517.4890951139284
 20
-123.5710056574197
 42
-0.2792206415148974
 10
-518.8190969449833
 20
-122.7650059015611
 42
0.6065165371882881
  0
LWPOLYLINE
  5
101
330
1F
100
AcDbEntity
  8
0
100
AcDbPolyline
 90
        4
 70
     1
 43
0.0
 10
-497.7990926725224
 20
-86.29600222419222
 10
-297.7750905973304
 20
-86.2960022241925
 42
0.999961852997521
 10
-297.7750905973304
 20
-85.69600375007153
 10
-497.7990926725224
 20
-85.69600375007146
 42
1.000012715768713
  0
CIRCLE
  5
102
330
1F
100
AcDbEntity
  8
0
100
AcDbCircle
 10
-533.8360957242805
 20
-114.5710059473372
 30
0.0
 40
0.8500000000000001
  0
CIRCLE
  5
103
330
1F
100
AcDbEntity
  8
0
100
AcDbCircle
 10
-532.5660957242804
 20
-112.0310059473372
 30
0.0
 40
1.475
  0
CIRCLE
  5
104
330
1F
100
AcDbEntity
  8
0
100
AcDbCircle
 10
-510.0230957242804
 20
-114.5710059473372
 30
0.0
 40
0.8500000000000001
  0
CIRCLE
  5
105
330
1F
100
AcDbEntity
  8
0
100
AcDbCircle
 10
-528.7560957242804
 20
-114.5710059473372
 30
0.0
 40
1.95
  0
CIRCLE
  5
106
330
1F
100
AcDbEntity
  8
0
100
AcDbCircle
 10
-523.6760957242804
 20
-114.5710059473372
 30
0.0
 40
0.8500000000000001
  0
CIRCLE
  5
107
330
1F
100
AcDbEntity
  8
0
100
AcDbCircle
 10
-526.2160957242804
 20
-109.4910059473372
 30
0.0
 40
1.475
  0
CIRCLE
  5
108
330
1F
100
AcDbEntity
  8
0
100
AcDbCircle
 10
-531.1690957242803
 20
-103.7760059473372
 30
0.0
 40
1.993999999999999
  0
CIRCLE
  5
109
330
1F
100
AcDbEntity
  8
0
100
AcDbCircle
 10
-524.3110957242804
 20
-95.52100594733721
 30
0.0
 40
0.8500000000000001
  0
CIRCLE
  5
110
330
1F
100
AcDbEntity
  8
0
100
AcDbCircle
 10
-508.7530957242804
 20
-112.0310059473372
 30
0.0
 40
1.475
  0
CIRCLE
  5
111
330
1F
100
AcDbEntity
  8
0
100
AcDbCircle
 10
-514.1510957242803
 20
-95.52100594733721
 30
0.0
 40
0.8500000000000001
  0
CIRCLE
  5
112
330
1F
100
AcDbEntity
  8
0
100
AcDbCircle
 10
-507.2930957242804
 20
-103.7760059473372
 30
0.0
 40
1.993999999999999
  0
CIRCLE
  5
113
330
1F
100
AcDbEntity
  8
0
100
AcDbCircle
 10
-499.8630957242804
 20
-114.5710059473372
 30
0.0
 40
0.8500000000000001
  0
CIRCLE
  5
114
330
1F
100
AcDbEntity
  8
0
100
AcDbCircle
 10
-504.9430957242804
 20
-114.5710059473372
 30
0.0
 40
1.95
  0
CIRCLE
  5
115
330
1F
100
AcDbEntity
  8
0
100
AcDbCircle
 10
-486.2110957242804
 20
-114.5710059473373
 30
0.0
 40
0.8500000000000001
  0
CIRCLE
  5
116
330
1F
100
AcDbEntity
  8
0
100
AcDbCircle
 10
-481.1310957242804
 20
-114.5710059473373
 30
0.0
 40
1.95
  0
CIRCLE
  5
117
330
1F
100
AcDbEntity
  8
0
100
AcDbCircle
 10
-476.0510957242805
 20
-114.5710059473373
 30
0.0
 40
0.8500000000000001
  0
CIRCLE
  5
118
330
1F
100
AcDbEntity
  8
0
100
AcDbCircle
 10
-484.9410957242804
 20
-112.0310059473372
 30
0.0
 40
1.475
  0
CIRCLE
  5
119
330
1F
100
AcDbEntity
  8
0
100
AcDbCircle
 10
-502.4030957242804
 20
-109.4910059473372
 30
0.0
 40
1.475
  0
CIRCLE
  5
120
330
1F
100
AcDbEntity
  8
0
100
AcDbCircle
 10
-491.8450957242804
 20
-105.5710059473373
 30
0.0
 40
1.1
  0
CIRCLE
  5
121
330
1F
100
AcDbEntity
  8
0
100
AcDbCircle
 10
-478.5910957242804
 20
-109.4910059473372
 30
0.0
 40
1.475
  0
CIRCLE
  5
122
330
1F
100
AcDbEntity
  8
0
100
AcDbCircle
 10
-483.1940957242803
 20
-95.52100594733728
 30
0.0
 40
0.8500000000000001
  0
CIRCLE
  5
123
330
1F
100
AcDbEntity
  8
0
100
AcDbCircle
 10
-474.3040957242803
 20
-95.52100594733728
 30
0.0
 40
0.8500000000000001
  0
CIRCLE
  5
124
330
1F
100
AcDbEntity
  8
0
100
AcDbCircle
 10
-523.0410957242805
 20
-92.98100594733719
 30
0.0
 40
1.475
  0
CIRCLE
  5
125
330
1F
100
AcDbEntity
  8
0
100
AcDbCircle
 10
-531.1690957242803
 20
-88.5360059473372
 30
0.0
 40
1.524
  0
CIRCLE
  5
126
330
1F
100
AcDbEntity
  8
0
100
AcDbCircle
 10
-519.2310957242804
 20
-95.52100594733721
 30
0.0
 40
1.95
  0
CIRCLE
  5
127
330
1F
100
AcDbEntity
  8
0
100
AcDbCircle
 10
-516.6910957242804
 20
-90.44100594733723
 30
0.0
 40
1.475
  0
CIRCLE
  5
128
330
1F
100
AcDbEntity
  8
0
100
AcDbCircle
 10
-507.2930957242804
 20
-88.5360059473372
 30
0.0
 40
1.524
  0
CIRCLE
  5
129
330
1F
100
AcDbEntity
  8
0
100
AcDbCircle
 10
-529.0730957242804
 20
-76.4710059473372
 30
0.0
 40
0.8500000000000001
  0
CIRCLE
  5
130
330
1F
100
AcDbEntity
  8
0
100
AcDbCircle
 10
-527.8030957242804
 20
-73.93100594733724
 30
0.0
 40
1.475
  0
CIRCLE
  5
131
330
1F
100
AcDbEntity
  8
0
100
AcDbCircle
 10
-523.9930957242804
 20
-76.4710059473372
 30
0.0
 40
1.95
  0
CIRCLE
  5
132
330
1F
100
AcDbEntity
  8
0
100
AcDbCircle
 10
-518.9130957242804
 20
-76.4710059473372
 30
0.0
 40
0.8500000000000001
  0
CIRCLE
  5
133
330
1F
100
AcDbEntity
  8
0
100
AcDbCircle
 10
-502.8790957242804
 20
-76.4710059473372
 30
0.0
 40
0.8500000000000001
  0
CIRCLE
  5
134
330
1F
100
AcDbEntity
  8
0
100
AcDbCircle
 10
-501.6090957242804
 20
-73.93100594733724
 30
0.0
 40
1.475
  0
CIRCLE
  5
135
330
1F
100
AcDbEntity
  8
0
100
AcDbCircle
 10
-493.3540957242804
 20
-95.52100594733721
 30
0.0
 40
0.8500000000000001
  0
CIRCLE
  5
136
330
1F
100
AcDbEntity
  8
0
100
AcDbCircle
 10
-492.0840957242805
 20
-92.98100594733725
 30
0.0
 40
1.475
  0
CIRCLE
  5
137
330
1F
100
AcDbEntity
  8
0
100
AcDbCircle
 10
-488.2740957242804
 20
-95.52100594733728
 30
0.0
 40
1.95
  0
CIRCLE
  5
138
330
1F
100
AcDbEntity
  8
0
100
AcDbCircle
 10
-469.2240957242804
 20
-95.52100594733728
 30
0.0
 40
1.95
  0
CIRCLE
  5
139
330
1F
100
AcDbEntity
  8
0
100
AcDbCircle
 10
-485.7340957242804
 20
-90.44100594733729
 30
0.0
 40
1.475
  0
CIRCLE
  5
140
330
1F
100
AcDbEntity
  8
0
100
AcDbCircle
 10
-473.0340957242804
 20
-92.98100594733725
 30
0.0
 40
1.475
  0
CIRCLE
  5
141
330
1F
100
AcDbEntity
  8
0
100
AcDbCircle
 10
-483.8290957242803
 20
-76.47100594733726
 30
0.0
 40
0.8500000000000001
  0
CIRCLE
  5
142
330
1F
100
AcDbEntity
  8
0
100
AcDbCircle
 10
-497.7990957242804
 20
-76.4710059473372
 30
0.0
 40
1.95
  0
CIRCLE
  5
143
330
1F
100
AcDbEntity
  8
0
100
AcDbCircle
 10
-492.7190957242804
 20
-76.4710059473372
 30
0.0
 40
0.8500000000000001
  0
CIRCLE
  5
144
330
1F
100
AcDbEntity
  8
0
100
AcDbCircle
 10
-466.6840957242803
 20
-90.44100594733729
 30
0.0
 40
1.475
  0
CIRCLE
  5
145
330
1F
100
AcDbEntity
  8
0
100
AcDbCircle
 10
-478.7490957242804
 20
-76.47100594733726
 30
0.0
 40
1.95
  0
CIRCLE
  5
146
330
1F
100
AcDbEntity
  8
0
100
AcDbCircle
 10
-473.6690957242804
 20
-76.47100594733726
 30
0.0
 40
0.8500000000000001
  0
CIRCLE
  5
147
330
1F
100
AcDbEntity
  8
0
100
AcDbCircle
 10
-459.6930957242804
 20
-121.5560059473372
 30
0.0
 40
1.524
  0
CIRCLE
  5
148
330
1F
100
AcDbEntity
  8
0
100
AcDbCircle
 10
-459.6930957242803
 20
-106.3160059473373
 30
0.0
 40
1.993999999999999
  0
CIRCLE
  5
149
330
1F
100
AcDbEntity
  8
0
100
AcDbCircle
 10
-426.0440957242804
 20
-95.52100594733733
 30
0.0
 40
0.8500000000000001
  0
CIRCLE
  5
150
330
1F
100
AcDbEntity
  8
0
100
AcDbCircle
 10
-450.1740957242803
 20
-95.52100594733733
 30
0.0
 40
1.95
  0
CIRCLE
  5
151
330
1F
100
AcDbEntity
  8
0
100
AcDbCircle
 10
-431.1240957242804
 20
-95.52100594733733
 30
0.0
 40
1.95
  0
CIRCLE
  5
152
330
1F
100
AcDbEntity
  8
0
100
AcDbCircle
 10
-464.1440957242804
 20
-95.52100594733728
 30
0.0
 40
0.8500000000000001
  0
CIRCLE
  5
153
330
1F
100
AcDbEntity
  8
0
100
AcDbCircle
 10
-455.2540957242804
 20
-95.52100594733728
 30
0.0
 40
0.8500000000000001
  0
CIRCLE
  5
154
330
1F
100
AcDbEntity
  8
0
100
AcDbCircle
 10
-453.9840957242804
 20
-92.98100594733725
 30
0.0
 40
1.475
  0
CIRCLE
  5
155
330
1F
100
AcDbEntity
  8
0
100
AcDbCircle
 10
-445.0940957242805
 20
-95.52100594733733
 30
0.0
 40
0.8500000000000001
  0
CIRCLE
  5
156
330
1F
100
AcDbEntity
  8
0
100
AcDbCircle
 10
-436.2040957242804
 20
-95.52100594733733
 30
0.0
 40
0.8500000000000001
  0
CIRCLE
  5
157
330
1F
100
AcDbEntity
  8
0
100
AcDbCircle
 10
-434.9340957242804
 20
-92.9810059473373
 30
0.0
 40
1.475
  0
CIRCLE
  5
158
330
1F
100
AcDbEntity
  8
0
100
AcDbCircle
 10
-414.7730957242804
 20
-114.5710059473373
 30
0.0
 40
0.8500000000000001
  0
CIRCLE
  5
159
330
1F
100
AcDbEntity
  8
0
100
AcDbCircle
 10
-413.5030957242804
 20
-112.0310059473373
 30
0.0
 40
1.475
  0
CIRCLE
  5
160
330
1F
100
AcDbEntity
  8
0
100
AcDbCircle
 10
-404.6130957242804
 20
-114.5710059473374
 30
0.0
 40
0.8500000000000001
  0
CIRCLE
  5
161
330
1F
100
AcDbEntity
  8
0
100
AcDbCircle
 10
-409.6930957242804
 20
-114.5710059473374
 30
0.0
 40
1.95
  0
CIRCLE
  5
162
330
1F
100
AcDbEntity
  8
0
100
AcDbCircle
 10
-407.1530957242804
 20
-109.4910059473373
 30
0.0
 40
1.475
  0
CIRCLE
  5
163
330
1F
100
AcDbEntity
  8
0
100
AcDbCircle
 10
-417.1540957242804
 20
-95.52100594733733
 30
0.0
 40
0.8500000000000001
  0
CIRCLE
  5
164
330
1F
100
AcDbEntity
  8
0
100
AcDbCircle
 10
-412.0740957242804
 20
-95.52100594733733
 30
0.0
 40
1.95
  0
CIRCLE
  5
165
330
1F
100
AcDbEntity
  8
0
100
AcDbCircle
 10
-406.9940957242804
 20
-95.52100594733738
 30
0.0
 40
0.8500000000000001
  0
CIRCLE
  5
166
330
1F
100
AcDbEntity
  8
0
100
AcDbCircle
 10
-398.1040957242805
 20
-95.52100594733738
 30
0.0
 40
0.8500000000000001
  0
CIRCLE
  5
167
330
1F
100
AcDbEntity
  8
0
100
AcDbCircle
 10
-393.0240957242804
 20
-95.52100594733738
 30
0.0
 40
1.95
  0
CIRCLE
  5
168
330
1F
100
AcDbEntity
  8
0
100
AcDbCircle
 10
-387.9440957242804
 20
-95.52100594733738
 30
0.0
 40
0.8500000000000001
  0
CIRCLE
  5
169
330
1F
100
AcDbEntity
  8
0
100
AcDbCircle
 10
-447.6340957242804
 20
-90.44100594733734
 30
0.0
 40
1.475
  0
CIRCLE
  5
170
330
1F
100
AcDbEntity
  8
0
100
AcDbCircle
 10
-459.6990957242804
 20
-76.47100594733726
 30
0.0
 40
1.95
  0
CIRCLE
  5
171
330
1F
100
AcDbEntity
  8
0
100
AcDbCircle
 10
-428.5840957242804
 20
-90.44100594733734
 30
0.0
 40
1.475
  0
CIRCLE
  5
172
330
1F
100
AcDbEntity
  8
0
100
AcDbCircle
 10
-440.6490957242803
 20
-76.47100594733732
 30
0.0
 40
1.95
  0
CIRCLE
  5
173
330
1F
100
AcDbEntity
  8
0
100
AcDbCircle
 10
-464.7790957242803
 20
-76.47100594733726
 30
0.0
 40
0.8500000000000001
  0
CIRCLE
  5
174
330
1F
100
AcDbEntity
  8
0
100
AcDbCircle
 10
-463.5090957242804
 20
-73.9310059473373
 30
0.0
 40
1.475
  0
CIRCLE
  5
175
330
1F
100
AcDbEntity
  8
0
100
AcDbCircle
 10
-454.6190957242804
 20
-76.47100594733726
 30
0.0
 40
0.8500000000000001
  0
CIRCLE
  5
176
330
1F
100
AcDbEntity
  8
0
100
AcDbCircle
 10
-445.7290957242803
 20
-76.47100594733732
 30
0.0
 40
0.8500000000000001
  0
CIRCLE
  5
177
330
1F
100
AcDbEntity
  8
0
100
AcDbCircle
 10
-444.4590957242803
 20
-73.93100594733735
 30
0.0
 40
1.475
  0
CIRCLE
  5
178
330
1F
100
AcDbEntity
  8
0
100
AcDbCircle
 10
-435.5690957242804
 20
-76.47100594733732
 30
0.0
 40
0.8500000000000001
  0
CIRCLE
  5
179
330
1F
100
AcDbEntity
  8
0
100
AcDbCircle
 10
-415.8840957242804
 20
-92.9810059473373
 30
0.0
 40
1.475
  0
CIRCLE
  5
180
330
1F
100
AcDbEntity
  8
0
100
AcDbCircle
 10
-421.5990957242803
 20
-76.47100594733732
 30
0.0
 40
1.95
  0
CIRCLE
  5
181
330
1F
100
AcDbEntity
  8
0
100
AcDbCircle
 10
-409.5340957242804
 20
-90.44100594733739
 30
0.0
 40
1.475
  0
CIRCLE
  5
182
330
1F
100
AcDbEntity
  8
0
100
AcDbCircle
 10
-396.8340957242805
 20
-92.98100594733737
 30
0.0
 40
1.475
  0
CIRCLE
  5
183
330
1F
100
AcDbEntity
  8
0
100
AcDbCircle
 10
-402.5490957242803
 20
-76.47100594733737
 30
0.0
 40
1.95
  0
CIRCLE
  5
184
330
1F
100
AcDbEntity
  8
0
100
AcDbCircle
 10
-390.4840957242804
 20
-90.44100594733739
 30
0.0
 40
1.475
  0
CIRCLE
  5
185
330
1F
100
AcDbEntity
  8
0
100
AcDbCircle
 10
-407.6290957242804
 20
-76.47100594733737
 30
0.0
 40
0.8500000000000001
  0
CIRCLE
  5
186
330
1F
100
AcDbEntity
  8
0
100
AcDbCircle
 10
-426.6790957242803
 20
-76.47100594733732
 30
0.0
 40
0.8500000000000001
  0
CIRCLE
  5
187
330
1F
100
AcDbEntity
  8
0
100
AcDbCircle
 10
-416.5190957242804
 20
-76.47100594733732
 30
0.0
 40
0.8500000000000001
  0
CIRCLE
  5
188
330
1F
100
AcDbEntity
  8
0
100
AcDbCircle
 10
-388.5790957242804
 20
-76.47100594733737
 30
0.0
 40
0.8500000000000001
  0
CIRCLE
  5
189
330
1F
100
AcDbEntity
  8
0
100
AcDbCircle
 10
-406.3590957242803
 20
-73.93100594733741
 30
0.0
 40
1.475
  0
CIRCLE
  5
190
330
1F
100
AcDbEntity
  8
0
100
AcDbCircle
 10
-397.4690957242804
 20
-76.47100594733737
 30
0.0
 40
0.8500000000000001
  0
CIRCLE
  5
191
330
1F
100
AcDbEntity
  8
0
100
AcDbCircle
 10
-531.4540957242804
 20
-57.42100594733719
 30
0.0
 40
0.8500000000000001
  0
CIRCLE
  5
192
330
1F
100
AcDbEntity
  8
0
100
AcDbCircle
 10
-526.3740957242803
 20
-57.42100594733719
 30
0.0
 40
1.95
  0
CIRCLE
  5
193
330
1F
100
AcDbEntity
  8
0
100
AcDbCircle
 10
-521.4530957242804
 20
-71.39100594733716
 30
0.0
 40
1.475
  0
CIRCLE
  5
194
330
1F
100
AcDbEntity
  8
0
100
AcDbCircle
 10
-521.2940957242803
 20
-57.42100594733719
 30
0.0
 40
0.8500000000000001
  0
CIRCLE
  5
195
330
1F
100
AcDbEntity
  8
0
100
AcDbCircle
 10
-502.5620957242804
 20
-57.42100594733719
 30
0.0
 40
1.95
  0
CIRCLE
  5
196
330
1F
100
AcDbEntity
  8
0
100
AcDbCircle
 10
-530.1840957242802
 20
-54.88100594733717
 30
0.0
 40
1.475
  0
CIRCLE
  5
197
330
1F
100
AcDbEntity
  8
0
100
AcDbCircle
 10
-523.8340957242804
 20
-52.34100594733721
 30
0.0
 40
1.475
  0
CIRCLE
  5
198
330
1F
100
AcDbEntity
  8
0
100
AcDbCircle
 10
-514.4680957242804
 20
-52.73900594733723
 30
0.0
 40
1.1
  0
CIRCLE
  5
199
330
1F
100
AcDbEntity
  8
0
100
AcDbCircle
 10
-507.6420957242803
 20
-57.42100594733719
 30
0.0
 40
0.8500000000000001
  0
CIRCLE
  5
200
330
1F
100
AcDbEntity
  8
0
100
AcDbCircle
 10
-506.3720957242804
 20
-54.88100594733717
 30
0.0
 40
1.475
  0
CIRCLE
  5
201
330
1F
100
AcDbEntity
  8
0
100
AcDbCircle
 10
-500.0220957242803
 20
-52.34100594733721
 30
0.0
 40
1.475
  0
CIRCLE
  5
202
330
1F
100
AcDbEntity
  8
0
100
AcDbCircle
 10
-495.2590957242803
 20
-71.39100594733716
 30
0.0
 40
1.475
  0
CIRCLE
  5
203
330
1F
100
AcDbEntity
  8
0
100
AcDbCircle
 10
-483.5120957242803
 20
-57.42100594733725
 30
0.0
 40
1.95
  0
CIRCLE
  5
204
330
1F
100
AcDbEntity
  8
0
100
AcDbCircle
 10
-482.5590957242804
 20
-73.9310059473373
 30
0.0
 40
1.475
  0
CIRCLE
  5
205
330
1F
100
AcDbEntity
  8
0
100
AcDbCircle
 10
-476.2090957242803
 20
-71.39100594733722
 30
0.0
 40
1.475
  0
CIRCLE
  5
206
330
1F
100
AcDbEntity
  8
0
100
AcDbCircle
 10
-464.4620957242803
 20
-57.42100594733725
 30
0.0
 40
1.95
  0
CIRCLE
  5
207
330
1F
100
AcDbEntity
  8
0
100
AcDbCircle
 10
-497.4820957242804
 20
-57.42100594733719
 30
0.0
 40
0.8500000000000001
  0
CIRCLE
  5
208
330
1F
100
AcDbEntity
  8
0
100
AcDbCircle
 10
-488.5920957242803
 20
-57.42100594733725
 30
0.0
 40
0.8500000000000001
  0
CIRCLE
  5
209
330
1F
100
AcDbEntity
  8
0
100
AcDbCircle
 10
-487.3220957242804
 20
-54.88100594733722
 30
0.0
 40
1.475
  0
CIRCLE
  5
210
330
1F
100
AcDbEntity
  8
0
100
AcDbCircle
 10
-478.4320957242804
 20
-57.42100594733725
 30
0.0
 40
0.8500000000000001
  0
CIRCLE
  5
211
330
1F
100
AcDbEntity
  8
0
100
AcDbCircle
 10
-469.5420957242803
 20
-57.42100594733725
 30
0.0
 40
0.8500000000000001
  0
CIRCLE
  5
212
330
1F
100
AcDbEntity
  8
0
100
AcDbCircle
 10
-468.2720957242803
 20
-54.88100594733722
 30
0.0
 40
1.475
  0
CIRCLE
  5
213
330
1F
100
AcDbEntity
  8
0
100
AcDbCircle
 10
-536.2170957242804
 20
-38.37100594733718
 30
0.0
 40
0.8500000000000001
  0
CIRCLE
  5
214
330
1F
100
AcDbEntity
  8
0
100
AcDbCircle
 10
-531.1370957242803
 20
-38.37100594733718
 30
0.0
 40
1.95
  0
CIRCLE
  5
215
330
1F
100
AcDbEntity
  8
0
100
AcDbCircle
 10
-526.0570957242803
 20
-38.37100594733718
 30
0.0
 40
0.8500000000000001
  0
CIRCLE
  5
216
330
1F
100
AcDbEntity
  8
0
100
AcDbCircle
 10
-517.1670957242803
 20
-38.37100594733721
 30
0.0
 40
0.8500000000000001
  0
CIRCLE
  5
217
330
1F
100
AcDbEntity
  8
0
100
AcDbCircle
 10
-512.0870957242803
 20
-38.37100594733721
 30
0.0
 40
1.95
  0
CIRCLE
  5
218
330
1F
100
AcDbEntity
  8
0
100
AcDbCircle
 10
-534.9470957242804
 20
-35.83100594733716
 30
0.0
 40
1.475
  0
CIRCLE
  5
219
330
1F
100
AcDbEntity
  8
0
100
AcDbCircle
 10
-528.5970957242803
 20
-33.29100594733717
 30
0.0
 40
1.475
  0
CIRCLE
  5
220
330
1F
100
AcDbEntity
  8
0
100
AcDbCircle
 10
-515.8970957242803
 20
-35.83100594733719
 30
0.0
 40
1.475
  0
CIRCLE
  5
221
330
1F
100
AcDbEntity
  8
0
100
AcDbCircle
 10
-498.1170957242803
 20
-38.37100594733724
 30
0.0
 40
0.8500000000000001
  0
CIRCLE
  5
222
330
1F
100
AcDbEntity
  8
0
100
AcDbCircle
 10
-509.5470957242802
 20
-33.2910059473372
 30
0.0
 40
1.475
  0
CIRCLE
  5
223
330
1F
100
AcDbEntity
  8
0
100
AcDbCircle
 10
-507.0070957242803
 20
-38.37100594733721
 30
0.0
 40
0.8500000000000001
  0
CIRCLE
  5
224
330
1F
100
AcDbEntity
  8
0
100
AcDbCircle
 10
-480.9720957242803
 20
-52.34100594733726
 30
0.0
 40
1.475
  0
CIRCLE
  5
225
330
1F
100
AcDbEntity
  8
0
100
AcDbCircle
 10
-493.0370957242803
 20
-38.37100594733724
 30
0.0
 40
1.95
  0
CIRCLE
  5
226
330
1F
100
AcDbEntity
  8
0
100
AcDbCircle
 10
-487.9570957242803
 20
-38.37100594733724
 30
0.0
 40
0.8500000000000001
  0
CIRCLE
  5
227
330
1F
100
AcDbEntity
  8
0
100
AcDbCircle
 10
-461.9220957242803
 20
-52.34100594733726
 30
0.0
 40
1.475
  0
CIRCLE
  5
228
330
1F
100
AcDbEntity
  8
0
100
AcDbCircle
 10
-473.9870957242803
 20
-38.37100594733727
 30
0.0
 40
1.95
  0
CIRCLE
  5
229
330
1F
100
AcDbEntity
  8
0
100
AcDbCircle
 10
-460.0170957242803
 20
-38.3710059473373
 30
0.0
 40
0.8500000000000001
  0
CIRCLE
  5
230
330
1F
100
AcDbEntity
  8
0
100
AcDbCircle
 10
-479.0670957242803
 20
-38.37100594733727
 30
0.0
 40
0.8500000000000001
  0
CIRCLE
  5
231
330
1F
100
AcDbEntity
  8
0
100
AcDbCircle
 10
-496.8470957242803
 20
-35.83100594733722
 30
0.0
 40
1.475
  0
CIRCLE
  5
232
330
1F
100
AcDbEntity
  8
0
100
AcDbCircle
 10
-490.4970957242802
 20
-33.29100594733723
 30
0.0
 40
1.475
  0
CIRCLE
  5
233
330
1F
100
AcDbEntity
  8
0
100
AcDbCircle
 10
-468.9070957242803
 20
-38.37100594733727
 30
0.0
 40
0.8500000000000001
  0
CIRCLE
  5
234
330
1F
100
AcDbEntity
  8
0
100
AcDbCircle
 10
-477.7970957242803
 20
-35.83100594733725
 30
0.0
 40
1.475
  0
CIRCLE
  5
235
330
1F
100
AcDbEntity
  8
0
100
AcDbCircle
 10
-471.4470957242802
 20
-33.29100594733726
 30
0.0
 40
1.475
  0
CIRCLE
  5
236
330
1F
100
AcDbEntity
  8
0
100
AcDbCircle
 10
-457.1590957242803
 20
-71.39100594733722
 30
0.0
 40
1.475
  0
CIRCLE
  5
237
330
1F
100
AcDbEntity
  8
0
100
AcDbCircle
 10
-445.4120957242803
 20
-57.42100594733736
 30
0.0
 40
1.95
  0
CIRCLE
  5
238
330
1F
100
AcDbEntity
  8
0
100
AcDbCircle
 10
-425.4090957242803
 20
-73.93100594733735
 30
0.0
 40
1.475
  0
CIRCLE
  5
239
330
1F
100
AcDbEntity
  8
0
100
AcDbCircle
 10
-438.1090957242803
 20
-71.39100594733733
 30
0.0
 40
1.475
  0
CIRCLE
  5
240
330
1F
100
AcDbEntity
  8
0
100
AcDbCircle
 10
-426.3620957242803
 20
-57.42100594733736
 30
0.0
 40
1.95
  0
CIRCLE
  5
241
330
1F
100
AcDbEntity
  8
0
100
AcDbCircle
 10
-459.3820957242804
 20
-57.42100594733725
 30
0.0
 40
0.8500000000000001
  0
CIRCLE
  5
242
330
1F
100
AcDbEntity
  8
0
100
AcDbCircle
 10
-450.4920957242803
 20
-57.42100594733736
 30
0.0
 40
0.8500000000000001
  0
CIRCLE
  5
243
330
1F
100
AcDbEntity
  8
0
100
AcDbCircle
 10
-449.2220957242803
 20
-54.88100594733734
 30
0.0
 40
1.475
  0
CIRCLE
  5
244
330
1F
100
AcDbEntity
  8
0
100
AcDbCircle
 10
-440.3320957242804
 20
-57.42100594733736
 30
0.0
 40
0.8500000000000001
  0
CIRCLE
  5
245
330
1F
100
AcDbEntity
  8
0
100
AcDbCircle
 10
-431.4420957242803
 20
-57.42100594733736
 30
0.0
 40
0.8500000000000001
  0
CIRCLE
  5
246
330
1F
100
AcDbEntity
  8
0
100
AcDbCircle
 10
-430.1720957242803
 20
-54.88100594733734
 30
0.0
 40
1.475
  0
CIRCLE
  5
247
330
1F
100
AcDbEntity
  8
0
100
AcDbCircle
 10
-419.0590957242803
 20
-71.39100594733733
 30
0.0
 40
1.475
  0
CIRCLE
  5
248
330
1F
100
AcDbEntity
  8
0
100
AcDbCircle
 10
-407.3120957242803
 20
-57.42100594733742
 30
0.0
 40
1.95
  0
CIRCLE
  5
249
330
1F
100
AcDbEntity
  8
0
100
AcDbCircle
 10
-400.0090957242804
 20
-71.39100594733739
 30
0.0
 40
1.475
  0
CIRCLE
  5
250
330
1F
100
AcDbEntity
  8
0
100
AcDbCircle
 10
-397.8740957242804
 20
-66.34200594733741
 30
0.0
 40
1.1
  0
CIRCLE
  5
251
330
1F
100
AcDbEntity
  8
0
100
AcDbCircle
 10
-388.2620957242804
 20
-57.42100594733742
 30
0.0
 40
1.95
  0
CIRCLE
  5
252
330
1F
100
AcDbEntity
  8
0
100
AcDbCircle
 10
-421.2820957242803
 20
-57.42100594733736
 30
0.0
 40
0.8500000000000001
  0
CIRCLE
  5
253
330
1F
100
AcDbEntity
  8
0
100
AcDbCircle
 10
-412.3920957242803
 20
-57.42100594733736
 30
0.0
 40
0.8500000000000001
  0
CIRCLE
  5
254
330
1F
100
AcDbEntity
  8
0
100
AcDbCircle
 10
-411.1220957242803
 20
-54.88100594733734
 30
0.0
 40
1.475
  0
CIRCLE
  5
255
330
1F
100
AcDbEntity
  8
0
100
AcDbCircle
 10
-402.2320957242803
 20
-57.42100594733742
 30
0.0
 40
0.8500000000000001
  0
CIRCLE
  5
256
330
1F
100
AcDbEntity
  8
0
100
AcDbCircle
 10
-393.3420957242804
 20
-57.42100594733742
 30
0.0
 40
0.8500000000000001
  0
CIRCLE
  5
257
330
1F
100
AcDbEntity
  8
0
100
AcDbCircle
 10
-392.0720957242803
 20
-54.8810059473374
 30
0.0
 40
1.475
  0
CIRCLE
  5
258
330
1F
100
AcDbEntity
  8
0
100
AcDbCircle
 10
-449.8570957242803
 20
-38.37100594733732
 30
0.0
 40
0.8500000000000001
  0
CIRCLE
  5
259
330
1F
100
AcDbEntity
  8
0
100
AcDbCircle
 10
-454.9370957242802
 20
-38.37100594733732
 30
0.0
 40
1.95
  0
CIRCLE
  5
260
330
1F
100
AcDbEntity
  8
0
100
AcDbCircle
 10
-442.8720957242803
 20
-52.34100594733732
 30
0.0
 40
1.475
  0
CIRCLE
  5
261
330
1F
100
AcDbEntity
  8
0
100
AcDbCircle
 10
-445.4900957242804
 20
-47.27800594733733
 30
0.0
 40
1.1
  0
CIRCLE
  5
262
330
1F
100
AcDbEntity
  8
0
100
AcDbCircle
 10
-435.8870957242803
 20
-38.37100594733735
 30
0.0
 40
1.95
  0
CIRCLE
  5
263
330
1F
100
AcDbEntity
  8
0
100
AcDbCircle
 10
-440.9670957242803
 20
-38.37100594733735
 30
0.0
 40
0.8500000000000001
  0
CIRCLE
  5
264
330
1F
100
AcDbEntity
  8
0
100
AcDbCircle
 10
-458.7470957242802
 20
-35.83100594733727
 30
0.0
 40
1.475
  0
CIRCLE
  5
265
330
1F
100
AcDbEntity
  8
0
100
AcDbCircle
 10
-452.3970957242803
 20
-33.29100594733728
 30
0.0
 40
1.475
  0
CIRCLE
  5
266
330
1F
100
AcDbEntity
  8
0
100
AcDbCircle
 10
-430.8070957242803
 20
-38.37100594733735
 30
0.0
 40
0.8500000000000001
  0
CIRCLE
  5
267
330
1F
100
AcDbEntity
  8
0
100
AcDbCircle
 10
-439.6970957242803
 20
-35.83100594733733
 30
0.0
 40
1.475
  0
CIRCLE
  5
268
330
1F
100
AcDbEntity
  8
0
100
AcDbCircle
 10
-433.3470957242803
 20
-33.29100594733731
 30
0.0
 40
1.475
  0
CIRCLE
  5
269
330
1F
100
AcDbEntity
  8
0
100
AcDbCircle
 10
-423.8220957242804
 20
-52.34100594733732
 30
0.0
 40
1.475
  0
CIRCLE
  5
270
330
1F
100
AcDbEntity
  8
0
100
AcDbCircle
 10
-421.9170957242803
 20
-38.37100594733735
 30
0.0
 40
0.8500000000000001
  0
CIRCLE
  5
271
330
1F
100
AcDbEntity
  8
0
100
AcDbCircle
 10
-416.8370957242803
 20
-38.37100594733738
 30
0.0
 40
1.95
  0
CIRCLE
  5
272
330
1F
100
AcDbEntity
  8
0
100
AcDbCircle
 10
-404.7720957242803
 20
-52.34100594733738
 30
0.0
 40
1.475
  0
CIRCLE
  5
273
330
1F
100
AcDbEntity
  8
0
100
AcDbCircle
 10
-397.7870957242803
 20
-38.37100594733741
 30
0.0
 40
1.95
  0
CIRCLE
  5
274
330
1F
100
AcDbEntity
  8
0
100
AcDbCircle
 10
-392.7070957242804
 20
-38.37100594733741
 30
0.0
 40
0.8500000000000001
  0
CIRCLE
  5
275
330
1F
100
AcDbEntity
  8
0
100
AcDbCircle
 10
-411.7570957242803
 20
-38.37100594733738
 30
0.0
 40
0.8500000000000001
  0
CIRCLE
  5
276
330
1F
100
AcDbEntity
  8
0
100
AcDbCircle
 10
-420.6470957242803
 20
-35.83100594733736
 30
0.0
 40
1.475
  0
CIRCLE
  5
277
330
1F
100
AcDbEntity
  8
0
100
AcDbCircle
 10
-414.2970957242803
 20
-33.29100594733734
 30
0.0
 40
1.475
  0
CIRCLE
  5
278
330
1F
100
AcDbEntity
  8
0
100
AcDbCircle
 10
-402.8670957242803
 20
-38.37100594733738
 30
0.0
 40
0.8500000000000001
  0
CIRCLE
  5
279
330
1F
100
AcDbEntity
  8
0
100
AcDbCircle
 10
-401.5970957242803
 20
-35.83100594733736
 30
0.0
 40
1.475
  0
CIRCLE
  5
280
330
1F
100
AcDbEntity
  8
0
100
AcDbCircle
 10
-395.2470957242803
 20
-33.29100594733737
 30
0.0
 40
1.475
  0
CIRCLE
  5
281
330
1F
100
AcDbEntity
  8
0
100
AcDbCircle
 10
-359.6930957242804
 20
-121.5560059473374
 30
0.0
 40
1.524
  0
CIRCLE
  5
282
330
1F
100
AcDbEntity
  8
0
100
AcDbCircle
 10
-385.5460957242805
 20
-115.8580059473373
 30
0.0
 40
1.1
  0
CIRCLE
  5
283
330
1F
100
AcDbEntity
  8
0
100
AcDbCircle
 10
-343.3360957242804
 20
-114.5710059473374
 30
0.0
 40
0.8500000000000001
  0
CIRCLE
  5
284
330
1F
100
AcDbEntity
  8
0
100
AcDbCircle
 10
-359.6930957242804
 20
-106.3160059473374
 30
0.0
 40
1.993999999999999
  0
CIRCLE
  5
285
330
1F
100
AcDbEntity
  8
0
100
AcDbCircle
 10
-342.0660957242804
 20
-112.0310059473374
 30
0.0
 40
1.475
  0
CIRCLE
  5
286
330
1F
100
AcDbEntity
  8
0
100
AcDbCircle
 10
-379.0540957242805
 20
-95.52100594733738
 30
0.0
 40
0.8500000000000001
  0
CIRCLE
  5
287
330
1F
100
AcDbEntity
  8
0
100
AcDbCircle
 10
-373.9740957242805
 20
-95.52100594733738
 30
0.0
 40
1.95
  0
CIRCLE
  5
288
330
1F
100
AcDbEntity
  8
0
100
AcDbCircle
 10
-368.8940957242804
 20
-95.52100594733744
 30
0.0
 40
0.8500000000000001
  0
CIRCLE
  5
289
330
1F
100
AcDbEntity
  8
0
100
AcDbCircle
 10
-360.0040957242804
 20
-95.52100594733744
 30
0.0
 40
0.8500000000000001
  0
CIRCLE
  5
290
330
1F
100
AcDbEntity
  8
0
100
AcDbCircle
 10
-354.9240957242804
 20
-95.52100594733744
 30
0.0
 40
1.95
  0
CIRCLE
  5
291
330
1F
100
AcDbEntity
  8
0
100
AcDbCircle
 10
-349.8440957242805
 20
-95.52100594733744
 30
0.0
 40
0.8500000000000001
  0
CIRCLE
  5
292
330
1F
100
AcDbEntity
  8
0
100
AcDbCircle
 10
-333.1760957242805
 20
-114.5710059473374
 30
0.0
 40
0.8500000000000001
  0
CIRCLE
  5
293
330
1F
100
AcDbEntity
  8
0
100
AcDbCircle
 10
-338.2560957242805
 20
-114.5710059473374
 30
0.0
 40
1.95
  0
CIRCLE
  5
294
330
1F
100
AcDbEntity
  8
0
100
AcDbCircle
 10
-319.5230957242805
 20
-114.5710059473375
 30
0.0
 40
0.8500000000000001
  0
CIRCLE
  5
295
330
1F
100
AcDbEntity
  8
0
100
AcDbCircle
 10
-318.2530957242804
 20
-112.0310059473375
 30
0.0
 40
1.475
  0
CIRCLE
  5
296
330
1F
100
AcDbEntity
  8
0
100
AcDbCircle
 10
-314.4430957242804
 20
-114.5710059473375
 30
0.0
 40
1.95
  0
CIRCLE
  5
297
330
1F
100
AcDbEntity
  8
0
100
AcDbCircle
 10
-335.7160957242804
 20
-109.4910059473374
 30
0.0
 40
1.475
  0
CIRCLE
  5
298
330
1F
100
AcDbEntity
  8
0
100
AcDbCircle
 10
-340.9540957242804
 20
-95.52100594733744
 30
0.0
 40
0.8500000000000001
  0
CIRCLE
  5
299
330
1F
100
AcDbEntity
  8
0
100
AcDbCircle
 10
-335.8740957242805
 20
-95.52100594733744
 30
0.0
 40
1.95
  0
CIRCLE
  5
300
330
1F
100
AcDbEntity
  8
0
100
AcDbCircle
 10
-330.7940957242804
 20
-95.52100594733744
 30
0.0
 40
0.8500000000000001
  0
CIRCLE
  5
301
330
1F
100
AcDbEntity
  8
0
100
AcDbCircle
 10
-321.9040957242804
 20
-95.52100594733749
 30
0.0
 40
0.8500000000000001
  0
CIRCLE
  5
302
330
1F
100
AcDbEntity
  8
0
100
AcDbCircle
 10
-316.8240957242804
 20
-95.52100594733749
 30
0.0
 40
1.95
  0
CIRCLE
  5
303
330
1F
100
AcDbEntity
  8
0
100
AcDbCircle
 10
-377.7840957242804
 20
-92.98100594733737
 30
0.0
 40
1.475
  0
CIRCLE
  5
304
330
1F
100
AcDbEntity
  8
0
100
AcDbCircle
 10
-383.4990957242805
 20
-76.47100594733737
 30
0.0
 40
1.95
  0
CIRCLE
  5
305
330
1F
100
AcDbEntity
  8
0
100
AcDbCircle
 10
-358.7340957242805
 20
-92.98100594733742
 30
0.0
 40
1.475
  0
CIRCLE
  5
306
330
1F
100
AcDbEntity
  8
0
100
AcDbCircle
 10
-371.4340957242804
 20
-90.44100594733739
 30
0.0
 40
1.475
  0
CIRCLE
  5
307
330
1F
100
AcDbEntity
  8
0
100
AcDbCircle
 10
-352.3840957242804
 20
-90.44100594733746
 30
0.0
 40
1.475
  0
CIRCLE
  5
308
330
1F
100
AcDbEntity
  8
0
100
AcDbCircle
 10
-378.4190957242804
 20
-76.47100594733737
 30
0.0
 40
0.8500000000000001
  0
CIRCLE
  5
309
330
1F
100
AcDbEntity
  8
0
100
AcDbCircle
 10
-369.5290957242804
 20
-76.47100594733743
 30
0.0
 40
0.8500000000000001
  0
CIRCLE
  5
310
330
1F
100
AcDbEntity
  8
0
100
AcDbCircle
 10
-368.2590957242804
 20
-73.93100594733747
 30
0.0
 40
1.475
  0
CIRCLE
  5
311
330
1F
100
AcDbEntity
  8
0
100
AcDbCircle
 10
-350.4790957242803
 20
-76.47100594733743
 30
0.0
 40
0.8500000000000001
  0
CIRCLE
  5
312
330
1F
100
AcDbEntity
  8
0
100
AcDbCircle
 10
-364.4490957242804
 20
-76.47100594733743
 30
0.0
 40
1.95
  0
CIRCLE
  5
313
330
1F
100
AcDbEntity
  8
0
100
AcDbCircle
 10
-359.3690957242805
 20
-76.47100594733743
 30
0.0
 40
0.8500000000000001
  0
CIRCLE
  5
314
330
1F
100
AcDbEntity
  8
0
100
AcDbCircle
 10
-339.6840957242805
 20
-92.98100594733742
 30
0.0
 40
1.475
  0
CIRCLE
  5
315
330
1F
100
AcDbEntity
  8
0
100
AcDbCircle
 10
-345.3990957242804
 20
-76.47100594733743
 30
0.0
 40
1.95
  0
CIRCLE
  5
316
330
1F
100
AcDbEntity
  8
0
100
AcDbCircle
 10
-333.3340957242804
 20
-90.44100594733746
 30
0.0
 40
1.475
  0
CIRCLE
  5
317
330
1F
100
AcDbEntity
  8
0
100
AcDbCircle
 10
-320.6340957242804
 20
-92.98100594733748
 30
0.0
 40
1.475
  0
CIRCLE
  5
318
330
1F
100
AcDbEntity
  8
0
100
AcDbCircle
 10
-326.3490957242804
 20
-76.47100594733749
 30
0.0
 40
1.95
  0
CIRCLE
  5
319
330
1F
100
AcDbEntity
  8
0
100
AcDbCircle
 10
-314.2840957242804
 20
-90.44100594733752
 30
0.0
 40
1.475
  0
CIRCLE
  5
320
330
1F
100
AcDbEntity
  8
0
100
AcDbCircle
 10
-331.4290957242804
 20
-76.47100594733743
 30
0.0
 40
0.8500000000000001
  0
CIRCLE
  5
321
330
1F
100
AcDbEntity
  8
0
100
AcDbCircle
 10
-349.2090957242804
 20
-73.93100594733747
 30
0.0
 40
1.475
  0
CIRCLE
  5
322
330
1F
100
AcDbEntity
  8
0
100
AcDbCircle
 10
-340.3190957242804
 20
-76.47100594733743
 30
0.0
 40
0.8500000000000001
  0
CIRCLE
  5
323
330
1F
100
AcDbEntity
  8
0
100
AcDbCircle
 10
-312.3790957242804
 20
-76.47100594733749
 30
0.0
 40
0.8500000000000001
  0
CIRCLE
  5
324
330
1F
100
AcDbEntity
  8
0
100
AcDbCircle
 10
-330.1590957242804
 20
-73.93100594733747
 30
0.0
 40
1.475
  0
CIRCLE
  5
325
330
1F
100
AcDbEntity
  8
0
100
AcDbCircle
 10
-321.2690957242804
 20
-76.47100594733749
 30
0.0
 40
0.8500000000000001
  0
CIRCLE
  5
326
330
1F
100
AcDbEntity
  8
0
100
AcDbCircle
 10
-288.5670957242804
 20
-114.5710059473375
 30
0.0
 40
0.8500000000000001
  0
CIRCLE
  5
327
330
1F
100
AcDbEntity
  8
0
100
AcDbCircle
 10
-309.3630957242805
 20
-114.5710059473375
 30
0.0
 40
0.8500000000000001
  0
CIRCLE
  5
328
330
1F
100
AcDbEntity
  8
0
100
AcDbCircle
 10
-278.4070957242804
 20
-114.5710059473376
 30
0.0
 40
0.8500000000000001
  0
CIRCLE
  5
329
330
1F
100
AcDbEntity
  8
0
100
AcDbCircle
 10
-287.2970957242804
 20
-112.0310059473375
 30
0.0
 40
1.475
  0
CIRCLE
  5
330
330
1F
100
AcDbEntity
  8
0
100
AcDbCircle
 10
-283.4870957242804
 20
-114.5710059473376
 30
0.0
 40
1.95
  0
CIRCLE
  5
331
330
1F
100
AcDbEntity
  8
0
100
AcDbCircle
 10
-311.9030957242804
 20
-109.4910059473374
 30
0.0
 40
1.475
  0
CIRCLE
  5
332
330
1F
100
AcDbEntity
  8
0
100
AcDbCircle
 10
-295.7110957242804
 20
-95.52100594733749
 30
0.0
 40
0.8500000000000001
  0
CIRCLE
  5
333
330
1F
100
AcDbEntity
  8
0
100
AcDbCircle
 10
-285.5510957242805
 20
-95.52100594733756
 30
0.0
 40
0.8500000000000001
  0
CIRCLE
  5
334
330
1F
100
AcDbEntity
  8
0
100
AcDbCircle
 10
-280.9470957242804
 20
-109.4910059473376
 30
0.0
 40
1.475
  0
CIRCLE
  5
335
330
1F
100
AcDbEntity
  8
0
100
AcDbCircle
 10
-279.7550957242805
 20
-97.95100594733757
 30
0.0
 40
1.1
  0
CIRCLE
  5
336
330
1F
100
AcDbEntity
  8
0
100
AcDbCircle
 10
-269.5170957242804
 20
-95.52100594733756
 30
0.0
 40
0.8500000000000001
  0
CIRCLE
  5
337
330
1F
100
AcDbEntity
  8
0
100
AcDbCircle
 10
-269.5170957242805
 20
-114.5710059473376
 30
0.0
 40
0.8500000000000001
  0
CIRCLE
  5
338
330
1F
100
AcDbEntity
  8
0
100
AcDbCircle
 10
-264.4370957242805
 20
-114.5710059473376
 30
0.0
 40
1.95
  0
CIRCLE
  5
339
330
1F
100
AcDbEntity
  8
0
100
AcDbCircle
 10
-259.3570957242804
 20
-114.5710059473376
 30
0.0
 40
0.8500000000000001
  0
CIRCLE
  5
340
330
1F
100
AcDbEntity
  8
0
100
AcDbCircle
 10
-250.4670957242804
 20
-114.5710059473376
 30
0.0
 40
0.8500000000000001
  0
CIRCLE
  5
341
330
1F
100
AcDbEntity
  8
0
100
AcDbCircle
 10
-245.3870957242805
 20
-114.5710059473376
 30
0.0
 40
1.95
  0
CIRCLE
  5
342
330
1F
100
AcDbEntity
  8
0
100
AcDbCircle
 10
-268.2470957242805
 20
-112.0310059473375
 30
0.0
 40
1.475
  0
CIRCLE
  5
343
330
1F
100
AcDbEntity
  8
0
100
AcDbCircle
 10
-261.8970957242805
 20
-109.4910059473376
 30
0.0
 40
1.475
  0
CIRCLE
  5
344
330
1F
100
AcDbEntity
  8
0
100
AcDbCircle
 10
-249.1970957242805
 20
-112.0310059473375
 30
0.0
 40
1.475
  0
CIRCLE
  5
345
330
1F
100
AcDbEntity
  8
0
100
AcDbCircle
 10
-240.3070957242804
 20
-114.5710059473376
 30
0.0
 40
0.8500000000000001
  0
CIRCLE
  5
346
330
1F
100
AcDbEntity
  8
0
100
AcDbCircle
 10
-242.8470957242804
 20
-109.4910059473376
 30
0.0
 40
1.475
  0
CIRCLE
  5
347
330
1F
100
AcDbEntity
  8
0
100
AcDbCircle
 10
-240.3070957242803
 20
-95.52100594733762
 30
0.0
 40
0.8500000000000001
  0
CIRCLE
  5
348
330
1F
100
AcDbEntity
  8
0
100
AcDbCircle
 10
-311.7440957242804
 20
-95.52100594733749
 30
0.0
 40
0.8500000000000001
  0
CIRCLE
  5
349
330
1F
100
AcDbEntity
  8
0
100
AcDbCircle
 10
-294.4410957242804
 20
-92.98100594733748
 30
0.0
 40
1.475
  0
CIRCLE
  5
350
330
1F
100
AcDbEntity
  8
0
100
AcDbCircle
 10
-290.6310957242804
 20
-95.52100594733749
 30
0.0
 40
1.95
  0
CIRCLE
  5
351
330
1F
100
AcDbEntity
  8
0
100
AcDbCircle
 10
-288.0910957242804
 20
-90.44100594733757
 30
0.0
 40
1.475
  0
CIRCLE
  5
352
330
1F
100
AcDbEntity
  8
0
100
AcDbCircle
 10
-268.2470957242804
 20
-92.98100594733758
 30
0.0
 40
1.475
  0
CIRCLE
  5
353
330
1F
100
AcDbEntity
  8
0
100
AcDbCircle
 10
-288.2810957242804
 20
-84.72600594733753
 30
0.0
 40
1.993999999999999
  0
CIRCLE
  5
354
330
1F
100
AcDbEntity
  8
0
100
AcDbCircle
 10
-307.2990957242804
 20
-76.47100594733749
 30
0.0
 40
1.95
  0
CIRCLE
  5
355
330
1F
100
AcDbEntity
  8
0
100
AcDbCircle
 10
-302.2190957242804
 20
-76.47100594733749
 30
0.0
 40
0.8500000000000001
  0
CIRCLE
  5
356
330
1F
100
AcDbEntity
  8
0
100
AcDbCircle
 10
-281.4230957242804
 20
-76.47100594733754
 30
0.0
 40
0.8500000000000001
  0
CIRCLE
  5
357
330
1F
100
AcDbEntity
  8
0
100
AcDbCircle
 10
-276.3430957242804
 20
-76.47100594733754
 30
0.0
 40
1.95
  0
CIRCLE
  5
358
330
1F
100
AcDbEntity
  8
0
100
AcDbCircle
 10
-271.2630957242804
 20
-76.47100594733754
 30
0.0
 40
0.8500000000000001
  0
CIRCLE
  5
359
330
1F
100
AcDbEntity
  8
0
100
AcDbCircle
 10
-250.4670957242804
 20
-95.52100594733756
 30
0.0
 40
0.8500000000000001
  0
CIRCLE
  5
360
330
1F
100
AcDbEntity
  8
0
100
AcDbCircle
 10
-264.4370957242804
 20
-95.52100594733756
 30
0.0
 40
1.95
  0
CIRCLE
  5
361
330
1F
100
AcDbEntity
  8
0
100
AcDbCircle
 10
-259.3570957242804
 20
-95.52100594733756
 30
0.0
 40
0.8500000000000001
  0
CIRCLE
  5
362
330
1F
100
AcDbEntity
  8
0
100
AcDbCircle
 10
-245.3870957242804
 20
-95.52100594733762
 30
0.0
 40
1.95
  0
CIRCLE
  5
363
330
1F
100
AcDbEntity
  8
0
100
AcDbCircle
 10
-249.1970957242804
 20
-92.98100594733758
 30
0.0
 40
1.475
  0
CIRCLE
  5
364
330
1F
100
AcDbEntity
  8
0
100
AcDbCircle
 10
-242.8470957242804
 20
-90.44100594733762
 30
0.0
 40
1.475
  0
CIRCLE
  5
365
330
1F
100
AcDbEntity
  8
0
100
AcDbCircle
 10
-261.8970957242804
 20
-90.44100594733757
 30
0.0
 40
1.475
  0
CIRCLE
  5
366
330
1F
100
AcDbEntity
  8
0
100
AcDbCircle
 10
-264.4050957242803
 20
-84.72600594733753
 30
0.0
 40
1.993999999999999
  0
CIRCLE
  5
367
330
1F
100
AcDbEntity
  8
0
100
AcDbCircle
 10
-250.4670957242804
 20
-76.47100594733754
 30
0.0
 40
0.8500000000000001
  0
CIRCLE
  5
368
330
1F
100
AcDbEntity
  8
0
100
AcDbCircle
 10
-240.3070957242803
 20
-76.4710059473376
 30
0.0
 40
0.8500000000000001
  0
CIRCLE
  5
369
330
1F
100
AcDbEntity
  8
0
100
AcDbCircle
 10
-249.1970957242804
 20
-73.93100594733758
 30
0.0
 40
1.475
  0
CIRCLE
  5
370
330
1F
100
AcDbEntity
  8
0
100
AcDbCircle
 10
-245.3870957242804
 20
-76.4710059473376
 30
0.0
 40
1.95
  0
CIRCLE
  5
371
330
1F
100
AcDbEntity
  8
0
100
AcDbCircle
 10
-387.3090957242804
 20
-73.93100594733741
 30
0.0
 40
1.475
  0
CIRCLE
  5
372
330
1F
100
AcDbEntity
  8
0
100
AcDbCircle
 10
-380.9590957242804
 20
-71.39100594733739
 30
0.0
 40
1.475
  0
CIRCLE
  5
373
330
1F
100
AcDbEntity
  8
0
100
AcDbCircle
 10
-361.9090957242804
 20
-71.39100594733744
 30
0.0
 40
1.475
  0
CIRCLE
  5
374
330
1F
100
AcDbEntity
  8
0
100
AcDbCircle
 10
-369.2120957242803
 20
-57.42100594733748
 30
0.0
 40
1.95
  0
CIRCLE
  5
375
330
1F
100
AcDbEntity
  8
0
100
AcDbCircle
 10
-350.1620957242803
 20
-57.42100594733748
 30
0.0
 40
1.95
  0
CIRCLE
  5
376
330
1F
100
AcDbEntity
  8
0
100
AcDbCircle
 10
-383.1820957242804
 20
-57.42100594733742
 30
0.0
 40
0.8500000000000001
  0
CIRCLE
  5
377
330
1F
100
AcDbEntity
  8
0
100
AcDbCircle
 10
-374.2920957242804
 20
-57.42100594733742
 30
0.0
 40
0.8500000000000001
  0
CIRCLE
  5
378
330
1F
100
AcDbEntity
  8
0
100
AcDbCircle
 10
-373.0220957242803
 20
-54.8810059473374
 30
0.0
 40
1.475
  0
CIRCLE
  5
379
330
1F
100
AcDbEntity
  8
0
100
AcDbCircle
 10
-364.1320957242804
 20
-57.42100594733748
 30
0.0
 40
0.8500000000000001
  0
CIRCLE
  5
380
330
1F
100
AcDbEntity
  8
0
100
AcDbCircle
 10
-355.2420957242804
 20
-57.42100594733748
 30
0.0
 40
0.8500000000000001
  0
CIRCLE
  5
381
330
1F
100
AcDbEntity
  8
0
100
AcDbCircle
 10
-353.9720957242803
 20
-54.88100594733746
 30
0.0
 40
1.475
  0
CIRCLE
  5
382
330
1F
100
AcDbEntity
  8
0
100
AcDbCircle
 10
-342.8590957242803
 20
-71.39100594733744
 30
0.0
 40
1.475
  0
CIRCLE
  5
383
330
1F
100
AcDbEntity
  8
0
100
AcDbCircle
 10
-336.1920957242804
 20
-57.42100594733748
 30
0.0
 40
0.8500000000000001
  0
CIRCLE
  5
384
330
1F
100
AcDbEntity
  8
0
100
AcDbCircle
 10
-323.8090957242804
 20
-71.39100594733751
 30
0.0
 40
1.475
  0
CIRCLE
  5
385
330
1F
100
AcDbEntity
  8
0
100
AcDbCircle
 10
-331.1120957242804
 20
-57.42100594733748
 30
0.0
 40
1.95
  0
CIRCLE
  5
386
330
1F
100
AcDbEntity
  8
0
100
AcDbCircle
 10
-317.1420957242804
 20
-57.42100594733753
 30
0.0
 40
0.8500000000000001
  0
CIRCLE
  5
387
330
1F
100
AcDbEntity
  8
0
100
AcDbCircle
 10
-345.0820957242804
 20
-57.42100594733748
 30
0.0
 40
0.8500000000000001
  0
CIRCLE
  5
388
330
1F
100
AcDbEntity
  8
0
100
AcDbCircle
 10
-347.6220957242804
 20
-52.34100594733743
 30
0.0
 40
1.475
  0
CIRCLE
  5
389
330
1F
100
AcDbEntity
  8
0
100
AcDbCircle
 10
-334.9220957242804
 20
-54.88100594733746
 30
0.0
 40
1.475
  0
CIRCLE
  5
390
330
1F
100
AcDbEntity
  8
0
100
AcDbCircle
 10
-326.0320957242803
 20
-57.42100594733753
 30
0.0
 40
0.8500000000000001
  0
CIRCLE
  5
391
330
1F
100
AcDbEntity
  8
0
100
AcDbCircle
 10
-328.5720957242804
 20
-52.3410059473375
 30
0.0
 40
1.475
  0
CIRCLE
  5
392
330
1F
100
AcDbEntity
  8
0
100
AcDbCircle
 10
-315.8720957242804
 20
-54.88100594733751
 30
0.0
 40
1.475
  0
CIRCLE
  5
393
330
1F
100
AcDbEntity
  8
0
100
AcDbCircle
 10
-385.7220957242804
 20
-52.34100594733738
 30
0.0
 40
1.475
  0
CIRCLE
  5
394
330
1F
100
AcDbEntity
  8
0
100
AcDbCircle
 10
-383.8170957242803
 20
-38.37100594733741
 30
0.0
 40
0.8500000000000001
  0
CIRCLE
  5
395
330
1F
100
AcDbEntity
  8
0
100
AcDbCircle
 10
-366.6720957242804
 20
-52.34100594733743
 30
0.0
 40
1.475
  0
CIRCLE
  5
396
330
1F
100
AcDbEntity
  8
0
100
AcDbCircle
 10
-378.7370957242804
 20
-38.37100594733744
 30
0.0
 40
1.95
  0
CIRCLE
  5
397
330
1F
100
AcDbEntity
  8
0
100
AcDbCircle
 10
-359.6870957242803
 20
-38.37100594733747
 30
0.0
 40
1.95
  0
CIRCLE
  5
398
330
1F
100
AcDbEntity
  8
0
100
AcDbCircle
 10
-373.6570957242804
 20
-38.37100594733744
 30
0.0
 40
0.8500000000000001
  0
CIRCLE
  5
399
330
1F
100
AcDbEntity
  8
0
100
AcDbCircle
 10
-382.5470957242803
 20
-35.83100594733739
 30
0.0
 40
1.475
  0
CIRCLE
  5
400
330
1F
100
AcDbEntity
  8
0
100
AcDbCircle
 10
-376.1970957242803
 20
-33.2910059473374
 30
0.0
 40
1.475
  0
CIRCLE
  5
401
330
1F
100
AcDbEntity
  8
0
100
AcDbCircle
 10
-364.7670957242803
 20
-38.37100594733744
 30
0.0
 40
0.8500000000000001
  0
CIRCLE
  5
402
330
1F
100
AcDbEntity
  8
0
100
AcDbCircle
 10
-363.4970957242803
 20
-35.83100594733742
 30
0.0
 40
1.475
  0
CIRCLE
  5
403
330
1F
100
AcDbEntity
  8
0
100
AcDbCircle
 10
-357.1470957242803
 20
-33.29100594733743
 30
0.0
 40
1.475
  0
CIRCLE
  5
404
330
1F
100
AcDbEntity
  8
0
100
AcDbCircle
 10
-354.6070957242804
 20
-38.37100594733747
 30
0.0
 40
0.8500000000000001
  0
CIRCLE
  5
405
330
1F
100
AcDbEntity
  8
0
100
AcDbCircle
 10
-345.7170957242803
 20
-38.37100594733747
 30
0.0
 40
0.8500000000000001
  0
CIRCLE
  5
406
330
1F
100
AcDbEntity
  8
0
100
AcDbCircle
 10
-340.6370957242804
 20
-38.37100594733747
 30
0.0
 40
1.95
  0
CIRCLE
  5
407
330
1F
100
AcDbEntity
  8
0
100
AcDbCircle
 10
-331.1900957242804
 20
-47.27800594733745
 30
0.0
 40
1.1
  0
CIRCLE
  5
408
330
1F
100
AcDbEntity
  8
0
100
AcDbCircle
 10
-335.5570957242803
 20
-38.3710059473375
 30
0.0
 40
0.8500000000000001
  0
CIRCLE
  5
409
330
1F
100
AcDbEntity
  8
0
100
AcDbCircle
 10
-321.5870957242803
 20
-38.3710059473375
 30
0.0
 40
1.95
  0
CIRCLE
  5
410
330
1F
100
AcDbEntity
  8
0
100
AcDbCircle
 10
-326.6670957242804
 20
-38.3710059473375
 30
0.0
 40
0.8500000000000001
  0
CIRCLE
  5
411
330
1F
100
AcDbEntity
  8
0
100
AcDbCircle
 10
-344.4470957242804
 20
-35.83100594733745
 30
0.0
 40
1.475
  0
CIRCLE
  5
412
330
1F
100
AcDbEntity
  8
0
100
AcDbCircle
 10
-338.0970957242803
 20
-33.29100594733745
 30
0.0
 40
1.475
  0
CIRCLE
  5
413
330
1F
100
AcDbEntity
  8
0
100
AcDbCircle
 10
-316.5070957242803
 20
-38.37100594733752
 30
0.0
 40
0.8500000000000001
  0
CIRCLE
  5
414
330
1F
100
AcDbEntity
  8
0
100
AcDbCircle
 10
-325.3970957242803
 20
-35.83100594733747
 30
0.0
 40
1.475
  0
CIRCLE
  5
415
330
1F
100
AcDbEntity
  8
0
100
AcDbCircle
 10
-319.0470957242803
 20
-33.29100594733745
 30
0.0
 40
1.475
  0
CIRCLE
  5
416
330
1F
100
AcDbEntity
  8
0
100
AcDbCircle
 10
-311.1090957242804
 20
-73.93100594733752
 30
0.0
 40
1.475
  0
CIRCLE
  5
417
330
1F
100
AcDbEntity
  8
0
100
AcDbCircle
 10
-304.7590957242804
 20
-71.39100594733751
 30
0.0
 40
1.475
  0
CIRCLE
  5
418
330
1F
100
AcDbEntity
  8
0
100
AcDbCircle
 10
-280.1530957242803
 20
-73.93100594733758
 30
0.0
 40
1.475
  0
CIRCLE
  5
419
330
1F
100
AcDbEntity
  8
0
100
AcDbCircle
 10
-288.2810957242804
 20
-69.48600594733753
 30
0.0
 40
1.524
  0
CIRCLE
  5
420
330
1F
100
AcDbEntity
  8
0
100
AcDbCircle
 10
-273.8030957242804
 20
-71.39100594733756
 30
0.0
 40
1.475
  0
CIRCLE
  5
421
330
1F
100
AcDbEntity
  8
0
100
AcDbCircle
 10
-298.0920957242804
 20
-57.42100594733753
 30
0.0
 40
0.8500000000000001
  0
CIRCLE
  5
422
330
1F
100
AcDbEntity
  8
0
100
AcDbCircle
 10
-312.0620957242804
 20
-57.42100594733753
 30
0.0
 40
1.95
  0
CIRCLE
  5
423
330
1F
100
AcDbEntity
  8
0
100
AcDbCircle
 10
-306.9820957242803
 20
-57.42100594733753
 30
0.0
 40
0.8500000000000001
  0
CIRCLE
  5
424
330
1F
100
AcDbEntity
  8
0
100
AcDbCircle
 10
-287.9320957242804
 20
-57.42100594733759
 30
0.0
 40
0.8500000000000001
  0
CIRCLE
  5
425
330
1F
100
AcDbEntity
  8
0
100
AcDbCircle
 10
-296.8220957242804
 20
-54.88100594733751
 30
0.0
 40
1.475
  0
CIRCLE
  5
426
330
1F
100
AcDbEntity
  8
0
100
AcDbCircle
 10
-293.0120957242804
 20
-57.42100594733753
 30
0.0
 40
1.95
  0
CIRCLE
  5
427
330
1F
100
AcDbEntity
  8
0
100
AcDbCircle
 10
-264.1190957242804
 20
-57.42100594733759
 30
0.0
 40
0.8500000000000001
  0
CIRCLE
  5
428
330
1F
100
AcDbEntity
  8
0
100
AcDbCircle
 10
-269.1990957242804
 20
-57.42100594733759
 30
0.0
 40
1.95
  0
CIRCLE
  5
429
330
1F
100
AcDbEntity
  8
0
100
AcDbCircle
 10
-242.8470957242804
 20
-71.39100594733761
 30
0.0
 40
1.475
  0
CIRCLE
  5
430
330
1F
100
AcDbEntity
  8
0
100
AcDbCircle
 10
-264.4050957242803
 20
-69.48600594733753
 30
0.0
 40
1.524
  0
CIRCLE
  5
431
330
1F
100
AcDbEntity
  8
0
100
AcDbCircle
 10
-245.3870957242804
 20
-57.42100594733765
 30
0.0
 40
1.95
  0
CIRCLE
  5
432
330
1F
100
AcDbEntity
  8
0
100
AcDbCircle
 10
-274.2790957242804
 20
-57.42100594733759
 30
0.0
 40
0.8500000000000001
  0
CIRCLE
  5
433
330
1F
100
AcDbEntity
  8
0
100
AcDbCircle
 10
-273.0090957242804
 20
-54.88100594733757
 30
0.0
 40
1.475
  0
CIRCLE
  5
434
330
1F
100
AcDbEntity
  8
0
100
AcDbCircle
 10
-257.2930957242804
 20
-52.23100594733754
 30
0.0
 40
1.1
  0
CIRCLE
  5
435
330
1F
100
AcDbEntity
  8
0
100
AcDbCircle
 10
-250.4670957242803
 20
-57.42100594733759
 30
0.0
 40
0.8500000000000001
  0
CIRCLE
  5
436
330
1F
100
AcDbEntity
  8
0
100
AcDbCircle
 10
-249.1970957242804
 20
-54.88100594733757
 30
0.0
 40
1.475
  0
CIRCLE
  5
437
330
1F
100
AcDbEntity
  8
0
100
AcDbCircle
 10
-240.3070957242803
 20
-57.42100594733765
 30
0.0
 40
0.8500000000000001
  0
CIRCLE
  5
438
330
1F
100
AcDbEntity
  8
0
100
AcDbCircle
 10
-309.5220957242803
 20
-52.3410059473375
 30
0.0
 40
1.475
  0
CIRCLE
  5
439
330
1F
100
AcDbEntity
  8
0
100
AcDbCircle
 10
-307.6170957242803
 20
-38.37100594733752
 30
0.0
 40
0.8500000000000001
  0
CIRCLE
  5
440
330
1F
100
AcDbEntity
  8
0
100
AcDbCircle
 10
-290.4720957242803
 20
-52.3410059473375
 30
0.0
 40
1.475
  0
CIRCLE
  5
441
330
1F
100
AcDbEntity
  8
0
100
AcDbCircle
 10
-302.5370957242803
 20
-38.37100594733752
 30
0.0
 40
1.95
  0
CIRCLE
  5
442
330
1F
100
AcDbEntity
  8
0
100
AcDbCircle
 10
-285.9000957242803
 20
-46.62600594733754
 30
0.0
 40
1.993999999999999
  0
CIRCLE
  5
443
330
1F
100
AcDbEntity
  8
0
100
AcDbCircle
 10
-297.4570957242804
 20
-38.37100594733755
 30
0.0
 40
0.8500000000000001
  0
CIRCLE
  5
444
330
1F
100
AcDbEntity
  8
0
100
AcDbCircle
 10
-306.3470957242803
 20
-35.8310059473375
 30
0.0
 40
1.475
  0
CIRCLE
  5
445
330
1F
100
AcDbEntity
  8
0
100
AcDbCircle
 10
-299.9970957242804
 20
-33.29100594733748
 30
0.0
 40
1.475
  0
CIRCLE
  5
446
330
1F
100
AcDbEntity
  8
0
100
AcDbCircle
 10
-279.0420957242803
 20
-38.37100594733755
 30
0.0
 40
0.8500000000000001
  0
CIRCLE
  5
447
330
1F
100
AcDbEntity
  8
0
100
AcDbCircle
 10
-285.9000957242803
 20
-31.38600594733754
 30
0.0
 40
1.524
  0
CIRCLE
  5
448
330
1F
100
AcDbEntity
  8
0
100
AcDbCircle
 10
-277.7720957242804
 20
-35.83100594733756
 30
0.0
 40
1.475
  0
CIRCLE
  5
449
330
1F
100
AcDbEntity
  8
0
100
AcDbCircle
 10
-266.6590957242803
 20
-52.34100594733755
 30
0.0
 40
1.475
  0
CIRCLE
  5
450
330
1F
100
AcDbEntity
  8
0
100
AcDbCircle
 10
-273.9620957242804
 20
-38.37100594733758
 30
0.0
 40
1.95
  0
CIRCLE
  5
451
330
1F
100
AcDbEntity
  8
0
100
AcDbCircle
 10
-268.8820957242803
 20
-38.37100594733758
 30
0.0
 40
0.8500000000000001
  0
CIRCLE
  5
452
330
1F
100
AcDbEntity
  8
0
100
AcDbCircle
 10
-242.8470957242803
 20
-52.3410059473376
 30
0.0
 40
1.475
  0
CIRCLE
  5
453
330
1F
100
AcDbEntity
  8
0
100
AcDbCircle
 10
-262.0240957242804
 20
-46.62600594733757
 30
0.0
 40
1.993999999999999
  0
CIRCLE
  5
454
330
1F
100
AcDbEntity
  8
0
100
AcDbCircle
 10
-245.3870957242803
 20
-38.37100594733761
 30
0.0
 40
1.95
  0
CIRCLE
  5
455
330
1F
100
AcDbEntity
  8
0
100
AcDbCircle
 10
-250.4670957242803
 20
-38.37100594733761
 30
0.0
 40
0.8500000000000001
  0
CIRCLE
  5
456
330
1F
100
AcDbEntity
  8
0
100
AcDbCircle
 10
-271.4220957242803
 20
-33.29100594733754
 30
0.0
 40
1.475
  0
CIRCLE
  5
457
330
1F
100
AcDbEntity
  8
0
100
AcDbCircle
 10
-262.0240957242804
 20
-31.38600594733757
 30
0.0
 40
1.524
  0
CIRCLE
  5
458
330
1F
100
AcDbEntity
  8
0
100
AcDbCircle
 10
-240.3070957242803
 20
-38.37100594733761
 30
0.0
 40
0.8500000000000001
  0
CIRCLE
  5
459
330
1F
100
AcDbEntity
  8
0
100
AcDbCircle
 10
-249.1970957242803
 20
-35.83100594733759
 30
0.0
 40
1.475
  0
CIRCLE
  5
460
330
1F
100
AcDbEntity
  8
0
100
AcDbCircle
 10
-242.8470957242803
 20
-33.29100594733757
 30
0.0
 40
1.475
  0
CIRCLE
  5
461
330
1F
100
AcDbEntity
  8
0
100
AcDbCircle
 10
-385.5460957242805
 20
-115.8580059473373
 30
0.0
 40
1.1
  0
CIRCLE
  5
462
330
1F
100
AcDbEntity
  8
0
100
AcDbCircle
 10
-514.4680957242804
 20
-52.73900594733723
 30
0.0
 40
1.1
  0
CIRCLE
  5
463
330
1F
100
AcDbEntity
  8
0
100
AcDbCircle
 10
-491.8450957242804
 20
-105.5710059473373
 30
0.0
 40
1.1
  0
CIRCLE
  5
464
330
1F
100
AcDbEntity
  8
0
100
AcDbCircle
 10
-279.7550957242805
 20
-97.95100594733757
 30
0.0
 40
1.1
  0
CIRCLE
  5
465
330
1F
100
AcDbEntity
  8
0
100
AcDbCircle
 10
-331.1900957242804
 20
-47.27800594733745
 30
0.0
 40
1.1
  0
CIRCLE
  5
466
330
1F
100
AcDbEntity
  8
0
100
AcDbCircle
 10
-397.8740957242804
 20
-66.34200594733741
 30
0.0
 40
1.1
  0
CIRCLE
  5
467
330
1F
100
AcDbEntity
  8
0
100
AcDbCircle
 10
-445.4900957242804
 20
-47.27800594733733
 30
0.0
 40
1.1
  0
CIRCLE
  5
468
330
1F
100
AcDbEntity
  8
0
100
AcDbCircle
 10
-257.2930957242804
 20
-52.23100594733754
 30
0.0
 40
1.1
  0
LINE
  5
469
330
1F
100
AcDbEntity
  8
0
100
AcDbLine
 10
-540.1370958310923
 20
-31.62100680183718
 30
0.0
 11
-540.1370958310924
 21
-121.3210056574201
 31
0.0
  0
LINE
  5
470
330
1F
100
AcDbEntity
  8
0
100
AcDbLine
 10
-525.7350973111942
 20
-29.37100680183718
 30
0.0
 11
-537.8870939237433
 21
-29.37100680183718
 31
0.0
  0
LINE
  5
471
330
1F
100
AcDbEntity
  8
0
100
AcDbLine
 10
-537.8870939237434
 20
-123.5710056574201
 30
0.0
 11
-525.7350973111945
 21
-123.5710056574202
 31
0.0
  0
ARC
  5
472
330
1F
100
AcDbEntity
  8
0
100
AcDbCircle
 10
-537.8871277383784
 20
-121.3210375647341
 30
0.0
 40
2.249968092940243
100
AcDbArc
 50
179.9991874752342
 51
270.0008610948211
  0
ARC
  5
473
330
1F
100
AcDbEntity
  8
0
100
AcDbCircle
 10
-537.8871342502223
 20
-31.62096838266717
 30
0.0
 40
2.249961581191389
100
AcDbArc
 50
89.99897307710829
 51
180.0009783523315
  0
LINE
  5
474
330
1F
100
AcDbEntity
  8
0
100
AcDbLine
 10
-250.7890981656905
 20
-123.5710056574205
 30
0.0
 11
-238.6370901090505
 21
-123.5710056574206
 31
0.0
  0
ARC
  5
475
330
1F
100
AcDbEntity
  8
0
100
AcDbCircle
 10
-238.6370516898604
 20
-121.3210440766086
 30
0.0
 40
2.249961581140014
100
AcDbArc
 50
269.9990216466523
 51
0.0009783530741347
  0
LINE
  5
476
330
1F
100
AcDbEntity
  8
0
100
AcDbLine
 10
-236.3870901090484
 20
-121.3210056574206
 30
0.0
 11
-236.3870901090503
 21
-31.62100680183764
 31
0.0
  0
ARC
  5
477
330
1F
100
AcDbEntity
  8
0
100
AcDbCircle
 10
-238.6370451780603
 20
-31.6209618708476
 30
0.0
 40
2.249955069458657
100
AcDbArc
 50
359.9988558190767
 51
90.0011441811122
  0
LINE
  5
478
330
1F
100
AcDbEntity
  8
0
100
AcDbLine
 10
-238.6370901090503
 20
-29.37100680183625
 30
0.0
 11
-250.7890981656903
 21
-29.37100680183761
 31
0.0
  0
LINE
  5
479
330
1F
100
AcDbEntity
  8
0
100
AcDbLine
 10
-525.7350973111942
 20
-29.37100680182965
 30
0.0
 11
-525.73219260858
 21
-29.37100680182965
 31
0.0
  0
LINE
  5
480
330
1F
100
AcDbEntity
  8
0
100
AcDbLine
 10
-525.7350973111945
 20
-123.5710056574202
 30
0.0
 11
-525.7321693333771
 21
-123.5710056574202
 31
0.0
  0
LINE
  5
1005B
330
1F
100
AcDbEntity
  8
0
100
AcDbLine
 10
-346.0420028682137
 20
-29.37100680183485
 30
0.0
 11
-259.032165211162
 21
-29.37100680183736
 31
0.0
  0
LINE
  5
1005E
330
1F
100
AcDbEntity
  8
0
100
AcDbLine
 10
-441.2920028655354
 20
-29.37100680183212
 30
0.0
 11
-411.4321895591208
 21
-29.37100680183298
 31
0.0
  0
LINE
  5
1005F
330
1F
100
AcDbEntity
  8
0
100
AcDbLine
 10
-484.1540256558633
 20
-123.5710056574204
 30
0.0
 11
-354.2821723854338
 21
-123.5710056574208
 31
0.0
  0
LINE
  5
10060
330
1F
100
AcDbEntity
  8
0
100
AcDbLine
 10
-346.0420261410726
 20
-123.5710056574209
 30
0.0
 11
-346.0390981682494
 21
-123.5710056574209
 31
0.0
  0
LINE
  5
10061
330
1F
100
AcDbEntity
  8
0
100
AcDbLine
 10
-322.229022600983
 20
-123.571005657421
 30
0.0
 11
-305.3120316156683
 21
-123.571005657421
 31
0.0
  0
LINE
  5
10062
330
1F
100
AcDbEntity
  8
0
100
AcDbLine
 10
-269.8390859624568
 20
-123.5710056574212
 30
0.0
 11
-259.0321419462452
 21
-123.5710056574212
 31
0.0
  0
LINE
  5
10063
330
1F
100
AcDbEntity
  8
0
100
AcDbLine
 10
-290.2371734856702
 20
-123.571005657421
 30
0.0
 11
-278.0821906188177
 21
-123.5710056574212
 31
0.0
  0
ENDSEC
  0
SECTION
  2
OBJECTS
  0
DICTIONARY
  5
C
330
0
100
AcDbDictionary
281
     1
  3
ACAD_CIP_PREVIOUS_PRODUCT_INFO
350
1005A
  3
ACAD_COLOR
350
10036
  3
ACAD_DETAILVIEWSTYLE
350
10051
  3
ACAD_GROUP
350
D
  3
ACAD_LAYOUT
350
10037
  3
ACAD_MATERIAL
350
10004
  3
ACAD_MLEADERSTYLE
350
1004D
  3
ACAD_MLINESTYLE
350
17
  3
ACAD_PLOTSETTINGS
350
10054
  3
ACAD_PLOTSTYLENAME
350
10002
  3
ACAD_SCALELIST
350
1003B
  3
ACAD_SECTIONVIEWSTYLE
350
1004F
  3
ACAD_TABLESTYLE
350
10038
  3
ACAD_VISUALSTYLE
350
1001D
  3
ACDB_RECOMPOSE_DATA
350
10072
  3
AcDbVariableDictionary
350
10066
  0
DICTIONARY
  5
10064
330
50
100
AcDbDictionary
280
     1
281
     1
  3
ADSK_XREC_LAYER_RECONCILED
360
10065
  0
DICTIONARY
  5
1005C
330
1F
100
AcDbDictionary
280
     1
281
     1
  3
ACAD_SORTENTS
360
1005D
  0
XRECORD
  5
1005A
102
{ACAD_REACTORS
330
C
102
}
330
C
100
AcDbXrecord
280
     1
300

300

300

  0
DICTIONARY
  5
10036
102
{ACAD_REACTORS
330
C
102
}
330
C
100
AcDbDictionary
281
     1
  0
DICTIONARY
  5
10051
102
{ACAD_REACTORS
330
C
102
}
330
C
100
AcDbDictionary
281
     1
  3
Imperial24
350
10052
  0
DICTIONARY
  5
D
330
C
100
AcDbDictionary
281
     1
  0
DICTIONARY
  5
10037
102
{ACAD_REACTORS
330
C
102
}
330
C
100
AcDbDictionary
281
     1
  3
Layout1
350
10056
  3
Model
350
10055
  0
DICTIONARY
  5
10004
102
{ACAD_REACTORS
330
C
102
}
330
C
100
AcDbDictionary
281
     1
  3
ByBlock
350
1000D
  3
ByLayer
350
10005
  3
Global
350
10015
  0
DICTIONARY
  5
1004D
102
{ACAD_REACTORS
330
C
102
}
330
C
100
AcDbDictionary
281
     1
  3
Standard
350
1004E
  0
DICTIONARY
  5
17
330
C
100
AcDbDictionary
281
     1
  3
Standard
350
1003A
  0
DICTIONARY
  5
10054
102
{ACAD_REACTORS
330
C
102
}
330
C
100
AcDbDictionary
281
     1
  0
ACDBDICTIONARYWDFLT
  5
10002
102
{ACAD_REACTORS
330
C
102
}
330
C
100
AcDbDictionary
281
     1
  3
Normal
350
10003
100
AcDbDictionaryWithDefault
340
10003
  0
DICTIONARY
  5
1003B
102
{ACAD_REACTORS
330
C
102
}
330
C
100
AcDbDictionary
281
     1
  3
A0
350
1003C
  3
A1
350
1003D
  3
A2
350
1003E
  3
A3
350
1003F
  3
A4
350
10040
  3
A5
350
10041
  3
A6
350
10042
  3
A7
350
10043
  3
A8
350
10044
  3
A9
350
10045
  3
B0
350
10046
  3
B1
350
10047
  3
B2
350
10048
  3
B3
350
10049
  3
B4
350
1004A
  3
B5
350
1004B
  3
B6
350
1004C
  0
DICTIONARY
  5
1004F
102
{ACAD_REACTORS
330
C
102
}
330
C
100
AcDbDictionary
281
     1
  3
Imperial24
350
10050
  0
DICTIONARY
  5
10038
102
{ACAD_REACTORS
330
C
102
}
330
C
100
AcDbDictionary
281
     1
  3
Standard
350
10039
  0
DICTIONARY
  5
1001D
102
{ACAD_REACTORS
330
C
102
}
330
C
100
AcDbDictionary
281
     1
  3
2dWireframe
350
10023
  3
Basic
350
10022
  3
Brighten
350
10029
  3
ColorChange
350
1002D
  3
Conceptual
350
10026
  3
Dim
350
10028
  3
EdgeColorOff
350
10035
  3
Facepattern
350
1002C
  3
Flat
350
1001E
  3
FlatWithEdges
350
1001F
  3
Gouraud
350
10020
  3
GouraudWithEdges
350
10021
  3
Hidden
350
10025
  3
JitterOff
350
10033
  3
Linepattern
350
1002B
  3
OverhangOff
350
10034
  3
Realistic
350
10027
  3
Shaded
350
10032
  3
Shaded with edges
350
10031
  3
Shades of Gray
350
1002E
  3
Sketchy
350
1002F
  3
Thicken
350
1002A
  3
Wireframe
350
10024
  3
X-Ray
350
10030
  0
XRECORD
  5
10072
102
{ACAD_REACTORS
330
C
102
}
330
C
100
AcDbXrecord
280
     1
 90
        1
330
10039
  0
DICTIONARY
  5
10066
102
{ACAD_REACTORS
330
C
102
}
330
C
100
AcDbDictionary
281
     1
  3
CANNOSCALE
350
1006C
  3
CMLEADERSTYLE
350
10068
  3
CTABLESTYLE
350
10067
  3
CVIEWDETAILSTYLE
350
10069
  3
CVIEWSECTIONSTYLE
350
1006A
  3
LAYEREVAL
350
1006E
  3
LAYERNOTIFY
350
1006F
  3
LIGHTINGUNITS
350
1006D
  3
MSLTSCALE
350
1006B
  0
XRECORD
  5
10065
102
{ACAD_REACTORS
330
10064
102
}
330
10064
100
AcDbXrecord
280
     1
290
     1
  0
SORTENTSTABLE
  5
1005D
102
{ACAD_REACTORS
330
1005C
102
}
330
1005C
100
AcDbSortentsTable
330
1F
331
480
  5
1005E
331
1005E
  5
480
331
10062
  5
10063
331
10063
  5
10062
  0
ACDBDETAILVIEWSTYLE
  5
10052
102
{ACAD_REACTORS
330
10051
102
}
330
10051
100
AcDbModelDocViewStyle
 70
     0
  3
Imperial24
290
     0
300
Imperial24
 90
        0
100
AcDbDetailViewStyle
 70
     0
 71
     0
 90
        3
 71
     1
340
11
 62
   256
 40
0.24
340
0
 62
   256
 40
0.24
300

 40
0.36
280
     3
 71
     2
340
0
 90
       25
 62
   256
 71
     3
340
11
 62
   256
 40
0.24
 90
        1
 40
0.75
 90
        1
300
%<\AcVar ViewType \f "%tc1">% %<\AcVar ViewDetailId>%\PSCALE %<\AcVar ViewScale \f "%sn">%
 71
     4
340
0
 90
       25
 62
   256
340
0
 90
       25
 62
   256
280
     0
  0
LAYOUT
  5
10056
102
{ACAD_REACTORS
330
10037
102
}
330
10037
100
AcDbPlotSettings
  1

  2
Microsoft Print to PDF
  4

  6

 40
0.0
 41
0.0
 42
0.0
 43
0.0
 44
0.0
 45
0.0
 46
0.0
 47
0.0
 48
0.0
 49
0.0
140
0.0
141
0.0
142
1.0
143
1.0
 70
   688
 72
     0
 73
     0
 74
     5
  7

 75
    16
147
1.0
 76
     0
 77
     2
 78
   300
148
0.0
149
0.0
100
AcDbLayout
  1
Layout1
 70
     1
 71
     1
 10
0.0
 20
0.0
 11
12.0
 21
9.0
 12
0.0
 22
0.0
 32
0.0
 14
1.000000000000000E+20
 24
1.000000000000000E+20
 34
1.000000000000000E+20
 15
-1.000000000000000E+20
 25
-1.000000000000000E+20
 35
-1.000000000000000E+20
146
0.0
 13
0.0
 23
0.0
 33
0.0
 16
1.0
 26
0.0
 36
0.0
 17
0.0
 27
1.0
 37
0.0
 76
     0
330
1B
  0
LAYOUT
  5
10055
102
{ACAD_REACTORS
330
10037
102
}
330
10037
100
AcDbPlotSettings
  1

  2
Microsoft Print to PDF
  4

  6

 40
0.0
 41
0.0
 42
0.0
 43
0.0
 44
0.0
 45
0.0
 46
0.0
 47
0.0
 48
0.0
 49
0.0
140
0.0
141
0.0
142
1.0
143
1.0
 70
  1712
 72
     0
 73
     0
 74
     0
  7

 75
     0
147
1.0
 76
     0
 77
     2
 78
   300
148
0.0
149
0.0
100
AcDbLayout
  1
Model
 70
     1
 71
     0
 10
0.0
 20
0.0
 11
12.0
 21
9.0
 12
0.0
 22
0.0
 32
0.0
 14
0.0
 24
0.0
 34
0.0
 15
0.0
 25
0.0
 35
0.0
146
0.0
 13
0.0
 23
0.0
 33
0.0
 16
1.0
 26
0.0
 36
0.0
 17
0.0
 27
1.0
 37
0.0
 76
     0
330
1F
331
10059
  0
MATERIAL
  5
1000D
102
{ACAD_XDICTIONARY
360
1000E
102
}
102
{ACAD_REACTORS
330
10004
102
}
330
10004
100
AcDbMaterial
  1
ByBlock
 72
     0
 43
0.0008202099737533
 43
0.0
 43
0.0
 43
0.0
 43
0.0
 43
0.0008202099737533
 43
0.0
 43
0.0
 43
0.0
 43
0.0
 43
1.0
 43
0.0
 43
0.0
 43
0.0
 43
0.0
 43
1.0
 77
     0
 47
0.0008202099737533
 47
0.0
 47
0.0
 47
0.0
 47
0.0
 47
0.0008202099737533
 47
0.0
 47
0.0
 47
0.0
 47
0.0
 47
1.0
 47
0.0
 47
0.0
 47
0.0
 47
0.0
 47
1.0
171
     0
 49
0.0008202099737533
 49
0.0
 49
0.0
 49
0.0
 49
0.0
 49
0.0008202099737533
 49
0.0
 49
0.0
 49
0.0
 49
0.0
 49
1.0
 49
0.0
 49
0.0
 49
0.0
 49
0.0
 49
1.0
175
     0
142
0.0008202099737533
142
0.0
142
0.0
142
0.0
142
0.0
142
0.0008202099737533
142
0.0
142
0.0
142
0.0
142
0.0
142
1.0
142
0.0
142
0.0
142
0.0
142
0.0
142
1.0
179
     0
144
0.0008202099737533
144
0.0
144
0.0
144
0.0
144
0.0
144
0.0008202099737533
144
0.0
144
0.0
144
0.0
144
0.0
144
1.0
144
0.0
144
0.0
144
0.0
144
0.0
144
1.0
147
0.0008202099737533
147
0.0
147
0.0
147
0.0
147
0.0
147
0.0008202099737533
147
0.0
147
0.0
147
0.0
147
0.0
147
1.0
147
0.0
147
0.0
147
0.0
147
0.0
147
1.0
  0
MATERIAL
  5
10005
102
{ACAD_XDICTIONARY
360
10006
102
}
102
{ACAD_REACTORS
330
10004
102
}
330
10004
100
AcDbMaterial
  1
ByLayer
 72
     0
 43
0.0008202099737533
 43
0.0
 43
0.0
 43
0.0
 43
0.0
 43
0.0008202099737533
 43
0.0
 43
0.0
 43
0.0
 43
0.0
 43
1.0
 43
0.0
 43
0.0
 43
0.0
 43
0.0
 43
1.0
 77
     0
 47
0.0008202099737533
 47
0.0
 47
0.0
 47
0.0
 47
0.0
 47
0.0008202099737533
 47
0.0
 47
0.0
 47
0.0
 47
0.0
 47
1.0
 47
0.0
 47
0.0
 47
0.0
 47
0.0
 47
1.0
171
     0
 49
0.0008202099737533
 49
0.0
 49
0.0
 49
0.0
 49
0.0
 49
0.0008202099737533
 49
0.0
 49
0.0
 49
0.0
 49
0.0
 49
1.0
 49
0.0
 49
0.0
 49
0.0
 49
0.0
 49
1.0
175
     0
142
0.0008202099737533
142
0.0
142
0.0
142
0.0
142
0.0
142
0.0008202099737533
142
0.0
142
0.0
142
0.0
142
0.0
142
1.0
142
0.0
142
0.0
142
0.0
142
0.0
142
1.0
179
     0
144
0.0008202099737533
144
0.0
144
0.0
144
0.0
144
0.0
144
0.0008202099737533
144
0.0
144
0.0
144
0.0
144
0.0
144
1.0
144
0.0
144
0.0
144
0.0
144
0.0
144
1.0
147
0.0008202099737533
147
0.0
147
0.0
147
0.0
147
0.0
147
0.0008202099737533
147
0.0
147
0.0
147
0.0
147
0.0
147
1.0
147
0.0
147
0.0
147
0.0
147
0.0
147
1.0
  0
MATERIAL
  5
10015
102
{ACAD_XDICTIONARY
360
10016
102
}
102
{ACAD_REACTORS
330
10004
102
}
330
10004
100
AcDbMaterial
  1
Global
 72
     0
 43
0.0008202099737533
 43
0.0
 43
0.0
 43
0.0
 43
0.0
 43
0.0008202099737533
 43
0.0
 43
0.0
 43
0.0
 43
0.0
 43
1.0
 43
0.0
 43
0.0
 43
0.0
 43
0.0
 43
1.0
 77
     0
 47
0.0008202099737533
 47
0.0
 47
0.0
 47
0.0
 47
0.0
 47
0.0008202099737533
 47
0.0
 47
0.0
 47
0.0
 47
0.0
 47
1.0
 47
0.0
 47
0.0
 47
0.0
 47
0.0
 47
1.0
171
     0
 49
0.0008202099737533
 49
0.0
 49
0.0
 49
0.0
 49
0.0
 49
0.0008202099737533
 49
0.0
 49
0.0
 49
0.0
 49
0.0
 49
1.0
 49
0.0
 49
0.0
 49
0.0
 49
0.0
 49
1.0
175
     0
142
0.0008202099737533
142
0.0
142
0.0
142
0.0
142
0.0
142
0.0008202099737533
142
0.0
142
0.0
142
0.0
142
0.0
142
1.0
142
0.0
142
0.0
142
0.0
142
0.0
142
1.0
179
     0
144
0.0008202099737533
144
0.0
144
0.0
144
0.0
144
0.0
144
0.0008202099737533
144
0.0
144
0.0
144
0.0
144
0.0
144
1.0
144
0.0
144
0.0
144
0.0
144
0.0
144
1.0
147
0.0008202099737533
147
0.0
147
0.0
147
0.0
147
0.0
147
0.0008202099737533
147
0.0
147
0.0
147
0.0
147
0.0
147
1.0
147
0.0
147
0.0
147
0.0
147
0.0
147
1.0
  0
MLEADERSTYLE
  5
1004E
102
{ACAD_REACTORS
330
1004D
102
}
330
1004D
100
AcDbMLeaderStyle
179
     2
170
     2
171
     1
172
     0
 90
        2
 40
0.0
 41
0.0
173
     1
 91
-1056964608
340
14
 92
       -2
290
     1
 42
0.09
291
     1
 43
0.36
  3
Standard
 44
0.18
300

342
11
174
     1
178
     6
175
     1
176
     0
 93
-1056964608
 45
0.18
292
     0
297
     0
 46
0.18
 94
-1056964608
 47
1.0
 49
1.0
140
1.0
293
     1
141
0.0
294
     1
177
     0
142
1.0
295
     0
296
     0
143
0.125
271
     0
272
     9
273
     9
298
     0
  0
MLINESTYLE
  5
1003A
102
{ACAD_REACTORS
330
17
102
}
330
17
100
AcDbMlineStyle
  2
STANDARD
 70
     0
  3

 62
   256
 51
90.0
 52
90.0
 71
     2
 49
0.5
 62
   256
  6
BYLAYER
 49
-0.5
 62
   256
  6
BYLAYER
  0
ACDBPLACEHOLDER
  5
10003
102
{ACAD_REACTORS
330
10002
102
}
330
10002
  0
SCALE
  5
1003C
102
{ACAD_REACTORS
330
1003B
102
}
330
1003B
100
AcDbScale
 70
     0
300
1:1
140
1.0
141
1.0
290
     1
  0
SCALE
  5
1003D
102
{ACAD_REACTORS
330
1003B
102
}
330
1003B
100
AcDbScale
 70
     0
300
1/128" = 1'-0"
140
0.0078125
141
12.0
290
     0
  0
SCALE
  5
1003E
102
{ACAD_REACTORS
330
1003B
102
}
330
1003B
100
AcDbScale
 70
     0
300
1/64" = 1'-0"
140
0.015625
141
12.0
290
     0
  0
SCALE
  5
1003F
102
{ACAD_REACTORS
330
1003B
102
}
330
1003B
100
AcDbScale
 70
     0
300
1/32" = 1'-0"
140
0.03125
141
12.0
290
     0
  0
SCALE
  5
10040
102
{ACAD_REACTORS
330
1003B
102
}
330
1003B
100
AcDbScale
 70
     0
300
1/16" = 1'-0"
140
0.0625
141
12.0
290
     0
  0
SCALE
  5
10041
102
{ACAD_REACTORS
330
1003B
102
}
330
1003B
100
AcDbScale
 70
     0
300
3/32" = 1'-0"
140
0.09375
141
12.0
290
     0
  0
SCALE
  5
10042
102
{ACAD_REACTORS
330
1003B
102
}
330
1003B
100
AcDbScale
 70
     0
300
1/8" = 1'-0"
140
0.125
141
12.0
290
     0
  0
SCALE
  5
10043
102
{ACAD_REACTORS
330
1003B
102
}
330
1003B
100
AcDbScale
 70
     0
300
3/16" = 1'-0"
140
0.1875
141
12.0
290
     0
  0
SCALE
  5
10044
102
{ACAD_REACTORS
330
1003B
102
}
330
1003B
100
AcDbScale
 70
     0
300
1/4" = 1'-0"
140
0.25
141
12.0
290
     0
  0
SCALE
  5
10045
102
{ACAD_REACTORS
330
1003B
102
}
330
1003B
100
AcDbScale
 70
     0
300
3/8" = 1'-0"
140
0.375
141
12.0
290
     0
  0
SCALE
  5
10046
102
{ACAD_REACTORS
330
1003B
102
}
330
1003B
100
AcDbScale
 70
     0
300
1/2" = 1'-0"
140
0.5
141
12.0
290
     0
  0
SCALE
  5
10047
102
{ACAD_REACTORS
330
1003B
102
}
330
1003B
100
AcDbScale
 70
     0
300
3/4" = 1'-0"
140
0.75
141
12.0
290
     0
  0
SCALE
  5
10048
102
{ACAD_REACTORS
330
1003B
102
}
330
1003B
100
AcDbScale
 70
     0
300
1" = 1'-0"
140
1.0
141
12.0
290
     0
  0
SCALE
  5
10049
102
{ACAD_REACTORS
330
1003B
102
}
330
1003B
100
AcDbScale
 70
     0
300
1-1/2" = 1'-0"
140
1.5
141
12.0
290
     0
  0
SCALE
  5
1004A
102
{ACAD_REACTORS
330
1003B
102
}
330
1003B
100
AcDbScale
 70
     0
300
3" = 1'-0"
140
3.0
141
12.0
290
     0
  0
SCALE
  5
1004B
102
{ACAD_REACTORS
330
1003B
102
}
330
1003B
100
AcDbScale
 70
     0
300
6" = 1'-0"
140
6.0
141
12.0
290
     0
  0
SCALE
  5
1004C
102
{ACAD_REACTORS
330
1003B
102
}
330
1003B
100
AcDbScale
 70
     0
300
1'-0" = 1'-0"
140
12.0
141
12.0
290
     0
  0
ACDBSECTIONVIEWSTYLE
  5
10050
102
{ACAD_REACTORS
330
1004F
102
}
330
1004F
100
AcDbModelDocViewStyle
 70
     0
  3
Imperial24
290
     0
300
Imperial24
 90
        0
100
AcDbSectionViewStyle
 70
     0
 71
     0
 90
       78
 71
     1
340
11
 62
   256
 40
0.24
340
0
340
0
 62
   256
 40
0.24
300
I, O, Q, S, X, Z
 40
0.48
 90
        3
 40
0.18
 90
        1
 71
     2
340
0
 90
       25
 62
   256
340
0
 90
       50
 62
   256
 40
0.24
 40
0.0
 40
0.24
 71
     3
340
11
 62
   256
 40
0.24
 90
        1
 40
0.75
 90
        1
300
%<\AcVar ViewType \f "%tc1">% %<\AcVar ViewSectionStartId>%-%<\AcVar ViewSectionEndId>%\PSCALE %<\AcVar ViewScale \f "%sn">%
 71
     4
 62
   256
 62
   257
300
ANSI31
 40
1.0
 90
        0
290
     0
290
     0
 90
        6
 40
0.0
 40
1.570796326794896
 40
0.2617993877991494
 40
1.308996938995747
 40
-0.2617993877991494
 40
1.832595714594046
  0
TABLESTYLE
  5
10039
102
{ACAD_XDICTIONARY
360
10070
102
}
102
{ACAD_REACTORS
330
10038
102
}
330
10038
100
AcDbTableStyle
280
     0
  3
Standard
 70
     0
 71
     0
 40
0.06
 41
0.06
280
     0
281
     0
  7
STANDARD
140
0.18
170
     2
 62
     0
 63
     7
283
     0
 90
      512
 91
        0
  1

274
    -2
284
     1
 64
     0
275
    -2
285
     1
 65
     0
276
    -2
286
     1
 66
     0
277
    -2
287
     1
 67
     0
278
    -2
288
     1
 68
     0
279
    -2
289
     1
 69
     0
  7
STANDARD
140
0.25
170
     5
 62
     0
 63
     7
283
     0
 90
      512
 91
        0
  1

274
    -2
284
     1
 64
     0
275
    -2
285
     1
 65
     0
276
    -2
286
     1
 66
     0
277
    -2
287
     1
 67
     0
278
    -2
288
     1
 68
     0
279
    -2
289
     1
 69
     0
  7
STANDARD
140
0.18
170
     5
 62
     0
 63
     7
283
     0
 90
      512
 91
        0
  1

274
    -2
284
     1
 64
     0
275
    -2
285
     1
 65
     0
276
    -2
286
     1
 66
     0
277
    -2
287
     1
 67
     0
278
    -2
288
     1
 68
     0
279
    -2
289
     1
 69
     0
  0
VISUALSTYLE
  5
10023
102
{ACAD_REACTORS
330
1001D
102
}
330
1001D
100
AcDbVisualStyle
  2
2dWireframe
 70
     4
177
     3
291
     0
 70
    58
 90
        0
176
     1
 90
        2
176
     1
 90
        0
176
     1
 90
        0
176
     1
 40
0.6
176
     1
 40
30.0
176
     1
 62
     7
420
 16777215
176
     1
 90
        1
176
     1
 90
        4
176
     1
 62
     7
176
     1
 62
   257
176
     1
 90
        1
176
     1
 90
        1
176
     1
 40
1.0
176
     1
 90
        0
176
     1
 62
   257
176
     1
 40
1.0
176
     1
 90
        1
176
     1
 90
        6
176
     1
 90
        2
176
     1
 62
     7
176
     1
 90
        5
176
     1
 90
        0
176
     1
 90
        0
176
     1
290
     0
176
     1
 90
        1
176
     1
 40
0.0
176
     1
 90
        0
176
     1
290
     1
176
     1
290
     1
176
     1
290
     0
176
     1
290
     0
176
     1
290
     0
176
     1
290
     0
176
     1
290
     0
176
     1
290
     0
176
     1
290
     0
176
     1
 90
       50
176
     1
 40
0.0
176
     1
 40
1.0
176
     1
 90
        0
176
     1
 62
    18
420
        0
176
     1
 90
       50
176
     1
 90
        3
176
     1
 62
     5
420
      255
176
     1
290
     0
176
     1
 90
       50
176
     1
 90
       50
176
     1
 90
       50
176
     1
290
     0
176
     1
 90
       50
176
     1
 62
   256
176
     0
 40
1.0
176
     0
 90
        2
176
     1
  1
strokes_ogs.tif
176
     1
290
     0
176
     1
 40
1.0
176
     1
 40
1.0
176
     1
  0
VISUALSTYLE
  5
10022
102
{ACAD_REACTORS
330
1001D
102
}
330
1001D
100
AcDbVisualStyle
  2
Basic
 70
     7
177
     3
291
     1
 70
    58
 90
        1
176
     1
 90
        0
176
     1
 90
        1
176
     1
 90
        0
176
     1
 40
0.6
176
     1
 40
30.0
176
     1
 62
     7
420
 16777215
176
     1
 90
        0
176
     1
 90
        4
176
     1
 62
     7
176
     1
 62
   257
176
     1
 90
        1
176
     1
 90
        1
176
     1
 40
1.0
176
     1
 90
        8
176
     1
 62
     7
176
     1
 40
1.0
176
     1
 90
        1
176
     1
 90
        6
176
     1
 90
        2
176
     1
 62
     7
176
     1
 90
        5
176
     1
 90
        0
176
     1
 90
        0
176
     1
290
     0
176
     1
 90
        1
176
     1
 40
0.0
176
     1
 90
        0
176
     1
290
     0
176
     1
290
     1
176
     1
290
     1
176
     1
290
     0
176
     1
290
     0
176
     1
290
     0
176
     1
290
     0
176
     1
290
     0
176
     1
290
     0
176
     1
 90
       50
176
     1
 40
0.0
176
     1
 40
1.0
176
     1
 90
        0
176
     1
 62
    18
420
        0
176
     1
 90
       50
176
     1
 90
        3
176
     1
 62
     5
420
      255
176
     1
290
     0
176
     1
 90
       50
176
     1
 90
       50
176
     1
 90
       50
176
     1
290
     0
176
     1
 90
       50
176
     1
 62
   256
176
     0
 40
1.0
176
     0
 90
        2
176
     1
  1
strokes_ogs.tif
176
     1
290
     0
176
     1
 40
1.0
176
     1
 40
1.0
176
     1
  0
VISUALSTYLE
  5
10029
102
{ACAD_REACTORS
330
1001D
102
}
330
1001D
100
AcDbVisualStyle
  2
Brighten
 70
    12
177
     3
291
     1
 70
    58
 90
        2
176
     1
 90
        2
176
     1
 90
        0
176
     1
 90
        0
176
     1
 40
0.6
176
     1
 40
30.0
176
     1
 62
     7
420
 16777215
176
     1
 90
        1
176
     1
 90
        4
176
     1
 62
     7
176
     1
 62
   257
176
     1
 90
        1
176
     1
 90
        1
176
     1
 40
1.0
176
     1
 90
        8
176
     1
 62
     7
176
     1
 40
1.0
176
     1
 90
        1
176
     1
 90
        6
176
     1
 90
        2
176
     1
 62
     7
176
     1
 90
        5
176
     1
 90
        0
176
     1
 90
        0
176
     1
290
     0
176
     1
 90
        1
176
     1
 40
50.0
176
     1
 90
        0
176
     1
290
     0
176
     1
290
     1
176
     1
290
     1
176
     1
290
     0
176
     1
290
     0
176
     1
290
     0
176
     1
290
     0
176
     1
290
     0
176
     1
290
     0
176
     1
 90
       50
176
     1
 40
0.0
176
     1
 40
1.0
176
     1
 90
        0
176
     1
 62
    18
420
        0
176
     1
 90
       50
176
     1
 90
        3
176
     1
 62
     5
420
      255
176
     1
290
     0
176
     1
 90
       50
176
     1
 90
       50
176
     1
 90
       50
176
     1
290
     0
176
     1
 90
       50
176
     1
 62
   256
176
     0
 40
1.0
176
     0
 90
        2
176
     1
  1
strokes_ogs.tif
176
     1
290
     0
176
     1
 40
1.0
176
     1
 40
1.0
176
     1
  0
VISUALSTYLE
  5
1002D
102
{ACAD_REACTORS
330
1001D
102
}
330
1001D
100
AcDbVisualStyle
  2
ColorChange
 70
    16
177
     3
291
     1
 70
    58
 90
        2
176
     1
 90
        2
176
     1
 90
        3
176
     1
 90
        0
176
     1
 40
0.6
176
     1
 40
30.0
176
     1
 62
     8
420
  8421504
176
     1
 90
        1
176
     1
 90
        4
176
     1
 62
     7
176
     1
 62
   257
176
     1
 90
        1
176
     1
 90
        1
176
     1
 40
1.0
176
     1
 90
        8
176
     1
 62
     8
420
  8421504
176
     1
 40
1.0
176
     1
 90
        1
176
     1
 90
        6
176
     1
 90
        2
176
     1
 62
     7
176
     1
 90
        5
176
     1
 90
        0
176
     1
 90
        0
176
     1
290
     0
176
     1
 90
        1
176
     1
 40
0.0
176
     1
 90
        0
176
     1
290
     0
176
     1
290
     1
176
     1
290
     1
176
     1
290
     0
176
     1
290
     0
176
     1
290
     0
176
     1
290
     0
176
     1
290
     0
176
     1
290
     0
176
     1
 90
       50
176
     1
 40
0.0
176
     1
 40
1.0
176
     1
 90
        0
176
     1
 62
    18
420
        0
176
     1
 90
       50
176
     1
 90
        3
176
     1
 62
     5
420
      255
176
     1
290
     0
176
     1
 90
       50
176
     1
 90
       50
176
     1
 90
       50
176
     1
290
     0
176
     1
 90
       50
176
     1
 62
   256
176
     0
 40
1.0
176
     0
 90
        2
176
     1
  1
strokes_ogs.tif
176
     1
290
     0
176
     1
 40
1.0
176
     1
 40
1.0
176
     1
  0
VISUALSTYLE
  5
10026
102
{ACAD_REACTORS
330
1001D
102
}
330
1001D
100
AcDbVisualStyle
  2
Conceptual
 70
     9
177
     3
291
     0
 70
    58
 90
        3
176
     1
 90
        2
176
     1
 90
        0
176
     1
 90
        0
176
     1
 40
0.6
176
     1
 40
30.0
176
     1
 62
     7
420
 16777215
176
     1
 90
        2
176
     1
 90
        2
176
     1
 62
     7
176
     1
 62
   257
176
     1
 90
        1
176
     1
 90
        1
176
     1
 40
179.0
176
     1
 90
        8
176
     1
 62
     7
176
     1
 40
1.0
176
     1
 90
        1
176
     1
 90
        6
176
     1
 90
        2
176
     1
 62
     7
176
     1
 90
        3
176
     1
 90
        0
176
     1
 90
        0
176
     1
290
     0
176
     1
 90
        1
176
     1
 40
0.0
176
     1
 90
        0
176
     1
290
     0
176
     1
290
     1
176
     1
290
     1
176
     1
290
     0
176
     1
290
     0
176
     1
290
     0
176
     1
290
     0
176
     1
290
     0
176
     1
290
     0
176
     1
 90
       50
176
     1
 40
0.0
176
     1
 40
1.0
176
     1
 90
        0
176
     1
 62
    18
420
        0
176
     1
 90
       50
176
     1
 90
        3
176
     1
 62
     5
420
      255
176
     1
290
     0
176
     1
 90
       50
176
     1
 90
       50
176
     1
 90
       50
176
     1
290
     0
176
     1
 90
       50
176
     1
 62
   256
176
     0
 40
1.0
176
     0
 90
        2
176
     1
  1
strokes_ogs.tif
176
     1
290
     0
176
     1
 40
1.0
176
     1
 40
1.0
176
     1
  0
VISUALSTYLE
  5
10028
102
{ACAD_REACTORS
330
1001D
102
}
330
1001D
100
AcDbVisualStyle
  2
Dim
 70
    11
177
     3
291
     1
 70
    58
 90
        2
176
     1
 90
        2
176
     1
 90
        0
176
     1
 90
        0
176
     1
 40
0.6
176
     1
 40
30.0
176
     1
 62
     7
420
 16777215
176
     1
 90
        1
176
     1
 90
        4
176
     1
 62
     7
176
     1
 62
   257
176
     1
 90
        1
176
     1
 90
        1
176
     1
 40
1.0
176
     1
 90
        8
176
     1
 62
     7
176
     1
 40
1.0
176
     1
 90
        1
176
     1
 90
        6
176
     1
 90
        2
176
     1
 62
     7
176
     1
 90
        5
176
     1
 90
        0
176
     1
 90
        0
176
     1
290
     0
176
     1
 90
        1
176
     1
 40
-50.0
176
     1
 90
        0
176
     1
290
     0
176
     1
290
     1
176
     1
290
     1
176
     1
290
     0
176
     1
290
     0
176
     1
290
     0
176
     1
290
     0
176
     1
290
     0
176
     1
290
     0
176
     1
 90
       50
176
     1
 40
0.0
176
     1
 40
1.0
176
     1
 90
        0
176
     1
 62
    18
420
        0
176
     1
 90
       50
176
     1
 90
        3
176
     1
 62
     5
420
      255
176
     1
290
     0
176
     1
 90
       50
176
     1
 90
       50
176
     1
 90
       50
176
     1
290
     0
176
     1
 90
       50
176
     1
 62
   256
176
     0
 40
1.0
176
     0
 90
        2
176
     1
  1
strokes_ogs.tif
176
     1
290
     0
176
     1
 40
1.0
176
     1
 40
1.0
176
     1
  0
VISUALSTYLE
  5
10035
102
{ACAD_REACTORS
330
1001D
102
}
330
1001D
100
AcDbVisualStyle
  2
EdgeColorOff
 70
    22
177
     3
291
     1
 70
    58
 90
        2
176
     0
 90
        2
176
     0
 90
        0
176
     0
 90
        0
176
     0
 40
0.6
176
     0
 40
30.0
176
     0
 62
     7
420
 16777215
176
     0
 90
        1
176
     0
 90
        4
176
     0
 62
     7
176
     0
 62
   257
176
     0
 90
        1
176
     0
 90
        1
176
     0
 40
1.0
176
     0
 90
        8
176
     2
 62
     7
176
     0
 40
1.0
176
     0
 90
        1
176
     0
 90
        6
176
     0
 90
        2
176
     0
 62
     7
176
     0
 90
        5
176
     0
 90
        0
176
     0
 90
        0
176
     0
290
     0
176
     0
 90
        1
176
     0
 40
0.0
176
     0
 90
        0
176
     0
290
     0
176
     1
290
     1
176
     1
290
     1
176
     1
290
     0
176
     1
290
     0
176
     1
290
     0
176
     1
290
     0
176
     1
290
     0
176
     1
290
     0
176
     1
 90
       50
176
     0
 40
0.0
176
     0
 40
1.0
176
     0
 90
        0
176
     0
 62
    18
420
        0
176
     0
 90
       50
176
     0
 90
        3
176
     0
 62
     5
420
      255
176
     0
290
     0
176
     1
 90
       50
176
     0
 90
       50
176
     0
 90
       50
176
     0
290
     0
176
     1
 90
       50
176
     0
 62
   256
176
     0
 40
1.0
176
     0
 90
        2
176
     0
  1
strokes_ogs.tif
176
     0
290
     0
176
     1
 40
1.0
176
     0
 40
1.0
176
     0
  0
VISUALSTYLE
  5
1002C
102
{ACAD_REACTORS
330
1001D
102
}
330
1001D
100
AcDbVisualStyle
  2
Facepattern
 70
    15
177
     3
291
     1
 70
    58
 90
        2
176
     1
 90
        2
176
     1
 90
        0
176
     1
 90
        0
176
     1
 40
0.6
176
     1
 40
30.0
176
     1
 62
     7
420
 16777215
176
     1
 90
        1
176
     1
 90
        4
176
     1
 62
     7
176
     1
 62
   257
176
     1
 90
        1
176
     1
 90
        1
176
     1
 40
1.0
176
     1
 90
        8
176
     1
 62
     7
176
     1
 40
1.0
176
     1
 90
        1
176
     1
 90
        6
176
     1
 90
        2
176
     1
 62
     7
176
     1
 90
        5
176
     1
 90
        0
176
     1
 90
        0
176
     1
290
     0
176
     1
 90
        1
176
     1
 40
0.0
176
     1
 90
        0
176
     1
290
     0
176
     1
290
     1
176
     1
290
     1
176
     1
290
     0
176
     1
290
     0
176
     1
290
     0
176
     1
290
     0
176
     1
290
     0
176
     1
290
     0
176
     1
 90
       50
176
     1
 40
0.0
176
     1
 40
1.0
176
     1
 90
        0
176
     1
 62
    18
420
        0
176
     1
 90
       50
176
     1
 90
        3
176
     1
 62
     5
420
      255
176
     1
290
     0
176
     1
 90
       50
176
     1
 90
       50
176
     1
 90
       50
176
     1
290
     0
176
     1
 90
       50
176
     1
 62
   256
176
     0
 40
1.0
176
     0
 90
        2
176
     1
  1
strokes_ogs.tif
176
     1
290
     0
176
     1
 40
1.0
176
     1
 40
1.0
176
     1
  0
VISUALSTYLE
  5
1001E
102
{ACAD_REACTORS
330
1001D
102
}
330
1001D
100
AcDbVisualStyle
  2
Flat
 70
     0
177
     3
291
     1
 70
    58
 90
        2
176
     1
 90
        1
176
     1
 90
        1
176
     1
 90
        2
176
     1
 40
0.6
176
     1
 40
30.0
176
     1
 62
     7
420
 16777215
176
     1
 90
        0
176
     1
 90
        0
176
     1
 62
     7
176
     1
 62
   257
176
     1
 90
        1
176
     1
 90
        1
176
     1
 40
1.0
176
     1
 90
        8
176
     1
 62
     7
176
     1
 40
1.0
176
     1
 90
        1
176
     1
 90
        6
176
     1
 90
        2
176
     1
 62
     7
176
     1
 90
        5
176
     1
 90
        0
176
     1
 90
        0
176
     1
290
     0
176
     1
 90
       13
176
     1
 40
0.0
176
     1
 90
        0
176
     1
290
     0
176
     1
290
     1
176
     1
290
     1
176
     1
290
     0
176
     1
290
     0
176
     1
290
     0
176
     1
290
     0
176
     1
290
     0
176
     1
290
     0
176
     1
 90
       50
176
     1
 40
0.0
176
     1
 40
1.0
176
     1
 90
        0
176
     1
 62
    18
420
        0
176
     1
 90
       50
176
     1
 90
        3
176
     1
 62
     5
420
      255
176
     1
290
     0
176
     1
 90
       50
176
     1
 90
       50
176
     1
 90
       50
176
     1
290
     0
176
     1
 90
       50
176
     1
 62
   256
176
     0
 40
1.0
176
     0
 90
        2
176
     1
  1
strokes_ogs.tif
176
     1
290
     0
176
     1
 40
1.0
176
     1
 40
1.0
176
     1
  0
VISUALSTYLE
  5
1001F
102
{ACAD_REACTORS
330
1001D
102
}
330
1001D
100
AcDbVisualStyle
  2
FlatWithEdges
 70
     1
177
     3
291
     1
 70
    58
 90
        2
176
     1
 90
        1
176
     1
 90
        1
176
     1
 90
        2
176
     1
 40
0.6
176
     1
 40
30.0
176
     1
 62
     7
420
 16777215
176
     1
 90
        1
176
     1
 90
        0
176
     1
 62
     7
176
     1
 62
   257
176
     1
 90
        1
176
     1
 90
        1
176
     1
 40
1.0
176
     1
 90
        0
176
     1
 62
   257
176
     1
 40
1.0
176
     1
 90
        1
176
     1
 90
        6
176
     1
 90
        2
176
     1
 62
     7
176
     1
 90
        5
176
     1
 90
        0
176
     1
 90
        0
176
     1
290
     0
176
     1
 90
       13
176
     1
 40
0.0
176
     1
 90
        0
176
     1
290
     0
176
     1
290
     1
176
     1
290
     1
176
     1
290
     0
176
     1
290
     0
176
     1
290
     0
176
     1
290
     0
176
     1
290
     0
176
     1
290
     0
176
     1
 90
       50
176
     1
 40
0.0
176
     1
 40
1.0
176
     1
 90
        0
176
     1
 62
    18
420
        0
176
     1
 90
       50
176
     1
 90
        3
176
     1
 62
     5
420
      255
176
     1
290
     0
176
     1
 90
       50
176
     1
 90
       50
176
     1
 90
       50
176
     1
290
     0
176
     1
 90
       50
176
     1
 62
   256
176
     0
 40
1.0
176
     0
 90
        2
176
     1
  1
strokes_ogs.tif
176
     1
290
     0
176
     1
 40
1.0
176
     1
 40
1.0
176
     1
  0
VISUALSTYLE
  5
10020
102
{ACAD_REACTORS
330
1001D
102
}
330
1001D
100
AcDbVisualStyle
  2
Gouraud
 70
     2
177
     3
291
     1
 70
    58
 90
        2
176
     1
 90
        2
176
     1
 90
        1
176
     1
 90
        2
176
     1
 40
0.6
176
     1
 40
30.0
176
     1
 62
     7
420
 16777215
176
     1
 90
        0
176
     1
 90
        0
176
     1
 62
     7
176
     1
 62
   257
176
     1
 90
        1
176
     1
 90
        1
176
     1
 40
1.0
176
     1
 90
        0
176
     1
 62
     7
176
     1
 40
1.0
176
     1
 90
        1
176
     1
 90
        6
176
     1
 90
        2
176
     1
 62
     7
176
     1
 90
        5
176
     1
 90
        0
176
     1
 90
        0
176
     1
290
     0
176
     1
 90
       13
176
     1
 40
0.0
176
     1
 90
        0
176
     1
290
     0
176
     1
290
     1
176
     1
290
     1
176
     1
290
     0
176
     1
290
     0
176
     1
290
     0
176
     1
290
     0
176
     1
290
     0
176
     1
290
     0
176
     1
 90
       50
176
     1
 40
0.0
176
     1
 40
1.0
176
     1
 90
        0
176
     1
 62
    18
420
        0
176
     1
 90
       50
176
     1
 90
        3
176
     1
 62
     5
420
      255
176
     1
290
     0
176
     1
 90
       50
176
     1
 90
       50
176
     1
 90
       50
176
     1
290
     0
176
     1
 90
       50
176
     1
 62
   256
176
     0
 40
1.0
176
     0
 90
        2
176
     1
  1
strokes_ogs.tif
176
     1
290
     0
176
     1
 40
1.0
176
     1
 40
1.0
176
     1
  0
VISUALSTYLE
  5
10021
102
{ACAD_REACTORS
330
1001D
102
}
330
1001D
100
AcDbVisualStyle
  2
GouraudWithEdges
 70
     3
177
     3
291
     1
 70
    58
 90
        2
176
     1
 90
        2
176
     1
 90
        1
176
     1
 90
        2
176
     1
 40
0.6
176
     1
 40
30.0
176
     1
 62
     7
420
 16777215
176
     1
 90
        1
176
     1
 90
        0
176
     1
 62
     7
176
     1
 62
   257
176
     1
 90
        1
176
     1
 90
        1
176
     1
 40
1.0
176
     1
 90
        0
176
     1
 62
   257
176
     1
 40
1.0
176
     1
 90
        1
176
     1
 90
        6
176
     1
 90
        2
176
     1
 62
     7
176
     1
 90
        5
176
     1
 90
        0
176
     1
 90
        0
176
     1
290
     0
176
     1
 90
       13
176
     1
 40
0.0
176
     1
 90
        0
176
     1
290
     0
176
     1
290
     1
176
     1
290
     1
176
     1
290
     0
176
     1
290
     0
176
     1
290
     0
176
     1
290
     0
176
     1
290
     0
176
     1
290
     0
176
     1
 90
       50
176
     1
 40
0.0
176
     1
 40
1.0
176
     1
 90
        0
176
     1
 62
    18
420
        0
176
     1
 90
       50
176
     1
 90
        3
176
     1
 62
     5
420
      255
176
     1
290
     0
176
     1
 90
       50
176
     1
 90
       50
176
     1
 90
       50
176
     1
290
     0
176
     1
 90
       50
176
     1
 62
   256
176
     0
 40
1.0
176
     0
 90
        2
176
     1
  1
strokes_ogs.tif
176
     1
290
     0
176
     1
 40
1.0
176
     1
 40
1.0
176
     1
  0
VISUALSTYLE
  5
10025
102
{ACAD_REACTORS
330
1001D
102
}
330
1001D
100
AcDbVisualStyle
  2
Hidden
 70
     6
177
     3
291
     0
 70
    58
 90
        1
176
     1
 90
        2
176
     1
 90
        2
176
     1
 90
        0
176
     1
 40
0.6
176
     1
 40
30.0
176
     1
 62
     7
420
 16777215
176
     1
 90
        2
176
     1
 90
        2
176
     1
 62
     7
176
     1
 62
   257
176
     1
 90
        2
176
     1
 90
        1
176
     1
 40
40.0
176
     1
 90
        0
176
     1
 62
   257
176
     1
 40
1.0
176
     1
 90
        1
176
     1
 90
        6
176
     1
 90
        2
176
     1
 62
     7
176
     1
 90
        3
176
     1
 90
        0
176
     1
 90
        0
176
     1
290
     0
176
     1
 90
        1
176
     1
 40
0.0
176
     1
 90
        0
176
     1
290
     0
176
     1
290
     1
176
     1
290
     1
176
     1
290
     0
176
     1
290
     0
176
     1
290
     0
176
     1
290
     0
176
     1
290
     0
176
     1
290
     0
176
     1
 90
       50
176
     1
 40
0.0
176
     1
 40
1.0
176
     1
 90
        0
176
     1
 62
    18
420
        0
176
     1
 90
       50
176
     1
 90
        3
176
     1
 62
     5
420
      255
176
     1
290
     0
176
     1
 90
       50
176
     1
 90
       50
176
     1
 90
       50
176
     1
290
     0
176
     1
 90
       50
176
     1
 62
   256
176
     0
 40
1.0
176
     0
 90
        2
176
     1
  1
strokes_ogs.tif
176
     1
290
     0
176
     1
 40
1.0
176
     1
 40
1.0
176
     1
  0
VISUALSTYLE
  5
10033
102
{ACAD_REACTORS
330
1001D
102
}
330
1001D
100
AcDbVisualStyle
  2
JitterOff
 70
    20
177
     3
291
     1
 70
    58
 90
        2
176
     0
 90
        2
176
     0
 90
        0
176
     0
 90
        0
176
     0
 40
0.6
176
     0
 40
30.0
176
     0
 62
     7
420
 16777215
176
     0
 90
        1
176
     0
 90
        4
176
     0
 62
     7
176
     0
 62
   257
176
     0
 90
        1
176
     0
 90
        1
176
     0
 40
1.0
176
     0
 90
       10
176
     2
 62
     7
176
     0
 40
1.0
176
     0
 90
        1
176
     0
 90
        6
176
     0
 90
        2
176
     0
 62
     7
176
     0
 90
        5
176
     0
 90
        0
176
     0
 90
        0
176
     0
290
     0
176
     0
 90
        1
176
     0
 40
0.0
176
     0
 90
        0
176
     0
290
     0
176
     1
290
     1
176
     1
290
     1
176
     1
290
     0
176
     1
290
     0
176
     1
290
     0
176
     1
290
     0
176
     1
290
     0
176
     1
290
     0
176
     1
 90
       50
176
     0
 40
0.0
176
     0
 40
1.0
176
     0
 90
        0
176
     0
 62
    18
420
        0
176
     0
 90
       50
176
     0
 90
        3
176
     0
 62
     5
420
      255
176
     0
290
     0
176
     1
 90
       50
176
     0
 90
       50
176
     0
 90
       50
176
     0
290
     0
176
     1
 90
       50
176
     0
 62
   256
176
     0
 40
1.0
176
     0
 90
        2
176
     0
  1
strokes_ogs.tif
176
     0
290
     0
176
     1
 40
1.0
176
     0
 40
1.0
176
     0
  0
VISUALSTYLE
  5
1002B
102
{ACAD_REACTORS
330
1001D
102
}
330
1001D
100
AcDbVisualStyle
  2
Linepattern
 70
    14
177
     3
291
     1
 70
    58
 90
        2
176
     1
 90
        2
176
     1
 90
        0
176
     1
 90
        0
176
     1
 40
0.6
176
     1
 40
30.0
176
     1
 62
     7
420
 16777215
176
     1
 90
        1
176
     1
 90
        4
176
     1
 62
     7
176
     1
 62
   257
176
     1
 90
        7
176
     1
 90
        7
176
     1
 40
1.0
176
     1
 90
        8
176
     1
 62
     7
176
     1
 40
1.0
176
     1
 90
        1
176
     1
 90
        6
176
     1
 90
        2
176
     1
 62
     7
176
     1
 90
        5
176
     1
 90
        0
176
     1
 90
        0
176
     1
290
     0
176
     1
 90
        1
176
     1
 40
0.0
176
     1
 90
        0
176
     1
290
     0
176
     1
290
     1
176
     1
290
     1
176
     1
290
     0
176
     1
290
     0
176
     1
290
     0
176
     1
290
     0
176
     1
290
     0
176
     1
290
     0
176
     1
 90
       50
176
     1
 40
0.0
176
     1
 40
1.0
176
     1
 90
        0
176
     1
 62
    18
420
        0
176
     1
 90
       50
176
     1
 90
        3
176
     1
 62
     5
420
      255
176
     1
290
     0
176
     1
 90
       50
176
     1
 90
       50
176
     1
 90
       50
176
     1
290
     0
176
     1
 90
       50
176
     1
 62
   256
176
     0
 40
1.0
176
     0
 90
        2
176
     1
  1
strokes_ogs.tif
176
     1
290
     0
176
     1
 40
1.0
176
     1
 40
1.0
176
     1
  0
VISUALSTYLE
  5
10034
102
{ACAD_REACTORS
330
1001D
102
}
330
1001D
100
AcDbVisualStyle
  2
OverhangOff
 70
    21
177
     3
291
     1
 70
    58
 90
        2
176
     0
 90
        2
176
     0
 90
        0
176
     0
 90
        0
176
     0
 40
0.6
176
     0
 40
30.0
176
     0
 62
     7
420
 16777215
176
     0
 90
        1
176
     0
 90
        4
176
     0
 62
     7
176
     0
 62
   257
176
     0
 90
        1
176
     0
 90
        1
176
     0
 40
1.0
176
     0
 90
        9
176
     2
 62
     7
176
     0
 40
1.0
176
     0
 90
        1
176
     0
 90
        6
176
     0
 90
        2
176
     0
 62
     7
176
     0
 90
        5
176
     0
 90
        0
176
     0
 90
        0
176
     0
290
     0
176
     0
 90
        1
176
     0
 40
0.0
176
     0
 90
        0
176
     0
290
     0
176
     1
290
     1
176
     1
290
     1
176
     1
290
     0
176
     1
290
     0
176
     1
290
     0
176
     1
290
     0
176
     1
290
     0
176
     1
290
     0
176
     1
 90
       50
176
     0
 40
0.0
176
     0
 40
1.0
176
     0
 90
        0
176
     0
 62
    18
420
        0
176
     0
 90
       50
176
     0
 90
        3
176
     0
 62
     5
420
      255
176
     0
290
     0
176
     1
 90
       50
176
     0
 90
       50
176
     0
 90
       50
176
     0
290
     0
176
     1
 90
       50
176
     0
 62
   256
176
     0
 40
1.0
176
     0
 90
        2
176
     0
  1
strokes_ogs.tif
176
     0
290
     0
176
     1
 40
1.0
176
     0
 40
1.0
176
     0
  0
VISUALSTYLE
  5
10027
102
{ACAD_REACTORS
330
1001D
102
}
330
1001D
100
AcDbVisualStyle
  2
Realistic
 70
     8
177
     3
291
     0
 70
    58
 90
        2
176
     1
 90
        3
176
     1
 90
        0
176
     1
 90
        2
176
     1
 40
0.6
176
     1
 40
30.0
176
     1
 62
     7
420
 16777215
176
     1
 90
        0
176
     1
 90
        0
176
     1
 62
     7
176
     1
 62
   257
176
     1
 90
        1
176
     1
 90
        1
176
     1
 40
1.0
176
     1
 90
        8
176
     1
 62
   257
176
     1
 40
1.0
176
     1
 90
        1
176
     1
 90
        6
176
     1
 90
        2
176
     1
 62
     7
176
     1
 90
        3
176
     1
 90
        0
176
     1
 90
        0
176
     1
290
     0
176
     1
 90
       13
176
     1
 40
0.0
176
     1
 90
        0
176
     1
290
     0
176
     1
290
     1
176
     1
290
     1
176
     1
290
     0
176
     1
290
     0
176
     1
290
     0
176
     1
290
     0
176
     1
290
     0
176
     1
290
     0
176
     1
 90
       50
176
     1
 40
0.0
176
     1
 40
1.0
176
     1
 90
        0
176
     1
 62
    18
420
        0
176
     1
 90
       50
176
     1
 90
        3
176
     1
 62
     5
420
      255
176
     1
290
     0
176
     1
 90
       50
176
     1
 90
       50
176
     1
 90
       50
176
     1
290
     0
176
     1
 90
       50
176
     1
 62
   256
176
     0
 40
1.0
176
     0
 90
        2
176
     1
  1
strokes_ogs.tif
176
     1
290
     0
176
     1
 40
1.0
176
     1
 40
1.0
176
     1
  0
VISUALSTYLE
  5
10032
102
{ACAD_REACTORS
330
1001D
102
}
330
1001D
100
AcDbVisualStyle
  2
Shaded
 70
    27
177
     3
291
     0
 70
    58
 90
        2
176
     1
 90
        2
176
     1
 90
        1
176
     1
 90
        2
176
     1
 40
0.6
176
     1
 40
30.0
176
     1
 62
     7
420
 16777215
176
     1
 90
        0
176
     1
 90
        4
176
     1
 62
     7
176
     1
 62
   257
176
     1
 90
        1
176
     1
 90
        1
176
     1
 40
1.0
176
     1
 90
        8
176
     1
 62
   257
176
     1
 40
1.0
176
     1
 90
        1
176
     1
 90
        6
176
     1
 90
        2
176
     1
 62
     8
420
  7895160
176
     1
 90
        3
176
     1
 90
        0
176
     1
 90
        0
176
     1
290
     0
176
     1
 90
        5
176
     1
 40
0.0
176
     1
 90
        0
176
     1
290
     0
176
     1
290
     1
176
     1
290
     1
176
     1
290
     0
176
     1
290
     0
176
     1
290
     0
176
     1
290
     0
176
     1
290
     0
176
     1
290
     0
176
     1
 90
       50
176
     1
 40
0.0
176
     1
 40
1.0
176
     1
 90
        0
176
     1
 62
    18
420
        0
176
     1
 90
       50
176
     1
 90
        3
176
     1
 62
     5
420
      255
176
     1
290
     0
176
     1
 90
       50
176
     1
 90
       50
176
     1
 90
       50
176
     1
290
     0
176
     1
 90
       50
176
     1
 62
   256
176
     0
 40
1.0
176
     0
 90
        2
176
     1
  1
strokes_ogs.tif
176
     1
290
     0
176
     1
 40
1.0
176
     1
 40
1.0
176
     1
  0
VISUALSTYLE
  5
10031
102
{ACAD_REACTORS
330
1001D
102
}
330
1001D
100
AcDbVisualStyle
  2
Shaded with edges
 70
    26
177
     3
291
     0
 70
    58
 90
        2
176
     1
 90
        2
176
     1
 90
        1
176
     1
 90
        2
176
     1
 40
0.6
176
     1
 40
30.0
176
     1
 62
     7
420
 16777215
176
     1
 90
        1
176
     1
 90
        2
176
     1
 62
     7
176
     1
 62
   257
176
     1
 90
        2
176
     1
 90
        1
176
     1
 40
1.0
176
     1
 90
        8
176
     1
 62
   257
176
     1
 40
1.0
176
     1
 90
        1
176
     1
 90
        6
176
     1
 90
        2
176
     1
 62
     7
176
     1
 90
        3
176
     1
 90
        0
176
     1
 90
        0
176
     1
290
     0
176
     1
 90
        5
176
     1
 40
0.0
176
     1
 90
        0
176
     1
290
     0
176
     1
290
     1
176
     1
290
     1
176
     1
290
     0
176
     1
290
     0
176
     1
290
     0
176
     1
290
     0
176
     1
290
     0
176
     1
290
     0
176
     1
 90
       50
176
     1
 40
0.0
176
     1
 40
1.0
176
     1
 90
        0
176
     1
 62
    18
420
        0
176
     1
 90
       50
176
     1
 90
        3
176
     1
 62
     5
420
      255
176
     1
290
     0
176
     1
 90
       50
176
     1
 90
       50
176
     1
 90
       50
176
     1
290
     0
176
     1
 90
       50
176
     1
 62
   256
176
     0
 40
1.0
176
     0
 90
        2
176
     1
  1
strokes_ogs.tif
176
     1
290
     0
176
     1
 40
1.0
176
     1
 40
1.0
176
     1
  0
VISUALSTYLE
  5
1002E
102
{ACAD_REACTORS
330
1001D
102
}
330
1001D
100
AcDbVisualStyle
  2
Shades of Gray
 70
    23
177
     3
291
     0
 70
    58
 90
        2
176
     1
 90
        2
176
     1
 90
        3
176
     1
 90
        0
176
     1
 40
0.6
176
     1
 40
30.0
176
     1
 62
     7
420
 16777215
176
     1
 90
        2
176
     1
 90
        2
176
     1
 62
     7
176
     1
 62
     7
176
     1
 90
        1
176
     1
 90
        1
176
     1
 40
40.0
176
     1
 90
        8
176
     1
 62
     7
176
     1
 40
1.0
176
     1
 90
        1
176
     1
 90
        6
176
     1
 90
        2
176
     1
 62
     7
176
     1
 90
        3
176
     1
 90
        0
176
     1
 90
        0
176
     1
290
     0
176
     1
 90
        1
176
     1
 40
0.0
176
     1
 90
        0
176
     1
290
     0
176
     1
290
     1
176
     1
290
     1
176
     1
290
     0
176
     1
290
     0
176
     1
290
     0
176
     1
290
     0
176
     1
290
     0
176
     1
290
     0
176
     1
 90
       50
176
     1
 40
0.0
176
     1
 40
1.0
176
     1
 90
        0
176
     1
 62
    18
420
        0
176
     1
 90
       50
176
     1
 90
        3
176
     1
 62
     5
420
      255
176
     1
290
     0
176
     1
 90
       50
176
     1
 90
       50
176
     1
 90
       50
176
     1
290
     0
176
     1
 90
       50
176
     1
 62
   256
176
     0
 40
1.0
176
     0
 90
        2
176
     1
  1
strokes_ogs.tif
176
     1
290
     0
176
     1
 40
1.0
176
     1
 40
1.0
176
     1
  0
VISUALSTYLE
  5
1002F
102
{ACAD_REACTORS
330
1001D
102
}
330
1001D
100
AcDbVisualStyle
  2
Sketchy
 70
    24
177
     3
291
     0
 70
    58
 90
        1
176
     1
 90
        2
176
     1
 90
        2
176
     1
 90
        0
176
     1
 40
0.6
176
     1
 40
30.0
176
     1
 62
     7
420
 16777215
176
     1
 90
        2
176
     1
 90
        2
176
     1
 62
     7
176
     1
 62
     7
176
     1
 90
        1
176
     1
 90
        1
176
     1
 40
40.0
176
     1
 90
       11
176
     1
 62
     7
176
     1
 40
1.0
176
     1
 90
        1
176
     1
 90
        6
176
     1
 90
        2
176
     1
 62
     7
176
     1
 90
        6
176
     1
 90
        0
176
     1
 90
        0
176
     1
290
     0
176
     1
 90
        1
176
     1
 40
0.0
176
     1
 90
        0
176
     1
290
     0
176
     1
290
     1
176
     1
290
     1
176
     1
290
     0
176
     1
290
     0
176
     1
290
     0
176
     1
290
     0
176
     1
290
     0
176
     1
290
     0
176
     1
 90
       50
176
     1
 40
0.0
176
     1
 40
1.0
176
     1
 90
        0
176
     1
 62
    18
420
        0
176
     1
 90
       50
176
     1
 90
        3
176
     1
 62
     5
420
      255
176
     1
290
     0
176
     1
 90
       50
176
     1
 90
       50
176
     1
 90
       50
176
     1
290
     0
176
     1
 90
       50
176
     1
 62
   256
176
     0
 40
1.0
176
     0
 90
        2
176
     1
  1
strokes_ogs.tif
176
     1
290
     0
176
     1
 40
1.0
176
     1
 40
1.0
176
     1
  0
VISUALSTYLE
  5
1002A
102
{ACAD_REACTORS
330
1001D
102
}
330
1001D
100
AcDbVisualStyle
  2
Thicken
 70
    13
177
     3
291
     1
 70
    58
 90
        2
176
     1
 90
        2
176
     1
 90
        0
176
     1
 90
        0
176
     1
 40
0.6
176
     1
 40
30.0
176
     1
 62
     7
420
 16777215
176
     1
 90
        1
176
     1
 90
        4
176
     1
 62
     7
176
     1
 62
   257
176
     1
 90
        1
176
     1
 90
        1
176
     1
 40
1.0
176
     1
 90
       12
176
     1
 62
     7
176
     1
 40
1.0
176
     1
 90
        1
176
     1
 90
        6
176
     1
 90
        2
176
     1
 62
     7
176
     1
 90
        5
176
     1
 90
        0
176
     1
 90
        0
176
     1
290
     0
176
     1
 90
        1
176
     1
 40
0.0
176
     1
 90
        0
176
     1
290
     0
176
     1
290
     1
176
     1
290
     1
176
     1
290
     0
176
     1
290
     0
176
     1
290
     0
176
     1
290
     0
176
     1
290
     0
176
     1
290
     0
176
     1
 90
       50
176
     1
 40
0.0
176
     1
 40
1.0
176
     1
 90
        0
176
     1
 62
    18
420
        0
176
     1
 90
       50
176
     1
 90
        3
176
     1
 62
     5
420
      255
176
     1
290
     0
176
     1
 90
       50
176
     1
 90
       50
176
     1
 90
       50
176
     1
290
     0
176
     1
 90
       50
176
     1
 62
   256
176
     0
 40
1.0
176
     0
 90
        2
176
     1
  1
strokes_ogs.tif
176
     1
290
     0
176
     1
 40
1.0
176
     1
 40
1.0
176
     1
  0
VISUALSTYLE
  5
10024
102
{ACAD_REACTORS
330
1001D
102
}
330
1001D
100
AcDbVisualStyle
  2
Wireframe
 70
     5
177
     3
291
     0
 70
    58
 90
        0
176
     1
 90
        2
176
     1
 90
        0
176
     1
 90
        0
176
     1
 40
0.6
176
     1
 40
30.0
176
     1
 62
     7
420
 16777215
176
     1
 90
        1
176
     1
 90
        4
176
     1
 62
     7
176
     1
 62
   257
176
     1
 90
        1
176
     1
 90
        1
176
     1
 40
1.0
176
     1
 90
        0
176
     1
 62
   257
176
     1
 40
1.0
176
     1
 90
        1
176
     1
 90
        6
176
     1
 90
        2
176
     1
 62
     7
176
     1
 90
        3
176
     1
 90
        0
176
     1
 90
        0
176
     1
290
     0
176
     1
 90
        1
176
     1
 40
0.0
176
     1
 90
        0
176
     1
290
     0
176
     1
290
     1
176
     1
290
     1
176
     1
290
     0
176
     1
290
     0
176
     1
290
     0
176
     1
290
     0
176
     1
290
     0
176
     1
290
     0
176
     1
 90
       50
176
     1
 40
0.0
176
     1
 40
1.0
176
     1
 90
        0
176
     1
 62
    18
420
        0
176
     1
 90
       50
176
     1
 90
        3
176
     1
 62
     5
420
      255
176
     1
290
     0
176
     1
 90
       50
176
     1
 90
       50
176
     1
 90
       50
176
     1
290
     0
176
     1
 90
       50
176
     1
 62
   256
176
     0
 40
1.0
176
     0
 90
        2
176
     1
  1
strokes_ogs.tif
176
     1
290
     0
176
     1
 40
1.0
176
     1
 40
1.0
176
     1
  0
VISUALSTYLE
  5
10030
102
{ACAD_REACTORS
330
1001D
102
}
330
1001D
100
AcDbVisualStyle
  2
X-Ray
 70
    25
177
     3
291
     0
 70
    58
 90
        2
176
     1
 90
        2
176
     1
 90
        1
176
     1
 90
        1
176
     1
 40
0.5
176
     1
 40
30.0
176
     1
 62
     7
420
 16777215
176
     1
 90
        1
176
     1
 90
        0
176
     1
 62
     7
176
     1
 62
   257
176
     1
 90
        1
176
     1
 90
        1
176
     1
 40
1.0
176
     1
 90
        8
176
     1
 62
     7
176
     1
 40
1.0
176
     1
 90
        1
176
     1
 90
        6
176
     1
 90
        2
176
     1
 62
     7
176
     1
 90
        3
176
     1
 90
        0
176
     1
 90
        0
176
     1
290
     0
176
     1
 90
       13
176
     1
 40
0.0
176
     1
 90
        0
176
     1
290
     0
176
     1
290
     1
176
     1
290
     1
176
     1
290
     0
176
     1
290
     0
176
     1
290
     0
176
     1
290
     0
176
     1
290
     0
176
     1
290
     0
176
     1
 90
       50
176
     1
 40
0.0
176
     1
 40
1.0
176
     1
 90
        0
176
     1
 62
    18
420
        0
176
     1
 90
       50
176
     1
 90
        3
176
     1
 62
     5
420
      255
176
     1
290
     0
176
     1
 90
       50
176
     1
 90
       50
176
     1
 90
       50
176
     1
290
     0
176
     1
 90
       50
176
     1
 62
   256
176
     0
 40
1.0
176
     0
 90
        2
176
     1
  1
strokes_ogs.tif
176
     1
290
     0
176
     1
 40
1.0
176
     1
 40
1.0
176
     1
  0
DICTIONARYVAR
  5
1006C
102
{ACAD_REACTORS
330
10066
102
}
330
10066
100
DictionaryVariables
280
     0
  1
1:1
  0
DICTIONARYVAR
  5
10068
102
{ACAD_REACTORS
330
10066
102
}
330
10066
100
DictionaryVariables
280
     0
  1
STANDARD
  0
DICTIONARYVAR
  5
10067
102
{ACAD_REACTORS
330
10066
102
}
330
10066
100
DictionaryVariables
280
     0
  1
STANDARD
  0
DICTIONARYVAR
  5
10069
102
{ACAD_REACTORS
330
10066
102
}
330
10066
100
DictionaryVariables
280
     0
  1
Imperial24
  0
DICTIONARYVAR
  5
1006A
102
{ACAD_REACTORS
330
10066
102
}
330
10066
100
DictionaryVariables
280
     0
  1
Imperial24
  0
DICTIONARYVAR
  5
1006E
102
{ACAD_REACTORS
330
10066
102
}
330
10066
100
DictionaryVariables
280
     0
  1
1
  0
DICTIONARYVAR
  5
1006F
102
{ACAD_REACTORS
330
10066
102
}
330
10066
100
DictionaryVariables
280
     0
  1
15
  0
DICTIONARYVAR
  5
1006D
102
{ACAD_REACTORS
330
10066
102
}
330
10066
100
DictionaryVariables
280
     0
  1
0
  0
DICTIONARYVAR
  5
1006B
102
{ACAD_REACTORS
330
10066
102
}
330
10066
100
DictionaryVariables
280
     0
  1
0
  0
DICTIONARY
  5
1000E
330
1000D
100
AcDbDictionary
280
     1
281
     1
  3
BUMPTILE
360
10010
  3
DIFFUSETILE
360
1000F
  3
OPACITYTILE
360
10013
  3
REFLECTIONTILE
360
10012
  3
REFRACTIONTILE
360
10014
  3
SPECULARTILE
360
10011
  0
DICTIONARY
  5
10006
330
10005
100
AcDbDictionary
280
     1
281
     1
  3
BUMPTILE
360
10008
  3
DIFFUSETILE
360
10007
  3
OPACITYTILE
360
1000B
  3
REFLECTIONTILE
360
1000A
  3
REFRACTIONTILE
360
1000C
  3
SPECULARTILE
360
10009
  0
DICTIONARY
  5
10016
330
10015
100
AcDbDictionary
280
     1
281
     1
  3
BUMPTILE
360
10018
  3
DIFFUSETILE
360
10017
  3
OPACITYTILE
360
1001B
  3
REFLECTIONTILE
360
1001A
  3
REFRACTIONTILE
360
1001C
  3
SPECULARTILE
360
10019
  0
DICTIONARY
  5
10070
330
10039
100
AcDbDictionary
280
     1
281
     1
  3
ACAD_ROUNDTRIP_2008_TABLESTYLE_CELLSTYLEMAP
360
10071
  0
XRECORD
  5
10010
102
{ACAD_REACTORS
330
1000E
102
}
330
1000E
100
AcDbXrecord
280
     1
270
     1
271
     1
  0
XRECORD
  5
1000F
102
{ACAD_REACTORS
330
1000E
102
}
330
1000E
100
AcDbXrecord
280
     1
270
     1
271
     1
  0
XRECORD
  5
10013
102
{ACAD_REACTORS
330
1000E
102
}
330
1000E
100
AcDbXrecord
280
     1
270
     1
271
     1
  0
XRECORD
  5
10012
102
{ACAD_REACTORS
330
1000E
102
}
330
1000E
100
AcDbXrecord
280
     1
270
     1
271
     1
  0
XRECORD
  5
10014
102
{ACAD_REACTORS
330
1000E
102
}
330
1000E
100
AcDbXrecord
280
     1
270
     1
271
     1
  0
XRECORD
  5
10011
102
{ACAD_REACTORS
330
1000E
102
}
330
1000E
100
AcDbXrecord
280
     1
270
     1
271
     1
  0
XRECORD
  5
10008
102
{ACAD_REACTORS
330
10006
102
}
330
10006
100
AcDbXrecord
280
     1
270
     1
271
     1
  0
XRECORD
  5
10007
102
{ACAD_REACTORS
330
10006
102
}
330
10006
100
AcDbXrecord
280
     1
270
     1
271
     1
  0
XRECORD
  5
1000B
102
{ACAD_REACTORS
330
10006
102
}
330
10006
100
AcDbXrecord
280
     1
270
     1
271
     1
  0
XRECORD
  5
1000A
102
{ACAD_REACTORS
330
10006
102
}
330
10006
100
AcDbXrecord
280
     1
270
     1
271
     1
  0
XRECORD
  5
1000C
102
{ACAD_REACTORS
330
10006
102
}
330
10006
100
AcDbXrecord
280
     1
270
     1
271
     1
  0
XRECORD
  5
10009
102
{ACAD_REACTORS
330
10006
102
}
330
10006
100
AcDbXrecord
280
     1
270
     1
271
     1
  0
XRECORD
  5
10018
102
{ACAD_REACTORS
330
10016
102
}
330
10016
100
AcDbXrecord
280
     1
270
     1
271
     1
  0
XRECORD
  5
10017
102
{ACAD_REACTORS
330
10016
102
}
330
10016
100
AcDbXrecord
280
     1
270
     1
271
     1
  0
XRECORD
  5
1001B
102
{ACAD_REACTORS
330
10016
102
}
330
10016
100
AcDbXrecord
280
     1
270
     1
271
     1
  0
XRECORD
  5
1001A
102
{ACAD_REACTORS
330
10016
102
}
330
10016
100
AcDbXrecord
280
     1
270
     1
271
     1
  0
XRECORD
  5
1001C
102
{ACAD_REACTORS
330
10016
102
}
330
10016
100
AcDbXrecord
280
     1
270
     1
271
     1
  0
XRECORD
  5
10019
102
{ACAD_REACTORS
330
10016
102
}
330
10016
100
AcDbXrecord
280
     1
270
     1
271
     1
  0
CELLSTYLEMAP
  5
10071
102
{ACAD_REACTORS
330
10070
102
}
330
10070
100
AcDbCellStyleMap
 90
        3
300
CELLSTYLE
  1
TABLEFORMAT_BEGIN
 90
        5
170
     1
 91
        0
 92
    32768
 62
   257
 93
        1
300
CONTENTFORMAT
  1
CONTENTFORMAT_BEGIN
 90
        0
 91
        0
 92
      512
 93
        0
300

 40
0.0
140
1.0
 94
        5
 62
     0
340
11
144
0.25
309
CONTENTFORMAT_END
171
     0
 94
        0
309
TABLEFORMAT_END
  1
CELLSTYLE_BEGIN
 90
        1
 91
        1
300
_TITLE
309
CELLSTYLE_END
300
CELLSTYLE
  1
TABLEFORMAT_BEGIN
 90
        5
170
     1
 91
        0
 92
        0
 62
   257
 93
        1
300
CONTENTFORMAT
  1
CONTENTFORMAT_BEGIN
 90
        0
 91
        0
 92
      512
 93
        0
300

 40
0.0
140
1.0
 94
        5
 62
     0
340
11
144
0.18
309
CONTENTFORMAT_END
171
     0
 94
        0
309
TABLEFORMAT_END
  1
CELLSTYLE_BEGIN
 90
        2
 91
        1
300
_HEADER
309
CELLSTYLE_END
300
CELLSTYLE
  1
TABLEFORMAT_BEGIN
 90
        5
170
     1
 91
        0
 92
        0
 62
   257
 93
        1
300
CONTENTFORMAT
  1
CONTENTFORMAT_BEGIN
 90
        0
 91
        0
 92
      512
 93
        0
300

 40
0.0
140
1.0
 94
        2
 62
     0
340
11
144
0.18
309
CONTENTFORMAT_END
171
     0
 94
        0
309
TABLEFORMAT_END
  1
CELLSTYLE_BEGIN
 90
        3
 91
        2
300
_DATA
309
CELLSTYLE_END
  0
ENDSEC
  0
EOF
