G04*
G04 #@! TF.GenerationSoftware,Altium Limited,Altium Designer,21.6.4 (81)*
G04*
G04 Layer_Color=16711935*
%FSTAX24Y24*%
%MOIN*%
G70*
G04*
G04 #@! TF.SameCoordinates,245CE46D-98AB-4B62-9B0C-93C9D4342F2A*
G04*
G04*
G04 #@! TF.FilePolarity,Positive*
G04*
G01*
G75*
%ADD52C,0.0079*%
%ADD55C,0.0039*%
D52*
X094883Y011563D02*
G03*
X095406Y011881I0J000591D01*
G01*
X097605Y011881D02*
G03*
X095406Y011881I-0011J-000573D01*
G01*
X097605Y011881D02*
G03*
X098129Y011563I000524J000273D01*
G01*
X08823Y011881D02*
G03*
X088754Y011563I000524J000273D01*
G01*
X08823Y011881D02*
G03*
X086031Y011881I-0011J-000573D01*
G01*
X085507Y011563D02*
G03*
X086031Y011881I0J000591D01*
G01*
X088754Y04865D02*
G03*
X08823Y048333I0J-000591D01*
G01*
X086031Y048333D02*
G03*
X08823Y048333I0011J000573D01*
G01*
X086031Y048333D02*
G03*
X085507Y04865I-000524J-000273D01*
G01*
X12573Y011881D02*
G03*
X126254Y011563I000524J000273D01*
G01*
X12573Y011881D02*
G03*
X123531Y011881I-0011J-000573D01*
G01*
X123008Y011563D02*
G03*
X123531Y011881I0J000591D01*
G01*
X02073D02*
G03*
X021254Y011563I000524J000273D01*
G01*
X02073Y011881D02*
G03*
X018531Y011881I-0011J-000573D01*
G01*
X12573D02*
G03*
X123531Y011881I-0011J-000573D01*
G01*
X123008Y011563D02*
G03*
X123531Y011881I0J000591D01*
G01*
X02073D02*
G03*
X021254Y011563I000524J000273D01*
G01*
X02073Y011881D02*
G03*
X018531Y011881I-0011J-000573D01*
G01*
X018008Y011563D02*
G03*
X018531Y011881I0J000591D01*
G01*
X048007Y011563D02*
G03*
X048531Y011881I0J000591D01*
G01*
X05073Y011881D02*
G03*
X048531Y011881I-0011J-000573D01*
G01*
X05073Y011881D02*
G03*
X051254Y011563I000524J000273D01*
G01*
Y04865D02*
G03*
X05073Y048333I0J-000591D01*
G01*
X048531Y048333D02*
G03*
X05073Y048333I0011J000573D01*
G01*
X048531Y048333D02*
G03*
X048007Y04865I-000524J-000273D01*
G01*
X115508Y011563D02*
G03*
X116031Y011881I0J000591D01*
G01*
X109838Y012449D02*
G03*
X110723Y011563I000886J0D01*
G01*
X109838Y018571D02*
G03*
X109345Y019063I-000492J0D01*
G01*
X106166D02*
G03*
X105674Y018571I0J-000492D01*
G01*
X104788Y011563D02*
G03*
X105674Y012449I0J000886D01*
G01*
X033855Y011881D02*
G03*
X034379Y011563I000524J000273D01*
G01*
X033855Y011881D02*
G03*
X031656Y011881I-0011J-000573D01*
G01*
X031133Y011563D02*
G03*
X031656Y011881I0J000591D01*
G01*
X012337Y012449D02*
G03*
X013223Y011563I000886J0D01*
G01*
Y04865D02*
G03*
X012337Y047764I0J-000886D01*
G01*
X018531Y048333D02*
G03*
X018008Y04865I-000524J-000273D01*
G01*
X018531Y048333D02*
G03*
X02073Y048333I0011J000573D01*
G01*
X021254Y04865D02*
G03*
X02073Y048333I0J-000591D01*
G01*
X063531D02*
G03*
X063008Y04865I-000524J-000273D01*
G01*
X063531Y048333D02*
G03*
X06573Y048333I0011J000573D01*
G01*
X066254Y04865D02*
G03*
X06573Y048333I0J-000591D01*
G01*
X123531D02*
G03*
X123008Y04865I-000524J-000273D01*
G01*
X123531Y048333D02*
G03*
X12573Y048333I0011J000573D01*
G01*
X126254Y04865D02*
G03*
X12573Y048333I0J-000591D01*
G01*
X131038Y011563D02*
G03*
X131924Y012449I0J000886D01*
G01*
X11823Y011881D02*
G03*
X118754Y011563I000524J000273D01*
G01*
X11823Y011881D02*
G03*
X116031Y011881I-0011J-000573D01*
G01*
X115508Y011563D02*
G03*
X116031Y011881I0J000591D01*
G01*
X109838Y012449D02*
G03*
X110723Y011563I000886J0D01*
G01*
X109838Y018571D02*
G03*
X109345Y019063I-000492J0D01*
G01*
X106166D02*
G03*
X105674Y018571I0J-000492D01*
G01*
X104788Y011563D02*
G03*
X105674Y012449I0J000886D01*
G01*
X033855Y011881D02*
G03*
X034379Y011563I000524J000273D01*
G01*
X033855Y011881D02*
G03*
X031656Y011881I-0011J-000573D01*
G01*
X031133Y011563D02*
G03*
X031656Y011881I0J000591D01*
G01*
X012337Y012449D02*
G03*
X013223Y011563I000886J0D01*
G01*
Y04865D02*
G03*
X012337Y047764I0J-000886D01*
G01*
X018531Y048333D02*
G03*
X018008Y04865I-000524J-000273D01*
G01*
X018531Y048333D02*
G03*
X02073Y048333I0011J000573D01*
G01*
X021254Y04865D02*
G03*
X02073Y048333I0J-000591D01*
G01*
X063531D02*
G03*
X063008Y04865I-000524J-000273D01*
G01*
X063531Y048333D02*
G03*
X06573Y048333I0011J000573D01*
G01*
X066254Y04865D02*
G03*
X06573Y048333I0J-000591D01*
G01*
X123531D02*
G03*
X123008Y04865I-000524J-000273D01*
G01*
X123531Y048333D02*
G03*
X12573Y048333I0011J000573D01*
G01*
X126254Y04865D02*
G03*
X12573Y048333I0J-000591D01*
G01*
X131924Y047764D02*
G03*
X131038Y04865I-000886J0D01*
G01*
Y011563D02*
G03*
X131924Y012449I0J000886D01*
G01*
X11823Y011881D02*
G03*
X118754Y011563I000524J000273D01*
G01*
X11823Y011881D02*
G03*
X116031Y011881I-0011J-000573D01*
G01*
X088754Y011563D02*
X094883D01*
X126254Y011563D02*
X131038D01*
X118754Y011563D02*
X123008D01*
X051254D02*
X085507D01*
X034379D02*
X048007D01*
X021254D02*
X031133D01*
X013223D02*
X018008D01*
X12573Y011881D02*
X12573D01*
X02073D02*
X02073D01*
X12573D02*
X12573D01*
X02073D02*
X02073D01*
X066254Y04865D02*
X085507D01*
X088754Y04865D02*
X123008Y04865D01*
X051254Y04865D02*
X063008Y04865D01*
X013223D02*
X018008D01*
X110723Y011563D02*
X115508D01*
X109838Y012449D02*
Y018571D01*
X106166Y019063D02*
X109345D01*
X105674Y012449D02*
Y018571D01*
X098129Y011563D02*
X104788D01*
X031656Y011881D02*
X031656D01*
X012337Y012449D02*
Y047764D01*
X02073Y048333D02*
X02073D01*
X021254Y04865D02*
X048007D01*
X06573Y048333D02*
X06573D01*
X12573D02*
X12573D01*
X126254Y04865D02*
X131038D01*
X116031Y011881D02*
X116031D01*
X110723Y011563D02*
X115508D01*
X109838Y012449D02*
Y018571D01*
X106166Y019063D02*
X109345D01*
X105674Y012449D02*
Y018571D01*
X098129Y011563D02*
X104788D01*
X031656Y011881D02*
X031656D01*
X012337Y012449D02*
Y047764D01*
X02073Y048333D02*
X02073D01*
X06573D02*
X06573D01*
X12573D02*
X12573D01*
X126254Y04865D02*
X131038D01*
X131924Y012449D02*
Y047764D01*
D55*
X107756Y026239D02*
G03*
X107756Y026475I0J000118D01*
G01*
X029006D02*
G03*
X029006Y026239I0J-000118D01*
G01*
X107756D01*
X029006Y026475D02*
X107756D01*
M02*
