G04*
G04 #@! TF.GenerationSoftware,Altium Limited,Altium Designer,21.6.4 (81)*
G04*
G04 Layer_Color=32768*
%FSTAX24Y24*%
%MOIN*%
G70*
G04*
G04 #@! TF.SameCoordinates,245CE46D-98AB-4B62-9B0C-93C9D4342F2A*
G04*
G04*
G04 #@! TF.FilePolarity,Positive*
G04*
G01*
G75*
%ADD52C,0.0079*%
%ADD57C,0.0020*%
D52*
X041609Y041681D02*
G03*
X041806Y041878I0J000197D01*
G01*
Y048335D02*
G03*
X041609Y048532I-000197J0D01*
G01*
X034956Y041878D02*
G03*
X035152Y041681I000197J0D01*
G01*
Y048532D02*
G03*
X034956Y048335I0J-000197D01*
G01*
X131609Y019181D02*
G03*
X131806Y019378I0J000197D01*
G01*
Y025835D02*
G03*
X131609Y026032I-000197J0D01*
G01*
X124956Y019378D02*
G03*
X125152Y019181I000197J0D01*
G01*
Y026032D02*
G03*
X124956Y025835I0J-000197D01*
G01*
X066922Y011681D02*
G03*
X067119Y011878I0J000197D01*
G01*
Y018335D02*
G03*
X066922Y018532I-000197J0D01*
G01*
X060268Y011878D02*
G03*
X060465Y011681I000197J0D01*
G01*
Y018532D02*
G03*
X060268Y018335I0J-000197D01*
G01*
X124109Y011681D02*
G03*
X124306Y011878I0J000197D01*
G01*
Y018335D02*
G03*
X124109Y018532I-000197J0D01*
G01*
X117456Y011878D02*
G03*
X117652Y011681I000197J0D01*
G01*
Y018532D02*
G03*
X117456Y018335I0J-000197D01*
G01*
X095047Y011681D02*
G03*
X095244Y011878I0J000197D01*
G01*
Y018335D02*
G03*
X095047Y018532I-000197J0D01*
G01*
X088393Y011878D02*
G03*
X08859Y011681I000197J0D01*
G01*
Y018532D02*
G03*
X088393Y018335I0J-000197D01*
G01*
X104422Y011681D02*
G03*
X104619Y011878I0J000197D01*
G01*
Y018335D02*
G03*
X104422Y018532I-000197J0D01*
G01*
X097768Y011878D02*
G03*
X097965Y011681I000197J0D01*
G01*
Y018532D02*
G03*
X097768Y018335I0J-000197D01*
G01*
X116609Y011681D02*
G03*
X116806Y011878I0J000197D01*
G01*
Y018335D02*
G03*
X116609Y018532I-000197J0D01*
G01*
X109956Y011878D02*
G03*
X110152Y011681I000197J0D01*
G01*
Y018532D02*
G03*
X109956Y018335I0J-000197D01*
G01*
X131609Y011681D02*
G03*
X131806Y011878I0J000197D01*
G01*
Y018335D02*
G03*
X131609Y018532I-000197J0D01*
G01*
X124956Y011878D02*
G03*
X125152Y011681I000197J0D01*
G01*
Y018532D02*
G03*
X124956Y018335I0J-000197D01*
G01*
X038797Y011681D02*
G03*
X038993Y011878I0J000197D01*
G01*
Y018335D02*
G03*
X038797Y018532I-000197J0D01*
G01*
X032143Y011878D02*
G03*
X03234Y011681I000197J0D01*
G01*
Y018532D02*
G03*
X032143Y018335I0J-000197D01*
G01*
X020047Y011681D02*
G03*
X020243Y011878I0J000197D01*
G01*
Y018335D02*
G03*
X020047Y018532I-000197J0D01*
G01*
X013393Y011878D02*
G03*
X01359Y011681I000197J0D01*
G01*
Y018532D02*
G03*
X013393Y018335I0J-000197D01*
G01*
X029422Y011681D02*
G03*
X029618Y011878I0J000197D01*
G01*
Y018335D02*
G03*
X029422Y018532I-000197J0D01*
G01*
X022768Y011878D02*
G03*
X022965Y011681I000197J0D01*
G01*
Y018532D02*
G03*
X022768Y018335I0J-000197D01*
G01*
X023797Y019181D02*
G03*
X023993Y019378I0J000197D01*
G01*
Y025835D02*
G03*
X023797Y026032I-000197J0D01*
G01*
X017143Y019378D02*
G03*
X01734Y019181I000197J0D01*
G01*
Y026032D02*
G03*
X017143Y025835I0J-000197D01*
G01*
X124109Y019181D02*
G03*
X124306Y019378I0J000197D01*
G01*
Y025835D02*
G03*
X124109Y026032I-000197J0D01*
G01*
X117456Y019378D02*
G03*
X117652Y019181I000197J0D01*
G01*
Y026032D02*
G03*
X117456Y025835I0J-000197D01*
G01*
X113797Y019181D02*
G03*
X113994Y019378I0J000197D01*
G01*
Y025835D02*
G03*
X113797Y026032I-000197J0D01*
G01*
X107143Y019378D02*
G03*
X10734Y019181I000197J0D01*
G01*
Y026032D02*
G03*
X107143Y025835I0J-000197D01*
G01*
X103484Y019181D02*
G03*
X103681Y019378I0J000197D01*
G01*
Y025835D02*
G03*
X103484Y026032I-000197J0D01*
G01*
X096831Y019378D02*
G03*
X097027Y019181I000197J0D01*
G01*
Y026032D02*
G03*
X096831Y025835I0J-000197D01*
G01*
X095984Y019181D02*
G03*
X096181Y019378I0J000197D01*
G01*
Y025835D02*
G03*
X095984Y026032I-000197J0D01*
G01*
X089331Y019378D02*
G03*
X089527Y019181I000197J0D01*
G01*
Y026032D02*
G03*
X089331Y025835I0J-000197D01*
G01*
X088484Y019181D02*
G03*
X088681Y019378I0J000197D01*
G01*
Y025835D02*
G03*
X088484Y026032I-000197J0D01*
G01*
X081831Y019378D02*
G03*
X082027Y019181I000197J0D01*
G01*
Y026032D02*
G03*
X081831Y025835I0J-000197D01*
G01*
X080984Y019181D02*
G03*
X081181Y019378I0J000197D01*
G01*
Y025835D02*
G03*
X080984Y026032I-000197J0D01*
G01*
X074331Y019378D02*
G03*
X074527Y019181I000197J0D01*
G01*
Y026032D02*
G03*
X074331Y025835I0J-000197D01*
G01*
X073484Y019181D02*
G03*
X073681Y019378I0J000197D01*
G01*
Y025835D02*
G03*
X073484Y026032I-000197J0D01*
G01*
X066831Y019378D02*
G03*
X067027Y019181I000197J0D01*
G01*
Y026032D02*
G03*
X066831Y025835I0J-000197D01*
G01*
X065984Y019181D02*
G03*
X066181Y019378I0J000197D01*
G01*
Y025835D02*
G03*
X065984Y026032I-000197J0D01*
G01*
X059331Y019378D02*
G03*
X059527Y019181I000197J0D01*
G01*
Y026032D02*
G03*
X059331Y025835I0J-000197D01*
G01*
X058484Y019181D02*
G03*
X058681Y019378I0J000197D01*
G01*
Y025835D02*
G03*
X058484Y026032I-000197J0D01*
G01*
X051831Y019378D02*
G03*
X052027Y019181I000197J0D01*
G01*
Y026032D02*
G03*
X051831Y025835I0J-000197D01*
G01*
X050984Y019181D02*
G03*
X051181Y019378I0J000197D01*
G01*
Y025835D02*
G03*
X050984Y026032I-000197J0D01*
G01*
X044331Y019378D02*
G03*
X044527Y019181I000197J0D01*
G01*
Y026032D02*
G03*
X044331Y025835I0J-000197D01*
G01*
X043484Y019181D02*
G03*
X043681Y019378I0J000197D01*
G01*
Y025835D02*
G03*
X043484Y026032I-000197J0D01*
G01*
X036831Y019378D02*
G03*
X037027Y019181I000197J0D01*
G01*
Y026032D02*
G03*
X036831Y025835I0J-000197D01*
G01*
X035984Y019181D02*
G03*
X036181Y019378I0J000197D01*
G01*
Y025835D02*
G03*
X035984Y026032I-000197J0D01*
G01*
X029331Y019378D02*
G03*
X029527Y019181I000197J0D01*
G01*
Y026032D02*
G03*
X029331Y025835I0J-000197D01*
G01*
X119422Y026681D02*
G03*
X119619Y026878I0J000197D01*
G01*
Y033335D02*
G03*
X119422Y033532I-000197J0D01*
G01*
X112768Y026878D02*
G03*
X112965Y026681I000197J0D01*
G01*
Y033532D02*
G03*
X112768Y033335I0J-000197D01*
G01*
X131609Y026681D02*
G03*
X131806Y026878I0J000197D01*
G01*
Y033335D02*
G03*
X131609Y033532I-000197J0D01*
G01*
X124956Y026878D02*
G03*
X125152Y026681I000197J0D01*
G01*
Y033532D02*
G03*
X124956Y033335I0J-000197D01*
G01*
X107234Y026681D02*
G03*
X107431Y026878I0J000197D01*
G01*
Y033335D02*
G03*
X107234Y033532I-000197J0D01*
G01*
X100581Y026878D02*
G03*
X100777Y026681I000197J0D01*
G01*
Y033532D02*
G03*
X100581Y033335I0J-000197D01*
G01*
X099734Y026681D02*
G03*
X099931Y026878I0J000197D01*
G01*
Y033335D02*
G03*
X099734Y033532I-000197J0D01*
G01*
X093081Y026878D02*
G03*
X093277Y026681I000197J0D01*
G01*
Y033532D02*
G03*
X093081Y033335I0J-000197D01*
G01*
X092234Y026681D02*
G03*
X092431Y026878I0J000197D01*
G01*
Y033335D02*
G03*
X092234Y033532I-000197J0D01*
G01*
X085581Y026878D02*
G03*
X085777Y026681I000197J0D01*
G01*
Y033532D02*
G03*
X085581Y033335I0J-000197D01*
G01*
X084734Y026681D02*
G03*
X084931Y026878I0J000197D01*
G01*
Y033335D02*
G03*
X084734Y033532I-000197J0D01*
G01*
X078081Y026878D02*
G03*
X078277Y026681I000197J0D01*
G01*
Y033532D02*
G03*
X078081Y033335I0J-000197D01*
G01*
X077234Y026681D02*
G03*
X077431Y026878I0J000197D01*
G01*
Y033335D02*
G03*
X077234Y033532I-000197J0D01*
G01*
X070581Y026878D02*
G03*
X070777Y026681I000197J0D01*
G01*
Y033532D02*
G03*
X070581Y033335I0J-000197D01*
G01*
X069734Y026681D02*
G03*
X069931Y026878I0J000197D01*
G01*
Y033335D02*
G03*
X069734Y033532I-000197J0D01*
G01*
X063081Y026878D02*
G03*
X063277Y026681I000197J0D01*
G01*
Y033532D02*
G03*
X063081Y033335I0J-000197D01*
G01*
X062234Y026681D02*
G03*
X062431Y026878I0J000197D01*
G01*
Y033335D02*
G03*
X062234Y033532I-000197J0D01*
G01*
X055581Y026878D02*
G03*
X055777Y026681I000197J0D01*
G01*
Y033532D02*
G03*
X055581Y033335I0J-000197D01*
G01*
X054734Y026681D02*
G03*
X054931Y026878I0J000197D01*
G01*
Y033335D02*
G03*
X054734Y033532I-000197J0D01*
G01*
X048081Y026878D02*
G03*
X048277Y026681I000197J0D01*
G01*
Y033532D02*
G03*
X048081Y033335I0J-000197D01*
G01*
X047234Y026681D02*
G03*
X047431Y026878I0J000197D01*
G01*
Y033335D02*
G03*
X047234Y033532I-000197J0D01*
G01*
X040581Y026878D02*
G03*
X040777Y026681I000197J0D01*
G01*
Y033532D02*
G03*
X040581Y033335I0J-000197D01*
G01*
X039734Y026681D02*
G03*
X039931Y026878I0J000197D01*
G01*
Y033335D02*
G03*
X039734Y033532I-000197J0D01*
G01*
X033081Y026878D02*
G03*
X033277Y026681I000197J0D01*
G01*
Y033532D02*
G03*
X033081Y033335I0J-000197D01*
G01*
X032234Y026681D02*
G03*
X032431Y026878I0J000197D01*
G01*
Y033335D02*
G03*
X032234Y033532I-000197J0D01*
G01*
X025581Y026878D02*
G03*
X025777Y026681I000197J0D01*
G01*
Y033532D02*
G03*
X025581Y033335I0J-000197D01*
G01*
X021922Y026681D02*
G03*
X022118Y026878I0J000197D01*
G01*
Y033335D02*
G03*
X021922Y033532I-000197J0D01*
G01*
X015268Y026878D02*
G03*
X015465Y026681I000197J0D01*
G01*
Y033532D02*
G03*
X015268Y033335I0J-000197D01*
G01*
X131609Y034181D02*
G03*
X131806Y034378I0J000197D01*
G01*
Y040835D02*
G03*
X131609Y041032I-000197J0D01*
G01*
X124956Y034378D02*
G03*
X125152Y034181I000197J0D01*
G01*
Y041032D02*
G03*
X124956Y040835I0J-000197D01*
G01*
X122234Y034181D02*
G03*
X122431Y034378I0J000197D01*
G01*
Y040835D02*
G03*
X122234Y041032I-000197J0D01*
G01*
X115581Y034378D02*
G03*
X115777Y034181I000197J0D01*
G01*
Y041032D02*
G03*
X115581Y040835I0J-000197D01*
G01*
X112859Y034181D02*
G03*
X113056Y034378I0J000197D01*
G01*
Y040835D02*
G03*
X112859Y041032I-000197J0D01*
G01*
X106206Y034378D02*
G03*
X106402Y034181I000197J0D01*
G01*
Y041032D02*
G03*
X106206Y040835I0J-000197D01*
G01*
X105359Y034181D02*
G03*
X105556Y034378I0J000197D01*
G01*
Y040835D02*
G03*
X105359Y041032I-000197J0D01*
G01*
X098706Y034378D02*
G03*
X098902Y034181I000197J0D01*
G01*
Y041032D02*
G03*
X098706Y040835I0J-000197D01*
G01*
X097859Y034181D02*
G03*
X098056Y034378I0J000197D01*
G01*
Y040835D02*
G03*
X097859Y041032I-000197J0D01*
G01*
X091206Y034378D02*
G03*
X091402Y034181I000197J0D01*
G01*
Y041032D02*
G03*
X091206Y040835I0J-000197D01*
G01*
X090359Y034181D02*
G03*
X090556Y034378I0J000197D01*
G01*
Y040835D02*
G03*
X090359Y041032I-000197J0D01*
G01*
X083706Y034378D02*
G03*
X083902Y034181I000197J0D01*
G01*
Y041032D02*
G03*
X083706Y040835I0J-000197D01*
G01*
X082859Y034181D02*
G03*
X083056Y034378I0J000197D01*
G01*
Y040835D02*
G03*
X082859Y041032I-000197J0D01*
G01*
X076206Y034378D02*
G03*
X076402Y034181I000197J0D01*
G01*
Y041032D02*
G03*
X076206Y040835I0J-000197D01*
G01*
X075359Y034181D02*
G03*
X075556Y034378I0J000197D01*
G01*
Y040835D02*
G03*
X075359Y041032I-000197J0D01*
G01*
X068706Y034378D02*
G03*
X068902Y034181I000197J0D01*
G01*
Y041032D02*
G03*
X068706Y040835I0J-000197D01*
G01*
X067859Y034181D02*
G03*
X068056Y034378I0J000197D01*
G01*
Y040835D02*
G03*
X067859Y041032I-000197J0D01*
G01*
X061206Y034378D02*
G03*
X061402Y034181I000197J0D01*
G01*
Y041032D02*
G03*
X061206Y040835I0J-000197D01*
G01*
X060359Y034181D02*
G03*
X060556Y034378I0J000197D01*
G01*
Y040835D02*
G03*
X060359Y041032I-000197J0D01*
G01*
X053706Y034378D02*
G03*
X053902Y034181I000197J0D01*
G01*
Y041032D02*
G03*
X053706Y040835I0J-000197D01*
G01*
X052859Y034181D02*
G03*
X053056Y034378I0J000197D01*
G01*
Y040835D02*
G03*
X052859Y041032I-000197J0D01*
G01*
X046206Y034378D02*
G03*
X046402Y034181I000197J0D01*
G01*
Y041032D02*
G03*
X046206Y040835I0J-000197D01*
G01*
X045359Y034181D02*
G03*
X045556Y034378I0J000197D01*
G01*
Y040835D02*
G03*
X045359Y041032I-000197J0D01*
G01*
X038706Y034378D02*
G03*
X038902Y034181I000197J0D01*
G01*
Y041032D02*
G03*
X038706Y040835I0J-000197D01*
G01*
X037859Y034181D02*
G03*
X038056Y034378I0J000197D01*
G01*
Y040835D02*
G03*
X037859Y041032I-000197J0D01*
G01*
X031206Y034378D02*
G03*
X031402Y034181I000197J0D01*
G01*
Y041032D02*
G03*
X031206Y040835I0J-000197D01*
G01*
X030359Y034181D02*
G03*
X030556Y034378I0J000197D01*
G01*
Y040835D02*
G03*
X030359Y041032I-000197J0D01*
G01*
X023706Y034378D02*
G03*
X023902Y034181I000197J0D01*
G01*
Y041032D02*
G03*
X023706Y040835I0J-000197D01*
G01*
X020984Y034181D02*
G03*
X021181Y034378I0J000197D01*
G01*
Y040835D02*
G03*
X020984Y041032I-000197J0D01*
G01*
X014331Y034378D02*
G03*
X014527Y034181I000197J0D01*
G01*
Y041032D02*
G03*
X014331Y040835I0J-000197D01*
G01*
X120359Y041681D02*
G03*
X120556Y041878I0J000197D01*
G01*
Y048335D02*
G03*
X120359Y048532I-000197J0D01*
G01*
X113706Y041878D02*
G03*
X113902Y041681I000197J0D01*
G01*
Y048532D02*
G03*
X113706Y048335I0J-000197D01*
G01*
X131609Y041681D02*
G03*
X131806Y041878I0J000197D01*
G01*
Y048335D02*
G03*
X131609Y048532I-000197J0D01*
G01*
X124956Y041878D02*
G03*
X125152Y041681I000197J0D01*
G01*
Y048532D02*
G03*
X124956Y048335I0J-000197D01*
G01*
X109109Y041681D02*
G03*
X109306Y041878I0J000197D01*
G01*
Y048335D02*
G03*
X109109Y048532I-000197J0D01*
G01*
X102456Y041878D02*
G03*
X102652Y041681I000197J0D01*
G01*
Y048532D02*
G03*
X102456Y048335I0J-000197D01*
G01*
X101609Y041681D02*
G03*
X101806Y041878I0J000197D01*
G01*
Y048335D02*
G03*
X101609Y048532I-000197J0D01*
G01*
X094956Y041878D02*
G03*
X095152Y041681I000197J0D01*
G01*
Y048532D02*
G03*
X094956Y048335I0J-000197D01*
G01*
X094109Y041681D02*
G03*
X094306Y041878I0J000197D01*
G01*
Y048335D02*
G03*
X094109Y048532I-000197J0D01*
G01*
X087456Y041878D02*
G03*
X087652Y041681I000197J0D01*
G01*
Y048532D02*
G03*
X087456Y048335I0J-000197D01*
G01*
X086609Y041681D02*
G03*
X086806Y041878I0J000197D01*
G01*
Y048335D02*
G03*
X086609Y048532I-000197J0D01*
G01*
X079956Y041878D02*
G03*
X080152Y041681I000197J0D01*
G01*
Y048532D02*
G03*
X079956Y048335I0J-000197D01*
G01*
X079109Y041681D02*
G03*
X079306Y041878I0J000197D01*
G01*
Y048335D02*
G03*
X079109Y048532I-000197J0D01*
G01*
X072456Y041878D02*
G03*
X072652Y041681I000197J0D01*
G01*
Y048532D02*
G03*
X072456Y048335I0J-000197D01*
G01*
X071609Y041681D02*
G03*
X071806Y041878I0J000197D01*
G01*
Y048335D02*
G03*
X071609Y048532I-000197J0D01*
G01*
X064956Y041878D02*
G03*
X065152Y041681I000197J0D01*
G01*
Y048532D02*
G03*
X064956Y048335I0J-000197D01*
G01*
X064109Y041681D02*
G03*
X064306Y041878I0J000197D01*
G01*
Y048335D02*
G03*
X064109Y048532I-000197J0D01*
G01*
X057456Y041878D02*
G03*
X057652Y041681I000197J0D01*
G01*
Y048532D02*
G03*
X057456Y048335I0J-000197D01*
G01*
X056609Y041681D02*
G03*
X056806Y041878I0J000197D01*
G01*
Y048335D02*
G03*
X056609Y048532I-000197J0D01*
G01*
X049956Y041878D02*
G03*
X050152Y041681I000197J0D01*
G01*
Y048532D02*
G03*
X049956Y048335I0J-000197D01*
G01*
X049109Y041681D02*
G03*
X049306Y041878I0J000197D01*
G01*
Y048335D02*
G03*
X049109Y048532I-000197J0D01*
G01*
X042456Y041878D02*
G03*
X042652Y041681I000197J0D01*
G01*
Y048532D02*
G03*
X042456Y048335I0J-000197D01*
G01*
X034109Y041681D02*
G03*
X034306Y041878I0J000197D01*
G01*
Y048335D02*
G03*
X034109Y048532I-000197J0D01*
G01*
X027456Y041878D02*
G03*
X027652Y041681I000197J0D01*
G01*
Y048532D02*
G03*
X027456Y048335I0J-000197D01*
G01*
X026609Y041681D02*
G03*
X026806Y041878I0J000197D01*
G01*
Y048335D02*
G03*
X026609Y048532I-000197J0D01*
G01*
X019956Y041878D02*
G03*
X020152Y041681I000197J0D01*
G01*
Y048532D02*
G03*
X019956Y048335I0J-000197D01*
G01*
X019109Y041681D02*
G03*
X019306Y041878I0J000197D01*
G01*
Y048335D02*
G03*
X019109Y048532I-000197J0D01*
G01*
X012456Y041878D02*
G03*
X012652Y041681I000197J0D01*
G01*
Y048532D02*
G03*
X012456Y048335I0J-000197D01*
G01*
X034956Y041878D02*
Y048335D01*
X041806Y041878D02*
Y048335D01*
X035152Y041681D02*
X041609D01*
X035152Y048532D02*
X041609D01*
X124956Y019378D02*
Y025835D01*
X131806Y019378D02*
Y025835D01*
X125152Y019181D02*
X131609D01*
X125152Y026032D02*
X131609D01*
X060268Y011878D02*
Y018335D01*
X067119Y011878D02*
Y018335D01*
X060465Y011681D02*
X066922D01*
X060465Y018532D02*
X066922D01*
X117456Y011878D02*
Y018335D01*
X124306Y011878D02*
Y018335D01*
X117652Y011681D02*
X124109D01*
X117652Y018532D02*
X124109D01*
X088393Y011878D02*
Y018335D01*
X095244Y011878D02*
Y018335D01*
X08859Y011681D02*
X095047D01*
X08859Y018532D02*
X095047D01*
X097768Y011878D02*
Y018335D01*
X104619Y011878D02*
Y018335D01*
X097965Y011681D02*
X104422D01*
X097965Y018532D02*
X104422D01*
X109956Y011878D02*
Y018335D01*
X116806Y011878D02*
Y018335D01*
X110152Y011681D02*
X116609D01*
X110152Y018532D02*
X116609D01*
X124956Y011878D02*
Y018335D01*
X131806Y011878D02*
Y018335D01*
X125152Y011681D02*
X131609D01*
X125152Y018532D02*
X131609D01*
X032143Y011878D02*
Y018335D01*
X038993Y011878D02*
Y018335D01*
X03234Y011681D02*
X038797D01*
X03234Y018532D02*
X038797D01*
X013393Y011878D02*
Y018335D01*
X020243Y011878D02*
Y018335D01*
X01359Y011681D02*
X020047D01*
X01359Y018532D02*
X020047D01*
X022768Y011878D02*
Y018335D01*
X029618Y011878D02*
Y018335D01*
X022965Y011681D02*
X029422D01*
X022965Y018532D02*
X029422D01*
X017143Y019378D02*
Y025835D01*
X023993Y019378D02*
Y025835D01*
X01734Y019181D02*
X023797D01*
X01734Y026032D02*
X023797D01*
X117456Y019378D02*
Y025835D01*
X124306Y019378D02*
Y025835D01*
X117652Y019181D02*
X124109D01*
X117652Y026032D02*
X124109D01*
X107143Y019378D02*
Y025835D01*
X113994Y019378D02*
Y025835D01*
X10734Y019181D02*
X113797D01*
X10734Y026032D02*
X113797D01*
X096831Y019378D02*
Y025835D01*
X103681Y019378D02*
Y025835D01*
X097027Y019181D02*
X103484D01*
X097027Y026032D02*
X103484D01*
X089331Y019378D02*
Y025835D01*
X096181Y019378D02*
Y025835D01*
X089527Y019181D02*
X095984D01*
X089527Y026032D02*
X095984D01*
X081831Y019378D02*
Y025835D01*
X088681Y019378D02*
Y025835D01*
X082027Y019181D02*
X088484D01*
X082027Y026032D02*
X088484D01*
X074331Y019378D02*
Y025835D01*
X081181Y019378D02*
Y025835D01*
X074527Y019181D02*
X080984D01*
X074527Y026032D02*
X080984D01*
X066831Y019378D02*
Y025835D01*
X073681Y019378D02*
Y025835D01*
X067027Y019181D02*
X073484D01*
X067027Y026032D02*
X073484D01*
X059331Y019378D02*
Y025835D01*
X066181Y019378D02*
Y025835D01*
X059527Y019181D02*
X065984D01*
X059527Y026032D02*
X065984D01*
X051831Y019378D02*
Y025835D01*
X058681Y019378D02*
Y025835D01*
X052027Y019181D02*
X058484D01*
X052027Y026032D02*
X058484D01*
X044331Y019378D02*
Y025835D01*
X051181Y019378D02*
Y025835D01*
X044527Y019181D02*
X050984D01*
X044527Y026032D02*
X050984D01*
X036831Y019378D02*
Y025835D01*
X043681Y019378D02*
Y025835D01*
X037027Y019181D02*
X043484D01*
X037027Y026032D02*
X043484D01*
X029331Y019378D02*
Y025835D01*
X036181Y019378D02*
Y025835D01*
X029527Y019181D02*
X035984D01*
X029527Y026032D02*
X035984D01*
X112768Y026878D02*
Y033335D01*
X119619Y026878D02*
Y033335D01*
X112965Y026681D02*
X119422D01*
X112965Y033532D02*
X119422D01*
X124956Y026878D02*
Y033335D01*
X131806Y026878D02*
Y033335D01*
X125152Y026681D02*
X131609D01*
X125152Y033532D02*
X131609D01*
X100581Y026878D02*
Y033335D01*
X107431Y026878D02*
Y033335D01*
X100777Y026681D02*
X107234D01*
X100777Y033532D02*
X107234D01*
X093081Y026878D02*
Y033335D01*
X099931Y026878D02*
Y033335D01*
X093277Y026681D02*
X099734D01*
X093277Y033532D02*
X099734D01*
X085581Y026878D02*
Y033335D01*
X092431Y026878D02*
Y033335D01*
X085777Y026681D02*
X092234D01*
X085777Y033532D02*
X092234D01*
X078081Y026878D02*
Y033335D01*
X084931Y026878D02*
Y033335D01*
X078277Y026681D02*
X084734D01*
X078277Y033532D02*
X084734D01*
X070581Y026878D02*
Y033335D01*
X077431Y026878D02*
Y033335D01*
X070777Y026681D02*
X077234D01*
X070777Y033532D02*
X077234D01*
X063081Y026878D02*
Y033335D01*
X069931Y026878D02*
Y033335D01*
X063277Y026681D02*
X069734D01*
X063277Y033532D02*
X069734D01*
X055581Y026878D02*
Y033335D01*
X062431Y026878D02*
Y033335D01*
X055777Y026681D02*
X062234D01*
X055777Y033532D02*
X062234D01*
X048081Y026878D02*
Y033335D01*
X054931Y026878D02*
Y033335D01*
X048277Y026681D02*
X054734D01*
X048277Y033532D02*
X054734D01*
X040581Y026878D02*
Y033335D01*
X047431Y026878D02*
Y033335D01*
X040777Y026681D02*
X047234D01*
X040777Y033532D02*
X047234D01*
X033081Y026878D02*
Y033335D01*
X039931Y026878D02*
Y033335D01*
X033277Y026681D02*
X039734D01*
X033277Y033532D02*
X039734D01*
X025581Y026878D02*
Y033335D01*
X032431Y026878D02*
Y033335D01*
X025777Y026681D02*
X032234D01*
X025777Y033532D02*
X032234D01*
X015268Y026878D02*
Y033335D01*
X022118Y026878D02*
Y033335D01*
X015465Y026681D02*
X021922D01*
X015465Y033532D02*
X021922D01*
X124956Y034378D02*
Y040835D01*
X131806Y034378D02*
Y040835D01*
X125152Y034181D02*
X131609D01*
X125152Y041032D02*
X131609D01*
X115581Y034378D02*
Y040835D01*
X122431Y034378D02*
Y040835D01*
X115777Y034181D02*
X122234D01*
X115777Y041032D02*
X122234D01*
X106206Y034378D02*
Y040835D01*
X113056Y034378D02*
Y040835D01*
X106402Y034181D02*
X112859D01*
X106402Y041032D02*
X112859D01*
X098706Y034378D02*
Y040835D01*
X105556Y034378D02*
Y040835D01*
X098902Y034181D02*
X105359D01*
X098902Y041032D02*
X105359D01*
X091206Y034378D02*
Y040835D01*
X098056Y034378D02*
Y040835D01*
X091402Y034181D02*
X097859D01*
X091402Y041032D02*
X097859D01*
X083706Y034378D02*
Y040835D01*
X090556Y034378D02*
Y040835D01*
X083902Y034181D02*
X090359D01*
X083902Y041032D02*
X090359D01*
X076206Y034378D02*
Y040835D01*
X083056Y034378D02*
Y040835D01*
X076402Y034181D02*
X082859D01*
X076402Y041032D02*
X082859D01*
X068706Y034378D02*
Y040835D01*
X075556Y034378D02*
Y040835D01*
X068902Y034181D02*
X075359D01*
X068902Y041032D02*
X075359D01*
X061206Y034378D02*
Y040835D01*
X068056Y034378D02*
Y040835D01*
X061402Y034181D02*
X067859D01*
X061402Y041032D02*
X067859D01*
X053706Y034378D02*
Y040835D01*
X060556Y034378D02*
Y040835D01*
X053902Y034181D02*
X060359D01*
X053902Y041032D02*
X060359D01*
X046206Y034378D02*
Y040835D01*
X053056Y034378D02*
Y040835D01*
X046402Y034181D02*
X052859D01*
X046402Y041032D02*
X052859D01*
X038706Y034378D02*
Y040835D01*
X045556Y034378D02*
Y040835D01*
X038902Y034181D02*
X045359D01*
X038902Y041032D02*
X045359D01*
X031206Y034378D02*
Y040835D01*
X038056Y034378D02*
Y040835D01*
X031402Y034181D02*
X037859D01*
X031402Y041032D02*
X037859D01*
X023706Y034378D02*
Y040835D01*
X030556Y034378D02*
Y040835D01*
X023902Y034181D02*
X030359D01*
X023902Y041032D02*
X030359D01*
X014331Y034378D02*
Y040835D01*
X021181Y034378D02*
Y040835D01*
X014527Y034181D02*
X020984D01*
X014527Y041032D02*
X020984D01*
X113706Y041878D02*
Y048335D01*
X120556Y041878D02*
Y048335D01*
X113902Y041681D02*
X120359D01*
X113902Y048532D02*
X120359D01*
X124956Y041878D02*
Y048335D01*
X131806Y041878D02*
Y048335D01*
X125152Y041681D02*
X131609D01*
X125152Y048532D02*
X131609D01*
X102456Y041878D02*
Y048335D01*
X109306Y041878D02*
Y048335D01*
X102652Y041681D02*
X109109D01*
X102652Y048532D02*
X109109D01*
X094956Y041878D02*
Y048335D01*
X101806Y041878D02*
Y048335D01*
X095152Y041681D02*
X101609D01*
X095152Y048532D02*
X101609D01*
X087456Y041878D02*
Y048335D01*
X094306Y041878D02*
Y048335D01*
X087652Y041681D02*
X094109D01*
X087652Y048532D02*
X094109D01*
X079956Y041878D02*
Y048335D01*
X086806Y041878D02*
Y048335D01*
X080152Y041681D02*
X086609D01*
X080152Y048532D02*
X086609D01*
X072456Y041878D02*
Y048335D01*
X079306Y041878D02*
Y048335D01*
X072652Y041681D02*
X079109D01*
X072652Y048532D02*
X079109D01*
X064956Y041878D02*
Y048335D01*
X071806Y041878D02*
Y048335D01*
X065152Y041681D02*
X071609D01*
X065152Y048532D02*
X071609D01*
X057456Y041878D02*
Y048335D01*
X064306Y041878D02*
Y048335D01*
X057652Y041681D02*
X064109D01*
X057652Y048532D02*
X064109D01*
X049956Y041878D02*
Y048335D01*
X056806Y041878D02*
Y048335D01*
X050152Y041681D02*
X056609D01*
X050152Y048532D02*
X056609D01*
X042456Y041878D02*
Y048335D01*
X049306Y041878D02*
Y048335D01*
X042652Y041681D02*
X049109D01*
X042652Y048532D02*
X049109D01*
X027456Y041878D02*
Y048335D01*
X034306Y041878D02*
Y048335D01*
X027652Y041681D02*
X034109D01*
X027652Y048532D02*
X034109D01*
X019956Y041878D02*
Y048335D01*
X026806Y041878D02*
Y048335D01*
X020152Y041681D02*
X026609D01*
X020152Y048532D02*
X026609D01*
X012456Y041878D02*
Y048335D01*
X019306Y041878D02*
Y048335D01*
X012652Y041681D02*
X019109D01*
X012652Y048532D02*
X019109D01*
D57*
X049745Y013628D02*
X05506D01*
Y018943D01*
X049745D02*
X05506D01*
X049745Y013628D02*
Y018943D01*
M02*
