M48
;Layer_Color=9474304
;FILE_FORMAT=2:4
INCH,LZ
;TYPE=PLATED
T1F00S00C0.0118
;TYPE=NON_PLATED
T2F00S00C0.0669
T3F00S00C0.0866
T4F00S00C0.1161
T5F00S00C0.1200
T6F00S00C0.1535
T7F00S00C0.1570
%
T01
X0421Y01515
X047Y01545
X047959Y015192
X04765Y01475
X0495Y0139
X050452
X052402Y01555
X052717Y01525
X053032Y01495
X053347Y01465
X054352Y0139
X067126Y01555
X095236
X125483Y016107
X125484Y019536
X125483Y023607
Y031107
X1235Y02885
X12355Y0202
X124157Y019957
X12475Y0197
X117985Y020476
X117983Y023607
Y016107
X110483
X113296Y031107
X101108
X097358Y023607
X098296Y016107
X106957Y021557
X107671Y023607
X089858
X082358
X086108Y031107
X093608
X078608
X088921Y016107
X074858Y023607
X067358
X063608Y031107
X071108
X056108
X048608
X048428Y020381
X048428Y018959
X046972
Y020381
X049195Y016627
X0494Y01595
X052087Y01585
X051451Y017891
X055129Y017545
X0608Y0161
X059885Y023619
X052358Y023607
X044858
X037358
X0382Y0209
X03875Y0206
X039448Y016102
X032671Y016107
X033608Y031107
X041108
X026108
X015796
X017671Y023607
X029858
X02985Y02035
X023296Y016107
X013921
X014858Y038607
X012983Y046107
X020483
X027983
X024233Y038607
X031733
X03328Y04208
Y042934
X034431Y043097
X0355
Y041916
X034431
X0355Y04609
X042983Y046107
X046733Y038607
X039233
X054233
X061733
X057983Y046107
X050483
X065483
X072983
X076733Y038607
X069233
X084233
X091733
X087983Y046107
X080483
X095483
X102983
X106733Y038607
X099233
X116108
X114233Y046107
X12371Y036328
X125483Y038607
X126024Y043858
X125483Y046107
T02
X014818Y015107
X018818
X024193
X028193
X033568
X037568
X061693
X065693
X089818
X093818
X099193
X103193
X111381
X115381
X118881
X122881
X126381
X130381
Y022607
X126381
Y030107
X130381
X118193
X114193
X112568Y022607
X118881
X122881
X108568
X102256
X098256
X094756
X094506Y030107
X098506
X102006
X106006
X091006
X087006
X083506
X079506
X079756Y022607
X083256
X087256
X090756
X075756
X072256
X068256
X064756
X064506Y030107
X068506
X072006
X076006
X061006
X057006
X053506
X049506
X049756Y022607
X053256
X057256
X060756
X045756
X042256
X038256
X034756
X034506Y030107
X038506
X042006
X046006
X031006
X027006
X020693
X016693
X018568Y022607
X022568
X030756
X013881Y045107
X017881
X021381
X025381
X028881
X029131Y037607
X025131
X019756
X015756
X032631
X036631
X040131
X044131
X043881Y045107
X040381
X036381
X032881
X047881
X051381
X055381
X058881
X059131Y037607
X055131
X051631
X047631
X062631
X066631
X070131
X074131
X077631
X077881Y045107
X073881
X070381
X066381
X062881
X081381
X085381
X088881
X092881
X092631Y037607
X089131
X085131
X081631
X096631
X100131
X104131
X107631
X107881Y045107
X103881
X100381
X096381
X115131
X119131
X121006Y037607
X117006
X111631
X126381
X130381
Y045107
X126381
T03
X0732Y0146
X11485Y02165
X03135Y01865
X022443Y03945
X0496Y0416
X068346Y034094
X0946Y0416
X123693Y03965
T04
X126881Y016107
X129381Y017107
Y024607
X126881Y023607
Y031107
X121881Y024607
X119381Y023607
Y016107
X121881Y017107
X114381
X111881Y016107
X111568Y024607
X114693Y031107
X102506
X095006
X093756Y024607
X098756Y023607
X101256Y024607
X102193Y017107
X099693Y016107
X109068Y023607
X091256
X086256Y024607
X083756Y023607
X078756Y024607
X080006Y031107
X087506
X090318Y016107
X092818Y017107
X076256Y023607
X071256Y024607
X068756Y023607
X063756Y024607
X065006Y031107
X072506
X064693Y017107
X062193Y016107
X061256Y023607
X056256Y024607
X053756Y023607
X048756Y024607
X050006Y031107
X057506
X042506
X035006
X033756Y024607
X031256Y023607
X038756
X041256Y024607
X046256Y023607
X036568Y017107
X034068Y016107
X027193Y017107
X024693Y016107
X017818Y017107
X019068Y023607
X021568Y024607
X017193Y031107
X027506
X015318Y016107
X014381Y046107
X021881
X029381
X028131Y039607
X025631Y038607
X018756Y039607
X016256Y038607
X019693Y032107
X030006
X037506
X045006
X043131Y039607
X040631Y038607
X035631Y039607
X033131Y038607
X036881Y046107
X044381
X051881
X059381
X058131Y039607
X055631Y038607
X050631Y039607
X048131Y038607
X052506Y032107
X060006
X067506
X075006
X073131Y039607
X070631Y038607
X065631Y039607
X063131Y038607
X066881Y046107
X074381
X081881
X089381
X088131Y039607
X085631Y038607
X080631Y039607
X078131Y038607
X082506Y032107
X090006
X093131Y038607
X095631Y039607
X100631Y038607
X103131Y039607
X108131Y038607
X105006Y032107
X097506
X096881Y046107
X104381
X115631
X117506Y038607
X120006Y039607
X110631
X117193Y032107
X129381
Y039607
X126881Y038607
Y046107
X129381Y047107
X118131
X106881
X099381
X091881
X084381
X076881
X069381
X061881
X054381
X046881
X039381
X031881
X024381
X016881
T05
X044008Y012357
X083378
X025268Y025357
X015868
X111493Y032857
X120893
X121831Y047857
X112431
T06
X016818Y015107
X026193
X035568
X063693
X091818
X101193
X113381
X120881
X128381
Y022607
Y030107
X116193
X120881Y022607
X110568
X100256
X104006Y030107
X096506
X089006
X081506
X085256Y022607
X092756
X077756
X070256
X062756
X066506Y030107
X074006
X059006
X051506
X055256Y022607
X047756
X040256
X032756
X036506Y030107
X044006
X029006
X018693
X020568Y022607
X017756Y037607
X027131
X030881Y045107
X023381
X015881
X038381
X045881
X042131Y037607
X034631
X049631
X057131
X060881Y045107
X053381
X068381
X075881
X072131Y037607
X064631
X079631
X087131
X090881Y045107
X083381
X098381
X105881
X102131Y037607
X094631
X109631
X119006
X117131Y045107
X128381
Y037607
T07
X111493Y026857
X120893
X083378Y018357
X044008
X025268Y019357
X015868
X112431Y041857
X121831
M30
