G04*
G04 #@! TF.GenerationSoftware,Altium Limited,Altium Designer,21.6.4 (81)*
G04*
G04 Layer_Color=8388736*
%FSTAX24Y24*%
%MOIN*%
G70*
G04*
G04 #@! TF.SameCoordinates,245CE46D-98AB-4B62-9B0C-93C9D4342F2A*
G04*
G04*
G04 #@! TF.FilePolarity,Negative*
G04*
G01*
G75*
%ADD11C,0.0047*%
%ADD12C,0.1732*%
%ADD13C,0.0080*%
G36*
X074617Y013286D02*
X074645Y013258D01*
X07466Y013221D01*
Y013201D01*
Y013001D01*
Y012981D01*
X074645Y012944D01*
X074617Y012916D01*
X07458Y012901D01*
X07244D01*
X072403Y012916D01*
X072375Y012944D01*
X07236Y012981D01*
Y013001D01*
Y013201D01*
Y013221D01*
X072375Y013258D01*
X072403Y013286D01*
X07244Y013301D01*
X07458D01*
X074617Y013286D01*
D02*
G37*
G36*
X08045Y01275D02*
X08048D01*
X080535Y012727D01*
X080577Y012685D01*
X0806Y01263D01*
Y0126D01*
X0806Y01205D01*
X0806Y01205D01*
X0806Y01202D01*
X080577Y011965D01*
X080535Y011923D01*
X08048Y0119D01*
X0725D01*
Y0119D01*
X07247D01*
X072415Y011923D01*
X072373Y011965D01*
X07235Y01202D01*
Y01205D01*
X07235Y0126D01*
X07235D01*
Y01263D01*
X072373Y012685D01*
X072415Y012727D01*
X07247Y01275D01*
X0725D01*
X08045Y01275D01*
Y01275D01*
D02*
G37*
D11*
X07246Y013301D02*
G03*
X07236Y013201I0J-0001D01*
G01*
Y013001D02*
G03*
X07246Y012901I0001J0D01*
G01*
X07466Y013201D02*
G03*
X07456Y013301I-0001J0D01*
G01*
Y012901D02*
G03*
X07466Y013001I0J0001D01*
G01*
X0725Y01275D02*
G03*
X07235Y0126I0J-00015D01*
G01*
Y01205D02*
G03*
X0725Y0119I00015J0D01*
G01*
X0806Y0126D02*
G03*
X08045Y01275I-00015J0D01*
G01*
Y0119D02*
G03*
X0806Y01205I0J00015D01*
G01*
X07246Y012901D02*
X07456D01*
X07246Y013301D02*
X07456D01*
X07236Y013001D02*
Y013201D01*
X07466Y013001D02*
Y013201D01*
X0725Y01275D02*
X08045Y01275D01*
X0725Y0119D02*
X08045D01*
X07235Y01205D02*
Y0126D01*
X0806Y01205D02*
Y0126D01*
D12*
X0732Y0146D02*
D03*
X0946Y0416D02*
D03*
X068346Y034094D02*
D03*
X0496Y0416D02*
D03*
X11485Y02165D02*
D03*
X123693Y03965D02*
D03*
X03135Y01865D02*
D03*
X022443Y03945D02*
D03*
D13*
X036381Y045107D02*
D03*
X040381D02*
D03*
X036881Y046107D02*
D03*
X039381Y047107D02*
D03*
X038381Y045107D02*
D03*
X126381Y022607D02*
D03*
X130381D02*
D03*
X126881Y023607D02*
D03*
X129381Y024607D02*
D03*
X128381Y022607D02*
D03*
X044008Y012357D02*
D03*
Y018357D02*
D03*
X083378Y012357D02*
D03*
Y018357D02*
D03*
X061693Y015107D02*
D03*
X065693D02*
D03*
X062193Y016107D02*
D03*
X064693Y017107D02*
D03*
X063693Y015107D02*
D03*
X118881D02*
D03*
X122881D02*
D03*
X119381Y016107D02*
D03*
X121881Y017107D02*
D03*
X120881Y015107D02*
D03*
X089818D02*
D03*
X093818D02*
D03*
X090318Y016107D02*
D03*
X092818Y017107D02*
D03*
X091818Y015107D02*
D03*
X099193D02*
D03*
X103193D02*
D03*
X099693Y016107D02*
D03*
X102193Y017107D02*
D03*
X101193Y015107D02*
D03*
X111381D02*
D03*
X115381D02*
D03*
X111881Y016107D02*
D03*
X114381Y017107D02*
D03*
X113381Y015107D02*
D03*
X126381D02*
D03*
X130381D02*
D03*
X126881Y016107D02*
D03*
X129381Y017107D02*
D03*
X128381Y015107D02*
D03*
X033568D02*
D03*
X037568D02*
D03*
X034068Y016107D02*
D03*
X036568Y017107D02*
D03*
X035568Y015107D02*
D03*
X014818D02*
D03*
X018818D02*
D03*
X015318Y016107D02*
D03*
X017818Y017107D02*
D03*
X016818Y015107D02*
D03*
X024193D02*
D03*
X028193D02*
D03*
X024693Y016107D02*
D03*
X027193Y017107D02*
D03*
X026193Y015107D02*
D03*
X015868Y025357D02*
D03*
Y019357D02*
D03*
X025268Y025357D02*
D03*
Y019357D02*
D03*
X018568Y022607D02*
D03*
X022568D02*
D03*
X019068Y023607D02*
D03*
X021568Y024607D02*
D03*
X020568Y022607D02*
D03*
X118881D02*
D03*
X122881D02*
D03*
X119381Y023607D02*
D03*
X121881Y024607D02*
D03*
X120881Y022607D02*
D03*
X108568D02*
D03*
X112568D02*
D03*
X109068Y023607D02*
D03*
X111568Y024607D02*
D03*
X110568Y022607D02*
D03*
X098256D02*
D03*
X102256D02*
D03*
X098756Y023607D02*
D03*
X101256Y024607D02*
D03*
X100256Y022607D02*
D03*
X090756D02*
D03*
X094756D02*
D03*
X091256Y023607D02*
D03*
X093756Y024607D02*
D03*
X092756Y022607D02*
D03*
X083256D02*
D03*
X087256D02*
D03*
X083756Y023607D02*
D03*
X086256Y024607D02*
D03*
X085256Y022607D02*
D03*
X075756D02*
D03*
X079756D02*
D03*
X076256Y023607D02*
D03*
X078756Y024607D02*
D03*
X077756Y022607D02*
D03*
X068256D02*
D03*
X072256D02*
D03*
X068756Y023607D02*
D03*
X071256Y024607D02*
D03*
X070256Y022607D02*
D03*
X060756D02*
D03*
X064756D02*
D03*
X061256Y023607D02*
D03*
X063756Y024607D02*
D03*
X062756Y022607D02*
D03*
X053256D02*
D03*
X057256D02*
D03*
X053756Y023607D02*
D03*
X056256Y024607D02*
D03*
X055256Y022607D02*
D03*
X045756D02*
D03*
X049756D02*
D03*
X046256Y023607D02*
D03*
X048756Y024607D02*
D03*
X047756Y022607D02*
D03*
X038256D02*
D03*
X042256D02*
D03*
X038756Y023607D02*
D03*
X041256Y024607D02*
D03*
X040256Y022607D02*
D03*
X030756D02*
D03*
X034756D02*
D03*
X031256Y023607D02*
D03*
X033756Y024607D02*
D03*
X032756Y022607D02*
D03*
X111493Y032857D02*
D03*
Y026857D02*
D03*
X120893Y032857D02*
D03*
Y026857D02*
D03*
X114193Y030107D02*
D03*
X118193D02*
D03*
X114693Y031107D02*
D03*
X117193Y032107D02*
D03*
X116193Y030107D02*
D03*
X126381D02*
D03*
X130381D02*
D03*
X126881Y031107D02*
D03*
X129381Y032107D02*
D03*
X128381Y030107D02*
D03*
X102006D02*
D03*
X106006D02*
D03*
X102506Y031107D02*
D03*
X105006Y032107D02*
D03*
X104006Y030107D02*
D03*
X094506D02*
D03*
X098506D02*
D03*
X095006Y031107D02*
D03*
X097506Y032107D02*
D03*
X096506Y030107D02*
D03*
X087006D02*
D03*
X091006D02*
D03*
X087506Y031107D02*
D03*
X090006Y032107D02*
D03*
X089006Y030107D02*
D03*
X079506D02*
D03*
X083506D02*
D03*
X080006Y031107D02*
D03*
X082506Y032107D02*
D03*
X081506Y030107D02*
D03*
X072006D02*
D03*
X076006D02*
D03*
X072506Y031107D02*
D03*
X075006Y032107D02*
D03*
X074006Y030107D02*
D03*
X064506D02*
D03*
X068506D02*
D03*
X065006Y031107D02*
D03*
X067506Y032107D02*
D03*
X066506Y030107D02*
D03*
X057006D02*
D03*
X061006D02*
D03*
X057506Y031107D02*
D03*
X060006Y032107D02*
D03*
X059006Y030107D02*
D03*
X049506D02*
D03*
X053506D02*
D03*
X050006Y031107D02*
D03*
X052506Y032107D02*
D03*
X051506Y030107D02*
D03*
X042006D02*
D03*
X046006D02*
D03*
X042506Y031107D02*
D03*
X045006Y032107D02*
D03*
X044006Y030107D02*
D03*
X034506D02*
D03*
X038506D02*
D03*
X035006Y031107D02*
D03*
X037506Y032107D02*
D03*
X036506Y030107D02*
D03*
X027006D02*
D03*
X031006D02*
D03*
X027506Y031107D02*
D03*
X030006Y032107D02*
D03*
X029006Y030107D02*
D03*
X016693D02*
D03*
X020693D02*
D03*
X017193Y031107D02*
D03*
X019693Y032107D02*
D03*
X018693Y030107D02*
D03*
X126381Y037607D02*
D03*
X130381D02*
D03*
X126881Y038607D02*
D03*
X129381Y039607D02*
D03*
X128381Y037607D02*
D03*
X117006D02*
D03*
X121006D02*
D03*
X117506Y038607D02*
D03*
X120006Y039607D02*
D03*
X119006Y037607D02*
D03*
X107631D02*
D03*
X111631D02*
D03*
X108131Y038607D02*
D03*
X110631Y039607D02*
D03*
X109631Y037607D02*
D03*
X100131D02*
D03*
X104131D02*
D03*
X100631Y038607D02*
D03*
X103131Y039607D02*
D03*
X102131Y037607D02*
D03*
X092631D02*
D03*
X096631D02*
D03*
X093131Y038607D02*
D03*
X095631Y039607D02*
D03*
X094631Y037607D02*
D03*
X085131D02*
D03*
X089131D02*
D03*
X085631Y038607D02*
D03*
X088131Y039607D02*
D03*
X087131Y037607D02*
D03*
X077631D02*
D03*
X081631D02*
D03*
X078131Y038607D02*
D03*
X080631Y039607D02*
D03*
X079631Y037607D02*
D03*
X070131D02*
D03*
X074131D02*
D03*
X070631Y038607D02*
D03*
X073131Y039607D02*
D03*
X072131Y037607D02*
D03*
X062631D02*
D03*
X066631D02*
D03*
X063131Y038607D02*
D03*
X065631Y039607D02*
D03*
X064631Y037607D02*
D03*
X055131D02*
D03*
X059131D02*
D03*
X055631Y038607D02*
D03*
X058131Y039607D02*
D03*
X057131Y037607D02*
D03*
X047631D02*
D03*
X051631D02*
D03*
X048131Y038607D02*
D03*
X050631Y039607D02*
D03*
X049631Y037607D02*
D03*
X040131D02*
D03*
X044131D02*
D03*
X040631Y038607D02*
D03*
X043131Y039607D02*
D03*
X042131Y037607D02*
D03*
X032631D02*
D03*
X036631D02*
D03*
X033131Y038607D02*
D03*
X035631Y039607D02*
D03*
X034631Y037607D02*
D03*
X025131D02*
D03*
X029131D02*
D03*
X025631Y038607D02*
D03*
X028131Y039607D02*
D03*
X027131Y037607D02*
D03*
X015756D02*
D03*
X019756D02*
D03*
X016256Y038607D02*
D03*
X018756Y039607D02*
D03*
X017756Y037607D02*
D03*
X112431Y047857D02*
D03*
Y041857D02*
D03*
X121831Y047857D02*
D03*
Y041857D02*
D03*
X115131Y045107D02*
D03*
X119131D02*
D03*
X115631Y046107D02*
D03*
X118131Y047107D02*
D03*
X117131Y045107D02*
D03*
X126381D02*
D03*
X130381D02*
D03*
X126881Y046107D02*
D03*
X129381Y047107D02*
D03*
X128381Y045107D02*
D03*
X103881D02*
D03*
X107881D02*
D03*
X104381Y046107D02*
D03*
X106881Y047107D02*
D03*
X105881Y045107D02*
D03*
X096381D02*
D03*
X100381D02*
D03*
X096881Y046107D02*
D03*
X099381Y047107D02*
D03*
X098381Y045107D02*
D03*
X088881D02*
D03*
X092881D02*
D03*
X089381Y046107D02*
D03*
X091881Y047107D02*
D03*
X090881Y045107D02*
D03*
X081381D02*
D03*
X085381D02*
D03*
X081881Y046107D02*
D03*
X084381Y047107D02*
D03*
X083381Y045107D02*
D03*
X073881D02*
D03*
X077881D02*
D03*
X074381Y046107D02*
D03*
X076881Y047107D02*
D03*
X075881Y045107D02*
D03*
X066381D02*
D03*
X070381D02*
D03*
X066881Y046107D02*
D03*
X069381Y047107D02*
D03*
X068381Y045107D02*
D03*
X058881D02*
D03*
X062881D02*
D03*
X059381Y046107D02*
D03*
X061881Y047107D02*
D03*
X060881Y045107D02*
D03*
X051381D02*
D03*
X055381D02*
D03*
X051881Y046107D02*
D03*
X054381Y047107D02*
D03*
X053381Y045107D02*
D03*
X043881D02*
D03*
X047881D02*
D03*
X044381Y046107D02*
D03*
X046881Y047107D02*
D03*
X045881Y045107D02*
D03*
X028881D02*
D03*
X032881D02*
D03*
X029381Y046107D02*
D03*
X031881Y047107D02*
D03*
X030881Y045107D02*
D03*
X021381D02*
D03*
X025381D02*
D03*
X021881Y046107D02*
D03*
X024381Y047107D02*
D03*
X023381Y045107D02*
D03*
X013881D02*
D03*
X017881D02*
D03*
X014381Y046107D02*
D03*
X016881Y047107D02*
D03*
X015881Y045107D02*
D03*
M02*
