G04*
G04 #@! TF.GenerationSoftware,Altium Limited,Altium Designer,21.6.4 (81)*
G04*
G04 Layer_Physical_Order=1*
G04 Layer_Color=255*
%FSTAX24Y24*%
%MOIN*%
G70*
G04*
G04 #@! TF.SameCoordinates,245CE46D-98AB-4B62-9B0C-93C9D4342F2A*
G04*
G04*
G04 #@! TF.FilePolarity,Positive*
G04*
G01*
G75*
%ADD12C,0.1732*%
%ADD14C,0.0200*%
%ADD15C,0.0100*%
%ADD16C,0.0150*%
%ADD17C,0.0276*%
%ADD18C,0.0236*%
G36*
X125571Y045999D02*
X125563Y045989D01*
X125556Y045979D01*
X12555Y045968D01*
X125545Y045957D01*
X125541Y045946D01*
X125537Y045934D01*
X125535Y045922D01*
X125534Y045909D01*
X125533Y045896D01*
X125433D01*
X125433Y045909D01*
X125431Y045922D01*
X125429Y045934D01*
X125426Y045946D01*
X125422Y045957D01*
X125416Y045968D01*
X12541Y045979D01*
X125403Y045989D01*
X125396Y045999D01*
X125387Y046008D01*
X12558D01*
X125571Y045999D01*
D02*
G37*
G36*
X114321D02*
X114313Y045989D01*
X114306Y045979D01*
X1143Y045968D01*
X114295Y045957D01*
X114291Y045946D01*
X114287Y045934D01*
X114285Y045922D01*
X114284Y045909D01*
X114283Y045896D01*
X114183D01*
X114183Y045909D01*
X114181Y045922D01*
X114179Y045934D01*
X114176Y045946D01*
X114172Y045957D01*
X114166Y045968D01*
X11416Y045979D01*
X114153Y045989D01*
X114146Y045999D01*
X114137Y046008D01*
X11433D01*
X114321Y045999D01*
D02*
G37*
G36*
X103071D02*
X103063Y045989D01*
X103056Y045979D01*
X10305Y045968D01*
X103045Y045957D01*
X103041Y045946D01*
X103037Y045934D01*
X103035Y045922D01*
X103034Y045909D01*
X103033Y045896D01*
X102933D01*
X102933Y045909D01*
X102931Y045922D01*
X102929Y045934D01*
X102926Y045946D01*
X102922Y045957D01*
X102916Y045968D01*
X10291Y045979D01*
X102903Y045989D01*
X102896Y045999D01*
X102887Y046008D01*
X10308D01*
X103071Y045999D01*
D02*
G37*
G36*
X095571D02*
X095563Y045989D01*
X095556Y045979D01*
X09555Y045968D01*
X095545Y045957D01*
X095541Y045946D01*
X095537Y045934D01*
X095535Y045922D01*
X095534Y045909D01*
X095533Y045896D01*
X095433D01*
X095433Y045909D01*
X095431Y045922D01*
X095429Y045934D01*
X095426Y045946D01*
X095422Y045957D01*
X095416Y045968D01*
X09541Y045979D01*
X095403Y045989D01*
X095396Y045999D01*
X095387Y046008D01*
X09558D01*
X095571Y045999D01*
D02*
G37*
G36*
X088071D02*
X088063Y045989D01*
X088056Y045979D01*
X08805Y045968D01*
X088045Y045957D01*
X088041Y045946D01*
X088037Y045934D01*
X088035Y045922D01*
X088034Y045909D01*
X088033Y045896D01*
X087933D01*
X087933Y045909D01*
X087931Y045922D01*
X087929Y045934D01*
X087926Y045946D01*
X087922Y045957D01*
X087916Y045968D01*
X08791Y045979D01*
X087903Y045989D01*
X087896Y045999D01*
X087887Y046008D01*
X08808D01*
X088071Y045999D01*
D02*
G37*
G36*
X080571D02*
X080563Y045989D01*
X080556Y045979D01*
X08055Y045968D01*
X080545Y045957D01*
X080541Y045946D01*
X080537Y045934D01*
X080535Y045922D01*
X080534Y045909D01*
X080533Y045896D01*
X080433D01*
X080433Y045909D01*
X080431Y045922D01*
X080429Y045934D01*
X080426Y045946D01*
X080422Y045957D01*
X080416Y045968D01*
X08041Y045979D01*
X080403Y045989D01*
X080396Y045999D01*
X080387Y046008D01*
X08058D01*
X080571Y045999D01*
D02*
G37*
G36*
X073071D02*
X073063Y045989D01*
X073056Y045979D01*
X07305Y045968D01*
X073045Y045957D01*
X073041Y045946D01*
X073037Y045934D01*
X073035Y045922D01*
X073034Y045909D01*
X073033Y045896D01*
X072933D01*
X072933Y045909D01*
X072931Y045922D01*
X072929Y045934D01*
X072926Y045946D01*
X072922Y045957D01*
X072916Y045968D01*
X07291Y045979D01*
X072903Y045989D01*
X072896Y045999D01*
X072887Y046008D01*
X07308D01*
X073071Y045999D01*
D02*
G37*
G36*
X065571D02*
X065563Y045989D01*
X065556Y045979D01*
X06555Y045968D01*
X065545Y045957D01*
X065541Y045946D01*
X065537Y045934D01*
X065535Y045922D01*
X065534Y045909D01*
X065533Y045896D01*
X065433D01*
X065433Y045909D01*
X065431Y045922D01*
X065429Y045934D01*
X065426Y045946D01*
X065422Y045957D01*
X065416Y045968D01*
X06541Y045979D01*
X065403Y045989D01*
X065396Y045999D01*
X065387Y046008D01*
X06558D01*
X065571Y045999D01*
D02*
G37*
G36*
X058071D02*
X058063Y045989D01*
X058056Y045979D01*
X05805Y045968D01*
X058045Y045957D01*
X058041Y045946D01*
X058037Y045934D01*
X058035Y045922D01*
X058034Y045909D01*
X058033Y045896D01*
X057933D01*
X057933Y045909D01*
X057931Y045922D01*
X057929Y045934D01*
X057926Y045946D01*
X057922Y045957D01*
X057916Y045968D01*
X05791Y045979D01*
X057903Y045989D01*
X057896Y045999D01*
X057887Y046008D01*
X05808D01*
X058071Y045999D01*
D02*
G37*
G36*
X050571D02*
X050563Y045989D01*
X050556Y045979D01*
X05055Y045968D01*
X050545Y045957D01*
X050541Y045946D01*
X050537Y045934D01*
X050535Y045922D01*
X050534Y045909D01*
X050533Y045896D01*
X050433D01*
X050433Y045909D01*
X050431Y045922D01*
X050429Y045934D01*
X050426Y045946D01*
X050422Y045957D01*
X050416Y045968D01*
X05041Y045979D01*
X050403Y045989D01*
X050396Y045999D01*
X050387Y046008D01*
X05058D01*
X050571Y045999D01*
D02*
G37*
G36*
X043071D02*
X043063Y045989D01*
X043056Y045979D01*
X04305Y045968D01*
X043045Y045957D01*
X043041Y045946D01*
X043037Y045934D01*
X043035Y045922D01*
X043034Y045909D01*
X043033Y045896D01*
X042933D01*
X042933Y045909D01*
X042931Y045922D01*
X042929Y045934D01*
X042926Y045946D01*
X042922Y045957D01*
X042916Y045968D01*
X04291Y045979D01*
X042903Y045989D01*
X042896Y045999D01*
X042887Y046008D01*
X04308D01*
X043071Y045999D01*
D02*
G37*
G36*
X028071D02*
X028063Y045989D01*
X028056Y045979D01*
X02805Y045968D01*
X028045Y045957D01*
X028041Y045946D01*
X028037Y045934D01*
X028035Y045922D01*
X028034Y045909D01*
X028033Y045896D01*
X027933D01*
X027933Y045909D01*
X027931Y045922D01*
X027929Y045934D01*
X027926Y045946D01*
X027922Y045957D01*
X027916Y045968D01*
X02791Y045979D01*
X027903Y045989D01*
X027896Y045999D01*
X027887Y046008D01*
X02808D01*
X028071Y045999D01*
D02*
G37*
G36*
X020571D02*
X020563Y045989D01*
X020556Y045979D01*
X02055Y045968D01*
X020545Y045957D01*
X020541Y045946D01*
X020537Y045934D01*
X020535Y045922D01*
X020534Y045909D01*
X020533Y045896D01*
X020433D01*
X020433Y045909D01*
X020431Y045922D01*
X020429Y045934D01*
X020426Y045946D01*
X020422Y045957D01*
X020416Y045968D01*
X02041Y045979D01*
X020403Y045989D01*
X020396Y045999D01*
X020387Y046008D01*
X02058D01*
X020571Y045999D01*
D02*
G37*
G36*
X013071D02*
X013063Y045989D01*
X013056Y045979D01*
X01305Y045968D01*
X013045Y045957D01*
X013041Y045946D01*
X013037Y045934D01*
X013035Y045922D01*
X013034Y045909D01*
X013033Y045896D01*
X012933D01*
X012933Y045909D01*
X012931Y045922D01*
X012929Y045934D01*
X012926Y045946D01*
X012922Y045957D01*
X012916Y045968D01*
X01291Y045979D01*
X012903Y045989D01*
X012896Y045999D01*
X012887Y046008D01*
X01308D01*
X013071Y045999D01*
D02*
G37*
G36*
X035588Y045982D02*
X03558Y045972D01*
X035573Y045962D01*
X035567Y045952D01*
X035562Y045941D01*
X035557Y045929D01*
X035554Y045917D01*
X035552Y045905D01*
X03555Y045892D01*
X03555Y045879D01*
X03545D01*
X03545Y045892D01*
X035448Y045905D01*
X035446Y045917D01*
X035443Y045929D01*
X035438Y045941D01*
X035433Y045952D01*
X035427Y045962D01*
X03542Y045972D01*
X035412Y045982D01*
X035404Y045991D01*
X035596D01*
X035588Y045982D01*
D02*
G37*
G36*
X126111Y043751D02*
X126103Y043741D01*
X126096Y043731D01*
X12609Y04372D01*
X126085Y043709D01*
X126081Y043697D01*
X126078Y043686D01*
X126075Y043673D01*
X126074Y04366D01*
X126074Y043647D01*
X125974D01*
X125973Y04366D01*
X125972Y043673D01*
X125969Y043686D01*
X125966Y043697D01*
X125962Y043709D01*
X125957Y04372D01*
X125951Y043731D01*
X125944Y043741D01*
X125936Y043751D01*
X125927Y04376D01*
X12612D01*
X126111Y043751D01*
D02*
G37*
G36*
X125534Y038805D02*
X125535Y038792D01*
X125537Y038779D01*
X125541Y038768D01*
X125545Y038756D01*
X12555Y038745D01*
X125556Y038734D01*
X125563Y038724D01*
X125571Y038714D01*
X12558Y038705D01*
X125387D01*
X125396Y038714D01*
X125403Y038724D01*
X12541Y038734D01*
X125416Y038745D01*
X125422Y038756D01*
X125426Y038768D01*
X125429Y038779D01*
X125431Y038792D01*
X125433Y038805D01*
X125433Y038818D01*
X125533D01*
X125534Y038805D01*
D02*
G37*
G36*
X116159D02*
X11616Y038792D01*
X116162Y038779D01*
X116166Y038768D01*
X11617Y038756D01*
X116175Y038745D01*
X116181Y038734D01*
X116188Y038724D01*
X116196Y038714D01*
X116205Y038705D01*
X116012D01*
X116021Y038714D01*
X116028Y038724D01*
X116035Y038734D01*
X116041Y038745D01*
X116047Y038756D01*
X116051Y038768D01*
X116054Y038779D01*
X116056Y038792D01*
X116058Y038805D01*
X116058Y038818D01*
X116158D01*
X116159Y038805D01*
D02*
G37*
G36*
X106784D02*
X106785Y038792D01*
X106787Y038779D01*
X106791Y038768D01*
X106795Y038756D01*
X1068Y038745D01*
X106806Y038734D01*
X106813Y038724D01*
X106821Y038714D01*
X10683Y038705D01*
X106637D01*
X106646Y038714D01*
X106653Y038724D01*
X10666Y038734D01*
X106666Y038745D01*
X106672Y038756D01*
X106676Y038768D01*
X106679Y038779D01*
X106681Y038792D01*
X106683Y038805D01*
X106683Y038818D01*
X106783D01*
X106784Y038805D01*
D02*
G37*
G36*
X099284D02*
X099285Y038792D01*
X099287Y038779D01*
X099291Y038768D01*
X099295Y038756D01*
X0993Y038745D01*
X099306Y038734D01*
X099313Y038724D01*
X099321Y038714D01*
X09933Y038705D01*
X099137D01*
X099146Y038714D01*
X099153Y038724D01*
X09916Y038734D01*
X099166Y038745D01*
X099172Y038756D01*
X099176Y038768D01*
X099179Y038779D01*
X099181Y038792D01*
X099183Y038805D01*
X099183Y038818D01*
X099283D01*
X099284Y038805D01*
D02*
G37*
G36*
X091784D02*
X091785Y038792D01*
X091787Y038779D01*
X091791Y038768D01*
X091795Y038756D01*
X0918Y038745D01*
X091806Y038734D01*
X091813Y038724D01*
X091821Y038714D01*
X09183Y038705D01*
X091637D01*
X091646Y038714D01*
X091653Y038724D01*
X09166Y038734D01*
X091666Y038745D01*
X091672Y038756D01*
X091676Y038768D01*
X091679Y038779D01*
X091681Y038792D01*
X091683Y038805D01*
X091683Y038818D01*
X091783D01*
X091784Y038805D01*
D02*
G37*
G36*
X084284D02*
X084285Y038792D01*
X084287Y038779D01*
X084291Y038768D01*
X084295Y038756D01*
X0843Y038745D01*
X084306Y038734D01*
X084313Y038724D01*
X084321Y038714D01*
X08433Y038705D01*
X084137D01*
X084146Y038714D01*
X084153Y038724D01*
X08416Y038734D01*
X084166Y038745D01*
X084172Y038756D01*
X084176Y038768D01*
X084179Y038779D01*
X084181Y038792D01*
X084183Y038805D01*
X084183Y038818D01*
X084283D01*
X084284Y038805D01*
D02*
G37*
G36*
X076784D02*
X076785Y038792D01*
X076787Y038779D01*
X076791Y038768D01*
X076795Y038756D01*
X0768Y038745D01*
X076806Y038734D01*
X076813Y038724D01*
X076821Y038714D01*
X07683Y038705D01*
X076637D01*
X076646Y038714D01*
X076653Y038724D01*
X07666Y038734D01*
X076666Y038745D01*
X076672Y038756D01*
X076676Y038768D01*
X076679Y038779D01*
X076681Y038792D01*
X076683Y038805D01*
X076683Y038818D01*
X076783D01*
X076784Y038805D01*
D02*
G37*
G36*
X069284D02*
X069285Y038792D01*
X069287Y038779D01*
X069291Y038768D01*
X069295Y038756D01*
X0693Y038745D01*
X069306Y038734D01*
X069313Y038724D01*
X069321Y038714D01*
X06933Y038705D01*
X069137D01*
X069146Y038714D01*
X069153Y038724D01*
X06916Y038734D01*
X069166Y038745D01*
X069172Y038756D01*
X069176Y038768D01*
X069179Y038779D01*
X069181Y038792D01*
X069183Y038805D01*
X069183Y038818D01*
X069283D01*
X069284Y038805D01*
D02*
G37*
G36*
X061784D02*
X061785Y038792D01*
X061787Y038779D01*
X061791Y038768D01*
X061795Y038756D01*
X0618Y038745D01*
X061806Y038734D01*
X061813Y038724D01*
X061821Y038714D01*
X06183Y038705D01*
X061637D01*
X061646Y038714D01*
X061653Y038724D01*
X06166Y038734D01*
X061666Y038745D01*
X061672Y038756D01*
X061676Y038768D01*
X061679Y038779D01*
X061681Y038792D01*
X061683Y038805D01*
X061683Y038818D01*
X061783D01*
X061784Y038805D01*
D02*
G37*
G36*
X054284D02*
X054285Y038792D01*
X054287Y038779D01*
X054291Y038768D01*
X054295Y038756D01*
X0543Y038745D01*
X054306Y038734D01*
X054313Y038724D01*
X054321Y038714D01*
X05433Y038705D01*
X054137D01*
X054146Y038714D01*
X054153Y038724D01*
X05416Y038734D01*
X054166Y038745D01*
X054172Y038756D01*
X054176Y038768D01*
X054179Y038779D01*
X054181Y038792D01*
X054183Y038805D01*
X054183Y038818D01*
X054283D01*
X054284Y038805D01*
D02*
G37*
G36*
X046784D02*
X046785Y038792D01*
X046787Y038779D01*
X046791Y038768D01*
X046795Y038756D01*
X0468Y038745D01*
X046806Y038734D01*
X046813Y038724D01*
X046821Y038714D01*
X04683Y038705D01*
X046637D01*
X046646Y038714D01*
X046653Y038724D01*
X04666Y038734D01*
X046666Y038745D01*
X046672Y038756D01*
X046676Y038768D01*
X046679Y038779D01*
X046681Y038792D01*
X046683Y038805D01*
X046683Y038818D01*
X046783D01*
X046784Y038805D01*
D02*
G37*
G36*
X039284D02*
X039285Y038792D01*
X039287Y038779D01*
X039291Y038768D01*
X039295Y038756D01*
X0393Y038745D01*
X039306Y038734D01*
X039313Y038724D01*
X039321Y038714D01*
X03933Y038705D01*
X039137D01*
X039146Y038714D01*
X039153Y038724D01*
X03916Y038734D01*
X039166Y038745D01*
X039172Y038756D01*
X039176Y038768D01*
X039179Y038779D01*
X039181Y038792D01*
X039183Y038805D01*
X039183Y038818D01*
X039283D01*
X039284Y038805D01*
D02*
G37*
G36*
X024284D02*
X024285Y038792D01*
X024287Y038779D01*
X024291Y038768D01*
X024295Y038756D01*
X0243Y038745D01*
X024306Y038734D01*
X024313Y038724D01*
X024321Y038714D01*
X02433Y038705D01*
X024137D01*
X024146Y038714D01*
X024153Y038724D01*
X02416Y038734D01*
X024166Y038745D01*
X024172Y038756D01*
X024176Y038768D01*
X024179Y038779D01*
X024181Y038792D01*
X024183Y038805D01*
X024183Y038818D01*
X024283D01*
X024284Y038805D01*
D02*
G37*
G36*
X014909D02*
X01491Y038792D01*
X014912Y038779D01*
X014916Y038768D01*
X01492Y038756D01*
X014925Y038745D01*
X014931Y038734D01*
X014938Y038724D01*
X014946Y038714D01*
X014955Y038705D01*
X014762D01*
X014771Y038714D01*
X014778Y038724D01*
X014785Y038734D01*
X014791Y038745D01*
X014797Y038756D01*
X014801Y038768D01*
X014804Y038779D01*
X014806Y038792D01*
X014808Y038805D01*
X014808Y038818D01*
X014908D01*
X014909Y038805D01*
D02*
G37*
G36*
X125571Y038499D02*
X125563Y038489D01*
X125556Y038479D01*
X12555Y038468D01*
X125545Y038457D01*
X125541Y038446D01*
X125537Y038434D01*
X125535Y038422D01*
X125534Y038409D01*
X125533Y038396D01*
X125433D01*
X125433Y038409D01*
X125431Y038422D01*
X125429Y038434D01*
X125426Y038446D01*
X125422Y038457D01*
X125416Y038468D01*
X12541Y038479D01*
X125403Y038489D01*
X125396Y038499D01*
X125387Y038508D01*
X12558D01*
X125571Y038499D01*
D02*
G37*
G36*
X116196D02*
X116188Y038489D01*
X116181Y038479D01*
X116175Y038468D01*
X11617Y038457D01*
X116166Y038446D01*
X116162Y038434D01*
X11616Y038422D01*
X116159Y038409D01*
X116158Y038396D01*
X116058D01*
X116058Y038409D01*
X116056Y038422D01*
X116054Y038434D01*
X116051Y038446D01*
X116047Y038457D01*
X116041Y038468D01*
X116035Y038479D01*
X116028Y038489D01*
X116021Y038499D01*
X116012Y038508D01*
X116205D01*
X116196Y038499D01*
D02*
G37*
G36*
X106821D02*
X106813Y038489D01*
X106806Y038479D01*
X1068Y038468D01*
X106795Y038457D01*
X106791Y038446D01*
X106787Y038434D01*
X106785Y038422D01*
X106784Y038409D01*
X106783Y038396D01*
X106683D01*
X106683Y038409D01*
X106681Y038422D01*
X106679Y038434D01*
X106676Y038446D01*
X106672Y038457D01*
X106666Y038468D01*
X10666Y038479D01*
X106653Y038489D01*
X106646Y038499D01*
X106637Y038508D01*
X10683D01*
X106821Y038499D01*
D02*
G37*
G36*
X099321D02*
X099313Y038489D01*
X099306Y038479D01*
X0993Y038468D01*
X099295Y038457D01*
X099291Y038446D01*
X099287Y038434D01*
X099285Y038422D01*
X099284Y038409D01*
X099283Y038396D01*
X099183D01*
X099183Y038409D01*
X099181Y038422D01*
X099179Y038434D01*
X099176Y038446D01*
X099172Y038457D01*
X099166Y038468D01*
X09916Y038479D01*
X099153Y038489D01*
X099146Y038499D01*
X099137Y038508D01*
X09933D01*
X099321Y038499D01*
D02*
G37*
G36*
X091821D02*
X091813Y038489D01*
X091806Y038479D01*
X0918Y038468D01*
X091795Y038457D01*
X091791Y038446D01*
X091787Y038434D01*
X091785Y038422D01*
X091784Y038409D01*
X091783Y038396D01*
X091683D01*
X091683Y038409D01*
X091681Y038422D01*
X091679Y038434D01*
X091676Y038446D01*
X091672Y038457D01*
X091666Y038468D01*
X09166Y038479D01*
X091653Y038489D01*
X091646Y038499D01*
X091637Y038508D01*
X09183D01*
X091821Y038499D01*
D02*
G37*
G36*
X084321D02*
X084313Y038489D01*
X084306Y038479D01*
X0843Y038468D01*
X084295Y038457D01*
X084291Y038446D01*
X084287Y038434D01*
X084285Y038422D01*
X084284Y038409D01*
X084283Y038396D01*
X084183D01*
X084183Y038409D01*
X084181Y038422D01*
X084179Y038434D01*
X084176Y038446D01*
X084172Y038457D01*
X084166Y038468D01*
X08416Y038479D01*
X084153Y038489D01*
X084146Y038499D01*
X084137Y038508D01*
X08433D01*
X084321Y038499D01*
D02*
G37*
G36*
X076821D02*
X076813Y038489D01*
X076806Y038479D01*
X0768Y038468D01*
X076795Y038457D01*
X076791Y038446D01*
X076787Y038434D01*
X076785Y038422D01*
X076784Y038409D01*
X076783Y038396D01*
X076683D01*
X076683Y038409D01*
X076681Y038422D01*
X076679Y038434D01*
X076676Y038446D01*
X076672Y038457D01*
X076666Y038468D01*
X07666Y038479D01*
X076653Y038489D01*
X076646Y038499D01*
X076637Y038508D01*
X07683D01*
X076821Y038499D01*
D02*
G37*
G36*
X069321D02*
X069313Y038489D01*
X069306Y038479D01*
X0693Y038468D01*
X069295Y038457D01*
X069291Y038446D01*
X069287Y038434D01*
X069285Y038422D01*
X069284Y038409D01*
X069283Y038396D01*
X069183D01*
X069183Y038409D01*
X069181Y038422D01*
X069179Y038434D01*
X069176Y038446D01*
X069172Y038457D01*
X069166Y038468D01*
X06916Y038479D01*
X069153Y038489D01*
X069146Y038499D01*
X069137Y038508D01*
X06933D01*
X069321Y038499D01*
D02*
G37*
G36*
X061821D02*
X061813Y038489D01*
X061806Y038479D01*
X0618Y038468D01*
X061795Y038457D01*
X061791Y038446D01*
X061787Y038434D01*
X061785Y038422D01*
X061784Y038409D01*
X061783Y038396D01*
X061683D01*
X061683Y038409D01*
X061681Y038422D01*
X061679Y038434D01*
X061676Y038446D01*
X061672Y038457D01*
X061666Y038468D01*
X06166Y038479D01*
X061653Y038489D01*
X061646Y038499D01*
X061637Y038508D01*
X06183D01*
X061821Y038499D01*
D02*
G37*
G36*
X054321D02*
X054313Y038489D01*
X054306Y038479D01*
X0543Y038468D01*
X054295Y038457D01*
X054291Y038446D01*
X054287Y038434D01*
X054285Y038422D01*
X054284Y038409D01*
X054283Y038396D01*
X054183D01*
X054183Y038409D01*
X054181Y038422D01*
X054179Y038434D01*
X054176Y038446D01*
X054172Y038457D01*
X054166Y038468D01*
X05416Y038479D01*
X054153Y038489D01*
X054146Y038499D01*
X054137Y038508D01*
X05433D01*
X054321Y038499D01*
D02*
G37*
G36*
X046821D02*
X046813Y038489D01*
X046806Y038479D01*
X0468Y038468D01*
X046795Y038457D01*
X046791Y038446D01*
X046787Y038434D01*
X046785Y038422D01*
X046784Y038409D01*
X046783Y038396D01*
X046683D01*
X046683Y038409D01*
X046681Y038422D01*
X046679Y038434D01*
X046676Y038446D01*
X046672Y038457D01*
X046666Y038468D01*
X04666Y038479D01*
X046653Y038489D01*
X046646Y038499D01*
X046637Y038508D01*
X04683D01*
X046821Y038499D01*
D02*
G37*
G36*
X039321D02*
X039313Y038489D01*
X039306Y038479D01*
X0393Y038468D01*
X039295Y038457D01*
X039291Y038446D01*
X039287Y038434D01*
X039285Y038422D01*
X039284Y038409D01*
X039283Y038396D01*
X039183D01*
X039183Y038409D01*
X039181Y038422D01*
X039179Y038434D01*
X039176Y038446D01*
X039172Y038457D01*
X039166Y038468D01*
X03916Y038479D01*
X039153Y038489D01*
X039146Y038499D01*
X039137Y038508D01*
X03933D01*
X039321Y038499D01*
D02*
G37*
G36*
X031784Y038805D02*
X031785Y038792D01*
X031787Y038779D01*
X031791Y038768D01*
X031795Y038756D01*
X0318Y038745D01*
X031806Y038734D01*
X031813Y038724D01*
X031821Y038714D01*
X03183Y038705D01*
X031733Y038607D01*
X03183Y038508D01*
X031821Y038499D01*
X031813Y038489D01*
X031806Y038479D01*
X0318Y038468D01*
X031795Y038457D01*
X031791Y038446D01*
X031787Y038434D01*
X031785Y038422D01*
X031784Y038409D01*
X031783Y038396D01*
X031683D01*
X031683Y038409D01*
X031681Y038422D01*
X031679Y038434D01*
X031676Y038446D01*
X031672Y038457D01*
X031666Y038468D01*
X03166Y038479D01*
X031653Y038489D01*
X031646Y038499D01*
X031637Y038508D01*
X031733Y038607D01*
X031637Y038705D01*
X031646Y038714D01*
X031653Y038724D01*
X03166Y038734D01*
X031666Y038745D01*
X031672Y038756D01*
X031676Y038768D01*
X031679Y038779D01*
X031681Y038792D01*
X031683Y038805D01*
X031683Y038818D01*
X031783D01*
X031784Y038805D01*
D02*
G37*
G36*
X024321Y038499D02*
X024313Y038489D01*
X024306Y038479D01*
X0243Y038468D01*
X024295Y038457D01*
X024291Y038446D01*
X024287Y038434D01*
X024285Y038422D01*
X024284Y038409D01*
X024283Y038396D01*
X024183D01*
X024183Y038409D01*
X024181Y038422D01*
X024179Y038434D01*
X024176Y038446D01*
X024172Y038457D01*
X024166Y038468D01*
X02416Y038479D01*
X024153Y038489D01*
X024146Y038499D01*
X024137Y038508D01*
X02433D01*
X024321Y038499D01*
D02*
G37*
G36*
X014946D02*
X014938Y038489D01*
X014931Y038479D01*
X014925Y038468D01*
X01492Y038457D01*
X014916Y038446D01*
X014912Y038434D01*
X01491Y038422D01*
X014909Y038409D01*
X014908Y038396D01*
X014808D01*
X014808Y038409D01*
X014806Y038422D01*
X014804Y038434D01*
X014801Y038446D01*
X014797Y038457D01*
X014791Y038468D01*
X014785Y038479D01*
X014778Y038489D01*
X014771Y038499D01*
X014762Y038508D01*
X014955D01*
X014946Y038499D01*
D02*
G37*
G36*
X123719Y03619D02*
X123706Y036189D01*
X123694Y036186D01*
X123682Y036183D01*
X123671Y036178D01*
X12366Y036173D01*
X12365Y036166D01*
X123641Y036158D01*
X123633Y03615D01*
X123625Y03614D01*
X123618Y036129D01*
X123541Y036195D01*
X123548Y036207D01*
X123554Y036219D01*
X12356Y036231D01*
X123564Y036243D01*
X123568Y036255D01*
X12357Y036267D01*
X123572Y036279D01*
X123573Y036291D01*
X123573Y036303D01*
X123573Y036316D01*
X123719Y03619D01*
D02*
G37*
G36*
X113346Y031305D02*
X113348Y031292D01*
X11335Y031279D01*
X113353Y031268D01*
X113357Y031256D01*
X113362Y031245D01*
X113368Y031234D01*
X113375Y031224D01*
X113383Y031214D01*
X113392Y031205D01*
X113199D01*
X113208Y031214D01*
X113216Y031224D01*
X113223Y031234D01*
X113229Y031245D01*
X113234Y031256D01*
X113238Y031268D01*
X113241Y031279D01*
X113244Y031292D01*
X113245Y031305D01*
X113246Y031318D01*
X113346D01*
X113346Y031305D01*
D02*
G37*
G36*
X101159D02*
X10116Y031292D01*
X101162Y031279D01*
X101166Y031268D01*
X10117Y031256D01*
X101175Y031245D01*
X101181Y031234D01*
X101188Y031224D01*
X101196Y031214D01*
X101205Y031205D01*
X101012D01*
X101021Y031214D01*
X101028Y031224D01*
X101035Y031234D01*
X101041Y031245D01*
X101047Y031256D01*
X101051Y031268D01*
X101054Y031279D01*
X101056Y031292D01*
X101058Y031305D01*
X101058Y031318D01*
X101158D01*
X101159Y031305D01*
D02*
G37*
G36*
X093659D02*
X09366Y031292D01*
X093662Y031279D01*
X093666Y031268D01*
X09367Y031256D01*
X093675Y031245D01*
X093681Y031234D01*
X093688Y031224D01*
X093696Y031214D01*
X093705Y031205D01*
X093512D01*
X093521Y031214D01*
X093528Y031224D01*
X093535Y031234D01*
X093541Y031245D01*
X093547Y031256D01*
X093551Y031268D01*
X093554Y031279D01*
X093556Y031292D01*
X093558Y031305D01*
X093558Y031318D01*
X093658D01*
X093659Y031305D01*
D02*
G37*
G36*
X086159D02*
X08616Y031292D01*
X086162Y031279D01*
X086166Y031268D01*
X08617Y031256D01*
X086175Y031245D01*
X086181Y031234D01*
X086188Y031224D01*
X086196Y031214D01*
X086205Y031205D01*
X086012D01*
X086021Y031214D01*
X086028Y031224D01*
X086035Y031234D01*
X086041Y031245D01*
X086047Y031256D01*
X086051Y031268D01*
X086054Y031279D01*
X086056Y031292D01*
X086058Y031305D01*
X086058Y031318D01*
X086158D01*
X086159Y031305D01*
D02*
G37*
G36*
X078659D02*
X07866Y031292D01*
X078662Y031279D01*
X078666Y031268D01*
X07867Y031256D01*
X078675Y031245D01*
X078681Y031234D01*
X078688Y031224D01*
X078696Y031214D01*
X078705Y031205D01*
X078512D01*
X078521Y031214D01*
X078528Y031224D01*
X078535Y031234D01*
X078541Y031245D01*
X078547Y031256D01*
X078551Y031268D01*
X078554Y031279D01*
X078556Y031292D01*
X078558Y031305D01*
X078558Y031318D01*
X078658D01*
X078659Y031305D01*
D02*
G37*
G36*
X071159D02*
X07116Y031292D01*
X071162Y031279D01*
X071166Y031268D01*
X07117Y031256D01*
X071175Y031245D01*
X071181Y031234D01*
X071188Y031224D01*
X071196Y031214D01*
X071205Y031205D01*
X071012D01*
X071021Y031214D01*
X071028Y031224D01*
X071035Y031234D01*
X071041Y031245D01*
X071047Y031256D01*
X071051Y031268D01*
X071054Y031279D01*
X071056Y031292D01*
X071058Y031305D01*
X071058Y031318D01*
X071158D01*
X071159Y031305D01*
D02*
G37*
G36*
X063659D02*
X06366Y031292D01*
X063662Y031279D01*
X063666Y031268D01*
X06367Y031256D01*
X063675Y031245D01*
X063681Y031234D01*
X063688Y031224D01*
X063696Y031214D01*
X063705Y031205D01*
X063512D01*
X063521Y031214D01*
X063528Y031224D01*
X063535Y031234D01*
X063541Y031245D01*
X063547Y031256D01*
X063551Y031268D01*
X063554Y031279D01*
X063556Y031292D01*
X063558Y031305D01*
X063558Y031318D01*
X063658D01*
X063659Y031305D01*
D02*
G37*
G36*
X056159D02*
X05616Y031292D01*
X056162Y031279D01*
X056166Y031268D01*
X05617Y031256D01*
X056175Y031245D01*
X056181Y031234D01*
X056188Y031224D01*
X056196Y031214D01*
X056205Y031205D01*
X056012D01*
X056021Y031214D01*
X056028Y031224D01*
X056035Y031234D01*
X056041Y031245D01*
X056047Y031256D01*
X056051Y031268D01*
X056054Y031279D01*
X056056Y031292D01*
X056058Y031305D01*
X056058Y031318D01*
X056158D01*
X056159Y031305D01*
D02*
G37*
G36*
X048659D02*
X04866Y031292D01*
X048662Y031279D01*
X048666Y031268D01*
X04867Y031256D01*
X048675Y031245D01*
X048681Y031234D01*
X048688Y031224D01*
X048696Y031214D01*
X048705Y031205D01*
X048512D01*
X048521Y031214D01*
X048528Y031224D01*
X048535Y031234D01*
X048541Y031245D01*
X048547Y031256D01*
X048551Y031268D01*
X048554Y031279D01*
X048556Y031292D01*
X048558Y031305D01*
X048558Y031318D01*
X048658D01*
X048659Y031305D01*
D02*
G37*
G36*
X041159D02*
X04116Y031292D01*
X041162Y031279D01*
X041166Y031268D01*
X04117Y031256D01*
X041175Y031245D01*
X041181Y031234D01*
X041188Y031224D01*
X041196Y031214D01*
X041205Y031205D01*
X041012D01*
X041021Y031214D01*
X041028Y031224D01*
X041035Y031234D01*
X041041Y031245D01*
X041047Y031256D01*
X041051Y031268D01*
X041054Y031279D01*
X041056Y031292D01*
X041058Y031305D01*
X041058Y031318D01*
X041158D01*
X041159Y031305D01*
D02*
G37*
G36*
X033659D02*
X03366Y031292D01*
X033662Y031279D01*
X033666Y031268D01*
X03367Y031256D01*
X033675Y031245D01*
X033681Y031234D01*
X033688Y031224D01*
X033696Y031214D01*
X033705Y031205D01*
X033512D01*
X033521Y031214D01*
X033528Y031224D01*
X033535Y031234D01*
X033541Y031245D01*
X033547Y031256D01*
X033551Y031268D01*
X033554Y031279D01*
X033556Y031292D01*
X033558Y031305D01*
X033558Y031318D01*
X033658D01*
X033659Y031305D01*
D02*
G37*
G36*
X026159D02*
X02616Y031292D01*
X026162Y031279D01*
X026166Y031268D01*
X02617Y031256D01*
X026175Y031245D01*
X026181Y031234D01*
X026188Y031224D01*
X026196Y031214D01*
X026205Y031205D01*
X026012D01*
X026021Y031214D01*
X026028Y031224D01*
X026035Y031234D01*
X026041Y031245D01*
X026047Y031256D01*
X026051Y031268D01*
X026054Y031279D01*
X026056Y031292D01*
X026058Y031305D01*
X026058Y031318D01*
X026158D01*
X026159Y031305D01*
D02*
G37*
G36*
X015846D02*
X015848Y031292D01*
X01585Y031279D01*
X015853Y031268D01*
X015857Y031256D01*
X015862Y031245D01*
X015868Y031234D01*
X015875Y031224D01*
X015883Y031214D01*
X015892Y031205D01*
X015699D01*
X015708Y031214D01*
X015716Y031224D01*
X015723Y031234D01*
X015729Y031245D01*
X015734Y031256D01*
X015738Y031268D01*
X015741Y031279D01*
X015744Y031292D01*
X015745Y031305D01*
X015746Y031318D01*
X015846D01*
X015846Y031305D01*
D02*
G37*
G36*
X125571Y030999D02*
X125563Y030989D01*
X125556Y030979D01*
X12555Y030968D01*
X125545Y030957D01*
X125541Y030946D01*
X125537Y030934D01*
X125535Y030922D01*
X125534Y030909D01*
X125533Y030896D01*
X125433D01*
X125433Y030909D01*
X125431Y030922D01*
X125429Y030934D01*
X125426Y030946D01*
X125422Y030957D01*
X125416Y030968D01*
X12541Y030979D01*
X125403Y030989D01*
X125396Y030999D01*
X125387Y031008D01*
X12558D01*
X125571Y030999D01*
D02*
G37*
G36*
X113383D02*
X113375Y030989D01*
X113368Y030979D01*
X113362Y030968D01*
X113357Y030957D01*
X113353Y030946D01*
X11335Y030934D01*
X113348Y030922D01*
X113346Y030909D01*
X113346Y030896D01*
X113246D01*
X113245Y030909D01*
X113244Y030922D01*
X113241Y030934D01*
X113238Y030946D01*
X113234Y030957D01*
X113229Y030968D01*
X113223Y030979D01*
X113216Y030989D01*
X113208Y030999D01*
X113199Y031008D01*
X113392D01*
X113383Y030999D01*
D02*
G37*
G36*
X101196D02*
X101188Y030989D01*
X101181Y030979D01*
X101175Y030968D01*
X10117Y030957D01*
X101166Y030946D01*
X101162Y030934D01*
X10116Y030922D01*
X101159Y030909D01*
X101158Y030896D01*
X101058D01*
X101058Y030909D01*
X101056Y030922D01*
X101054Y030934D01*
X101051Y030946D01*
X101047Y030957D01*
X101041Y030968D01*
X101035Y030979D01*
X101028Y030989D01*
X101021Y030999D01*
X101012Y031008D01*
X101205D01*
X101196Y030999D01*
D02*
G37*
G36*
X093696D02*
X093688Y030989D01*
X093681Y030979D01*
X093675Y030968D01*
X09367Y030957D01*
X093666Y030946D01*
X093662Y030934D01*
X09366Y030922D01*
X093659Y030909D01*
X093658Y030896D01*
X093558D01*
X093558Y030909D01*
X093556Y030922D01*
X093554Y030934D01*
X093551Y030946D01*
X093547Y030957D01*
X093541Y030968D01*
X093535Y030979D01*
X093528Y030989D01*
X093521Y030999D01*
X093512Y031008D01*
X093705D01*
X093696Y030999D01*
D02*
G37*
G36*
X086196D02*
X086188Y030989D01*
X086181Y030979D01*
X086175Y030968D01*
X08617Y030957D01*
X086166Y030946D01*
X086162Y030934D01*
X08616Y030922D01*
X086159Y030909D01*
X086158Y030896D01*
X086058D01*
X086058Y030909D01*
X086056Y030922D01*
X086054Y030934D01*
X086051Y030946D01*
X086047Y030957D01*
X086041Y030968D01*
X086035Y030979D01*
X086028Y030989D01*
X086021Y030999D01*
X086012Y031008D01*
X086205D01*
X086196Y030999D01*
D02*
G37*
G36*
X078696D02*
X078688Y030989D01*
X078681Y030979D01*
X078675Y030968D01*
X07867Y030957D01*
X078666Y030946D01*
X078662Y030934D01*
X07866Y030922D01*
X078659Y030909D01*
X078658Y030896D01*
X078558D01*
X078558Y030909D01*
X078556Y030922D01*
X078554Y030934D01*
X078551Y030946D01*
X078547Y030957D01*
X078541Y030968D01*
X078535Y030979D01*
X078528Y030989D01*
X078521Y030999D01*
X078512Y031008D01*
X078705D01*
X078696Y030999D01*
D02*
G37*
G36*
X071196D02*
X071188Y030989D01*
X071181Y030979D01*
X071175Y030968D01*
X07117Y030957D01*
X071166Y030946D01*
X071162Y030934D01*
X07116Y030922D01*
X071159Y030909D01*
X071158Y030896D01*
X071058D01*
X071058Y030909D01*
X071056Y030922D01*
X071054Y030934D01*
X071051Y030946D01*
X071047Y030957D01*
X071041Y030968D01*
X071035Y030979D01*
X071028Y030989D01*
X071021Y030999D01*
X071012Y031008D01*
X071205D01*
X071196Y030999D01*
D02*
G37*
G36*
X063696D02*
X063688Y030989D01*
X063681Y030979D01*
X063675Y030968D01*
X06367Y030957D01*
X063666Y030946D01*
X063662Y030934D01*
X06366Y030922D01*
X063659Y030909D01*
X063658Y030896D01*
X063558D01*
X063558Y030909D01*
X063556Y030922D01*
X063554Y030934D01*
X063551Y030946D01*
X063547Y030957D01*
X063541Y030968D01*
X063535Y030979D01*
X063528Y030989D01*
X063521Y030999D01*
X063512Y031008D01*
X063705D01*
X063696Y030999D01*
D02*
G37*
G36*
X056196D02*
X056188Y030989D01*
X056181Y030979D01*
X056175Y030968D01*
X05617Y030957D01*
X056166Y030946D01*
X056162Y030934D01*
X05616Y030922D01*
X056159Y030909D01*
X056158Y030896D01*
X056058D01*
X056058Y030909D01*
X056056Y030922D01*
X056054Y030934D01*
X056051Y030946D01*
X056047Y030957D01*
X056041Y030968D01*
X056035Y030979D01*
X056028Y030989D01*
X056021Y030999D01*
X056012Y031008D01*
X056205D01*
X056196Y030999D01*
D02*
G37*
G36*
X048696D02*
X048688Y030989D01*
X048681Y030979D01*
X048675Y030968D01*
X04867Y030957D01*
X048666Y030946D01*
X048662Y030934D01*
X04866Y030922D01*
X048659Y030909D01*
X048658Y030896D01*
X048558D01*
X048558Y030909D01*
X048556Y030922D01*
X048554Y030934D01*
X048551Y030946D01*
X048547Y030957D01*
X048541Y030968D01*
X048535Y030979D01*
X048528Y030989D01*
X048521Y030999D01*
X048512Y031008D01*
X048705D01*
X048696Y030999D01*
D02*
G37*
G36*
X041196D02*
X041188Y030989D01*
X041181Y030979D01*
X041175Y030968D01*
X04117Y030957D01*
X041166Y030946D01*
X041162Y030934D01*
X04116Y030922D01*
X041159Y030909D01*
X041158Y030896D01*
X041058D01*
X041058Y030909D01*
X041056Y030922D01*
X041054Y030934D01*
X041051Y030946D01*
X041047Y030957D01*
X041041Y030968D01*
X041035Y030979D01*
X041028Y030989D01*
X041021Y030999D01*
X041012Y031008D01*
X041205D01*
X041196Y030999D01*
D02*
G37*
G36*
X033696D02*
X033688Y030989D01*
X033681Y030979D01*
X033675Y030968D01*
X03367Y030957D01*
X033666Y030946D01*
X033662Y030934D01*
X03366Y030922D01*
X033659Y030909D01*
X033658Y030896D01*
X033558D01*
X033558Y030909D01*
X033556Y030922D01*
X033554Y030934D01*
X033551Y030946D01*
X033547Y030957D01*
X033541Y030968D01*
X033535Y030979D01*
X033528Y030989D01*
X033521Y030999D01*
X033512Y031008D01*
X033705D01*
X033696Y030999D01*
D02*
G37*
G36*
X026196D02*
X026188Y030989D01*
X026181Y030979D01*
X026175Y030968D01*
X02617Y030957D01*
X026166Y030946D01*
X026162Y030934D01*
X02616Y030922D01*
X026159Y030909D01*
X026158Y030896D01*
X026058D01*
X026058Y030909D01*
X026056Y030922D01*
X026054Y030934D01*
X026051Y030946D01*
X026047Y030957D01*
X026041Y030968D01*
X026035Y030979D01*
X026028Y030989D01*
X026021Y030999D01*
X026012Y031008D01*
X026205D01*
X026196Y030999D01*
D02*
G37*
G36*
X015883D02*
X015875Y030989D01*
X015868Y030979D01*
X015862Y030968D01*
X015857Y030957D01*
X015853Y030946D01*
X01585Y030934D01*
X015848Y030922D01*
X015846Y030909D01*
X015846Y030896D01*
X015746D01*
X015745Y030909D01*
X015744Y030922D01*
X015741Y030934D01*
X015738Y030946D01*
X015734Y030957D01*
X015729Y030968D01*
X015723Y030979D01*
X015716Y030989D01*
X015708Y030999D01*
X015699Y031008D01*
X015892D01*
X015883Y030999D01*
D02*
G37*
G36*
X123638Y028836D02*
X123639Y028823D01*
X123642Y028811D01*
X123645Y028799D01*
X123649Y028788D01*
X123654Y028777D01*
X12366Y028766D01*
X123668Y028756D01*
X123676Y028746D01*
X123685Y028736D01*
X123614Y028665D01*
X123604Y028674D01*
X123594Y028682D01*
X123584Y02869D01*
X123573Y028696D01*
X123562Y028701D01*
X123551Y028705D01*
X123539Y028708D01*
X123527Y028711D01*
X123514Y028712D01*
X123501Y028712D01*
X123638Y028849D01*
X123638Y028836D01*
D02*
G37*
G36*
X125534Y023805D02*
X125535Y023792D01*
X125537Y023779D01*
X125541Y023768D01*
X125545Y023756D01*
X12555Y023745D01*
X125556Y023734D01*
X125563Y023724D01*
X125571Y023714D01*
X12558Y023705D01*
X125387D01*
X125396Y023714D01*
X125403Y023724D01*
X12541Y023734D01*
X125416Y023745D01*
X125422Y023756D01*
X125426Y023768D01*
X125429Y023779D01*
X125431Y023792D01*
X125433Y023805D01*
X125433Y023818D01*
X125533D01*
X125534Y023805D01*
D02*
G37*
G36*
X118034D02*
X118035Y023792D01*
X118037Y023779D01*
X118041Y023768D01*
X118045Y023756D01*
X11805Y023745D01*
X118056Y023734D01*
X118063Y023724D01*
X118071Y023714D01*
X11808Y023705D01*
X117887D01*
X117896Y023714D01*
X117903Y023724D01*
X11791Y023734D01*
X117916Y023745D01*
X117922Y023756D01*
X117926Y023768D01*
X117929Y023779D01*
X117931Y023792D01*
X117933Y023805D01*
X117933Y023818D01*
X118033D01*
X118034Y023805D01*
D02*
G37*
G36*
X029909D02*
X02991Y023792D01*
X029912Y023779D01*
X029916Y023768D01*
X02992Y023756D01*
X029925Y023745D01*
X029931Y023734D01*
X029938Y023724D01*
X029946Y023714D01*
X029955Y023705D01*
X029762D01*
X029771Y023714D01*
X029778Y023724D01*
X029785Y023734D01*
X029791Y023745D01*
X029797Y023756D01*
X029801Y023768D01*
X029804Y023779D01*
X029806Y023792D01*
X029808Y023805D01*
X029808Y023818D01*
X029908D01*
X029909Y023805D01*
D02*
G37*
G36*
X017721D02*
X017723Y023792D01*
X017725Y023779D01*
X017728Y023768D01*
X017732Y023756D01*
X017737Y023745D01*
X017743Y023734D01*
X01775Y023724D01*
X017758Y023714D01*
X017767Y023705D01*
X017574D01*
X017583Y023714D01*
X017591Y023724D01*
X017598Y023734D01*
X017604Y023745D01*
X017609Y023756D01*
X017613Y023768D01*
X017616Y023779D01*
X017619Y023792D01*
X01762Y023805D01*
X017621Y023818D01*
X017721D01*
X017721Y023805D01*
D02*
G37*
G36*
X097427Y023814D02*
X097425Y023801D01*
X097425Y023789D01*
X097425Y023776D01*
X097427Y023764D01*
X097429Y023753D01*
X097433Y023741D01*
X097438Y02373D01*
X097444Y02372D01*
X097452Y023709D01*
X09746Y023699D01*
X097268Y02371D01*
X097277Y023719D01*
X097285Y023728D01*
X097293Y023738D01*
X0973Y023748D01*
X097306Y023758D01*
X097311Y023769D01*
X097316Y023781D01*
X09732Y023793D01*
X097324Y023806D01*
X097327Y023819D01*
X097427Y023814D01*
D02*
G37*
G36*
X089927D02*
X089925Y023801D01*
X089925Y023789D01*
X089925Y023776D01*
X089927Y023764D01*
X089929Y023753D01*
X089933Y023741D01*
X089938Y02373D01*
X089944Y02372D01*
X089952Y023709D01*
X08996Y023699D01*
X089768Y02371D01*
X089777Y023719D01*
X089785Y023728D01*
X089793Y023738D01*
X0898Y023748D01*
X089806Y023758D01*
X089811Y023769D01*
X089816Y023781D01*
X08982Y023793D01*
X089824Y023806D01*
X089827Y023819D01*
X089927Y023814D01*
D02*
G37*
G36*
X082427D02*
X082425Y023801D01*
X082425Y023789D01*
X082425Y023776D01*
X082427Y023764D01*
X082429Y023753D01*
X082433Y023741D01*
X082438Y02373D01*
X082444Y02372D01*
X082452Y023709D01*
X08246Y023699D01*
X082268Y02371D01*
X082277Y023719D01*
X082285Y023728D01*
X082293Y023738D01*
X0823Y023748D01*
X082306Y023758D01*
X082311Y023769D01*
X082316Y023781D01*
X08232Y023793D01*
X082324Y023806D01*
X082327Y023819D01*
X082427Y023814D01*
D02*
G37*
G36*
X074927D02*
X074925Y023801D01*
X074925Y023789D01*
X074925Y023776D01*
X074927Y023764D01*
X074929Y023753D01*
X074933Y023741D01*
X074938Y02373D01*
X074944Y02372D01*
X074952Y023709D01*
X07496Y023699D01*
X074768Y02371D01*
X074777Y023719D01*
X074785Y023728D01*
X074793Y023738D01*
X0748Y023748D01*
X074806Y023758D01*
X074811Y023769D01*
X074816Y023781D01*
X07482Y023793D01*
X074824Y023806D01*
X074827Y023819D01*
X074927Y023814D01*
D02*
G37*
G36*
X10774Y023814D02*
X107739Y023801D01*
X107738Y023788D01*
X107738Y023776D01*
X10774Y023764D01*
X107742Y023753D01*
X107746Y023741D01*
X107751Y02373D01*
X107757Y02372D01*
X107764Y023709D01*
X107773Y023699D01*
X10758Y023711D01*
X107589Y023719D01*
X107598Y023728D01*
X107605Y023738D01*
X107612Y023748D01*
X107619Y023758D01*
X107624Y02377D01*
X107629Y023781D01*
X107633Y023793D01*
X107637Y023806D01*
X10764Y023819D01*
X10774Y023814D01*
D02*
G37*
G36*
X059825Y023506D02*
X060007Y023556D01*
X060003Y023547D01*
X060001Y023538D01*
X06Y023529D01*
X060001Y02352D01*
X060003Y02351D01*
X060006Y0235D01*
X060011Y02349D01*
X060018Y02348D01*
X060026Y023469D01*
X060035Y023458D01*
X0599Y023447D01*
X059883Y02346D01*
X05986Y023476D01*
X059847Y023484D01*
X059835Y023491D01*
X05983Y023493D01*
X059825Y023506D01*
X059812Y023502D01*
X059807Y023505D01*
X059795Y023511D01*
X059781Y023517D01*
X059755Y023527D01*
X059734Y023533D01*
X059667Y023651D01*
X059681Y023649D01*
X059694Y023649D01*
X059706Y023649D01*
X059717Y023651D01*
X059727Y023654D01*
X059736Y023658D01*
X059745Y023663D01*
X059752Y023669D01*
X059758Y023676D01*
X059763Y023684D01*
X059825Y023506D01*
D02*
G37*
G36*
X044799Y023493D02*
X044981Y023544D01*
X044977Y023535D01*
X044975Y023526D01*
X044974Y023516D01*
X044974Y023507D01*
X044976Y023497D01*
X04498Y023487D01*
X044985Y023477D01*
X044991Y023467D01*
X044999Y023457D01*
X045008Y023446D01*
X044873Y023434D01*
X044856Y023447D01*
X044834Y023463D01*
X04482Y023472D01*
X044808Y023478D01*
X044803Y02348D01*
X044799Y023493D01*
X044786Y023489D01*
X044781Y023492D01*
X044769Y023498D01*
X044755Y023505D01*
X044728Y023514D01*
X044708Y023521D01*
X04464Y023638D01*
X044654Y023637D01*
X044668Y023636D01*
X04468Y023637D01*
X044691Y023638D01*
X044701Y023641D01*
X04471Y023645D01*
X044718Y02365D01*
X044725Y023656D01*
X044731Y023663D01*
X044736Y023671D01*
X044799Y023493D01*
D02*
G37*
G36*
X037299D02*
X037286Y023489D01*
X037281Y023492D01*
X037269Y023498D01*
X037255Y023505D01*
X037228Y023514D01*
X037208Y023521D01*
X03714Y023638D01*
X037154Y023637D01*
X037168Y023636D01*
X03718Y023637D01*
X037191Y023638D01*
X037201Y023641D01*
X03721Y023645D01*
X037218Y02365D01*
X037225Y023656D01*
X037231Y023663D01*
X037236Y023671D01*
X037299Y023493D01*
D02*
G37*
G36*
X06726Y02351D02*
X06725Y023519D01*
X067241Y023527D01*
X067231Y023534D01*
X06722Y02354D01*
X067209Y023545D01*
X067197Y023549D01*
X067185Y023553D01*
X067173Y023555D01*
X06716Y023556D01*
X067147Y023557D01*
Y023657D01*
X06716Y023657D01*
X067173Y023659D01*
X067185Y023661D01*
X067197Y023664D01*
X067209Y023668D01*
X06722Y023673D01*
X067231Y023679D01*
X067241Y023686D01*
X06725Y023694D01*
X06726Y023703D01*
Y02351D01*
D02*
G37*
G36*
X05226D02*
X05225Y023519D01*
X052241Y023527D01*
X052231Y023534D01*
X05222Y02354D01*
X052209Y023545D01*
X052197Y023549D01*
X052185Y023553D01*
X052173Y023555D01*
X05216Y023556D01*
X052147Y023557D01*
Y023657D01*
X05216Y023657D01*
X052173Y023659D01*
X052185Y023661D01*
X052197Y023664D01*
X052209Y023668D01*
X05222Y023673D01*
X052231Y023679D01*
X052241Y023686D01*
X05225Y023694D01*
X05226Y023703D01*
Y02351D01*
D02*
G37*
G36*
X052491Y023645D02*
X052501Y023623D01*
X052504Y023616D01*
X052511Y023606D01*
X052514Y023601D01*
X052518Y023597D01*
X052521Y023593D01*
X05248Y023488D01*
X052477Y023491D01*
X052474Y023493D01*
X052469Y023495D01*
X052464Y023495D01*
X052458Y023495D01*
X052451Y023494D01*
X052444Y023492D01*
X052435Y023489D01*
X052426Y023486D01*
X052415Y023481D01*
X052488Y023653D01*
X052491Y023645D01*
D02*
G37*
G36*
X037477Y023535D02*
X037475Y023526D01*
X037474Y023516D01*
X037474Y023507D01*
X037476Y023497D01*
X03748Y023487D01*
X037485Y023477D01*
X037491Y023467D01*
X037499Y023457D01*
X037508Y023446D01*
X037373Y023434D01*
X037356Y023447D01*
X037334Y023463D01*
X03732Y023472D01*
X037308Y023478D01*
X037303Y02348D01*
X037299Y023493D01*
X037481Y023544D01*
X037477Y023535D01*
D02*
G37*
G36*
X125571Y023499D02*
X125563Y023489D01*
X125556Y023479D01*
X12555Y023468D01*
X125545Y023457D01*
X125541Y023446D01*
X125537Y023434D01*
X125535Y023422D01*
X125534Y023409D01*
X125533Y023396D01*
X125433D01*
X125433Y023409D01*
X125431Y023422D01*
X125429Y023434D01*
X125426Y023446D01*
X125422Y023457D01*
X125416Y023468D01*
X12541Y023479D01*
X125403Y023489D01*
X125396Y023499D01*
X125387Y023508D01*
X12558D01*
X125571Y023499D01*
D02*
G37*
G36*
X118071D02*
X118063Y023489D01*
X118056Y023479D01*
X11805Y023468D01*
X118045Y023457D01*
X118041Y023446D01*
X118037Y023434D01*
X118035Y023422D01*
X118034Y023409D01*
X118033Y023396D01*
X117933D01*
X117933Y023409D01*
X117931Y023422D01*
X117929Y023434D01*
X117926Y023446D01*
X117922Y023457D01*
X117916Y023468D01*
X11791Y023479D01*
X117903Y023489D01*
X117896Y023499D01*
X117887Y023508D01*
X11808D01*
X118071Y023499D01*
D02*
G37*
G36*
X107758D02*
X10775Y023489D01*
X107743Y023479D01*
X107737Y023468D01*
X107732Y023457D01*
X107728Y023446D01*
X107725Y023434D01*
X107723Y023422D01*
X107721Y023409D01*
X107721Y023396D01*
X107621D01*
X10762Y023409D01*
X107619Y023422D01*
X107616Y023434D01*
X107613Y023446D01*
X107609Y023457D01*
X107604Y023468D01*
X107598Y023479D01*
X107591Y023489D01*
X107583Y023499D01*
X107574Y023508D01*
X107767D01*
X107758Y023499D01*
D02*
G37*
G36*
X097446D02*
X097438Y023489D01*
X097431Y023479D01*
X097425Y023468D01*
X09742Y023457D01*
X097416Y023446D01*
X097412Y023434D01*
X09741Y023422D01*
X097409Y023409D01*
X097408Y023396D01*
X097308D01*
X097308Y023409D01*
X097306Y023422D01*
X097304Y023434D01*
X097301Y023446D01*
X097297Y023457D01*
X097291Y023468D01*
X097285Y023479D01*
X097278Y023489D01*
X097271Y023499D01*
X097262Y023508D01*
X097455D01*
X097446Y023499D01*
D02*
G37*
G36*
X089946D02*
X089938Y023489D01*
X089931Y023479D01*
X089925Y023468D01*
X08992Y023457D01*
X089916Y023446D01*
X089912Y023434D01*
X08991Y023422D01*
X089909Y023409D01*
X089908Y023396D01*
X089808D01*
X089808Y023409D01*
X089806Y023422D01*
X089804Y023434D01*
X089801Y023446D01*
X089797Y023457D01*
X089791Y023468D01*
X089785Y023479D01*
X089778Y023489D01*
X089771Y023499D01*
X089762Y023508D01*
X089955D01*
X089946Y023499D01*
D02*
G37*
G36*
X029946Y023499D02*
X029938Y023489D01*
X029931Y023479D01*
X029925Y023468D01*
X02992Y023457D01*
X029916Y023446D01*
X029913Y023434D01*
X02991Y023422D01*
X029909Y023409D01*
X029908Y023396D01*
X029808Y023396D01*
X029808Y023409D01*
X029806Y023422D01*
X029804Y023434D01*
X029801Y023446D01*
X029797Y023457D01*
X029792Y023468D01*
X029786Y023479D01*
X029779Y023489D01*
X029771Y023499D01*
X029762Y023508D01*
X029955Y023508D01*
X029946Y023499D01*
D02*
G37*
G36*
X017758Y0235D02*
X017749Y023492D01*
X017741Y023484D01*
X017733Y023474D01*
X017725Y023465D01*
X017719Y023454D01*
X017713Y023443D01*
X017707Y023432D01*
X017702Y02342D01*
X017698Y023407D01*
X017694Y023394D01*
X017593Y023402D01*
X017596Y023415D01*
X017597Y023427D01*
X017598Y023439D01*
X017597Y023451D01*
X017595Y023462D01*
X017592Y023474D01*
X017587Y023485D01*
X017581Y023496D01*
X017574Y023506D01*
X017566Y023517D01*
X017758Y0235D01*
D02*
G37*
G36*
X107128Y021688D02*
X10712Y021676D01*
X107114Y021664D01*
X107109Y021653D01*
X107104Y021641D01*
X1071Y021629D01*
X107097Y021617D01*
X107095Y021605D01*
X107094Y021593D01*
X107094Y02158D01*
X107094Y021568D01*
X106949Y021695D01*
X106962Y021696D01*
X106975Y021698D01*
X106986Y021702D01*
X106998Y021706D01*
X107008Y021712D01*
X107018Y021718D01*
X107027Y021726D01*
X107036Y021734D01*
X107044Y021744D01*
X107052Y021754D01*
X107128Y021688D01*
D02*
G37*
G36*
X038308Y020988D02*
X038317Y02098D01*
X038328Y020973D01*
X038338Y020967D01*
X038349Y020962D01*
X038361Y020957D01*
X038373Y020954D01*
X038385Y020952D01*
X038398Y02095D01*
X038411Y02095D01*
Y02085D01*
X038398Y02085D01*
X038385Y020848D01*
X038373Y020846D01*
X038361Y020843D01*
X038349Y020838D01*
X038338Y020833D01*
X038328Y020827D01*
X038317Y02082D01*
X038308Y020812D01*
X038298Y020804D01*
Y020996D01*
X038308Y020988D01*
D02*
G37*
G36*
X038858Y020688D02*
X038867Y02068D01*
X038878Y020673D01*
X038888Y020667D01*
X038899Y020662D01*
X038911Y020657D01*
X038923Y020654D01*
X038935Y020652D01*
X038948Y02065D01*
X038961Y02065D01*
Y02055D01*
X038948Y02055D01*
X038935Y020548D01*
X038923Y020546D01*
X038911Y020543D01*
X038899Y020538D01*
X038888Y020533D01*
X038878Y020527D01*
X038867Y02052D01*
X038858Y020512D01*
X038848Y020504D01*
Y020696D01*
X038858Y020688D01*
D02*
G37*
G36*
X118034Y020675D02*
X118035Y020662D01*
X118037Y02065D01*
X118041Y020638D01*
X118045Y020626D01*
X11805Y020615D01*
X118056Y020605D01*
X118063Y020595D01*
X118071Y020585D01*
X11808Y020576D01*
X117982Y020476D01*
X117887Y020573D01*
X117896Y020583D01*
X117904Y020593D01*
X117911Y020603D01*
X117917Y020614D01*
X117922Y020625D01*
X117926Y020636D01*
X117929Y020648D01*
X117931Y020661D01*
X117933Y020673D01*
X117933Y020687D01*
X118033Y020688D01*
X118034Y020675D01*
D02*
G37*
G36*
X029908Y020558D02*
X029909Y020544D01*
X02991Y020532D01*
X029912Y020519D01*
X029915Y020507D01*
X029919Y020495D01*
X029924Y020484D01*
X02993Y020473D01*
X029936Y020463D01*
X029944Y020452D01*
X029952Y020442D01*
X029862Y02035D01*
X02976Y020454D01*
X029769Y020463D01*
X029777Y020472D01*
X029784Y020482D01*
X029791Y020492D01*
X029796Y020503D01*
X029801Y020514D01*
X029804Y020526D01*
X029806Y020538D01*
X029808Y020551D01*
X029808Y020564D01*
X029908Y020558D01*
D02*
G37*
G36*
X11808Y020376D02*
X118071Y020367D01*
X118063Y020358D01*
X118056Y020348D01*
X11805Y020337D01*
X118045Y020326D01*
X118041Y020315D01*
X118037Y020303D01*
X118035Y02029D01*
X118034Y020278D01*
X118033Y020264D01*
X117933Y020266D01*
X117933Y020279D01*
X117931Y020292D01*
X117929Y020304D01*
X117926Y020316D01*
X117922Y020328D01*
X117917Y020339D01*
X117911Y020349D01*
X117904Y02036D01*
X117896Y02037D01*
X117887Y020379D01*
X117982Y020476D01*
X11808Y020376D01*
D02*
G37*
G36*
X123735Y020314D02*
X123726Y020304D01*
X123718Y020294D01*
X12371Y020284D01*
X123704Y020273D01*
X123699Y020262D01*
X123695Y020251D01*
X123692Y020239D01*
X123689Y020227D01*
X123688Y020214D01*
X123688Y020201D01*
X123551Y020338D01*
X123564Y020338D01*
X123577Y020339D01*
X123589Y020342D01*
X123601Y020345D01*
X123612Y020349D01*
X123623Y020354D01*
X123634Y02036D01*
X123644Y020368D01*
X123654Y020376D01*
X123664Y020385D01*
X123735Y020314D01*
D02*
G37*
G36*
X029952Y020258D02*
X029944Y020248D01*
X029936Y020237D01*
X02993Y020227D01*
X029924Y020216D01*
X029919Y020205D01*
X029915Y020193D01*
X029912Y020181D01*
X02991Y020168D01*
X029909Y020156D01*
X029908Y020142D01*
X029808Y020136D01*
X029808Y020149D01*
X029806Y020162D01*
X029804Y020174D01*
X029801Y020186D01*
X029796Y020197D01*
X029791Y020208D01*
X029784Y020218D01*
X029777Y020228D01*
X029769Y020237D01*
X02976Y020246D01*
X029862Y02035D01*
X029952Y020258D01*
D02*
G37*
G36*
X124328Y020088D02*
X12432Y020076D01*
X124314Y020064D01*
X124309Y020053D01*
X124304Y020041D01*
X1243Y020029D01*
X124297Y020017D01*
X124295Y020005D01*
X124294Y019993D01*
X124294Y01998D01*
X124294Y019968D01*
X124149Y020095D01*
X124162Y020096D01*
X124175Y020098D01*
X124186Y020102D01*
X124198Y020106D01*
X124208Y020112D01*
X124218Y020118D01*
X124227Y020126D01*
X124236Y020134D01*
X124244Y020144D01*
X124252Y020154D01*
X124328Y020088D01*
D02*
G37*
G36*
X124918Y019833D02*
X124911Y019821D01*
X124905Y019809D01*
X1249Y019797D01*
X124896Y019785D01*
X124892Y019773D01*
X124889Y019761D01*
X124888Y019749D01*
X124887Y019737D01*
X124887Y019725D01*
X124887Y019712D01*
X12474Y019837D01*
X124753Y019839D01*
X124766Y019841D01*
X124778Y019845D01*
X124789Y01985D01*
X124799Y019855D01*
X124809Y019862D01*
X124818Y01987D01*
X124826Y019878D01*
X124834Y019888D01*
X124841Y019899D01*
X124918Y019833D01*
D02*
G37*
G36*
X125534Y019734D02*
X125535Y019722D01*
X125537Y019709D01*
X125541Y019697D01*
X125545Y019686D01*
X12555Y019675D01*
X125556Y019664D01*
X125563Y019654D01*
X125571Y019645D01*
X12558Y019635D01*
X125483Y019536D01*
X125387Y019634D01*
X125396Y019643D01*
X125404Y019653D01*
X125411Y019663D01*
X125417Y019674D01*
X125422Y019685D01*
X125426Y019697D01*
X125429Y019708D01*
X125431Y019721D01*
X125433Y019734D01*
X125433Y019747D01*
X125533Y019748D01*
X125534Y019734D01*
D02*
G37*
G36*
X12558Y019437D02*
X125571Y019428D01*
X125563Y019418D01*
X125556Y019408D01*
X12555Y019397D01*
X125545Y019386D01*
X125541Y019375D01*
X125537Y019363D01*
X125535Y019351D01*
X125534Y019338D01*
X125533Y019325D01*
X125433Y019326D01*
X125433Y019339D01*
X125431Y019352D01*
X125429Y019364D01*
X125426Y019376D01*
X125422Y019387D01*
X125417Y019398D01*
X125411Y019409D01*
X125404Y019419D01*
X125396Y019429D01*
X125387Y019439D01*
X125483Y019536D01*
X12558Y019437D01*
D02*
G37*
G36*
X051554Y017984D02*
X05156Y01798D01*
X051567Y017977D01*
X051576Y017974D01*
X051585Y017972D01*
X051596Y01797D01*
X051607Y017968D01*
X051634Y017967D01*
X051649Y017966D01*
Y017816D01*
X051634Y017816D01*
X051596Y017813D01*
X051585Y017811D01*
X051576Y017809D01*
X051567Y017806D01*
X05156Y017803D01*
X051554Y017799D01*
X05155Y017795D01*
Y017988D01*
X051554Y017984D01*
D02*
G37*
G36*
X055036Y017443D02*
X055031Y017447D01*
X055025Y01745D01*
X055018Y017453D01*
X05501Y017456D01*
X055Y017458D01*
X05499Y01746D01*
X054965Y017462D01*
X054936Y017463D01*
X054926Y017613D01*
X054941Y017613D01*
X054968Y017615D01*
X054979Y017616D01*
X05499Y017618D01*
X054999Y017621D01*
X055007Y017624D01*
X055014Y017628D01*
X05502Y017632D01*
X055025Y017636D01*
X055036Y017443D01*
D02*
G37*
G36*
X125534Y016305D02*
X125535Y016292D01*
X125537Y016279D01*
X125541Y016268D01*
X125545Y016256D01*
X12555Y016245D01*
X125556Y016234D01*
X125563Y016224D01*
X125571Y016214D01*
X12558Y016205D01*
X125387D01*
X125396Y016214D01*
X125403Y016224D01*
X12541Y016234D01*
X125416Y016245D01*
X125422Y016256D01*
X125426Y016268D01*
X125429Y016279D01*
X125431Y016292D01*
X125433Y016305D01*
X125433Y016318D01*
X125533D01*
X125534Y016305D01*
D02*
G37*
G36*
X118034D02*
X118035Y016292D01*
X118037Y016279D01*
X118041Y016268D01*
X118045Y016256D01*
X11805Y016245D01*
X118056Y016234D01*
X118063Y016224D01*
X118071Y016214D01*
X11808Y016205D01*
X117887D01*
X117896Y016214D01*
X117903Y016224D01*
X11791Y016234D01*
X117916Y016245D01*
X117922Y016256D01*
X117926Y016268D01*
X117929Y016279D01*
X117931Y016292D01*
X117933Y016305D01*
X117933Y016318D01*
X118033D01*
X118034Y016305D01*
D02*
G37*
G36*
X110534D02*
X110535Y016292D01*
X110537Y016279D01*
X110541Y016268D01*
X110545Y016256D01*
X11055Y016245D01*
X110556Y016234D01*
X110563Y016224D01*
X110571Y016214D01*
X11058Y016205D01*
X110387D01*
X110396Y016214D01*
X110403Y016224D01*
X11041Y016234D01*
X110416Y016245D01*
X110422Y016256D01*
X110426Y016268D01*
X110429Y016279D01*
X110431Y016292D01*
X110433Y016305D01*
X110433Y016318D01*
X110533D01*
X110534Y016305D01*
D02*
G37*
G36*
X032721D02*
X032723Y016292D01*
X032725Y016279D01*
X032728Y016268D01*
X032732Y016256D01*
X032737Y016245D01*
X032743Y016234D01*
X03275Y016224D01*
X032758Y016214D01*
X032767Y016205D01*
X032574D01*
X032583Y016214D01*
X032591Y016224D01*
X032598Y016234D01*
X032604Y016245D01*
X032609Y016256D01*
X032613Y016268D01*
X032616Y016279D01*
X032619Y016292D01*
X03262Y016305D01*
X032621Y016318D01*
X032721D01*
X032721Y016305D01*
D02*
G37*
G36*
X023346D02*
X023348Y016292D01*
X02335Y016279D01*
X023353Y016268D01*
X023357Y016256D01*
X023362Y016245D01*
X023368Y016234D01*
X023375Y016224D01*
X023383Y016214D01*
X023392Y016205D01*
X023199D01*
X023208Y016214D01*
X023216Y016224D01*
X023223Y016234D01*
X023229Y016245D01*
X023234Y016256D01*
X023238Y016268D01*
X023241Y016279D01*
X023244Y016292D01*
X023245Y016305D01*
X023246Y016318D01*
X023346D01*
X023346Y016305D01*
D02*
G37*
G36*
X013971D02*
X013973Y016292D01*
X013975Y016279D01*
X013978Y016268D01*
X013982Y016256D01*
X013987Y016245D01*
X013993Y016234D01*
X014Y016224D01*
X014008Y016214D01*
X014017Y016205D01*
X013824D01*
X013833Y016214D01*
X013841Y016224D01*
X013848Y016234D01*
X013854Y016245D01*
X013859Y016256D01*
X013863Y016268D01*
X013866Y016279D01*
X013869Y016292D01*
X01387Y016305D01*
X013871Y016318D01*
X013971D01*
X013971Y016305D01*
D02*
G37*
G36*
X098191Y016282D02*
X098201Y016274D01*
X098212Y016267D01*
X098223Y016261D01*
X098234Y016256D01*
X098245Y016252D01*
X098257Y016248D01*
X098269Y016246D01*
X098281Y016245D01*
X098294Y016244D01*
X098158Y016108D01*
X098158Y016121D01*
X098156Y016133D01*
X098154Y016146D01*
X098151Y016157D01*
X098146Y016169D01*
X098141Y01618D01*
X098135Y016191D01*
X098128Y016201D01*
X09812Y016211D01*
X098111Y016221D01*
X098182Y016291D01*
X098191Y016282D01*
D02*
G37*
G36*
X089105Y016221D02*
X089096Y016211D01*
X089088Y016201D01*
X089081Y016191D01*
X089075Y01618D01*
X08907Y016169D01*
X089066Y016157D01*
X089062Y016146D01*
X08906Y016133D01*
X089059Y016121D01*
X089058Y016108D01*
X088922Y016244D01*
X088935Y016245D01*
X088947Y016246D01*
X08896Y016248D01*
X088971Y016252D01*
X088983Y016256D01*
X088994Y016261D01*
X089004Y016267D01*
X089015Y016274D01*
X089025Y016282D01*
X089035Y016291D01*
X089105Y016221D01*
D02*
G37*
G36*
X060696Y016276D02*
X060706Y016268D01*
X060716Y01626D01*
X060727Y016254D01*
X060738Y016249D01*
X060749Y016245D01*
X060761Y016242D01*
X060773Y016239D01*
X060786Y016238D01*
X060799Y016238D01*
X060662Y016101D01*
X060662Y016114D01*
X060661Y016127D01*
X060658Y016139D01*
X060655Y016151D01*
X060651Y016162D01*
X060646Y016173D01*
X06064Y016184D01*
X060632Y016194D01*
X060624Y016204D01*
X060615Y016214D01*
X060686Y016285D01*
X060696Y016276D01*
D02*
G37*
G36*
X039563Y01618D02*
X039571Y016171D01*
X03958Y016163D01*
X03959Y016156D01*
X0396Y016149D01*
X039611Y016142D01*
X039623Y016137D01*
X039635Y016131D01*
X039647Y016127D01*
X03966Y016123D01*
X039651Y016021D01*
X039639Y016024D01*
X039626Y016026D01*
X039614Y016027D01*
X039603Y016027D01*
X039591Y016025D01*
X03958Y016022D01*
X039569Y016018D01*
X039558Y016012D01*
X039547Y016005D01*
X039536Y015997D01*
X039555Y016189D01*
X039563Y01618D01*
D02*
G37*
G36*
X049385Y015813D02*
X049373Y015814D01*
X049361Y015814D01*
X049349Y015813D01*
X049336Y015812D01*
X049324Y01581D01*
X049312Y015807D01*
X0493Y015803D01*
X049287Y015798D01*
X049275Y015793D01*
X049263Y015787D01*
X049198Y015866D01*
X049209Y015872D01*
X049219Y015879D01*
X049228Y015887D01*
X049236Y015895D01*
X049243Y015904D01*
X049249Y015914D01*
X049254Y015925D01*
X049258Y015937D01*
X049261Y015949D01*
X049263Y015963D01*
X049385Y015813D01*
D02*
G37*
G36*
X051989Y015754D02*
X05198Y015762D01*
X05197Y01577D01*
X05196Y015777D01*
X051949Y015783D01*
X051938Y015788D01*
X051927Y015793D01*
X051915Y015796D01*
X051902Y015798D01*
X05189Y0158D01*
X051876Y0158D01*
Y0159D01*
X05189Y0159D01*
X051902Y015902D01*
X051915Y015904D01*
X051927Y015907D01*
X051938Y015912D01*
X051949Y015917D01*
X05196Y015923D01*
X05197Y01593D01*
X05198Y015938D01*
X051989Y015946D01*
Y015754D01*
D02*
G37*
G36*
X067199Y015756D02*
X067197Y015744D01*
X067195Y015732D01*
X067195Y015719D01*
X067196Y015708D01*
X067198Y015696D01*
X067202Y015685D01*
X067206Y015674D01*
X067212Y015663D01*
X06722Y015653D01*
X067228Y015642D01*
X067036Y015654D01*
X067045Y015662D01*
X067053Y015671D01*
X067061Y015681D01*
X067068Y015691D01*
X067074Y015701D01*
X06708Y015712D01*
X067085Y015724D01*
X06709Y015736D01*
X067094Y015749D01*
X067098Y015762D01*
X067199Y015756D01*
D02*
G37*
G36*
X052304Y015454D02*
X052295Y015462D01*
X052285Y01547D01*
X052275Y015477D01*
X052264Y015483D01*
X052253Y015488D01*
X052242Y015493D01*
X05223Y015496D01*
X052217Y015498D01*
X052204Y0155D01*
X052191Y0155D01*
Y0156D01*
X052204Y0156D01*
X052217Y015602D01*
X05223Y015604D01*
X052242Y015607D01*
X052253Y015612D01*
X052264Y015617D01*
X052275Y015623D01*
X052285Y01563D01*
X052295Y015638D01*
X052304Y015646D01*
Y015454D01*
D02*
G37*
G36*
X095324Y015442D02*
X095316Y015433D01*
X095309Y015422D01*
X095303Y015412D01*
X095298Y015401D01*
X095294Y015389D01*
X09529Y015377D01*
X095288Y015365D01*
X095287Y015352D01*
X095286Y015339D01*
X095186D01*
X095186Y015352D01*
X095184Y015365D01*
X095182Y015377D01*
X095179Y015389D01*
X095175Y015401D01*
X095169Y015412D01*
X095163Y015422D01*
X095156Y015433D01*
X095149Y015442D01*
X09514Y015452D01*
X095333D01*
X095324Y015442D01*
D02*
G37*
G36*
X067218Y015448D02*
X067209Y015439D01*
X067201Y01543D01*
X067194Y01542D01*
X067187Y01541D01*
X067181Y015399D01*
X067176Y015388D01*
X067171Y015376D01*
X067168Y015364D01*
X067165Y015351D01*
X067163Y015338D01*
X067063Y015341D01*
X067064Y015354D01*
X067064Y015367D01*
X067063Y015379D01*
X067061Y015391D01*
X067058Y015403D01*
X067053Y015414D01*
X067048Y015425D01*
X067042Y015436D01*
X067034Y015446D01*
X067026Y015456D01*
X067218Y015448D01*
D02*
G37*
G36*
X052619Y015154D02*
X05261Y015162D01*
X0526Y01517D01*
X05259Y015177D01*
X052579Y015183D01*
X052568Y015188D01*
X052556Y015193D01*
X052545Y015196D01*
X052532Y015198D01*
X052519Y0152D01*
X052506Y0152D01*
Y0153D01*
X052519Y0153D01*
X052532Y015302D01*
X052545Y015304D01*
X052556Y015307D01*
X052568Y015312D01*
X052579Y015317D01*
X05259Y015323D01*
X0526Y01533D01*
X05261Y015338D01*
X052619Y015346D01*
Y015154D01*
D02*
G37*
G36*
X042207Y015238D02*
X042217Y01523D01*
X042226Y015223D01*
X042237Y015217D01*
X042248Y015212D01*
X042259Y015207D01*
X042271Y015202D01*
X042284Y015199D01*
X042297Y015196D01*
X042311Y015194D01*
X042311Y015093D01*
X042298Y015094D01*
X042286Y015095D01*
X042274Y015093D01*
X042262Y015091D01*
X042251Y015088D01*
X042239Y015083D01*
X042229Y015078D01*
X042218Y015071D01*
X042208Y015063D01*
X042198Y015053D01*
X042199Y015246D01*
X042207Y015238D01*
D02*
G37*
G36*
X052934Y014854D02*
X052925Y014862D01*
X052915Y01487D01*
X052905Y014877D01*
X052894Y014883D01*
X052883Y014888D01*
X052871Y014893D01*
X05286Y014896D01*
X052847Y014898D01*
X052834Y0149D01*
X052821Y0149D01*
Y015D01*
X052834Y015D01*
X052847Y015002D01*
X05286Y015004D01*
X052871Y015007D01*
X052883Y015012D01*
X052894Y015017D01*
X052905Y015023D01*
X052915Y01503D01*
X052925Y015038D01*
X052934Y015046D01*
Y014854D01*
D02*
G37*
G36*
X053455Y014738D02*
X053465Y01473D01*
X053475Y014723D01*
X053486Y014717D01*
X053497Y014712D01*
X053508Y014707D01*
X05352Y014704D01*
X053532Y014702D01*
X053545Y0147D01*
X053558Y0147D01*
Y0146D01*
X053545Y0146D01*
X053532Y014598D01*
X05352Y014596D01*
X053508Y014593D01*
X053497Y014588D01*
X053486Y014583D01*
X053475Y014577D01*
X053465Y01457D01*
X053455Y014562D01*
X053446Y014554D01*
Y014746D01*
X053455Y014738D01*
D02*
G37*
G36*
X053249Y014554D02*
X05324Y014562D01*
X05323Y01457D01*
X05322Y014577D01*
X053209Y014583D01*
X053198Y014588D01*
X053186Y014593D01*
X053175Y014596D01*
X053162Y014598D01*
X053149Y0146D01*
X053136Y0146D01*
Y0147D01*
X053149Y0147D01*
X053162Y014702D01*
X053175Y014704D01*
X053186Y014707D01*
X053198Y014712D01*
X053209Y014717D01*
X05322Y014723D01*
X05323Y01473D01*
X05324Y014738D01*
X053249Y014746D01*
Y014554D01*
D02*
G37*
G36*
X073412Y013213D02*
X073416D01*
X073419Y013213D01*
X073427Y013212D01*
X073427D01*
X073428Y013212D01*
X07343Y013211D01*
X073432Y013211D01*
X073438Y013209D01*
X07344Y013209D01*
X073442Y013208D01*
Y013177D01*
X073442Y013177D01*
X073441Y013178D01*
X07344Y013178D01*
X073438Y013179D01*
X073435Y01318D01*
X073433Y013181D01*
X073426Y013183D01*
X073426D01*
X073425Y013184D01*
X073423Y013184D01*
X073421Y013185D01*
X073418Y013185D01*
X073415Y013186D01*
X073411Y013186D01*
X073405D01*
X073403Y013186D01*
X0734Y013185D01*
X073396Y013185D01*
X073392Y013184D01*
X073388Y013183D01*
X073384Y013181D01*
X073384Y013181D01*
X073382Y01318D01*
X07338Y013179D01*
X073378Y013177D01*
X073375Y013175D01*
X073372Y013173D01*
X073369Y01317D01*
X073366Y013167D01*
X073366Y013166D01*
X073365Y013165D01*
X073363Y013163D01*
X073362Y01316D01*
X07336Y013157D01*
X073358Y013152D01*
X073356Y013148D01*
X073354Y013143D01*
X073354Y013142D01*
X073354Y01314D01*
X073353Y013137D01*
X073352Y013133D01*
X073351Y013129D01*
X073351Y013123D01*
X07335Y013117D01*
X07335Y01311D01*
X073351D01*
X073351Y013111D01*
X073352Y013112D01*
X073353Y013114D01*
X073355Y013116D01*
X073358Y013119D01*
X073361Y013122D01*
X073365Y013124D01*
X073369Y013127D01*
X073369Y013127D01*
X073371Y013128D01*
X073373Y013129D01*
X073376Y01313D01*
X07338Y013131D01*
X073385Y013132D01*
X07339Y013132D01*
X073396Y013133D01*
X073398D01*
X073401Y013132D01*
X073404Y013132D01*
X073408Y013132D01*
X073412Y013131D01*
X073416Y01313D01*
X073421Y013128D01*
X073421Y013128D01*
X073423Y013127D01*
X073425Y013126D01*
X073427Y013125D01*
X07343Y013123D01*
X073433Y013121D01*
X073437Y013118D01*
X07344Y013115D01*
X07344Y013115D01*
X073441Y013114D01*
X073442Y013112D01*
X073444Y01311D01*
X073446Y013107D01*
X073448Y013103D01*
X07345Y013099D01*
X073452Y013095D01*
X073452Y013094D01*
X073453Y013093D01*
X073453Y01309D01*
X073454Y013087D01*
X073455Y013083D01*
X073456Y013078D01*
X073456Y013073D01*
X073456Y013068D01*
Y013067D01*
Y013067D01*
Y013065D01*
X073456Y013062D01*
X073456Y013058D01*
X073455Y013054D01*
X073454Y013049D01*
X073453Y013044D01*
X073451Y013039D01*
X073451Y013038D01*
X07345Y013036D01*
X073449Y013034D01*
X073447Y013031D01*
X073445Y013027D01*
X073443Y013024D01*
X07344Y01302D01*
X073436Y013016D01*
X073436Y013016D01*
X073435Y013014D01*
X073433Y013013D01*
X07343Y013011D01*
X073427Y013008D01*
X073423Y013006D01*
X073419Y013004D01*
X073415Y013001D01*
X073414Y013001D01*
X073412Y013001D01*
X07341Y013D01*
X073406Y012999D01*
X073402Y012998D01*
X073398Y012997D01*
X073393Y012997D01*
X073387Y012996D01*
X073384D01*
X073381Y012997D01*
X073378Y012997D01*
X073373Y012998D01*
X073368Y012999D01*
X073363Y013D01*
X073358Y013002D01*
X073357Y013003D01*
X073356Y013003D01*
X073353Y013005D01*
X07335Y013007D01*
X073347Y013009D01*
X073343Y013013D01*
X073339Y013016D01*
X073335Y013021D01*
X073335Y013021D01*
X073333Y013023D01*
X073332Y013026D01*
X07333Y013029D01*
X073327Y013034D01*
X073325Y013039D01*
X073323Y013045D01*
X07332Y013051D01*
Y013051D01*
X07332Y013052D01*
Y013053D01*
X07332Y013054D01*
X073319Y013056D01*
X073319Y013058D01*
X073318Y013063D01*
X073317Y013069D01*
X073316Y013076D01*
X073315Y013084D01*
X073315Y013093D01*
Y013093D01*
Y013094D01*
Y013096D01*
Y013098D01*
X073315Y0131D01*
Y013103D01*
X073316Y013107D01*
X073316Y01311D01*
X073317Y013119D01*
X073318Y013127D01*
X07332Y013136D01*
X073322Y013145D01*
Y013145D01*
X073322Y013146D01*
X073323Y013147D01*
X073323Y013148D01*
X073324Y01315D01*
X073325Y013153D01*
X073327Y013158D01*
X073329Y013164D01*
X073333Y01317D01*
X073336Y013176D01*
X073341Y013182D01*
Y013183D01*
X073341Y013183D01*
X073343Y013185D01*
X073345Y013188D01*
X073349Y013191D01*
X073353Y013195D01*
X073358Y013199D01*
X073363Y013202D01*
X073369Y013206D01*
X07337D01*
X07337Y013206D01*
X073371Y013206D01*
X073372Y013207D01*
X073376Y013208D01*
X07338Y01321D01*
X073385Y013211D01*
X073391Y013212D01*
X073398Y013213D01*
X073405Y013214D01*
X073409D01*
X073412Y013213D01*
D02*
G37*
G36*
X072669Y013153D02*
X072672Y013153D01*
X072676Y013152D01*
X07268Y01315D01*
X072685Y013149D01*
X07269Y013146D01*
X072694Y013143D01*
X072699Y013139D01*
X072703Y013134D01*
X072707Y013128D01*
X07271Y013121D01*
X072712Y013113D01*
X072713Y013108D01*
X072714Y013103D01*
X072714Y013098D01*
Y013092D01*
Y013D01*
X07268D01*
Y013082D01*
Y013082D01*
Y013083D01*
Y013084D01*
Y013086D01*
X07268Y013087D01*
Y01309D01*
X07268Y013095D01*
X072679Y0131D01*
X072678Y013106D01*
X072676Y013111D01*
X072674Y013116D01*
X072673Y013116D01*
X072672Y013118D01*
X072671Y013119D01*
X072668Y013121D01*
X072665Y013123D01*
X072661Y013125D01*
X072657Y013126D01*
X072651Y013127D01*
X072651D01*
X072649Y013126D01*
X072647Y013126D01*
X072644Y013125D01*
X07264Y013123D01*
X072636Y013121D01*
X072632Y013118D01*
X072629Y013113D01*
X072628Y013112D01*
X072627Y013111D01*
X072626Y013108D01*
X072624Y013104D01*
X072622Y013099D01*
X072621Y013094D01*
X07262Y013088D01*
X072619Y013081D01*
Y013D01*
X072585D01*
Y013085D01*
Y013085D01*
Y013086D01*
X072585Y013089D01*
Y013091D01*
X072584Y013094D01*
X072584Y013098D01*
X072583Y013102D01*
X072582Y013106D01*
X07258Y01311D01*
X072578Y013113D01*
X072576Y013117D01*
X072573Y01312D01*
X072569Y013123D01*
X072565Y013125D01*
X072561Y013126D01*
X072556Y013127D01*
X072555D01*
X072553Y013126D01*
X072551Y013126D01*
X072548Y013125D01*
X072544Y013124D01*
X07254Y013121D01*
X072536Y013118D01*
X072533Y013114D01*
X072532Y013113D01*
X072531Y013112D01*
X07253Y013109D01*
X072528Y013105D01*
X072527Y0131D01*
X072525Y013095D01*
X072524Y013088D01*
X072524Y013081D01*
Y013D01*
X07249D01*
Y01315D01*
X072524D01*
Y013126D01*
X072525D01*
X072525Y013127D01*
X072525Y013128D01*
X072526Y013129D01*
X072528Y013131D01*
X072529Y013133D01*
X072531Y013135D01*
X072534Y013137D01*
X072537Y01314D01*
X07254Y013143D01*
X072543Y013145D01*
X072547Y013147D01*
X072552Y013149D01*
X072556Y013151D01*
X072561Y013153D01*
X072566Y013153D01*
X072572Y013154D01*
X072575D01*
X072578Y013153D01*
X072581Y013153D01*
X072586Y013152D01*
X07259Y01315D01*
X072595Y013148D01*
X072599Y013145D01*
X0726Y013145D01*
X072601Y013143D01*
X072603Y013142D01*
X072606Y013139D01*
X072608Y013136D01*
X072611Y013132D01*
X072613Y013128D01*
X072615Y013123D01*
X072616Y013123D01*
X072616Y013124D01*
X072617Y013126D01*
X072618Y013128D01*
X07262Y01313D01*
X072622Y013132D01*
X072625Y013135D01*
X072628Y013138D01*
X072631Y013141D01*
X072635Y013144D01*
X072639Y013146D01*
X072643Y013149D01*
X072648Y013151D01*
X072653Y013152D01*
X072659Y013153D01*
X072665Y013154D01*
X072667D01*
X072669Y013153D01*
D02*
G37*
G36*
X073855Y013152D02*
X07386Y013152D01*
X073862Y013151D01*
X073864Y01315D01*
Y013118D01*
X073864Y013118D01*
X073863Y013118D01*
X073862Y013119D01*
X07386Y01312D01*
X073857Y013121D01*
X073854Y013122D01*
X07385Y013122D01*
X073846Y013123D01*
X073846D01*
X073844Y013122D01*
X073841Y013122D01*
X073838Y013121D01*
X073834Y013119D01*
X073829Y013117D01*
X073825Y013114D01*
X073821Y013109D01*
X073821Y013108D01*
X073819Y013107D01*
X073818Y013103D01*
X073816Y013099D01*
X073814Y013094D01*
X073813Y013087D01*
X073811Y01308D01*
X073811Y013072D01*
Y013D01*
X073777D01*
Y01315D01*
X073811D01*
Y013119D01*
X073812D01*
Y01312D01*
X073812Y01312D01*
X073813Y013122D01*
X073814Y013125D01*
X073815Y013128D01*
X073818Y013132D01*
X07382Y013136D01*
X073823Y01314D01*
X073827Y013144D01*
X073827Y013144D01*
X073829Y013145D01*
X073831Y013147D01*
X073834Y013148D01*
X073837Y01315D01*
X073841Y013151D01*
X073845Y013152D01*
X07385Y013153D01*
X073853D01*
X073855Y013152D01*
D02*
G37*
G36*
X073735Y013069D02*
X073656D01*
Y013095D01*
X073735D01*
Y013069D01*
D02*
G37*
G36*
X073253Y013D02*
X073217D01*
X07319Y013102D01*
Y013102D01*
X07319Y013103D01*
X073189Y013104D01*
X073189Y013106D01*
X073189Y013108D01*
X073188Y01311D01*
X073188Y013115D01*
X073187D01*
Y013115D01*
Y013114D01*
X073187Y013113D01*
Y013112D01*
X073187Y01311D01*
X073186Y013107D01*
X073185Y013102D01*
X073155Y013D01*
X07312D01*
X073076Y01315D01*
X073111D01*
X073138Y013042D01*
Y013041D01*
X073139Y013041D01*
Y01304D01*
X073139Y013038D01*
X073139Y013037D01*
X07314Y013034D01*
X07314Y013032D01*
Y013029D01*
X073141D01*
Y013029D01*
Y01303D01*
X073141Y013031D01*
X073142Y013033D01*
X073142Y013037D01*
X073143Y013042D01*
X073174Y01315D01*
X073206D01*
X073233Y013041D01*
Y013041D01*
X073233Y01304D01*
Y013039D01*
X073234Y013038D01*
X073234Y013036D01*
X073234Y013034D01*
X073235Y013028D01*
X073236D01*
Y013029D01*
Y013029D01*
X073236Y013031D01*
Y013032D01*
X073236Y013034D01*
X073237Y013036D01*
X073238Y013041D01*
X073265Y01315D01*
X073297D01*
X073253Y013D01*
D02*
G37*
G36*
X074119D02*
X074082D01*
X074027Y01315D01*
X074064D01*
X074097Y013045D01*
X074097Y013044D01*
X074098Y013043D01*
X074098Y013041D01*
X074099Y013038D01*
X0741Y013035D01*
X074101Y013032D01*
X074102Y013025D01*
X074102D01*
Y013025D01*
X074103Y013027D01*
X074103Y013029D01*
X074103Y013031D01*
X074104Y013034D01*
X074105Y013038D01*
X074106Y013044D01*
X074141Y01315D01*
X074177D01*
X074119Y013D01*
D02*
G37*
G36*
X073605Y013181D02*
X07353D01*
X073526Y013129D01*
X073528D01*
X07353Y013129D01*
X073535D01*
X073538Y013129D01*
X073548D01*
X07355Y013129D01*
X073553Y013129D01*
X073556Y013128D01*
X07356Y013128D01*
X073564Y013127D01*
X073572Y013125D01*
X073581Y013122D01*
X073585Y01312D01*
X073589Y013118D01*
X073593Y013115D01*
X073596Y013112D01*
X073597Y013112D01*
X073597Y013111D01*
X073598Y01311D01*
X073599Y013109D01*
X073601Y013107D01*
X073602Y013105D01*
X073604Y013102D01*
X073606Y0131D01*
X073607Y013096D01*
X073609Y013093D01*
X073612Y013085D01*
X073614Y013076D01*
X073614Y01307D01*
X073615Y013065D01*
Y013065D01*
Y013064D01*
Y013062D01*
X073614Y01306D01*
X073614Y013057D01*
X073614Y013054D01*
X073613Y013051D01*
X073612Y013047D01*
X07361Y013039D01*
X073608Y013035D01*
X073606Y013031D01*
X073603Y013027D01*
X073601Y013023D01*
X073597Y013019D01*
X073594Y013015D01*
X073593Y013015D01*
X073593Y013014D01*
X073591Y013013D01*
X07359Y013012D01*
X073588Y013011D01*
X073585Y013009D01*
X073582Y013007D01*
X073579Y013006D01*
X073575Y013004D01*
X07357Y013002D01*
X073566Y013001D01*
X073561Y012999D01*
X073555Y012998D01*
X073549Y012997D01*
X073543Y012997D01*
X073536Y012996D01*
X073531D01*
X073529Y012997D01*
X073526D01*
X073519Y012997D01*
X073511Y012998D01*
X073504Y013D01*
X073497Y013002D01*
X073493Y013003D01*
X07349Y013005D01*
Y013037D01*
X073491D01*
X073491Y013037D01*
X073492Y013036D01*
X073494Y013035D01*
X073496Y013034D01*
X073498Y013033D01*
X073503Y01303D01*
X07351Y013028D01*
X073517Y013026D01*
X073524Y013024D01*
X073532Y013023D01*
X073534D01*
X073536Y013024D01*
X07354Y013024D01*
X073545Y013025D01*
X07355Y013026D01*
X073556Y013028D01*
X073561Y013031D01*
X073567Y013034D01*
X073567Y013035D01*
X073569Y013036D01*
X073571Y013039D01*
X073573Y013042D01*
X073576Y013046D01*
X073578Y013051D01*
X073579Y013057D01*
X07358Y013064D01*
Y013064D01*
Y013064D01*
Y013065D01*
X073579Y013067D01*
X073579Y01307D01*
X073578Y013074D01*
X073576Y013078D01*
X073574Y013083D01*
X073571Y013087D01*
X073566Y013091D01*
X073566Y013092D01*
X073564Y013093D01*
X073561Y013095D01*
X073557Y013096D01*
X073551Y013098D01*
X073545Y0131D01*
X073537Y013101D01*
X073528Y013101D01*
X073524D01*
X073521Y013101D01*
X073516D01*
X073513Y013101D01*
X07351D01*
X073507Y0131D01*
X073503D01*
X073499Y0131D01*
X073494Y0131D01*
X073501Y01321D01*
X073605D01*
Y013181D01*
D02*
G37*
G36*
X074268Y013D02*
X074234D01*
Y013173D01*
X074234Y013173D01*
X074233Y013172D01*
X074231Y013171D01*
X074228Y013169D01*
X074225Y013168D01*
X074222Y013166D01*
X074214Y013162D01*
X074214Y013161D01*
X074213Y013161D01*
X07421Y01316D01*
X074207Y013159D01*
X074204Y013158D01*
X0742Y013157D01*
X074195Y013155D01*
X07419Y013154D01*
Y013183D01*
X074191D01*
X074192Y013183D01*
X074193Y013184D01*
X074196Y013185D01*
X074198Y013185D01*
X074201Y013186D01*
X074207Y013189D01*
X074207D01*
X074208Y013189D01*
X07421Y01319D01*
X074212Y013191D01*
X074214Y013192D01*
X074217Y013193D01*
X074222Y013195D01*
X074223Y013196D01*
X074224Y013196D01*
X074225Y013197D01*
X074227Y013198D01*
X074229Y013199D01*
X074232Y013201D01*
X074238Y013204D01*
X074238Y013204D01*
X074239Y013205D01*
X074241Y013206D01*
X074243Y013207D01*
X074245Y013209D01*
X074248Y01321D01*
X074254Y013215D01*
X074268D01*
Y013D01*
D02*
G37*
G36*
X074338Y013036D02*
X07434Y013036D01*
X074343Y013035D01*
X074345Y013034D01*
X074348Y013032D01*
X07435Y01303D01*
X074351Y01303D01*
X074351Y013029D01*
X074352Y013028D01*
X074354Y013026D01*
X074355Y013024D01*
X074356Y013022D01*
X074356Y013019D01*
X074357Y013016D01*
Y013016D01*
Y013015D01*
X074356Y013014D01*
X074356Y013012D01*
X074355Y013009D01*
X074354Y013007D01*
X074352Y013005D01*
X07435Y013003D01*
X07435Y013002D01*
X074349Y013002D01*
X074348Y013001D01*
X074346Y013D01*
X074344Y012999D01*
X074341Y012998D01*
X074338Y012997D01*
X074335Y012997D01*
X074334D01*
X074332Y012997D01*
X07433Y012998D01*
X074328Y012998D01*
X074325Y012999D01*
X074323Y013001D01*
X07432Y013003D01*
X07432Y013003D01*
X074319Y013004D01*
X074318Y013005D01*
X074317Y013007D01*
X074316Y013009D01*
X074315Y013011D01*
X074315Y013013D01*
X074314Y013016D01*
Y013017D01*
Y013018D01*
X074315Y013019D01*
X074315Y013021D01*
X074316Y013023D01*
X074317Y013026D01*
X074318Y013028D01*
X07432Y01303D01*
X074321Y013031D01*
X074321Y013031D01*
X074323Y013032D01*
X074324Y013033D01*
X074327Y013034D01*
X074329Y013035D01*
X074332Y013036D01*
X074335Y013036D01*
X074337D01*
X074338Y013036D01*
D02*
G37*
G36*
X074461Y013213D02*
X074464Y013213D01*
X074469Y013212D01*
X074474Y01321D01*
X07448Y013208D01*
X074486Y013205D01*
X074492Y0132D01*
X074496Y013197D01*
X074499Y013194D01*
X074502Y013191D01*
X074505Y013187D01*
X074508Y013183D01*
X074511Y013179D01*
X074514Y013174D01*
X074516Y013168D01*
X074519Y013162D01*
X074521Y013156D01*
X074522Y013149D01*
X074524Y013142D01*
X074525Y013134D01*
X074526Y013125D01*
X074527Y013116D01*
X074527Y013106D01*
Y013105D01*
Y013104D01*
Y013101D01*
X074527Y013097D01*
X074526Y013093D01*
X074526Y013088D01*
X074525Y013082D01*
X074525Y013076D01*
X074522Y013063D01*
X074521Y013056D01*
X074519Y013049D01*
X074516Y013043D01*
X074514Y013036D01*
X074511Y01303D01*
X074507Y013025D01*
X074507Y013024D01*
X074506Y013023D01*
X074505Y013022D01*
X074504Y01302D01*
X074502Y013018D01*
X074499Y013016D01*
X074497Y013013D01*
X074493Y013011D01*
X07449Y013008D01*
X074486Y013006D01*
X074481Y013003D01*
X074476Y013001D01*
X074471Y012999D01*
X074465Y012998D01*
X074459Y012997D01*
X074453Y012997D01*
X074451D01*
X07445Y012997D01*
X074447D01*
X074444Y012997D01*
X074441Y012998D01*
X074438Y012999D01*
X074434Y013D01*
X07443Y013001D01*
X074426Y013003D01*
X074421Y013005D01*
X074417Y013008D01*
X074413Y013011D01*
X074409Y013015D01*
X074405Y013019D01*
X074401Y013023D01*
X074401Y013024D01*
X074401Y013025D01*
X0744Y013026D01*
X074398Y013028D01*
X074397Y013031D01*
X074396Y013034D01*
X074394Y013038D01*
X074392Y013043D01*
X07439Y013048D01*
X074389Y013054D01*
X074387Y01306D01*
X074386Y013067D01*
X074385Y013075D01*
X074384Y013083D01*
X074383Y013092D01*
X074383Y013101D01*
Y013102D01*
Y013103D01*
Y013106D01*
X074383Y01311D01*
X074384Y013115D01*
X074384Y01312D01*
X074385Y013126D01*
X074385Y013132D01*
X074386Y013139D01*
X074388Y013146D01*
X074389Y013153D01*
X074391Y01316D01*
X074393Y013167D01*
X074396Y013173D01*
X074399Y013179D01*
X074402Y013185D01*
X074402Y013185D01*
X074403Y013186D01*
X074404Y013188D01*
X074406Y013189D01*
X074408Y013192D01*
X07441Y013194D01*
X074413Y013197D01*
X074416Y013199D01*
X07442Y013202D01*
X074424Y013205D01*
X074429Y013207D01*
X074434Y013209D01*
X074439Y013211D01*
X074445Y013212D01*
X074451Y013213D01*
X074458Y013214D01*
X074459D01*
X074461Y013213D01*
D02*
G37*
G36*
X073956Y013153D02*
X073959Y013153D01*
X073962Y013153D01*
X073969Y013151D01*
X073976Y013149D01*
X07398Y013147D01*
X073984Y013145D01*
X073988Y013143D01*
X073992Y01314D01*
X073995Y013137D01*
X073998Y013134D01*
X073999Y013133D01*
X073999Y013133D01*
X074Y013132D01*
X074001Y01313D01*
X074002Y013128D01*
X074004Y013126D01*
X074005Y013123D01*
X074007Y013119D01*
X074008Y013116D01*
X07401Y013112D01*
X074011Y013107D01*
X074013Y013102D01*
X074014Y013097D01*
X074015Y013091D01*
X074015Y013085D01*
X074015Y013079D01*
Y013066D01*
X073913D01*
Y013065D01*
Y013065D01*
Y013064D01*
X073913Y013062D01*
X073914Y013059D01*
X073915Y013054D01*
X073916Y013049D01*
X073919Y013043D01*
X073922Y013038D01*
X073926Y013034D01*
X073927Y013033D01*
X073928Y013032D01*
X073931Y01303D01*
X073935Y013028D01*
X07394Y013026D01*
X073945Y013024D01*
X073952Y013023D01*
X07396Y013022D01*
X073962D01*
X073964Y013023D01*
X073966D01*
X073968Y013023D01*
X073974Y013024D01*
X073981Y013026D01*
X073988Y013028D01*
X073996Y013032D01*
X074Y013034D01*
X074004Y013037D01*
Y013009D01*
X074003D01*
X074003Y013009D01*
X074002Y013008D01*
X074Y013007D01*
X073998Y013006D01*
X073995Y013005D01*
X073993Y013004D01*
X073989Y013003D01*
X073986Y013002D01*
X073982Y013001D01*
X073977Y013D01*
X073972Y012999D01*
X073967Y012998D01*
X073962Y012997D01*
X07395Y012997D01*
X073946D01*
X073944Y012997D01*
X073941Y012997D01*
X073938Y012998D01*
X073935Y012998D01*
X073931Y012999D01*
X073922Y013002D01*
X073918Y013003D01*
X073914Y013005D01*
X073909Y013008D01*
X073905Y01301D01*
X073901Y013013D01*
X073897Y013017D01*
X073897Y013017D01*
X073897Y013018D01*
X073896Y013019D01*
X073894Y013021D01*
X073893Y013023D01*
X073891Y013025D01*
X07389Y013028D01*
X073888Y013032D01*
X073886Y013036D01*
X073885Y01304D01*
X073883Y013045D01*
X073882Y01305D01*
X07388Y013055D01*
X073879Y013061D01*
X073879Y013068D01*
X073879Y013074D01*
Y013075D01*
Y013076D01*
Y013078D01*
X073879Y01308D01*
X073879Y013083D01*
X07388Y013087D01*
X07388Y013091D01*
X073881Y013095D01*
X073884Y013104D01*
X073885Y013109D01*
X073887Y013113D01*
X07389Y013118D01*
X073893Y013123D01*
X073896Y013127D01*
X073899Y013132D01*
X0739Y013132D01*
X0739Y013133D01*
X073901Y013134D01*
X073903Y013135D01*
X073905Y013137D01*
X073908Y013139D01*
X07391Y013141D01*
X073914Y013143D01*
X073917Y013145D01*
X073921Y013147D01*
X07393Y01315D01*
X073935Y013152D01*
X07394Y013153D01*
X073945Y013153D01*
X073951Y013154D01*
X073954D01*
X073956Y013153D01*
D02*
G37*
G36*
X072992D02*
X072994Y013153D01*
X072998Y013153D01*
X073002Y013152D01*
X073006Y013151D01*
X073015Y013149D01*
X073019Y013147D01*
X073024Y013145D01*
X073028Y013143D01*
X073033Y01314D01*
X073037Y013137D01*
X073041Y013133D01*
X073041Y013133D01*
X073042Y013132D01*
X073042Y013131D01*
X073044Y013129D01*
X073045Y013127D01*
X073047Y013125D01*
X073049Y013122D01*
X073051Y013118D01*
X073052Y013114D01*
X073054Y01311D01*
X073056Y013105D01*
X073057Y0131D01*
X073059Y013095D01*
X073059Y013089D01*
X07306Y013082D01*
X07306Y013076D01*
Y013075D01*
Y013074D01*
Y013072D01*
X07306Y01307D01*
X07306Y013067D01*
X073059Y013063D01*
X073059Y013059D01*
X073058Y013055D01*
X073055Y013046D01*
X073053Y013041D01*
X073051Y013036D01*
X073049Y013031D01*
X073046Y013027D01*
X073043Y013022D01*
X073039Y013018D01*
X073039Y013018D01*
X073038Y013017D01*
X073037Y013016D01*
X073035Y013015D01*
X073033Y013013D01*
X07303Y013011D01*
X073027Y013009D01*
X073024Y013007D01*
X07302Y013005D01*
X073016Y013003D01*
X073011Y013002D01*
X073006Y013D01*
X073001Y012999D01*
X072995Y012998D01*
X072989Y012997D01*
X072982Y012997D01*
X072979D01*
X072977Y012997D01*
X072974Y012997D01*
X07297Y012998D01*
X072966Y012998D01*
X072962Y012999D01*
X072954Y013002D01*
X072949Y013003D01*
X072944Y013005D01*
X07294Y013008D01*
X072935Y013011D01*
X072931Y013014D01*
X072927Y013017D01*
X072926Y013018D01*
X072926Y013018D01*
X072925Y01302D01*
X072923Y013021D01*
X072922Y013023D01*
X07292Y013026D01*
X072918Y013029D01*
X072916Y013032D01*
X072914Y013036D01*
X072913Y01304D01*
X072911Y013045D01*
X072909Y01305D01*
X072908Y013055D01*
X072907Y013061D01*
X072906Y013067D01*
X072906Y013073D01*
Y013074D01*
Y013075D01*
Y013077D01*
X072906Y01308D01*
X072907Y013083D01*
X072907Y013086D01*
X072908Y01309D01*
X072909Y013095D01*
X072911Y013104D01*
X072913Y013109D01*
X072915Y013114D01*
X072918Y013119D01*
X072921Y013124D01*
X072924Y013128D01*
X072928Y013132D01*
X072928Y013133D01*
X072929Y013133D01*
X07293Y013134D01*
X072932Y013136D01*
X072934Y013137D01*
X072936Y013139D01*
X07294Y013141D01*
X072943Y013143D01*
X072947Y013145D01*
X072951Y013147D01*
X072956Y013149D01*
X072961Y01315D01*
X072967Y013152D01*
X072973Y013153D01*
X072979Y013153D01*
X072986Y013154D01*
X072989D01*
X072992Y013153D01*
D02*
G37*
G36*
X072824D02*
X072826Y013153D01*
X072829Y013153D01*
X072836Y013151D01*
X072844Y013149D01*
X072848Y013147D01*
X072852Y013145D01*
X072856Y013143D01*
X07286Y01314D01*
X072863Y013137D01*
X072866Y013134D01*
X072867Y013133D01*
X072867Y013133D01*
X072868Y013132D01*
X072869Y01313D01*
X07287Y013128D01*
X072872Y013126D01*
X072873Y013123D01*
X072875Y013119D01*
X072876Y013116D01*
X072878Y013112D01*
X072879Y013107D01*
X072881Y013102D01*
X072882Y013097D01*
X072883Y013091D01*
X072883Y013085D01*
X072883Y013079D01*
Y013066D01*
X072781D01*
Y013065D01*
Y013065D01*
Y013064D01*
X072781Y013062D01*
X072782Y013059D01*
X072783Y013054D01*
X072784Y013049D01*
X072786Y013043D01*
X07279Y013038D01*
X072794Y013034D01*
X072794Y013033D01*
X072796Y013032D01*
X072799Y01303D01*
X072803Y013028D01*
X072807Y013026D01*
X072813Y013024D01*
X07282Y013023D01*
X072827Y013022D01*
X07283D01*
X072831Y013023D01*
X072834D01*
X072836Y013023D01*
X072842Y013024D01*
X072849Y013026D01*
X072856Y013028D01*
X072864Y013032D01*
X072868Y013034D01*
X072872Y013037D01*
Y013009D01*
X072871D01*
X072871Y013009D01*
X07287Y013008D01*
X072868Y013007D01*
X072866Y013006D01*
X072863Y013005D01*
X07286Y013004D01*
X072857Y013003D01*
X072853Y013002D01*
X072849Y013001D01*
X072845Y013D01*
X07284Y012999D01*
X072835Y012998D01*
X072829Y012997D01*
X072817Y012997D01*
X072814D01*
X072812Y012997D01*
X072809Y012997D01*
X072806Y012998D01*
X072802Y012998D01*
X072798Y012999D01*
X07279Y013002D01*
X072786Y013003D01*
X072781Y013005D01*
X072777Y013008D01*
X072773Y01301D01*
X072769Y013013D01*
X072765Y013017D01*
X072765Y013017D01*
X072764Y013018D01*
X072763Y013019D01*
X072762Y013021D01*
X072761Y013023D01*
X072759Y013025D01*
X072757Y013028D01*
X072756Y013032D01*
X072754Y013036D01*
X072752Y01304D01*
X072751Y013045D01*
X072749Y01305D01*
X072748Y013055D01*
X072747Y013061D01*
X072747Y013068D01*
X072746Y013074D01*
Y013075D01*
Y013076D01*
Y013078D01*
X072747Y01308D01*
X072747Y013083D01*
X072747Y013087D01*
X072748Y013091D01*
X072749Y013095D01*
X072751Y013104D01*
X072753Y013109D01*
X072755Y013113D01*
X072757Y013118D01*
X07276Y013123D01*
X072763Y013127D01*
X072767Y013132D01*
X072767Y013132D01*
X072768Y013133D01*
X072769Y013134D01*
X072771Y013135D01*
X072773Y013137D01*
X072775Y013139D01*
X072778Y013141D01*
X072781Y013143D01*
X072785Y013145D01*
X072789Y013147D01*
X072798Y01315D01*
X072803Y013152D01*
X072808Y013153D01*
X072813Y013153D01*
X072819Y013154D01*
X072822D01*
X072824Y013153D01*
D02*
G37*
G36*
X080202Y012581D02*
X080206Y01258D01*
X08021Y012579D01*
X080216Y012577D01*
X08022Y012574D01*
X080225Y01257D01*
X080226Y012569D01*
X080227Y012568D01*
X080229Y012566D01*
X080231Y012563D01*
X080233Y012559D01*
X080235Y012554D01*
X080236Y012549D01*
X080237Y012543D01*
Y012542D01*
Y01254D01*
X080236Y012537D01*
X080236Y012533D01*
X080234Y012529D01*
X080232Y012525D01*
X080229Y01252D01*
X080225Y012515D01*
X080224Y012515D01*
X080223Y012513D01*
X08022Y012512D01*
X080217Y01251D01*
X080212Y012507D01*
X080208Y012506D01*
X080202Y012505D01*
X080196Y012504D01*
X080193D01*
X08019Y012505D01*
X080186Y012505D01*
X080181Y012507D01*
X080176Y012509D01*
X080171Y012511D01*
X080166Y012515D01*
X080166Y012515D01*
X080164Y012517D01*
X080163Y012519D01*
X080161Y012523D01*
X080158Y012527D01*
X080157Y012531D01*
X080156Y012537D01*
X080155Y012543D01*
Y012543D01*
Y012545D01*
X080156Y012549D01*
X080156Y012553D01*
X080158Y012557D01*
X08016Y012561D01*
X080162Y012566D01*
X080166Y01257D01*
X080167Y012571D01*
X080168Y012572D01*
X080171Y012573D01*
X080174Y012576D01*
X080179Y012578D01*
X080184Y012579D01*
X08019Y012581D01*
X080196Y012581D01*
X080198D01*
X080202Y012581D01*
D02*
G37*
G36*
X078064D02*
X078068Y01258D01*
X078073Y012579D01*
X078078Y012577D01*
X078083Y012574D01*
X078088Y01257D01*
X078088Y012569D01*
X07809Y012568D01*
X078092Y012566D01*
X078094Y012563D01*
X078096Y012559D01*
X078098Y012554D01*
X078099Y012549D01*
X0781Y012543D01*
Y012542D01*
Y01254D01*
X078099Y012537D01*
X078098Y012533D01*
X078097Y012529D01*
X078094Y012525D01*
X078092Y01252D01*
X078088Y012515D01*
X078087Y012515D01*
X078086Y012513D01*
X078083Y012512D01*
X07808Y01251D01*
X078075Y012507D01*
X07807Y012506D01*
X078064Y012505D01*
X078058Y012504D01*
X078056D01*
X078052Y012505D01*
X078049Y012505D01*
X078044Y012507D01*
X078039Y012509D01*
X078034Y012511D01*
X078029Y012515D01*
X078029Y012515D01*
X078027Y012517D01*
X078026Y012519D01*
X078024Y012523D01*
X078021Y012527D01*
X07802Y012531D01*
X078019Y012537D01*
X078018Y012543D01*
Y012543D01*
Y012545D01*
X078019Y012549D01*
X078019Y012553D01*
X078021Y012557D01*
X078023Y012561D01*
X078025Y012566D01*
X078029Y01257D01*
X07803Y012571D01*
X078031Y012572D01*
X078034Y012573D01*
X078037Y012576D01*
X078042Y012578D01*
X078046Y012579D01*
X078052Y012581D01*
X078058Y012581D01*
X078061D01*
X078064Y012581D01*
D02*
G37*
G36*
X07703D02*
X077034Y01258D01*
X077039Y012579D01*
X077044Y012577D01*
X077049Y012574D01*
X077053Y01257D01*
X077054Y012569D01*
X077055Y012568D01*
X077057Y012566D01*
X077059Y012563D01*
X077061Y012559D01*
X077063Y012554D01*
X077065Y012549D01*
X077065Y012543D01*
Y012542D01*
Y01254D01*
X077065Y012537D01*
X077064Y012533D01*
X077063Y012529D01*
X07706Y012525D01*
X077057Y01252D01*
X077053Y012515D01*
X077053Y012515D01*
X077051Y012513D01*
X077049Y012512D01*
X077045Y01251D01*
X077041Y012507D01*
X077036Y012506D01*
X07703Y012505D01*
X077024Y012504D01*
X077022D01*
X077018Y012505D01*
X077014Y012505D01*
X07701Y012507D01*
X077005Y012509D01*
X077Y012511D01*
X076995Y012515D01*
X076994Y012515D01*
X076993Y012517D01*
X076992Y012519D01*
X07699Y012523D01*
X076987Y012527D01*
X076986Y012531D01*
X076984Y012537D01*
X076984Y012543D01*
Y012543D01*
Y012545D01*
X076984Y012549D01*
X076985Y012553D01*
X076986Y012557D01*
X076988Y012561D01*
X076991Y012566D01*
X076995Y01257D01*
X076996Y012571D01*
X076997Y012572D01*
X077Y012573D01*
X077003Y012576D01*
X077008Y012578D01*
X077012Y012579D01*
X077018Y012581D01*
X077024Y012581D01*
X077027D01*
X07703Y012581D01*
D02*
G37*
G36*
X074268D02*
X074272Y01258D01*
X074276Y012579D01*
X074282Y012577D01*
X074286Y012574D01*
X074291Y01257D01*
X074292Y012569D01*
X074293Y012568D01*
X074295Y012566D01*
X074297Y012563D01*
X074299Y012559D01*
X074301Y012554D01*
X074302Y012549D01*
X074303Y012543D01*
Y012542D01*
Y01254D01*
X074302Y012537D01*
X074302Y012533D01*
X0743Y012529D01*
X074298Y012525D01*
X074295Y01252D01*
X074291Y012515D01*
X07429Y012515D01*
X074289Y012513D01*
X074286Y012512D01*
X074283Y01251D01*
X074278Y012507D01*
X074274Y012506D01*
X074268Y012505D01*
X074262Y012504D01*
X074259D01*
X074256Y012505D01*
X074252Y012505D01*
X074247Y012507D01*
X074242Y012509D01*
X074237Y012511D01*
X074232Y012515D01*
X074232Y012515D01*
X07423Y012517D01*
X074229Y012519D01*
X074227Y012523D01*
X074224Y012527D01*
X074223Y012531D01*
X074222Y012537D01*
X074221Y012543D01*
Y012543D01*
Y012545D01*
X074222Y012549D01*
X074222Y012553D01*
X074224Y012557D01*
X074226Y012561D01*
X074228Y012566D01*
X074232Y01257D01*
X074233Y012571D01*
X074234Y012572D01*
X074237Y012573D01*
X07424Y012576D01*
X074245Y012578D01*
X07425Y012579D01*
X074256Y012581D01*
X074262Y012581D01*
X074264D01*
X074268Y012581D01*
D02*
G37*
G36*
X076323Y012141D02*
X076255D01*
Y012192D01*
X076254D01*
X076253Y012191D01*
X076252Y012189D01*
X07625Y012186D01*
X076248Y012183D01*
X076244Y012178D01*
X07624Y012174D01*
X076234Y012169D01*
X076229Y012163D01*
X076222Y012158D01*
X076214Y012153D01*
X076206Y012148D01*
X076197Y012143D01*
X076187Y01214D01*
X076176Y012137D01*
X076165Y012135D01*
X076152Y012135D01*
X076147D01*
X076143Y012135D01*
X076138Y012136D01*
X076133Y012137D01*
X07612Y01214D01*
X076106Y012145D01*
X076099Y012148D01*
X076092Y012151D01*
X076084Y012156D01*
X076077Y012161D01*
X07607Y012167D01*
X076064Y012174D01*
X076063Y012175D01*
X076062Y012176D01*
X07606Y012178D01*
X076058Y012182D01*
X076056Y012186D01*
X076053Y012191D01*
X076051Y012196D01*
X076047Y012203D01*
X076044Y01221D01*
X076041Y012218D01*
X076039Y012228D01*
X076036Y012238D01*
X076034Y012248D01*
X076032Y012259D01*
X076031Y012271D01*
X076031Y012284D01*
Y012284D01*
Y012287D01*
Y012291D01*
X076031Y012296D01*
X076032Y012302D01*
X076033Y01231D01*
X076034Y012318D01*
X076035Y012326D01*
X076039Y012346D01*
X076046Y012366D01*
X076051Y012376D01*
X076055Y012385D01*
X07606Y012394D01*
X076067Y012403D01*
X076068Y012404D01*
X076069Y012405D01*
X076071Y012407D01*
X076074Y01241D01*
X076078Y012414D01*
X076082Y012418D01*
X076087Y012422D01*
X076093Y012426D01*
X0761Y01243D01*
X076107Y012434D01*
X076115Y012438D01*
X076124Y012441D01*
X076134Y012444D01*
X076144Y012446D01*
X076154Y012448D01*
X076166Y012448D01*
X076172D01*
X076176Y012448D01*
X07618Y012447D01*
X076186Y012446D01*
X0762Y012442D01*
X076206Y01244D01*
X076214Y012436D01*
X076221Y012432D01*
X076228Y012428D01*
X076236Y012422D01*
X076242Y012416D01*
X076248Y012408D01*
X076254Y0124D01*
X076255D01*
Y012585D01*
X076323D01*
Y012141D01*
D02*
G37*
G36*
X079627Y012448D02*
X079631D01*
X079636Y012447D01*
X079646Y012444D01*
X079658Y01244D01*
X079671Y012435D01*
X079683Y012427D01*
X079688Y012422D01*
X079694Y012416D01*
Y012416D01*
X079695Y012415D01*
X079696Y012413D01*
X079698Y01241D01*
X0797Y012407D01*
X079702Y012403D01*
X079704Y012398D01*
X079707Y012393D01*
X079709Y012387D01*
X079711Y01238D01*
X079714Y012372D01*
X079715Y012364D01*
X079717Y012356D01*
X079718Y012346D01*
X079719Y012336D01*
Y012324D01*
Y012141D01*
X079652D01*
Y01231D01*
Y012311D01*
Y012314D01*
X079651Y012318D01*
Y012324D01*
X07965Y01233D01*
X079648Y012337D01*
X079646Y012344D01*
X079644Y012352D01*
X079641Y01236D01*
X079637Y012368D01*
X079632Y012375D01*
X079626Y012381D01*
X07962Y012386D01*
X079612Y012391D01*
X079602Y012394D01*
X079592Y012394D01*
X07959D01*
X079586Y012394D01*
X079581Y012393D01*
X079574Y012392D01*
X079566Y012388D01*
X079557Y012384D01*
X079548Y012379D01*
X07954Y012371D01*
X07954Y01237D01*
X079537Y012367D01*
X079534Y012362D01*
X07953Y012355D01*
X079527Y012346D01*
X079524Y012336D01*
X079521Y012325D01*
X07952Y012312D01*
Y012141D01*
X079452D01*
Y012442D01*
X07952D01*
Y012392D01*
X079521D01*
X079522Y012392D01*
X079522Y012394D01*
X079524Y012397D01*
X079528Y0124D01*
X079531Y012405D01*
X079535Y01241D01*
X07954Y012415D01*
X079546Y01242D01*
X079552Y012425D01*
X07956Y01243D01*
X079568Y012435D01*
X079577Y01244D01*
X079586Y012443D01*
X079596Y012446D01*
X079608Y012448D01*
X079619Y012448D01*
X079624D01*
X079627Y012448D01*
D02*
G37*
G36*
X078356D02*
X07836D01*
X078365Y012447D01*
X078376Y012444D01*
X078387Y01244D01*
X0784Y012435D01*
X078412Y012427D01*
X078417Y012422D01*
X078423Y012416D01*
Y012416D01*
X078424Y012415D01*
X078425Y012413D01*
X078427Y01241D01*
X078429Y012407D01*
X078431Y012403D01*
X078433Y012398D01*
X078436Y012393D01*
X078438Y012387D01*
X078441Y01238D01*
X078443Y012372D01*
X078445Y012364D01*
X078446Y012356D01*
X078447Y012346D01*
X078449Y012336D01*
Y012324D01*
Y012141D01*
X078381D01*
Y01231D01*
Y012311D01*
Y012314D01*
X07838Y012318D01*
Y012324D01*
X078379Y01233D01*
X078377Y012337D01*
X078376Y012344D01*
X078373Y012352D01*
X07837Y01236D01*
X078366Y012368D01*
X078362Y012375D01*
X078356Y012381D01*
X078349Y012386D01*
X078341Y012391D01*
X078332Y012394D01*
X078321Y012394D01*
X07832D01*
X078316Y012394D01*
X07831Y012393D01*
X078303Y012392D01*
X078295Y012388D01*
X078286Y012384D01*
X078278Y012379D01*
X07827Y012371D01*
X078269Y01237D01*
X078266Y012367D01*
X078264Y012362D01*
X07826Y012355D01*
X078256Y012346D01*
X078253Y012336D01*
X07825Y012325D01*
X07825Y012312D01*
Y012141D01*
X078181D01*
Y012442D01*
X07825D01*
Y012392D01*
X07825D01*
X078251Y012392D01*
X078252Y012394D01*
X078254Y012397D01*
X078257Y0124D01*
X07826Y012405D01*
X078264Y01241D01*
X07827Y012415D01*
X078276Y01242D01*
X078282Y012425D01*
X078289Y01243D01*
X078297Y012435D01*
X078306Y01244D01*
X078316Y012443D01*
X078326Y012446D01*
X078337Y012448D01*
X078348Y012448D01*
X078353D01*
X078356Y012448D01*
D02*
G37*
G36*
X077684D02*
X077688D01*
X077692Y012447D01*
X077703Y012444D01*
X077715Y01244D01*
X077727Y012435D01*
X077739Y012427D01*
X077745Y012422D01*
X07775Y012416D01*
Y012416D01*
X077751Y012415D01*
X077753Y012413D01*
X077754Y01241D01*
X077756Y012407D01*
X077758Y012403D01*
X077761Y012398D01*
X077763Y012393D01*
X077765Y012387D01*
X077768Y01238D01*
X07777Y012372D01*
X077772Y012364D01*
X077773Y012356D01*
X077775Y012346D01*
X077776Y012336D01*
Y012324D01*
Y012141D01*
X077708D01*
Y01231D01*
Y012311D01*
Y012314D01*
X077708Y012318D01*
Y012324D01*
X077706Y01233D01*
X077705Y012337D01*
X077703Y012344D01*
X077701Y012352D01*
X077698Y01236D01*
X077694Y012368D01*
X077689Y012375D01*
X077683Y012381D01*
X077676Y012386D01*
X077668Y012391D01*
X077659Y012394D01*
X077648Y012394D01*
X077647D01*
X077643Y012394D01*
X077638Y012393D01*
X07763Y012392D01*
X077622Y012388D01*
X077614Y012384D01*
X077605Y012379D01*
X077597Y012371D01*
X077596Y01237D01*
X077594Y012367D01*
X077591Y012362D01*
X077587Y012355D01*
X077584Y012346D01*
X07758Y012336D01*
X077578Y012325D01*
X077577Y012312D01*
Y012141D01*
X077508D01*
Y012442D01*
X077577D01*
Y012392D01*
X077578D01*
X077578Y012392D01*
X077579Y012394D01*
X077581Y012397D01*
X077584Y0124D01*
X077588Y012405D01*
X077592Y01241D01*
X077597Y012415D01*
X077603Y01242D01*
X077609Y012425D01*
X077616Y01243D01*
X077624Y012435D01*
X077634Y01244D01*
X077643Y012443D01*
X077653Y012446D01*
X077664Y012448D01*
X077676Y012448D01*
X07768D01*
X077684Y012448D01*
D02*
G37*
G36*
X075564D02*
X075568D01*
X075573Y012447D01*
X075584Y012444D01*
X075596Y01244D01*
X075608Y012435D01*
X07562Y012427D01*
X075626Y012422D01*
X075631Y012416D01*
Y012416D01*
X075632Y012415D01*
X075634Y012413D01*
X075635Y01241D01*
X075637Y012407D01*
X075639Y012403D01*
X075642Y012398D01*
X075644Y012393D01*
X075646Y012387D01*
X075649Y01238D01*
X075651Y012372D01*
X075653Y012364D01*
X075654Y012356D01*
X075656Y012346D01*
X075657Y012336D01*
Y012324D01*
Y012141D01*
X075589D01*
Y01231D01*
Y012311D01*
Y012314D01*
X075588Y012318D01*
Y012324D01*
X075587Y01233D01*
X075586Y012337D01*
X075584Y012344D01*
X075582Y012352D01*
X075578Y01236D01*
X075574Y012368D01*
X07557Y012375D01*
X075564Y012381D01*
X075557Y012386D01*
X075549Y012391D01*
X07554Y012394D01*
X075529Y012394D01*
X075528D01*
X075524Y012394D01*
X075518Y012393D01*
X075511Y012392D01*
X075503Y012388D01*
X075494Y012384D01*
X075486Y012379D01*
X075478Y012371D01*
X075477Y01237D01*
X075474Y012367D01*
X075472Y012362D01*
X075468Y012355D01*
X075464Y012346D01*
X075461Y012336D01*
X075458Y012325D01*
X075458Y012312D01*
Y012141D01*
X075389D01*
Y012442D01*
X075458D01*
Y012392D01*
X075458D01*
X075459Y012392D01*
X07546Y012394D01*
X075462Y012397D01*
X075465Y0124D01*
X075468Y012405D01*
X075472Y01241D01*
X075478Y012415D01*
X075484Y01242D01*
X07549Y012425D01*
X075497Y01243D01*
X075505Y012435D01*
X075514Y01244D01*
X075524Y012443D01*
X075534Y012446D01*
X075545Y012448D01*
X075556Y012448D01*
X075561D01*
X075564Y012448D01*
D02*
G37*
G36*
X074559D02*
X074563D01*
X074568Y012447D01*
X074579Y012444D01*
X074591Y01244D01*
X074603Y012435D01*
X074615Y012427D01*
X074621Y012422D01*
X074626Y012416D01*
Y012416D01*
X074627Y012415D01*
X074629Y012413D01*
X07463Y01241D01*
X074632Y012407D01*
X074634Y012403D01*
X074637Y012398D01*
X074639Y012393D01*
X074641Y012387D01*
X074644Y01238D01*
X074646Y012372D01*
X074648Y012364D01*
X074649Y012356D01*
X074651Y012346D01*
X074652Y012336D01*
Y012324D01*
Y012141D01*
X074584D01*
Y01231D01*
Y012311D01*
Y012314D01*
X074583Y012318D01*
Y012324D01*
X074582Y01233D01*
X074581Y012337D01*
X074579Y012344D01*
X074577Y012352D01*
X074573Y01236D01*
X074569Y012368D01*
X074565Y012375D01*
X074559Y012381D01*
X074552Y012386D01*
X074544Y012391D01*
X074535Y012394D01*
X074524Y012394D01*
X074523D01*
X074519Y012394D01*
X074513Y012393D01*
X074506Y012392D01*
X074498Y012388D01*
X074489Y012384D01*
X074481Y012379D01*
X074473Y012371D01*
X074472Y01237D01*
X074469Y012367D01*
X074467Y012362D01*
X074463Y012355D01*
X074459Y012346D01*
X074456Y012336D01*
X074453Y012325D01*
X074453Y012312D01*
Y012141D01*
X074384D01*
Y012442D01*
X074453D01*
Y012392D01*
X074453D01*
X074454Y012392D01*
X074455Y012394D01*
X074457Y012397D01*
X07446Y0124D01*
X074463Y012405D01*
X074467Y01241D01*
X074473Y012415D01*
X074479Y01242D01*
X074485Y012425D01*
X074492Y01243D01*
X0745Y012435D01*
X074509Y01244D01*
X074519Y012443D01*
X074529Y012446D01*
X07454Y012448D01*
X074551Y012448D01*
X074556D01*
X074559Y012448D01*
D02*
G37*
G36*
X074052D02*
X074056D01*
X07406Y012447D01*
X074071Y012444D01*
X074083Y01244D01*
X074096Y012435D01*
X074108Y012427D01*
X074113Y012422D01*
X074118Y012416D01*
Y012416D01*
X07412Y012415D01*
X074121Y012413D01*
X074122Y01241D01*
X074124Y012407D01*
X074126Y012403D01*
X074129Y012398D01*
X074132Y012393D01*
X074134Y012387D01*
X074136Y01238D01*
X074138Y012372D01*
X07414Y012364D01*
X074142Y012356D01*
X074143Y012346D01*
X074144Y012336D01*
Y012324D01*
Y012141D01*
X074076D01*
Y01231D01*
Y012311D01*
Y012314D01*
X074076Y012318D01*
Y012324D01*
X074074Y01233D01*
X074073Y012337D01*
X074071Y012344D01*
X074069Y012352D01*
X074066Y01236D01*
X074062Y012368D01*
X074057Y012375D01*
X074051Y012381D01*
X074044Y012386D01*
X074037Y012391D01*
X074027Y012394D01*
X074017Y012394D01*
X074015D01*
X074011Y012394D01*
X074006Y012393D01*
X073999Y012392D01*
X073991Y012388D01*
X073982Y012384D01*
X073973Y012379D01*
X073965Y012371D01*
X073965Y01237D01*
X073962Y012367D01*
X073959Y012362D01*
X073955Y012355D01*
X073952Y012346D01*
X073949Y012336D01*
X073946Y012325D01*
X073945Y012312D01*
Y012141D01*
X073877D01*
Y012442D01*
X073945D01*
Y012392D01*
X073946D01*
X073947Y012392D01*
X073947Y012394D01*
X073949Y012397D01*
X073953Y0124D01*
X073956Y012405D01*
X07396Y01241D01*
X073965Y012415D01*
X073971Y01242D01*
X073977Y012425D01*
X073985Y01243D01*
X073993Y012435D01*
X074002Y01244D01*
X074011Y012443D01*
X074021Y012446D01*
X074033Y012448D01*
X074044Y012448D01*
X074049D01*
X074052Y012448D01*
D02*
G37*
G36*
X073481D02*
X073487Y012446D01*
X073495Y012444D01*
X073503Y012442D01*
X073512Y012438D01*
X073522Y012433D01*
X07353Y012426D01*
X07354Y012418D01*
X073548Y012408D01*
X073556Y012396D01*
X073562Y012382D01*
X073567Y012366D01*
X073568Y012357D01*
X07357Y012347D01*
X073571Y012337D01*
Y012326D01*
Y012141D01*
X073503D01*
Y012304D01*
Y012305D01*
Y012306D01*
Y012309D01*
Y012312D01*
X073502Y012316D01*
Y01232D01*
X073502Y012331D01*
X0735Y012342D01*
X073498Y012353D01*
X073494Y012364D01*
X07349Y012373D01*
X073489Y012374D01*
X073487Y012376D01*
X073484Y01238D01*
X073479Y012384D01*
X073473Y012388D01*
X073465Y012391D01*
X073456Y012394D01*
X073444Y012394D01*
X073443D01*
X07344Y012394D01*
X073435Y012393D01*
X073429Y012391D01*
X073422Y012388D01*
X073414Y012383D01*
X073406Y012376D01*
X073399Y012367D01*
X073398Y012366D01*
X073396Y012362D01*
X073393Y012356D01*
X07339Y012349D01*
X073387Y01234D01*
X073383Y012329D01*
X073381Y012317D01*
X07338Y012304D01*
Y012141D01*
X073313D01*
Y01231D01*
Y012311D01*
Y012314D01*
X073312Y012318D01*
Y012324D01*
X073311Y01233D01*
X073309Y012337D01*
X073308Y012344D01*
X073305Y012352D01*
X073302Y01236D01*
X073298Y012368D01*
X073293Y012375D01*
X073287Y012381D01*
X073281Y012386D01*
X073273Y012391D01*
X073264Y012394D01*
X073253Y012394D01*
X073252D01*
X073249Y012394D01*
X073243Y012393D01*
X073237Y012391D01*
X07323Y012388D01*
X073222Y012384D01*
X073215Y012378D01*
X073207Y012369D01*
X073207Y012368D01*
X073205Y012364D01*
X073202Y012359D01*
X073199Y012352D01*
X073195Y012342D01*
X073193Y012331D01*
X073191Y012318D01*
X07319Y012304D01*
Y012141D01*
X073122D01*
Y012442D01*
X07319D01*
Y012394D01*
X073191D01*
X073192Y012394D01*
X073193Y012396D01*
X073195Y012399D01*
X073197Y012402D01*
X073201Y012406D01*
X073205Y012411D01*
X07321Y012416D01*
X073215Y012421D01*
X073222Y012426D01*
X073229Y012431D01*
X073237Y012436D01*
X073245Y01244D01*
X073254Y012443D01*
X073264Y012446D01*
X073275Y012448D01*
X073286Y012448D01*
X073291D01*
X073297Y012448D01*
X073305Y012446D01*
X073313Y012444D01*
X073322Y012441D01*
X073331Y012437D01*
X073341Y012431D01*
X073342Y01243D01*
X073345Y012428D01*
X073349Y012424D01*
X073353Y012419D01*
X073359Y012413D01*
X073364Y012405D01*
X073369Y012396D01*
X073373Y012386D01*
X073373Y012387D01*
X073374Y012389D01*
X073376Y012392D01*
X073379Y012396D01*
X073383Y012401D01*
X073387Y012406D01*
X073392Y012412D01*
X073397Y012418D01*
X073404Y012423D01*
X073411Y012429D01*
X07342Y012434D01*
X073428Y012439D01*
X073438Y012442D01*
X073448Y012446D01*
X07346Y012448D01*
X073472Y012448D01*
X073476D01*
X073481Y012448D01*
D02*
G37*
G36*
X079042Y012141D02*
X078972D01*
Y012323D01*
X078774D01*
Y012141D01*
X078704D01*
Y012561D01*
X078774D01*
Y012385D01*
X078972D01*
Y012561D01*
X079042D01*
Y012141D01*
D02*
G37*
G36*
X073811Y012446D02*
X07382Y012444D01*
X073825Y012443D01*
X073829Y012441D01*
Y012376D01*
X073828Y012377D01*
X073827Y012378D01*
X073823Y01238D01*
X073819Y012382D01*
X073814Y012383D01*
X073808Y012385D01*
X073801Y012386D01*
X073793Y012386D01*
X073791D01*
X073788Y012386D01*
X073782Y012385D01*
X073775Y012383D01*
X073767Y01238D01*
X073759Y012375D01*
X07375Y012368D01*
X073742Y012359D01*
X073741Y012358D01*
X073739Y012354D01*
X073736Y012348D01*
X073732Y01234D01*
X073729Y012329D01*
X073725Y012316D01*
X073723Y012301D01*
X073722Y012284D01*
Y012141D01*
X073654D01*
Y012442D01*
X073722D01*
Y01238D01*
X073723D01*
Y01238D01*
X073724Y012381D01*
X073725Y012385D01*
X073727Y01239D01*
X073731Y012398D01*
X073735Y012406D01*
X073741Y012414D01*
X073747Y012421D01*
X073754Y012428D01*
X073755Y012429D01*
X073757Y012431D01*
X073762Y012434D01*
X073767Y012438D01*
X073775Y01244D01*
X073782Y012444D01*
X073791Y012446D01*
X0738Y012446D01*
X073807D01*
X073811Y012446D01*
D02*
G37*
G36*
X076845Y012448D02*
X07685D01*
X07686Y012447D01*
X076871Y012445D01*
X076884Y012443D01*
X076896Y01244D01*
X076909Y012436D01*
Y012376D01*
X076908D01*
X076908Y012377D01*
X076906Y012378D01*
X076904Y01238D01*
X076897Y012383D01*
X076888Y012387D01*
X076878Y012391D01*
X076865Y012394D01*
X076852Y012397D01*
X076836Y012398D01*
X076829D01*
X076821Y012396D01*
X076813Y012395D01*
X076812D01*
X076811Y012394D01*
X076809Y012394D01*
X076807Y012393D01*
X076801Y012391D01*
X076795Y012388D01*
X076794Y012387D01*
X076791Y012384D01*
X076787Y012381D01*
X076784Y012376D01*
X076783Y012375D01*
X076782Y012372D01*
X07678Y012368D01*
X07678Y012362D01*
Y012362D01*
Y012361D01*
X07678Y012356D01*
X076782Y012351D01*
X076784Y012346D01*
X076784Y012344D01*
X076787Y012342D01*
X07679Y012338D01*
X076796Y012334D01*
X076796D01*
X076797Y012333D01*
X076802Y01233D01*
X076808Y012328D01*
X076815Y012324D01*
X076816D01*
X076817Y012324D01*
X07682Y012323D01*
X076822Y012322D01*
X076826Y01232D01*
X076831Y012319D01*
X076841Y012315D01*
X076842Y012314D01*
X076844Y012314D01*
X076848Y012312D01*
X076853Y01231D01*
X076858Y012308D01*
X076864Y012305D01*
X076876Y012299D01*
X076877Y012298D01*
X076879Y012298D01*
X076882Y012296D01*
X076886Y012294D01*
X076894Y012288D01*
X076902Y01228D01*
X076903Y01228D01*
X076904Y012278D01*
X076906Y012276D01*
X076908Y012273D01*
X076914Y012266D01*
X076919Y012256D01*
Y012255D01*
X07692Y012253D01*
X076921Y01225D01*
X076922Y012247D01*
X076923Y012242D01*
X076924Y012236D01*
X076925Y01223D01*
Y012224D01*
Y012223D01*
Y01222D01*
X076924Y012216D01*
X076924Y01221D01*
X076922Y012204D01*
X07692Y012197D01*
X076918Y01219D01*
X076914Y012184D01*
X076914Y012183D01*
X076912Y012181D01*
X07691Y012178D01*
X076907Y012174D01*
X076903Y01217D01*
X076898Y012165D01*
X076892Y012161D01*
X076886Y012156D01*
X076885Y012155D01*
X076882Y012154D01*
X076879Y012152D01*
X076874Y01215D01*
X076868Y012147D01*
X076861Y012145D01*
X076854Y012142D01*
X076845Y01214D01*
X076844D01*
X076841Y012139D01*
X076836Y012139D01*
X07683Y012137D01*
X076824Y012137D01*
X076815Y012135D01*
X076806Y012135D01*
X076789D01*
X076784Y012135D01*
X07678D01*
X076768Y012137D01*
X076754Y012139D01*
X07674Y012141D01*
X076726Y012145D01*
X076712Y012151D01*
Y012213D01*
X076712D01*
X076714Y012212D01*
X076716Y01221D01*
X076718Y012208D01*
X076722Y012206D01*
X076726Y012204D01*
X076736Y012199D01*
X076749Y012194D01*
X076763Y012189D01*
X076779Y012186D01*
X076787Y012185D01*
X076796Y012184D01*
X076802D01*
X076806Y012185D01*
X07681Y012186D01*
X076815Y012186D01*
X076827Y012189D01*
X076838Y012193D01*
X076843Y012196D01*
X076848Y0122D01*
X076852Y012204D01*
X076855Y012208D01*
X076857Y012214D01*
X076858Y01222D01*
Y012221D01*
Y012222D01*
X076857Y012226D01*
X076856Y012232D01*
X076852Y012238D01*
Y012238D01*
X076852Y012239D01*
X076848Y012242D01*
X076844Y012246D01*
X076838Y01225D01*
X076837D01*
X076836Y012252D01*
X076834Y012252D01*
X076832Y012254D01*
X076825Y012257D01*
X076816Y01226D01*
X076816D01*
X076814Y012261D01*
X076812Y012262D01*
X076808Y012264D01*
X076804Y012265D01*
X0768Y012267D01*
X07679Y012271D01*
X076789Y012272D01*
X076786Y012272D01*
X076783Y012274D01*
X076778Y012276D01*
X076774Y012278D01*
X076768Y01228D01*
X076756Y012286D01*
X076756Y012287D01*
X076754Y012288D01*
X076751Y01229D01*
X076748Y012292D01*
X07674Y012298D01*
X076732Y012305D01*
X076731Y012306D01*
X07673Y012307D01*
X076728Y012309D01*
X076726Y012312D01*
X076721Y01232D01*
X076716Y012328D01*
Y012329D01*
X076716Y012331D01*
X076715Y012334D01*
X076715Y012337D01*
X076713Y012342D01*
X076712Y012347D01*
X076712Y01236D01*
Y01236D01*
Y012363D01*
X076712Y012367D01*
X076713Y012372D01*
X076715Y012378D01*
X076716Y012385D01*
X076718Y012391D01*
X076722Y012398D01*
X076722Y012398D01*
X076724Y0124D01*
X076726Y012404D01*
X076729Y012408D01*
X076733Y012412D01*
X076738Y012416D01*
X076744Y012421D01*
X07675Y012426D01*
X07675Y012426D01*
X076753Y012428D01*
X076756Y01243D01*
X076761Y012432D01*
X076767Y012435D01*
X076774Y012438D01*
X076781Y01244D01*
X076789Y012442D01*
X07679D01*
X076793Y012443D01*
X076797Y012444D01*
X076803Y012446D01*
X07681Y012446D01*
X076818Y012448D01*
X076834Y012448D01*
X076842D01*
X076845Y012448D01*
D02*
G37*
G36*
X072808Y012567D02*
X072815D01*
X072824Y012565D01*
X072834Y012564D01*
X072845Y012563D01*
X072857Y01256D01*
X07287Y012557D01*
X072884Y012553D01*
X072898Y012548D01*
X072912Y012542D01*
X072926Y012535D01*
X07294Y012527D01*
X072954Y012519D01*
X072966Y012508D01*
X072967Y012507D01*
X072969Y012505D01*
X072972Y012502D01*
X072977Y012498D01*
X072982Y012492D01*
X072988Y012484D01*
X072994Y012476D01*
X073Y012467D01*
X073006Y012456D01*
X073012Y012444D01*
X073018Y012432D01*
X073023Y012418D01*
X073028Y012404D01*
X073031Y012388D01*
X073033Y012371D01*
X073034Y012354D01*
Y012353D01*
Y01235D01*
Y012347D01*
X073033Y012342D01*
X073032Y012336D01*
X073032Y012329D01*
X07303Y012322D01*
X073029Y012313D01*
X073025Y012295D01*
X073018Y012276D01*
X073014Y012266D01*
X073009Y012257D01*
X073004Y012248D01*
X072997Y012239D01*
X072996Y012238D01*
X072996Y012237D01*
X072994Y012235D01*
X07299Y012232D01*
X072987Y012228D01*
X072983Y012225D01*
X072978Y012221D01*
X072972Y012217D01*
X07296Y012208D01*
X072944Y012202D01*
X072936Y012198D01*
X072927Y012196D01*
X072918Y012195D01*
X072908Y012194D01*
X072906D01*
X072902Y012195D01*
X072898Y012196D01*
X072893Y012196D01*
X072887Y012198D01*
X072881Y0122D01*
X072875Y012202D01*
X072868Y012206D01*
X072862Y01221D01*
X072856Y012215D01*
X072852Y012221D01*
X072847Y012228D01*
X072844Y012236D01*
X072842Y012246D01*
X072841Y012257D01*
X072839D01*
Y012256D01*
X072838Y012254D01*
X072837Y012251D01*
X072835Y012247D01*
X072832Y012242D01*
X072829Y012237D01*
X072826Y012232D01*
X072821Y012226D01*
X072816Y01222D01*
X07281Y012214D01*
X072803Y012209D01*
X072796Y012204D01*
X072787Y0122D01*
X072778Y012197D01*
X072768Y012195D01*
X072756Y012194D01*
X072752D01*
X07275Y012195D01*
X072742Y012196D01*
X072734Y012198D01*
X072724Y012202D01*
X072713Y012207D01*
X072703Y012214D01*
X072698Y012218D01*
X072693Y012224D01*
Y012224D01*
X072692Y012225D01*
X072689Y012229D01*
X072686Y012236D01*
X072681Y012244D01*
X072677Y012256D01*
X072673Y01227D01*
X072671Y012285D01*
X072669Y012303D01*
Y012304D01*
Y012306D01*
Y01231D01*
X07267Y012314D01*
X072671Y01232D01*
X072671Y012326D01*
X072672Y012334D01*
X072673Y012342D01*
X072677Y012359D01*
X072683Y012377D01*
X072687Y012386D01*
X072691Y012395D01*
X072696Y012404D01*
X072702Y012412D01*
X072703Y012413D01*
X072703Y012414D01*
X072705Y012416D01*
X072708Y012419D01*
X072711Y012422D01*
X072715Y012426D01*
X07272Y01243D01*
X072725Y012434D01*
X072738Y012442D01*
X072752Y01245D01*
X072761Y012452D01*
X07277Y012454D01*
X072779Y012456D01*
X072789Y012456D01*
X072792D01*
X072796Y012456D01*
X072802Y012455D01*
X072807Y012454D01*
X072813Y012452D01*
X07282Y012449D01*
X072826Y012445D01*
X072826Y012444D01*
X072828Y012443D01*
X072831Y01244D01*
X072834Y012438D01*
X072838Y012434D01*
X072841Y012429D01*
X072844Y012424D01*
X072846Y012418D01*
X072848D01*
Y012419D01*
Y01242D01*
X072848Y012422D01*
Y012426D01*
X072849Y01243D01*
X07285Y012436D01*
X07285Y012443D01*
X072852Y012452D01*
X072901D01*
Y012451D01*
Y01245D01*
Y012448D01*
X0729Y012445D01*
Y012442D01*
X0729Y012438D01*
X072899Y012428D01*
X072898Y012416D01*
X072896Y012402D01*
X072895Y012388D01*
X072894Y012374D01*
X072893Y01236D01*
X072892Y012345D01*
X07289Y012332D01*
X072889Y01232D01*
X072888Y01231D01*
X072888Y012302D01*
Y012298D01*
X072887Y012296D01*
Y012294D01*
Y012294D01*
Y012293D01*
Y012291D01*
Y012288D01*
X072888Y012284D01*
Y01228D01*
X072888Y012276D01*
X072891Y012265D01*
X072894Y012254D01*
X072897Y012249D01*
X0729Y012245D01*
X072903Y012241D01*
X072907Y012238D01*
X072912Y012236D01*
X072917Y012236D01*
X072918D01*
X072922Y012236D01*
X072927Y012238D01*
X072933Y01224D01*
X07294Y012244D01*
X072948Y01225D01*
X072952Y012253D01*
X072956Y012258D01*
X07296Y012262D01*
X072963Y012268D01*
Y012269D01*
X072964Y01227D01*
X072965Y012272D01*
X072966Y012274D01*
X072967Y012278D01*
X072969Y012282D01*
X072972Y012291D01*
X072975Y012303D01*
X072978Y012318D01*
X07298Y012334D01*
X072981Y012352D01*
Y012353D01*
Y012356D01*
Y01236D01*
X07298Y012365D01*
X07298Y012372D01*
X072978Y012379D01*
X072977Y012388D01*
X072975Y012397D01*
X072972Y012406D01*
X072969Y012416D01*
X072965Y012427D01*
X07296Y012437D01*
X072954Y012448D01*
X072948Y012458D01*
X07294Y012468D01*
X072932Y012477D01*
X072931Y012478D01*
X07293Y012479D01*
X072926Y012482D01*
X072923Y012484D01*
X072918Y012488D01*
X072912Y012492D01*
X072904Y012496D01*
X072896Y012501D01*
X072887Y012505D01*
X072877Y012509D01*
X072866Y012513D01*
X072854Y012517D01*
X072841Y01252D01*
X072826Y012523D01*
X072812Y012524D01*
X072796Y012525D01*
X072792D01*
X072788Y012524D01*
X072782D01*
X072774Y012523D01*
X072766Y012521D01*
X072757Y01252D01*
X072747Y012517D01*
X072736Y012514D01*
X072725Y012511D01*
X072714Y012505D01*
X072702Y0125D01*
X072691Y012494D01*
X072679Y012486D01*
X072668Y012477D01*
X072657Y012466D01*
X072657Y012466D01*
X072655Y012464D01*
X072652Y01246D01*
X072649Y012456D01*
X072645Y01245D01*
X07264Y012444D01*
X072635Y012436D01*
X07263Y012426D01*
X072625Y012416D01*
X07262Y012405D01*
X072615Y012393D01*
X072611Y01238D01*
X072608Y012366D01*
X072605Y012352D01*
X072603Y012336D01*
X072603Y01232D01*
Y01232D01*
Y012316D01*
X072603Y012312D01*
Y012306D01*
X072604Y012299D01*
X072605Y01229D01*
X072607Y012281D01*
X072609Y012271D01*
X072612Y01226D01*
X072615Y012248D01*
X07262Y012237D01*
X072625Y012225D01*
X072631Y012214D01*
X072638Y012202D01*
X072646Y012192D01*
X072655Y012181D01*
X072656Y01218D01*
X072658Y012179D01*
X072661Y012176D01*
X072665Y012173D01*
X07267Y012169D01*
X072677Y012164D01*
X072684Y01216D01*
X072693Y012155D01*
X072703Y01215D01*
X072713Y012145D01*
X072724Y012141D01*
X072737Y012137D01*
X072751Y012133D01*
X072765Y012131D01*
X072781Y012129D01*
X072797Y012129D01*
X072804D01*
X072809Y012129D01*
X072815D01*
X072822Y01213D01*
X07283Y012131D01*
X072839Y012131D01*
X072858Y012135D01*
X072878Y012139D01*
X072898Y012144D01*
X072918Y012152D01*
Y012107D01*
X072918D01*
X072916Y012107D01*
X072913Y012105D01*
X072909Y012104D01*
X072904Y012103D01*
X072898Y012101D01*
X072891Y012099D01*
X072883Y012097D01*
X072874Y012095D01*
X072864Y012093D01*
X072854Y012091D01*
X072842Y012089D01*
X07283Y012088D01*
X072817Y012087D01*
X07279Y012086D01*
X072785D01*
X072779Y012087D01*
X072772Y012087D01*
X072762Y012088D01*
X072752Y012089D01*
X07274Y012091D01*
X072728Y012094D01*
X072714Y012097D01*
X0727Y012101D01*
X072685Y012107D01*
X072671Y012113D01*
X072657Y012121D01*
X072643Y012129D01*
X072629Y012139D01*
X072616Y01215D01*
X072615Y012151D01*
X072613Y012153D01*
X07261Y012157D01*
X072606Y012162D01*
X072601Y012168D01*
X072595Y012176D01*
X072589Y012185D01*
X072583Y012195D01*
X072577Y012206D01*
X072571Y012219D01*
X072565Y012233D01*
X072561Y012248D01*
X072556Y012264D01*
X072553Y012281D01*
X072551Y012299D01*
X07255Y012318D01*
Y01232D01*
Y012323D01*
X072551Y012329D01*
X072551Y012336D01*
X072552Y012346D01*
X072554Y012356D01*
X072556Y012368D01*
X072559Y012381D01*
X072563Y012395D01*
X072567Y01241D01*
X072573Y012424D01*
X072579Y012439D01*
X072587Y012454D01*
X072597Y012469D01*
X072607Y012484D01*
X072619Y012497D01*
X07262Y012498D01*
X072623Y0125D01*
X072627Y012503D01*
X072632Y012508D01*
X072639Y012513D01*
X072647Y012519D01*
X072657Y012525D01*
X072668Y012532D01*
X07268Y012539D01*
X072694Y012545D01*
X072709Y012551D01*
X072724Y012556D01*
X072741Y012561D01*
X072759Y012564D01*
X072778Y012567D01*
X072798Y012567D01*
X072802D01*
X072808Y012567D01*
D02*
G37*
G36*
X075227Y012141D02*
X075153D01*
X075042Y012442D01*
X075116D01*
X075183Y012231D01*
X075183Y01223D01*
X075184Y012227D01*
X075185Y012223D01*
X075187Y012217D01*
X075189Y012211D01*
X07519Y012204D01*
X075193Y01219D01*
X075193D01*
Y012192D01*
X075194Y012194D01*
X075195Y012198D01*
X075195Y012204D01*
X075197Y01221D01*
X075198Y012216D01*
X075201Y01223D01*
X075271Y012442D01*
X075343D01*
X075227Y012141D01*
D02*
G37*
G36*
X080229D02*
X080161D01*
Y012442D01*
X080229D01*
Y012141D01*
D02*
G37*
G36*
X079265Y012448D02*
X079273Y012446D01*
X079281Y012445D01*
X079291Y012442D01*
X079301Y012439D01*
X079312Y012434D01*
X079322Y012428D01*
X079333Y012421D01*
X079342Y012412D01*
X079351Y012401D01*
X079358Y012388D01*
X079364Y012373D01*
X079367Y012356D01*
X079369Y012346D01*
Y012336D01*
Y012141D01*
X079303D01*
Y012188D01*
X079301D01*
X079301Y012187D01*
X0793Y012186D01*
X079298Y012183D01*
X079295Y01218D01*
X079293Y012175D01*
X079289Y012171D01*
X079284Y012166D01*
X079279Y012161D01*
X079273Y012157D01*
X079265Y012151D01*
X079258Y012147D01*
X07925Y012143D01*
X079241Y012139D01*
X079231Y012137D01*
X079221Y012135D01*
X07921Y012135D01*
X079206D01*
X079203Y012135D01*
X079195Y012136D01*
X079185Y012137D01*
X079174Y012141D01*
X079162Y012145D01*
X079151Y01215D01*
X079141Y012158D01*
X079139Y012159D01*
X079137Y012162D01*
X079133Y012168D01*
X079129Y012175D01*
X079124Y012184D01*
X07912Y012195D01*
X079117Y012208D01*
X079116Y012222D01*
Y012222D01*
Y012226D01*
X079117Y01223D01*
X079117Y012235D01*
X079119Y012242D01*
X079121Y012249D01*
X079124Y012257D01*
X079128Y012266D01*
X079133Y012274D01*
X07914Y012283D01*
X079148Y012291D01*
X079157Y012299D01*
X079169Y012306D01*
X079182Y012312D01*
X079197Y012317D01*
X079214Y01232D01*
X079303Y012333D01*
Y012334D01*
Y012336D01*
X079303Y012339D01*
Y012343D01*
X079301Y012348D01*
X0793Y012354D01*
X079298Y012359D01*
X079296Y012366D01*
X079293Y012372D01*
X079289Y012377D01*
X079283Y012383D01*
X079277Y012388D01*
X079271Y012392D01*
X079262Y012395D01*
X079253Y012397D01*
X079242Y012398D01*
X079237D01*
X079233Y012397D01*
X079228Y012396D01*
X079223Y012396D01*
X079217Y012394D01*
X07921Y012393D01*
X079195Y012388D01*
X079179Y012382D01*
X07917Y012378D01*
X079162Y012373D01*
X079153Y012367D01*
X079145Y01236D01*
Y01242D01*
X079146Y012421D01*
X079147Y012422D01*
X07915Y012423D01*
X079154Y012425D01*
X079158Y012427D01*
X079163Y012429D01*
X07917Y012432D01*
X079177Y012434D01*
X079185Y012437D01*
X079193Y01244D01*
X079211Y012444D01*
X079232Y012447D01*
X079255Y012448D01*
X079259D01*
X079265Y012448D01*
D02*
G37*
G36*
X078092Y012141D02*
X078024D01*
Y012442D01*
X078092D01*
Y012141D01*
D02*
G37*
G36*
X077057D02*
X07699D01*
Y012442D01*
X077057D01*
Y012141D01*
D02*
G37*
G36*
X074803Y012392D02*
X074804D01*
X074804Y012392D01*
X074805Y012394D01*
X074807Y012397D01*
X07481Y0124D01*
X074814Y012405D01*
X074818Y01241D01*
X074823Y012415D01*
X074829Y01242D01*
X074835Y012425D01*
X074842Y01243D01*
X07485Y012435D01*
X07486Y01244D01*
X074869Y012443D01*
X074879Y012446D01*
X07489Y012448D01*
X074902Y012448D01*
X074906D01*
X074911Y012448D01*
X074917Y012446D01*
X074925Y012444D01*
X074933Y012442D01*
X074942Y012438D01*
X074952Y012433D01*
X074961Y012426D01*
X07497Y012418D01*
X074978Y012408D01*
X074986Y012396D01*
X074992Y012382D01*
X074998Y012366D01*
X074999Y012357D01*
X075Y012347D01*
X075002Y012337D01*
Y012326D01*
Y012141D01*
X074934D01*
Y012305D01*
Y012306D01*
Y012309D01*
X074933Y012313D01*
Y012319D01*
X074932Y012326D01*
X07493Y012333D01*
X074928Y012342D01*
X074926Y01235D01*
X074923Y012358D01*
X074919Y012366D01*
X074914Y012374D01*
X074908Y01238D01*
X074902Y012386D01*
X074894Y01239D01*
X074884Y012394D01*
X074874Y012394D01*
X074872D01*
X074869Y012394D01*
X074863Y012393D01*
X074856Y012391D01*
X074848Y012388D01*
X07484Y012384D01*
X074831Y012377D01*
X074823Y012368D01*
X074822Y012367D01*
X07482Y012364D01*
X074817Y012358D01*
X074813Y01235D01*
X07481Y012341D01*
X074806Y01233D01*
X074804Y012317D01*
X074803Y012302D01*
Y012141D01*
X074734D01*
Y012585D01*
X074803D01*
Y012392D01*
D02*
G37*
G36*
X074295Y012141D02*
X074227D01*
Y012442D01*
X074295D01*
Y012141D01*
D02*
G37*
G36*
X080353Y012213D02*
X080357Y012212D01*
X080362Y012211D01*
X080367Y012208D01*
X080372Y012206D01*
X080377Y012202D01*
X080378Y012201D01*
X080379Y0122D01*
X080381Y012197D01*
X080383Y012194D01*
X080385Y01219D01*
X080387Y012185D01*
X080389Y01218D01*
X080389Y012174D01*
Y012173D01*
Y012171D01*
X080389Y012169D01*
X080388Y012164D01*
X080386Y01216D01*
X080384Y012156D01*
X080381Y012151D01*
X080377Y012147D01*
X080376Y012146D01*
X080375Y012145D01*
X080372Y012143D01*
X080368Y012141D01*
X080364Y012139D01*
X080359Y012137D01*
X080353Y012136D01*
X080346Y012135D01*
X080344D01*
X08034Y012136D01*
X080336Y012137D01*
X080332Y012138D01*
X080326Y01214D01*
X080321Y012143D01*
X080316Y012147D01*
X080316Y012147D01*
X080314Y012149D01*
X080312Y012151D01*
X08031Y012155D01*
X080308Y012159D01*
X080306Y012163D01*
X080305Y012168D01*
X080304Y012174D01*
Y012174D01*
Y012176D01*
X080305Y01218D01*
X080306Y012184D01*
X080307Y012188D01*
X08031Y012192D01*
X080312Y012197D01*
X080316Y012202D01*
X080317Y012202D01*
X080318Y012204D01*
X080321Y012206D01*
X080325Y012208D01*
X080329Y01221D01*
X080334Y012212D01*
X08034Y012213D01*
X080346Y012214D01*
X08035D01*
X080353Y012213D01*
D02*
G37*
G36*
X079955Y012448D02*
X07996Y012447D01*
X079967Y012446D01*
X079975Y012445D01*
X079983Y012443D01*
X080001Y012438D01*
X08001Y012435D01*
X080019Y012431D01*
X080028Y012426D01*
X080037Y01242D01*
X080044Y012414D01*
X080052Y012407D01*
X080053Y012406D01*
X080054Y012405D01*
X080056Y012403D01*
X080058Y0124D01*
X080062Y012395D01*
X080065Y01239D01*
X080068Y012384D01*
X080072Y012377D01*
X080076Y01237D01*
X080079Y012361D01*
X080082Y012352D01*
X080086Y012341D01*
X080088Y01233D01*
X08009Y012318D01*
X080091Y012306D01*
X080092Y012292D01*
Y012292D01*
Y012289D01*
Y012286D01*
X080091Y01228D01*
X08009Y012274D01*
X08009Y012267D01*
X080088Y01226D01*
X080086Y012251D01*
X080081Y012232D01*
X080078Y012223D01*
X080074Y012213D01*
X080069Y012204D01*
X080063Y012194D01*
X080056Y012186D01*
X080049Y012177D01*
X080048Y012176D01*
X080047Y012175D01*
X080044Y012173D01*
X080041Y01217D01*
X080037Y012167D01*
X080032Y012164D01*
X080026Y01216D01*
X080019Y012156D01*
X080011Y012152D01*
X080003Y012148D01*
X079993Y012145D01*
X079983Y012141D01*
X079973Y012139D01*
X079961Y012137D01*
X079949Y012135D01*
X079935Y012135D01*
X079929D01*
X079924Y012135D01*
X079918Y012136D01*
X079911Y012137D01*
X079903Y012138D01*
X079895Y01214D01*
X079878Y012145D01*
X079869Y012148D01*
X079859Y012152D01*
X07985Y012157D01*
X079841Y012162D01*
X079832Y012169D01*
X079824Y012176D01*
X079823Y012176D01*
X079822Y012178D01*
X07982Y01218D01*
X079817Y012184D01*
X079815Y012188D01*
X079811Y012193D01*
X079807Y012198D01*
X079803Y012206D01*
X079799Y012213D01*
X079796Y012222D01*
X079792Y012231D01*
X079789Y01224D01*
X079787Y012252D01*
X079785Y012263D01*
X079783Y012275D01*
X079783Y012288D01*
Y012288D01*
Y012291D01*
Y012295D01*
X079783Y0123D01*
X079784Y012306D01*
X079785Y012314D01*
X079786Y012322D01*
X079788Y012331D01*
X079793Y01235D01*
X079797Y01236D01*
X079801Y012369D01*
X079806Y012379D01*
X079812Y012388D01*
X079819Y012397D01*
X079826Y012406D01*
X079827Y012406D01*
X079828Y012408D01*
X079831Y01241D01*
X079834Y012412D01*
X079838Y012416D01*
X079843Y012419D01*
X07985Y012423D01*
X079857Y012427D01*
X079865Y012431D01*
X079873Y012435D01*
X079883Y012438D01*
X079893Y012442D01*
X079905Y012444D01*
X079917Y012446D01*
X079929Y012448D01*
X079943Y012448D01*
X079949D01*
X079955Y012448D01*
D02*
G37*
G36*
X076547D02*
X076552Y012447D01*
X076558Y012446D01*
X076572Y012444D01*
X076587Y012438D01*
X076595Y012436D01*
X076603Y012432D01*
X076611Y012427D01*
X076619Y012422D01*
X076625Y012416D01*
X076632Y012408D01*
X076633Y012408D01*
X076633Y012406D01*
X076635Y012404D01*
X076637Y012401D01*
X07664Y012397D01*
X076643Y012392D01*
X076646Y012386D01*
X076649Y01238D01*
X076652Y012372D01*
X076655Y012364D01*
X076658Y012355D01*
X076661Y012346D01*
X076663Y012335D01*
X076665Y012324D01*
X076665Y012311D01*
X076666Y012298D01*
Y012272D01*
X076461D01*
Y012272D01*
Y01227D01*
Y012268D01*
X076461Y012266D01*
X076463Y012258D01*
X076465Y012249D01*
X076467Y012238D01*
X076472Y012228D01*
X076479Y012218D01*
X076487Y012208D01*
X076488Y012208D01*
X076491Y012205D01*
X076497Y012201D01*
X076505Y012197D01*
X076514Y012193D01*
X076525Y012189D01*
X076539Y012186D01*
X076554Y012186D01*
X076559D01*
X076562Y012186D01*
X076567D01*
X076571Y012187D01*
X076583Y012189D01*
X076597Y012193D01*
X076612Y012198D01*
X076627Y012205D01*
X076635Y012209D01*
X076643Y012214D01*
Y01216D01*
X076642D01*
X076641Y012159D01*
X076639Y012158D01*
X076635Y012156D01*
X076631Y012154D01*
X076626Y012152D01*
X07662Y01215D01*
X076613Y012147D01*
X076606Y012145D01*
X076598Y012143D01*
X076589Y012141D01*
X076579Y012139D01*
X076569Y012137D01*
X076558Y012136D01*
X076534Y012135D01*
X076527D01*
X076523Y012135D01*
X076517Y012136D01*
X076511Y012137D01*
X076504Y012138D01*
X076496Y01214D01*
X076479Y012145D01*
X076471Y012148D01*
X076462Y012152D01*
X076453Y012157D01*
X076445Y012162D01*
X076437Y012168D01*
X076429Y012175D01*
X076429Y012176D01*
X076428Y012177D01*
X076426Y012179D01*
X076423Y012182D01*
X076421Y012187D01*
X076417Y012192D01*
X076414Y012198D01*
X076411Y012204D01*
X076407Y012212D01*
X076404Y012221D01*
X076401Y01223D01*
X076398Y01224D01*
X076395Y012252D01*
X076393Y012264D01*
X076393Y012276D01*
X076392Y01229D01*
Y01229D01*
Y012293D01*
Y012296D01*
X076393Y012302D01*
X076393Y012308D01*
X076394Y012314D01*
X076395Y012322D01*
X076397Y01233D01*
X076402Y012349D01*
X076405Y012358D01*
X076409Y012368D01*
X076414Y012378D01*
X07642Y012387D01*
X076426Y012396D01*
X076433Y012404D01*
X076434Y012405D01*
X076435Y012406D01*
X076437Y012408D01*
X076441Y012411D01*
X076445Y012414D01*
X07645Y012418D01*
X076455Y012422D01*
X076462Y012426D01*
X076469Y01243D01*
X076477Y012434D01*
X076495Y012442D01*
X076505Y012444D01*
X076515Y012446D01*
X076525Y012448D01*
X076537Y012448D01*
X076543D01*
X076547Y012448D01*
D02*
G37*
G36*
X075757Y012065D02*
X075707D01*
X075739Y012211D01*
X075803D01*
X075757Y012065D01*
D02*
G37*
G36*
X077273Y012448D02*
X077277Y012447D01*
X077283Y012446D01*
X077296Y012442D01*
X077303Y01244D01*
X077311Y012436D01*
X077318Y012432D01*
X077325Y012428D01*
X077332Y012422D01*
X077339Y012416D01*
X077345Y012408D01*
X077351Y0124D01*
X077352D01*
Y012442D01*
X07742D01*
Y012165D01*
Y012164D01*
Y012163D01*
Y012161D01*
Y012158D01*
X077419Y012155D01*
X077418Y01215D01*
X077417Y012139D01*
X077414Y012127D01*
X077411Y012113D01*
X077406Y012098D01*
X077399Y012083D01*
X07739Y012067D01*
X077379Y012053D01*
X077373Y012045D01*
X077366Y012039D01*
X077359Y012032D01*
X07735Y012026D01*
X077341Y01202D01*
X077331Y012015D01*
X07732Y012011D01*
X077309Y012007D01*
X077297Y012004D01*
X077283Y012002D01*
X077269Y012001D01*
X077254Y012D01*
X077248D01*
X077244Y012001D01*
X077239D01*
X077233Y012001D01*
X077227Y012002D01*
X077219Y012003D01*
X077203Y012005D01*
X077186Y012009D01*
X077169Y012013D01*
X077151Y01202D01*
Y012082D01*
X077152D01*
X077153Y012081D01*
X077156Y012079D01*
X07716Y012077D01*
X077164Y012075D01*
X077169Y012073D01*
X077175Y012071D01*
X077181Y012068D01*
X077196Y012063D01*
X077212Y012059D01*
X077229Y012055D01*
X077245Y012054D01*
X07725D01*
X077255Y012055D01*
X077262Y012055D01*
X07727Y012057D01*
X077279Y012059D01*
X077289Y012063D01*
X077299Y012067D01*
X077309Y012073D01*
X077318Y012079D01*
X077327Y012088D01*
X077335Y012098D01*
X077342Y01211D01*
X077347Y012124D01*
X077351Y01214D01*
X077352Y012159D01*
Y012191D01*
X077351D01*
X077351Y01219D01*
X07735Y012188D01*
X077348Y012186D01*
X077345Y012182D01*
X077341Y012178D01*
X077337Y012173D01*
X077332Y012168D01*
X077326Y012163D01*
X077319Y012158D01*
X077311Y012153D01*
X077303Y012148D01*
X077294Y012143D01*
X077284Y01214D01*
X077273Y012137D01*
X077262Y012135D01*
X077249Y012135D01*
X077244D01*
X07724Y012135D01*
X077235Y012136D01*
X07723Y012137D01*
X077218Y012139D01*
X077204Y012144D01*
X077196Y012147D01*
X077189Y012151D01*
X077181Y012156D01*
X077174Y012161D01*
X077167Y012167D01*
X077161Y012174D01*
X07716Y012174D01*
X077159Y012176D01*
X077157Y012178D01*
X077155Y012181D01*
X077153Y012185D01*
X07715Y01219D01*
X077147Y012196D01*
X077144Y012202D01*
X077141Y01221D01*
X077138Y012218D01*
X077135Y012226D01*
X077133Y012236D01*
X077131Y012246D01*
X077129Y012257D01*
X077128Y012269D01*
X077127Y012281D01*
Y012282D01*
Y012284D01*
Y012288D01*
X077128Y012294D01*
X077129Y0123D01*
X077129Y012308D01*
X077131Y012316D01*
X077132Y012325D01*
X077136Y012344D01*
X077143Y012365D01*
X077147Y012375D01*
X077151Y012385D01*
X077157Y012394D01*
X077163Y012403D01*
X077164Y012404D01*
X077165Y012405D01*
X077167Y012407D01*
X07717Y01241D01*
X077173Y012414D01*
X077178Y012418D01*
X077183Y012422D01*
X077189Y012426D01*
X077196Y01243D01*
X077203Y012434D01*
X077211Y012438D01*
X077221Y012441D01*
X07723Y012444D01*
X07724Y012446D01*
X077251Y012448D01*
X077263Y012448D01*
X077269D01*
X077273Y012448D01*
D02*
G37*
%LPC*%
G36*
X07339Y013105D02*
X073384D01*
X073382Y013105D01*
X073377Y013104D01*
X073372Y013102D01*
X073371D01*
X073371Y013101D01*
X073369Y013101D01*
X073368Y0131D01*
X073364Y013097D01*
X07336Y013094D01*
X07336Y013093D01*
X07336Y013093D01*
X073359Y013092D01*
X073358Y01309D01*
X073355Y013087D01*
X073353Y013082D01*
Y013082D01*
X073353Y013081D01*
X073353Y01308D01*
X073352Y013078D01*
X073352Y013074D01*
X073351Y013069D01*
Y013068D01*
Y013067D01*
Y013066D01*
X073352Y013064D01*
Y013062D01*
X073352Y013059D01*
X073353Y013053D01*
Y013053D01*
X073354Y013052D01*
X073354Y01305D01*
X073355Y013049D01*
X073357Y013044D01*
X07336Y013039D01*
X07336Y013039D01*
X073361Y013038D01*
X073362Y013037D01*
X073363Y013035D01*
X073366Y013032D01*
X073371Y013028D01*
X073371D01*
X073372Y013028D01*
X073374Y013027D01*
X073376Y013026D01*
X073378Y013026D01*
X073381Y013025D01*
X073384Y013025D01*
X073387Y013024D01*
X073389D01*
X07339Y013025D01*
X073392D01*
X073397Y013026D01*
X073402Y013027D01*
X073402D01*
X073403Y013028D01*
X073404Y013029D01*
X073406Y01303D01*
X073409Y013032D01*
X073413Y013036D01*
X073413Y013036D01*
X073414Y013037D01*
X073415Y013038D01*
X073415Y013039D01*
X073417Y013041D01*
X073418Y013044D01*
X07342Y013049D01*
Y013049D01*
X07342Y01305D01*
X07342Y013051D01*
X073421Y013053D01*
X073421Y013056D01*
X073422Y013059D01*
X073422Y013065D01*
Y013065D01*
Y013066D01*
Y013068D01*
X073422Y01307D01*
X073421Y013073D01*
X073421Y013075D01*
X07342Y013081D01*
Y013081D01*
X073419Y013082D01*
X073419Y013084D01*
X073418Y013086D01*
X073416Y01309D01*
X073413Y013094D01*
X073413Y013094D01*
X073413Y013095D01*
X073412Y013096D01*
X07341Y013097D01*
X073407Y0131D01*
X073402Y013102D01*
X073402D01*
X073401Y013103D01*
X0734Y013103D01*
X073398Y013104D01*
X073396Y013104D01*
X073393Y013105D01*
X07339Y013105D01*
D02*
G37*
G36*
X074456Y013186D02*
X074454D01*
X074452Y013186D01*
X07445Y013185D01*
X074447Y013184D01*
X074444Y013182D01*
X07444Y013179D01*
X074437Y013176D01*
X074433Y013171D01*
X07443Y013166D01*
X074428Y013163D01*
X074427Y013159D01*
X074425Y013155D01*
X074424Y013151D01*
X074422Y013146D01*
X074421Y013141D01*
X07442Y013136D01*
X074419Y01313D01*
X074419Y013124D01*
X074418Y013117D01*
X074418Y01311D01*
Y013102D01*
Y013102D01*
Y013101D01*
Y0131D01*
Y013099D01*
Y013097D01*
X074418Y013095D01*
X074418Y01309D01*
X074419Y013084D01*
X07442Y013077D01*
X074421Y01307D01*
X074422Y013063D01*
X074424Y013055D01*
X074427Y013048D01*
X07443Y013042D01*
X074434Y013036D01*
X074438Y013031D01*
X07444Y013029D01*
X074443Y013027D01*
X074446Y013025D01*
X074449Y013024D01*
X074452Y013024D01*
X074455Y013023D01*
X074456D01*
X074457Y013024D01*
X074459Y013024D01*
X074461Y013025D01*
X074464Y013026D01*
X074467Y013028D01*
X07447Y01303D01*
X074474Y013033D01*
X074477Y013038D01*
X074481Y013043D01*
X074484Y013049D01*
X074485Y013053D01*
X074487Y013057D01*
X074488Y013062D01*
X074489Y013066D01*
X07449Y013072D01*
X074491Y013077D01*
X074491Y013083D01*
X074492Y01309D01*
X074492Y013096D01*
Y013104D01*
Y013104D01*
Y013105D01*
Y013106D01*
Y013107D01*
Y013109D01*
X074492Y013111D01*
X074492Y013117D01*
X074491Y013123D01*
X07449Y01313D01*
X074489Y013137D01*
X074488Y013145D01*
X074486Y013153D01*
X074483Y01316D01*
X074481Y013167D01*
X074477Y013173D01*
X074473Y013179D01*
X074471Y013181D01*
X074468Y013183D01*
X074465Y013184D01*
X074462Y013185D01*
X074459Y013186D01*
X074456Y013186D01*
D02*
G37*
G36*
X073951Y013129D02*
X073948D01*
X073945Y013128D01*
X073942Y013127D01*
X073938Y013126D01*
X073934Y013124D01*
X07393Y013121D01*
X073926Y013118D01*
X073925Y013117D01*
X073924Y013116D01*
X073922Y013113D01*
X07392Y01311D01*
X073918Y013106D01*
X073916Y013101D01*
X073914Y013096D01*
X073913Y01309D01*
X073983D01*
Y01309D01*
Y01309D01*
Y013091D01*
Y013093D01*
X073982Y013096D01*
X073982Y0131D01*
X073981Y013105D01*
X073979Y01311D01*
X073977Y013114D01*
X073974Y013118D01*
X073974Y013119D01*
X073972Y01312D01*
X073971Y013122D01*
X073968Y013124D01*
X073965Y013125D01*
X073961Y013127D01*
X073956Y013128D01*
X073951Y013129D01*
D02*
G37*
G36*
X072984Y013127D02*
X072982D01*
X072981Y013126D01*
X072977Y013126D01*
X072973Y013125D01*
X072967Y013123D01*
X072962Y013121D01*
X072957Y013117D01*
X072952Y013113D01*
X072952Y013112D01*
X072951Y01311D01*
X072949Y013107D01*
X072947Y013103D01*
X072944Y013097D01*
X072943Y01309D01*
X072941Y013083D01*
X072941Y013074D01*
Y013074D01*
Y013073D01*
Y013072D01*
X072941Y01307D01*
Y013068D01*
X072941Y013066D01*
X072942Y01306D01*
X072944Y013054D01*
X072946Y013048D01*
X072948Y013042D01*
X072952Y013037D01*
X072953Y013036D01*
X072955Y013035D01*
X072957Y013032D01*
X072961Y01303D01*
X072965Y013028D01*
X072971Y013025D01*
X072977Y013024D01*
X072984Y013023D01*
X072986D01*
X072987Y013024D01*
X072991Y013024D01*
X072995Y013025D01*
X073Y013027D01*
X073005Y013029D01*
X07301Y013032D01*
X073014Y013037D01*
X073015Y013037D01*
X073016Y013039D01*
X073018Y013042D01*
X07302Y013046D01*
X073022Y013052D01*
X073024Y013058D01*
X073025Y013066D01*
X073025Y013075D01*
Y013075D01*
Y013076D01*
Y013077D01*
Y013079D01*
X073025Y013081D01*
X073025Y013083D01*
X073024Y013089D01*
X073023Y013095D01*
X073021Y013101D01*
X073018Y013108D01*
X073014Y013113D01*
X073014Y013114D01*
X073012Y013115D01*
X07301Y013117D01*
X073007Y01312D01*
X073002Y013122D01*
X072997Y013125D01*
X072991Y013126D01*
X072984Y013127D01*
D02*
G37*
G36*
X072818Y013129D02*
X072816D01*
X072813Y013128D01*
X07281Y013127D01*
X072806Y013126D01*
X072802Y013124D01*
X072797Y013121D01*
X072793Y013118D01*
X072793Y013117D01*
X072792Y013116D01*
X07279Y013113D01*
X072788Y01311D01*
X072786Y013106D01*
X072784Y013101D01*
X072782Y013096D01*
X072781Y01309D01*
X07285D01*
Y01309D01*
Y01309D01*
Y013091D01*
Y013093D01*
X07285Y013096D01*
X072849Y0131D01*
X072848Y013105D01*
X072847Y01311D01*
X072845Y013114D01*
X072842Y013118D01*
X072841Y013119D01*
X07284Y01312D01*
X072838Y013122D01*
X072836Y013124D01*
X072832Y013125D01*
X072828Y013127D01*
X072824Y013128D01*
X072818Y013129D01*
D02*
G37*
G36*
X076182Y012394D02*
X076178D01*
X076176Y012394D01*
X076168Y012393D01*
X07616Y012391D01*
X07615Y012388D01*
X07614Y012382D01*
X07613Y012375D01*
X076126Y012371D01*
X076122Y012366D01*
X076121Y012364D01*
X076118Y01236D01*
X076115Y012354D01*
X076111Y012345D01*
X076106Y012334D01*
X076103Y01232D01*
X0761Y012304D01*
X0761Y012286D01*
Y012286D01*
Y012284D01*
Y012282D01*
X0761Y012279D01*
Y012275D01*
X076101Y01227D01*
X076102Y01226D01*
X076105Y012249D01*
X076108Y012237D01*
X076114Y012225D01*
X07612Y012214D01*
X076122Y012213D01*
X076124Y01221D01*
X076129Y012206D01*
X076136Y012201D01*
X076144Y012196D01*
X076154Y012192D01*
X076165Y012189D01*
X076178Y012188D01*
X076181D01*
X076184Y012188D01*
X07619Y012189D01*
X076198Y012191D01*
X076206Y012194D01*
X076216Y012198D01*
X076225Y012204D01*
X076234Y012213D01*
X076234Y012214D01*
X076237Y012218D01*
X07624Y012223D01*
X076245Y012231D01*
X076249Y01224D01*
X076252Y012252D01*
X076255Y012264D01*
X076256Y012278D01*
Y012318D01*
Y012318D01*
Y012319D01*
Y012323D01*
X076254Y012329D01*
X076253Y012336D01*
X07625Y012345D01*
X076247Y012354D01*
X076242Y012363D01*
X076235Y012372D01*
X076234Y012372D01*
X076231Y012375D01*
X076227Y012379D01*
X07622Y012383D01*
X076213Y012387D01*
X076204Y012391D01*
X076194Y012394D01*
X076182Y012394D01*
D02*
G37*
G36*
X072794Y012415D02*
X072793D01*
X072789Y012414D01*
X072783Y012414D01*
X072776Y012411D01*
X072767Y012407D01*
X072758Y012402D01*
X07275Y012394D01*
X072746Y012388D01*
X072742Y012383D01*
Y012382D01*
X072741Y012382D01*
X07274Y01238D01*
X072739Y012378D01*
X072736Y01237D01*
X072732Y012362D01*
X072728Y01235D01*
X072726Y012336D01*
X072723Y012321D01*
X072722Y012304D01*
Y012304D01*
Y012303D01*
Y012299D01*
X072723Y012293D01*
X072724Y012286D01*
X072726Y012278D01*
X072728Y01227D01*
X072731Y012261D01*
X072736Y012254D01*
X072736Y012253D01*
X072738Y012251D01*
X072741Y012248D01*
X072745Y012245D01*
X07275Y012242D01*
X072756Y012238D01*
X072763Y012236D01*
X072771Y012236D01*
X072772D01*
X072776Y012236D01*
X072782Y012238D01*
X07279Y01224D01*
X072798Y012244D01*
X072806Y01225D01*
X072811Y012254D01*
X072815Y012258D01*
X072819Y012263D01*
X072822Y012269D01*
Y01227D01*
X072823Y01227D01*
X072824Y012272D01*
X072825Y012275D01*
X072827Y012278D01*
X072828Y012282D01*
X07283Y012287D01*
X072832Y012292D01*
X072835Y012305D01*
X072838Y01232D01*
X07284Y012338D01*
X072841Y012358D01*
Y012358D01*
Y01236D01*
Y012363D01*
X07284Y012366D01*
X07284Y012371D01*
X072838Y012376D01*
X072835Y012386D01*
X072833Y012392D01*
X07283Y012397D01*
X072826Y012402D01*
X072822Y012406D01*
X072816Y01241D01*
X07281Y012412D01*
X072802Y012414D01*
X072794Y012415D01*
D02*
G37*
G36*
X079303Y012288D02*
X07924Y01228D01*
X079239D01*
X079235Y012279D01*
X07923Y012278D01*
X079223Y012276D01*
X079216Y012274D01*
X079209Y012272D01*
X079202Y012269D01*
X079195Y012265D01*
X079195Y012264D01*
X079193Y012263D01*
X079191Y01226D01*
X079188Y012257D01*
X079185Y012252D01*
X079183Y012246D01*
X079181Y012238D01*
X079181Y012229D01*
Y012228D01*
Y012226D01*
X079181Y012222D01*
X079183Y012218D01*
X079184Y012213D01*
X079186Y012208D01*
X079189Y012202D01*
X079194Y012197D01*
X079195Y012196D01*
X079197Y012195D01*
X0792Y012193D01*
X079204Y012191D01*
X079209Y012189D01*
X079216Y012187D01*
X079223Y012186D01*
X079231Y012185D01*
X079233D01*
X079237Y012186D01*
X079242Y012186D01*
X079249Y012188D01*
X079257Y01219D01*
X079266Y012194D01*
X079275Y0122D01*
X079283Y012207D01*
X079283Y012208D01*
X079286Y012211D01*
X079289Y012216D01*
X079293Y012222D01*
X079297Y01223D01*
X0793Y01224D01*
X079303Y01225D01*
X079303Y012262D01*
Y012288D01*
D02*
G37*
G36*
X079939Y012394D02*
X079935D01*
X079932Y012394D01*
X079925Y012393D01*
X079916Y012391D01*
X079905Y012388D01*
X079895Y012382D01*
X079885Y012376D01*
X079875Y012366D01*
X079875Y012365D01*
X079872Y012361D01*
X079868Y012355D01*
X079864Y012346D01*
X079859Y012335D01*
X079856Y012322D01*
X079853Y012306D01*
X079852Y012289D01*
Y012288D01*
Y012287D01*
Y012284D01*
X079853Y012281D01*
Y012277D01*
X079853Y012272D01*
X079855Y012262D01*
X079858Y01225D01*
X079862Y012238D01*
X079867Y012226D01*
X079875Y012214D01*
X079877Y012213D01*
X07988Y01221D01*
X079885Y012206D01*
X079892Y012201D01*
X079901Y012196D01*
X079912Y012192D01*
X079925Y012189D01*
X079939Y012188D01*
X079943D01*
X079945Y012188D01*
X079953Y012189D01*
X079961Y012191D01*
X079971Y012194D01*
X079981Y012199D01*
X079991Y012206D01*
X08Y012214D01*
X080001Y012216D01*
X080003Y012219D01*
X080007Y012226D01*
X080011Y012234D01*
X080015Y012244D01*
X080019Y012258D01*
X080021Y012273D01*
X080022Y01229D01*
Y012291D01*
Y012292D01*
Y012295D01*
Y012298D01*
X080021Y012303D01*
X080021Y012308D01*
X080019Y012319D01*
X080017Y012331D01*
X080013Y012344D01*
X080007Y012356D01*
X08Y012367D01*
X079999Y012368D01*
X079996Y012371D01*
X079991Y012376D01*
X079985Y012381D01*
X079976Y012386D01*
X079965Y01239D01*
X079953Y012393D01*
X079939Y012394D01*
D02*
G37*
G36*
X076536Y012398D02*
X076531D01*
X076525Y012397D01*
X076519Y012396D01*
X076511Y012393D01*
X076503Y012389D01*
X076494Y012384D01*
X076486Y012376D01*
X076485Y012376D01*
X076483Y012372D01*
X076479Y012368D01*
X076475Y012362D01*
X076471Y012353D01*
X076467Y012344D01*
X076463Y012333D01*
X076461Y01232D01*
X0766D01*
Y012321D01*
Y012322D01*
Y012324D01*
Y012326D01*
X076599Y012333D01*
X076598Y012342D01*
X076596Y012351D01*
X076593Y01236D01*
X076589Y01237D01*
X076583Y012378D01*
X076582Y012378D01*
X076579Y012381D01*
X076576Y012384D01*
X076571Y012388D01*
X076564Y012392D01*
X076556Y012395D01*
X076547Y012398D01*
X076536Y012398D01*
D02*
G37*
G36*
X077279Y012394D02*
X077275D01*
X077273Y012394D01*
X077266Y012393D01*
X077257Y012391D01*
X077247Y012388D01*
X077237Y012382D01*
X077227Y012375D01*
X077223Y012371D01*
X077219Y012366D01*
X077218Y012364D01*
X077215Y01236D01*
X077212Y012354D01*
X077208Y012345D01*
X077203Y012334D01*
X0772Y01232D01*
X077197Y012304D01*
X077197Y012286D01*
Y012285D01*
Y012284D01*
Y012282D01*
X077197Y012278D01*
Y012274D01*
X077198Y01227D01*
X077199Y01226D01*
X077202Y012248D01*
X077205Y012237D01*
X077211Y012225D01*
X077217Y012214D01*
X077219Y012213D01*
X077221Y01221D01*
X077226Y012206D01*
X077233Y012201D01*
X077241Y012196D01*
X07725Y012192D01*
X077261Y012189D01*
X077273Y012188D01*
X077277D01*
X077279Y012188D01*
X077286Y012189D01*
X077294Y012191D01*
X077303Y012194D01*
X077313Y012198D01*
X077322Y012204D01*
X077331Y012213D01*
X077331Y012214D01*
X077334Y012218D01*
X077337Y012223D01*
X077342Y012231D01*
X077346Y01224D01*
X077349Y012252D01*
X077352Y012264D01*
X077353Y012278D01*
Y012318D01*
Y012318D01*
Y012319D01*
Y012323D01*
X077351Y012329D01*
X07735Y012336D01*
X077347Y012344D01*
X077344Y012354D01*
X077339Y012363D01*
X077331Y012372D01*
X077331Y012372D01*
X077327Y012375D01*
X077323Y012379D01*
X077317Y012383D01*
X077309Y012387D01*
X077301Y012391D01*
X077291Y012394D01*
X077279Y012394D01*
D02*
G37*
%LPD*%
D12*
X0732Y0146D02*
D03*
X0946Y0416D02*
D03*
X068346Y034094D02*
D03*
X0496Y0416D02*
D03*
X11485Y02165D02*
D03*
X123693Y03965D02*
D03*
X03135Y01865D02*
D03*
X022443Y03945D02*
D03*
D14*
X047194Y015644D02*
G03*
X0473Y0159I-000256J000256D01*
G01*
X04745Y0165D02*
G03*
X0473Y016138I000362J-000362D01*
G01*
X047727Y014827D02*
G03*
X047959Y015192I-000707J000707D01*
G01*
X047756Y016627D02*
G03*
X04745Y0165I0J-000433D01*
G01*
X0422Y01375D02*
G03*
X042712Y013962I0J000724D01*
G01*
X0131Y0146D02*
G03*
X01395Y01375I00085J0D01*
G01*
X043464Y0143D02*
G03*
X042757Y014007I0J-001D01*
G01*
X046563Y0143D02*
G03*
X04765Y01475I0J001536D01*
G01*
X013413Y020513D02*
G03*
X0131Y019758I000754J-000755D01*
G01*
X013507Y020607D02*
G03*
X0138Y021314I-000707J000707D01*
G01*
X0148Y041916D02*
G03*
X0138Y040916I0J-001D01*
G01*
X014997Y043097D02*
G03*
X0133Y0414I0J-001697D01*
G01*
X013043Y020693D02*
G03*
X0133Y021314I-000621J000621D01*
G01*
X043554Y0139D02*
G03*
X04295Y01365I0J-000854D01*
G01*
X013043Y020693D02*
G03*
X01275Y019986I000707J-000707D01*
G01*
X01275Y014451D02*
G03*
X013815Y0134I001051J-0D01*
G01*
X042346Y0134D02*
G03*
X04295Y01365I0J000854D01*
G01*
X013817Y0134D02*
G03*
X013815Y0134I0J-0002D01*
G01*
X0473Y0159D02*
Y016138D01*
X047Y01545D02*
X047194Y015644D01*
X047756Y016627D02*
X049195D01*
X0495Y0139D02*
X050452D01*
X043554D02*
X0495D01*
X050452D02*
X054352D01*
X04765Y01475D02*
X047727Y014827D01*
X01395Y01375D02*
X0422D01*
X042712Y013962D02*
X042757Y014007D01*
X043464Y0143D02*
X046563D01*
X046563Y0143D01*
X0131Y0146D02*
Y019757D01*
X0131Y019758D02*
X0131Y019757D01*
X013413Y020513D02*
X013507Y020607D01*
X0138Y021314D02*
Y040916D01*
X0148Y041916D02*
X034431D01*
X014997Y043097D02*
X034431D01*
X0133Y021314D02*
Y0414D01*
X01275Y014452D02*
Y019986D01*
X01275Y014451D02*
X01275Y014452D01*
X013817Y0134D02*
X042346D01*
X048428Y018959D02*
X048428D01*
Y020381D01*
X046972Y018959D02*
Y020381D01*
X034431Y043097D02*
X0355D01*
X034431Y041916D02*
X0355D01*
D15*
X046315Y0148D02*
G03*
X047143Y015143I0J001171D01*
G01*
X048164Y01575D02*
G03*
X047457Y015457I0J-001D01*
G01*
X086577Y01555D02*
G03*
X0858Y01635I-000777J000022D01*
G01*
X046536Y0146D02*
G03*
X047243Y014893I0J001D01*
G01*
X049937Y015213D02*
G03*
X049244Y0155I-000692J-000692D01*
G01*
X086577Y01555D02*
G03*
X088277Y01385I0017J0D01*
G01*
X048005Y0155D02*
G03*
X047741Y015391I0J-000373D01*
G01*
X0355Y04609D02*
G03*
X035483Y046107I-000017J0D01*
G01*
X05035Y0175D02*
G03*
X04955Y0183I-0008J0D01*
G01*
X039233Y039853D02*
G03*
X03894Y04056I-001J0D01*
G01*
X04585Y019735D02*
G03*
X044685Y0209I-001165J0D01*
G01*
X0456Y019669D02*
G03*
X044669Y0206I-000931J0D01*
G01*
X012983Y044605D02*
G03*
X013918Y04367I000935J0D01*
G01*
X0461Y018774D02*
G03*
X046574Y0183I000474J0D01*
G01*
X05155Y02185D02*
G03*
X0506Y0209I0J-00095D01*
G01*
X0519Y02185D02*
G03*
X05255Y0225I0J00065D01*
G01*
X045124Y023025D02*
G03*
X044554Y023594I-000569J0D01*
G01*
X045124Y021647D02*
G03*
X04535Y0211I000773J0D01*
G01*
X0461Y019936D02*
G03*
X045807Y020643I-001J0D01*
G01*
X0456Y0187D02*
G03*
X0465Y0178I0009J0D01*
G01*
X0506Y016284D02*
G03*
X051034Y01585I000434J0D01*
G01*
X05015Y016058D02*
G03*
X050958Y01525I000808J0D01*
G01*
X05015Y01745D02*
G03*
X04955Y01805I-0006J0D01*
G01*
X04995Y0173D02*
G03*
X04945Y0178I-0005J0D01*
G01*
X04995Y016D02*
G03*
X051Y01495I00105J0D01*
G01*
X05035Y016172D02*
G03*
X050972Y01555I000622J0D01*
G01*
X047687Y024113D02*
G03*
X048909Y023607I001221J00122D01*
G01*
X05255Y023415D02*
G03*
X052358Y023607I-000192J0D01*
G01*
X038024Y04185D02*
G03*
X038289Y041211I000903J0D01*
G01*
X04585Y0187D02*
G03*
X0465Y01805I00065J0D01*
G01*
X094236Y01385D02*
G03*
X095236Y01485I0J001D01*
G01*
X067903Y01635D02*
G03*
X067126Y01555I0J-000778D01*
G01*
X03996Y01589D02*
G03*
X039448Y016102I-000512J-000512D01*
G01*
X065426Y01385D02*
G03*
X067126Y01555I0J0017D01*
G01*
X057657Y014143D02*
G03*
X058364Y01385I000707J000707D01*
G01*
X057443Y014357D02*
G03*
X056736Y01465I-000707J-000707D01*
G01*
X050207Y014943D02*
G03*
X050914Y01465I000707J000707D01*
G01*
X0427Y01495D02*
G03*
X043062Y0148I000362J000362D01*
G01*
X0427Y01495D02*
G03*
X042217Y01515I-000483J-000483D01*
G01*
X048917Y01575D02*
G03*
X0494Y01595I0J000683D01*
G01*
X040807Y015043D02*
G03*
X041876Y0146I001069J001069D01*
G01*
X039987Y02755D02*
G03*
X041108Y028671I0J001121D01*
G01*
X040413Y023887D02*
G03*
X04112Y023594I000707J000707D01*
G01*
X041108Y034078D02*
G03*
X040815Y034785I-001J0D01*
G01*
X038024Y04348D02*
G03*
X036954Y04455I-00107J0D01*
G01*
X0355Y044972D02*
G03*
X035922Y04455I000422J0D01*
G01*
X039233Y036781D02*
G03*
X039526Y036074I001J0D01*
G01*
X039666Y024634D02*
G03*
X037952Y025345I-001714J-001713D01*
G01*
X02725Y026166D02*
G03*
X028071Y025345I000821J0D01*
G01*
X02815Y02755D02*
G03*
X02725Y02665I0J-0009D01*
G01*
X037585Y043402D02*
G03*
X036837Y04415I-000748J0D01*
G01*
X036781Y04085D02*
G03*
X037585Y041654I0J000804D01*
G01*
X034914Y04085D02*
G03*
X034207Y040557I0J-001D01*
G01*
X032144Y04415D02*
G03*
X03183Y04402I0J-000444D01*
G01*
X033717Y04035D02*
G03*
X0342Y04055I0J000683D01*
G01*
X03154Y0439D02*
G03*
X03183Y04402I0J00041D01*
G01*
X029858Y024131D02*
G03*
X029139Y02485I-000719J0D01*
G01*
X028748Y0186D02*
G03*
X029858Y019709I000001J001109D01*
G01*
X025313Y04035D02*
G03*
X024233Y03927I0J-00108D01*
G01*
X026108Y034078D02*
G03*
X025815Y034785I-001J0D01*
G01*
X024233Y036781D02*
G03*
X024526Y036074I001J0D01*
G01*
X020483Y044393D02*
G03*
X020624Y044052I000481J-000001D01*
G01*
X0267Y028486D02*
G03*
X026407Y029193I-001J0D01*
G01*
X0267Y025831D02*
G03*
X027681Y02485I000981J0D01*
G01*
X027414Y0186D02*
G03*
X026707Y018307I0J-001D01*
G01*
X025918Y017961D02*
G03*
X026707Y018307I-0J001074D01*
G01*
X026108Y029905D02*
G03*
X0264Y0292I000996J0D01*
G01*
X024391Y017961D02*
G03*
X023296Y016866I0J-001095D01*
G01*
X037348Y043327D02*
G03*
X036735Y04394I-000613J0D01*
G01*
X036751Y0411D02*
G03*
X037348Y041697I0J000597D01*
G01*
X034683Y0411D02*
G03*
X0342Y0409I0J-000683D01*
G01*
X033596Y04065D02*
G03*
X0342Y0409I0J000854D01*
G01*
X032247Y04394D02*
G03*
X031945Y043815I0J-000428D01*
G01*
X031602Y04367D02*
G03*
X03194Y04381I0J000478D01*
G01*
X016154Y04065D02*
G03*
X014858Y039355I0J-001295D01*
G01*
X015796Y03189D02*
G03*
X015503Y032597I-001J0D01*
G01*
X014858Y033656D02*
G03*
X015151Y032949I001J0D01*
G01*
X017671Y024804D02*
G03*
X017122Y026128I-001871J0D01*
G01*
X015796Y028254D02*
G03*
X016362Y026888I001931J-0D01*
G01*
X014844Y020444D02*
G03*
X013921Y018215I002228J-002229D01*
G01*
X027983Y044504D02*
G03*
X028357Y04411I000394J-000001D01*
G01*
Y04411D02*
G03*
X028361Y04411I000004J0001D01*
G01*
X032271Y024529D02*
G03*
X030894Y0251I-001377J-001375D01*
G01*
X028001Y0278D02*
G03*
X027Y026799I0J-001001D01*
G01*
Y026047D02*
G03*
X027947Y0251I000947J0D01*
G01*
X032457Y0278D02*
G03*
X033608Y028951I0J001151D01*
G01*
X033671Y0186D02*
G03*
X032671Y0176I0J-001D01*
G01*
X031733Y036781D02*
G03*
X032026Y036074I001J0D01*
G01*
X03141Y04411D02*
G03*
X0317Y04423I0J00041D01*
G01*
X03199Y04435D02*
G03*
X0317Y04423I0J-00041D01*
G01*
X032424Y04005D02*
G03*
X031931Y039845I0J-000698D01*
G01*
X036789Y0186D02*
G03*
X037624Y019434I0J000834D01*
G01*
Y023025D02*
G03*
X037054Y023594I-000569J0D01*
G01*
X032736Y024064D02*
G03*
X03387Y023594I001134J001133D01*
G01*
X033608Y034078D02*
G03*
X033315Y034785I-001J0D01*
G01*
X033817Y04005D02*
G03*
X0343Y04025I0J000683D01*
G01*
X035064Y0406D02*
G03*
X034357Y040307I0J-001D01*
G01*
X037806Y04343D02*
G03*
X036886Y04435I-00092J0D01*
G01*
X044858Y023607D02*
G03*
X04485Y023599I0J-000008D01*
G01*
X06015Y023037D02*
G03*
X059581Y023607I-000569J0D01*
G01*
X10965Y026622D02*
G03*
X108772Y0275I-000878J0D01*
G01*
X093608Y028582D02*
G03*
X09469Y0275I001082J0D01*
G01*
X108861Y0254D02*
G03*
X10965Y026189I0J000789D01*
G01*
X100764Y0254D02*
G03*
X100057Y025107I0J-001D01*
G01*
X093608Y034078D02*
G03*
X093315Y034785I-001J0D01*
G01*
X099336Y0248D02*
G03*
X100043Y025093I0J001D01*
G01*
X098551Y0248D02*
G03*
X097358Y023607I0J-001193D01*
G01*
Y017458D02*
G03*
X097651Y016751I001J0D01*
G01*
X091733Y040388D02*
G03*
X091324Y041376I-001397J0D01*
G01*
X087983Y045272D02*
G03*
X088376Y044324I00134J-0D01*
G01*
X091733Y036781D02*
G03*
X092026Y036074I001J0D01*
G01*
X116108Y041967D02*
G03*
X115489Y043461I-002112J0D01*
G01*
X114233Y045272D02*
G03*
X114626Y044324I00134J-0D01*
G01*
X117983Y0241D02*
G03*
X11737Y02558I-002092J0D01*
G01*
X114243Y034943D02*
G03*
X113296Y032656I002282J-002284D01*
G01*
X113296Y030427D02*
G03*
X113842Y029108I001864J-0D01*
G01*
X12395Y027986D02*
G03*
X123657Y028693I-001J0D01*
G01*
X123738Y020388D02*
G03*
X12395Y0209I-000512J000512D01*
G01*
X12371Y036328D02*
G03*
X12345Y0357I000627J-000627D01*
G01*
X12445Y030786D02*
G03*
X124157Y031493I-001J0D01*
G01*
X12345Y032614D02*
G03*
X123743Y031907I001J0D01*
G01*
X125731Y041631D02*
G03*
X126024Y042338I-000707J000707D01*
G01*
X125293Y041193D02*
G03*
X125Y040486I000707J-000707D01*
G01*
Y030986D02*
G03*
X124707Y031693I-001J0D01*
G01*
X12485Y03675D02*
G03*
X125Y037112I-000362J000362D01*
G01*
X124285Y036185D02*
G03*
X124Y035496I000689J-000689D01*
G01*
X124Y032814D02*
G03*
X124293Y032107I001J0D01*
G01*
X1265Y043686D02*
G03*
X126207Y044393I-001J0D01*
G01*
X125483Y045531D02*
G03*
X125776Y044824I001J0D01*
G01*
X125961Y041061D02*
G03*
X125483Y039907I001153J-001154D01*
G01*
X12519Y03614D02*
G03*
X125483Y036847I-000707J000707D01*
G01*
Y031266D02*
G03*
X1252Y03195I-000967J0D01*
G01*
X1245Y03305D02*
G03*
X124783Y032367I000966J0D01*
G01*
X124793Y035743D02*
G03*
X1245Y035036I000707J-000707D01*
G01*
X063608Y034078D02*
G03*
X063315Y034785I-001J0D01*
G01*
X061733Y036781D02*
G03*
X062026Y036074I001J0D01*
G01*
X062573Y0268D02*
G03*
X063608Y027835I0J001035D01*
G01*
X061733Y040388D02*
G03*
X061324Y041376I-001397J0D01*
G01*
X057983Y045272D02*
G03*
X058376Y044324I00134J-0D01*
G01*
X061533Y025267D02*
G03*
X059884Y02595I-001648J-001648D01*
G01*
X028Y026385D02*
G03*
X028435Y02595I000435J0D01*
G01*
X028415Y0268D02*
G03*
X028Y026385I0J-000415D01*
G01*
X1089Y026384D02*
G03*
X108534Y02675I-000366J0D01*
G01*
X071108Y027794D02*
G03*
X072152Y02675I001044J0D01*
G01*
X108516Y026D02*
G03*
X1089Y026384I0J000384D01*
G01*
X071108Y034078D02*
G03*
X070815Y034785I-001J0D01*
G01*
X079155Y026D02*
G03*
X077951Y025501I0J-001701D01*
G01*
X076836Y0248D02*
G03*
X077543Y025093I0J001D01*
G01*
X076051Y0248D02*
G03*
X074858Y023607I0J-001193D01*
G01*
X069233Y040388D02*
G03*
X068824Y041376I-001397J0D01*
G01*
X065483Y045272D02*
G03*
X065876Y044324I00134J-0D01*
G01*
X069233Y036781D02*
G03*
X069526Y036074I001J0D01*
G01*
X10915Y02648D02*
G03*
X10863Y027I-00052J0D01*
G01*
X108597Y0258D02*
G03*
X10915Y026353I0J000553D01*
G01*
X086395Y0258D02*
G03*
X085293Y025343I0J-001558D01*
G01*
X078608Y034078D02*
G03*
X078315Y034785I-001J0D01*
G01*
X078608Y028109D02*
G03*
X079718Y027I001109J0D01*
G01*
X084336Y0248D02*
G03*
X085043Y025093I0J001D01*
G01*
X083551Y0248D02*
G03*
X082358Y023607I0J-001193D01*
G01*
X076733Y040388D02*
G03*
X076324Y041376I-001397J0D01*
G01*
X072983Y045272D02*
G03*
X073376Y044324I00134J-0D01*
G01*
X076733Y036781D02*
G03*
X077026Y036074I001J0D01*
G01*
X1094Y026559D02*
G03*
X108709Y02725I-000691J0D01*
G01*
X108706Y0256D02*
G03*
X1094Y026294I0J000694D01*
G01*
X093657Y0256D02*
G03*
X09262Y02517I0J-001467D01*
G01*
X086108Y034078D02*
G03*
X085815Y034785I-001J0D01*
G01*
X086108Y028305D02*
G03*
X087164Y02725I001055J0D01*
G01*
X091836Y0248D02*
G03*
X092543Y025093I0J001D01*
G01*
X091051Y0248D02*
G03*
X089858Y023607I0J-001193D01*
G01*
X089565Y016751D02*
G03*
X089858Y017458I-000707J000707D01*
G01*
X084233Y040388D02*
G03*
X083824Y041376I-001397J0D01*
G01*
X080483Y045272D02*
G03*
X080876Y044324I00134J-0D01*
G01*
X084233Y036781D02*
G03*
X084526Y036074I001J0D01*
G01*
X062687Y024113D02*
G03*
X063909Y023607I001221J00122D01*
G01*
X106957Y021557D02*
G03*
X10725Y022264I-000707J000707D01*
G01*
X028254Y0273D02*
G03*
X0275Y026546I0J-000754D01*
G01*
Y026249D02*
G03*
X028199Y02555I000699J0D01*
G01*
X047438Y0273D02*
G03*
X048608Y028471I0J001171D01*
G01*
X028338Y02705D02*
G03*
X02775Y026462I0J-000589D01*
G01*
Y02635D02*
G03*
X02835Y02575I0006J0D01*
G01*
X054953Y02705D02*
G03*
X056108Y028205I0J001155D01*
G01*
X108767Y02515D02*
G03*
X10725Y023633I0J-001517D01*
G01*
X1099Y026744D02*
G03*
X108894Y02775I-001006J0D01*
G01*
X101108Y028926D02*
G03*
X102284Y02775I001176J0D01*
G01*
X108814Y02475D02*
G03*
X11015Y026086I0J001336D01*
G01*
Y028032D02*
G03*
X109607Y029343I-001854J-0D01*
G01*
X108963Y02515D02*
G03*
X1099Y026087I0J000937D01*
G01*
X107671Y022389D02*
G03*
X107996Y021604I001109J-0D01*
G01*
X108814Y02475D02*
G03*
X107671Y023607I0J-001143D01*
G01*
X124157Y019957D02*
G03*
X12445Y020664I-000707J000707D01*
G01*
X12475Y0197D02*
G03*
X125Y020304I-000604J000604D01*
G01*
X125961Y041061D02*
G03*
X1265Y042361I-001298J0013D01*
G01*
X06015Y017164D02*
G03*
X060443Y016457I001J0D01*
G01*
X055187Y024113D02*
G03*
X056409Y023607I001221J00122D01*
G01*
X110483Y018453D02*
G03*
X110014Y019586I-001604J-0D01*
G01*
X106733Y040388D02*
G03*
X106324Y041376I-001397J0D01*
G01*
X106733Y036781D02*
G03*
X107026Y036074I001J0D01*
G01*
X102983Y045272D02*
G03*
X103376Y044324I00134J-0D01*
G01*
X108608Y034078D02*
G03*
X108315Y034785I-001J0D01*
G01*
X108608Y030756D02*
G03*
X108901Y030049I001J0D01*
G01*
X054357Y024943D02*
G03*
X052408Y02575I-001949J-001948D01*
G01*
X046927Y024873D02*
G03*
X045293Y02555I-001633J-001632D01*
G01*
X050483Y045272D02*
G03*
X050876Y044324I00134J-0D01*
G01*
X042983Y045272D02*
G03*
X043376Y044324I00134J-0D01*
G01*
X115286Y035986D02*
G03*
X116108Y037971I-001984J001985D01*
G01*
X101108Y034078D02*
G03*
X100815Y034785I-001J0D01*
G01*
X095483Y045272D02*
G03*
X095876Y044324I00134J-0D01*
G01*
X099233Y040388D02*
G03*
X098824Y041376I-001397J0D01*
G01*
X099233Y036781D02*
G03*
X099526Y036074I001J0D01*
G01*
X054233Y036781D02*
G03*
X054526Y036074I001J0D01*
G01*
X054233Y040388D02*
G03*
X053824Y041376I-001397J0D01*
G01*
X056108Y034078D02*
G03*
X055815Y034785I-001J0D01*
G01*
X046733Y036781D02*
G03*
X047026Y036074I001J0D01*
G01*
X048608Y034078D02*
G03*
X048315Y034785I-001J0D01*
G01*
X046733Y040388D02*
G03*
X046324Y041376I-001397J0D01*
G01*
X036871Y0406D02*
G03*
X037806Y041534I000002J000934D01*
G01*
X031931Y039845D02*
G03*
X031733Y039367I000478J-000477D01*
G01*
X020624Y044052D02*
G03*
X020991Y0439I000367J000367D01*
G01*
X017433Y023033D02*
G03*
X017671Y023607I-000574J000574D01*
G01*
X047143Y015143D02*
X047457Y015457D01*
X043062Y0148D02*
X046315D01*
X048164Y01575D02*
X048917D01*
X047243Y014893D02*
X047741Y015391D01*
X048005Y0155D02*
X049244D01*
X05035Y016172D02*
Y0175D01*
X038289Y041211D02*
X03894Y04056D01*
X039233Y038607D02*
Y039853D01*
X046574Y0183D02*
X04955D01*
X04585Y0187D02*
Y019735D01*
X0382Y0209D02*
X044685D01*
X03875Y0206D02*
X044669D01*
X0456Y0187D02*
Y019669D01*
X013918Y04367D02*
X014641D01*
X012983Y044605D02*
Y046107D01*
X014641Y04367D02*
X014641Y04367D01*
X031602D01*
X0461Y018774D02*
Y019936D01*
X05155Y02185D02*
X0519D01*
X0506Y016284D02*
Y0209D01*
X05255Y0225D02*
Y023415D01*
X045124Y021647D02*
Y023025D01*
X04535Y0211D02*
X045807Y020643D01*
X051034Y01585D02*
X052087D01*
X05015Y016058D02*
Y01745D01*
X04995Y016D02*
Y0173D01*
X050972Y01555D02*
X052402D01*
X050958Y01525D02*
X052717D01*
X051Y01495D02*
X053032D01*
X048909Y023607D02*
X052358D01*
X0465Y0178D02*
X04945D01*
X0465Y01805D02*
X04955D01*
X095236Y01485D02*
Y01555D01*
X088277Y01385D02*
X094236D01*
X067903Y01635D02*
X0858D01*
X067903D02*
X067903D01*
X050914Y01465D02*
X053347D01*
X057443Y014357D02*
X057657Y014143D01*
X058364Y01385D02*
X065426D01*
X053347Y01465D02*
X056736D01*
X03996Y01589D02*
X040807Y015043D01*
X049937Y015213D02*
X050207Y014943D01*
X049937Y015213D02*
X049937Y015213D01*
X041876Y0146D02*
X046536D01*
X0421Y01515D02*
X042217D01*
X04112Y023594D02*
X044554D01*
X041108Y031107D02*
Y034078D01*
X039526Y036074D02*
X040815Y034785D01*
X039666Y024634D02*
X040413Y023887D01*
X039666Y024634D02*
X039666Y024634D01*
X038024Y04185D02*
Y04348D01*
X035922Y04455D02*
X036954D01*
X0355Y044972D02*
Y04609D01*
X039233Y036781D02*
Y038607D01*
X02815Y02755D02*
X039987D01*
X02725Y026166D02*
Y02665D01*
X037951Y025345D02*
X037952Y025345D01*
X028071Y025345D02*
X037951D01*
X037585Y041654D02*
Y043402D01*
X032144Y04415D02*
X036837D01*
X034914Y04085D02*
X036781D01*
X0342Y04055D02*
X034207Y040557D01*
X029858Y024131D02*
X029858Y02413D01*
X029858Y019709D02*
Y023605D01*
X028748Y0186D02*
X028748Y0186D01*
X025313Y04035D02*
X033717D01*
X020991Y0439D02*
X03154D01*
X026108Y031107D02*
Y034078D01*
X024526Y036074D02*
X025815Y034785D01*
X020483Y044393D02*
X020483D01*
X024233Y038607D02*
Y03927D01*
Y036781D02*
Y038607D01*
X0267Y025831D02*
Y028486D01*
X0264Y0292D02*
X026407Y029193D01*
X027681Y02485D02*
X029139D01*
X027414Y0186D02*
X028748D01*
X026108Y029905D02*
Y031107D01*
X024391Y017961D02*
X025918D01*
X023296Y016107D02*
Y016866D01*
X037348Y041697D02*
Y043327D01*
X032247Y04394D02*
X036735D01*
X034683Y0411D02*
X036751D01*
X03194Y04381D02*
X031945Y043815D01*
X017671Y024804D02*
X017671Y024804D01*
X016154Y04065D02*
X033596D01*
X015151Y032949D02*
X015503Y032597D01*
X015796Y031107D02*
Y03189D01*
X014858Y033656D02*
Y038607D01*
Y039355D01*
X017122Y026128D02*
X017122Y026128D01*
X016362Y026888D02*
X016362Y026888D01*
X014844Y020444D02*
X017433Y023033D01*
X015796Y028254D02*
X015796Y028255D01*
X013921Y018215D02*
X013921Y018214D01*
X031733Y036781D02*
Y039367D01*
X032271Y024529D02*
X032271D01*
X028361Y04411D02*
X03141D01*
X035064Y0406D02*
X036871D01*
X028357Y04411D02*
Y04411D01*
X037624Y019434D02*
Y023025D01*
X027947Y0251D02*
X030894D01*
X032271Y024529D02*
X032271Y024529D01*
X027Y026047D02*
Y026799D01*
X028001Y0278D02*
X032457D01*
X032271Y024529D02*
X032736Y024064D01*
X032026Y036074D02*
X033315Y034785D01*
X032671Y016107D02*
Y0176D01*
X027983Y044504D02*
X027983D01*
X032424Y04005D02*
X033817D01*
X03199Y04435D02*
X036886D01*
X033671Y0186D02*
X036789D01*
X032736Y024064D02*
X032736Y024064D01*
X03387Y023594D02*
X033871Y023594D01*
X033608Y031107D02*
Y034078D01*
X033871Y023594D02*
X037054D01*
X0343Y04025D02*
X034357Y040307D01*
X037806Y041534D02*
Y04343D01*
X10965Y026189D02*
Y026622D01*
X09469Y0275D02*
X108772D01*
X100764Y0254D02*
X108861D01*
X093608Y031107D02*
Y034078D01*
X091733Y036781D02*
Y038607D01*
X092026Y036074D02*
X093315Y034785D01*
X093608Y028582D02*
Y031107D01*
X100043Y025093D02*
X100057Y025107D01*
X098551Y0248D02*
X099336D01*
X097651Y016751D02*
X098296Y016107D01*
X097358Y017458D02*
Y023607D01*
X091733Y040388D02*
X091733Y040387D01*
X091323Y041377D02*
X091324Y041376D01*
X088376Y044324D02*
X088376Y044324D01*
X087983Y045272D02*
X087983Y045272D01*
X116108Y041967D02*
X116108Y041966D01*
X115489Y043461D02*
X115489Y043461D01*
X114233Y045272D02*
X114233Y045272D01*
X114626Y044324D02*
X115489Y043461D01*
X117983Y016107D02*
Y023607D01*
X11737Y02558D02*
X11737Y02558D01*
X113842Y029108D02*
X113842Y029108D01*
X117983Y0241D02*
X117983Y0241D01*
X113296Y032656D02*
X113296Y032656D01*
X113296Y030427D02*
X113296Y030427D01*
X1235Y02885D02*
X123657Y028693D01*
X12395Y0209D02*
Y027986D01*
X12355Y0202D02*
X123738Y020388D01*
X123743Y031907D02*
X124157Y031493D01*
X12345Y032614D02*
Y0357D01*
X125293Y041193D02*
X125731Y041631D01*
X125Y037112D02*
Y040486D01*
Y020304D02*
Y030986D01*
X124285Y036185D02*
X12485Y03675D01*
X124Y035496D02*
X124Y035496D01*
Y032814D02*
Y035496D01*
X124293Y032107D02*
X124707Y031693D01*
X125776Y044824D02*
X126207Y044393D01*
X1265Y042361D02*
Y043686D01*
X125483Y045531D02*
Y046107D01*
X125483Y039907D02*
X125483Y039907D01*
Y031107D02*
Y031266D01*
X124793Y035743D02*
X12519Y03614D01*
X124783Y032367D02*
X1252Y03195D01*
X125483Y016107D02*
Y023607D01*
X1245Y03305D02*
Y035036D01*
X063608Y031107D02*
Y034078D01*
X062026Y036074D02*
X063315Y034785D01*
X061733Y040388D02*
X061733Y040387D01*
Y036781D02*
Y038607D01*
X061323Y041377D02*
X061324Y041376D01*
X057983Y045272D02*
X057983Y045272D01*
X058376Y044324D02*
X058376Y044324D01*
X059884Y02595D02*
X059884Y02595D01*
X028415Y0268D02*
X062573D01*
X061533Y025267D02*
X061533Y025267D01*
X028435Y02595D02*
X059884D01*
X072152Y02675D02*
X108534D01*
X079155Y026D02*
X108516D01*
X079155D02*
X079155D01*
X071108Y031107D02*
Y034078D01*
Y027794D02*
Y031107D01*
X077543Y025093D02*
X077951Y025501D01*
X076051Y0248D02*
X076836D01*
X068823Y041377D02*
X068824Y041376D01*
X069233Y040388D02*
X069233Y040387D01*
X065483Y045272D02*
X065483Y045272D01*
X065876Y044324D02*
X065876Y044324D01*
X069526Y036074D02*
X070815Y034785D01*
X069233Y036781D02*
Y038607D01*
X10915Y026353D02*
Y02648D01*
X079718Y027D02*
X10863D01*
X086395Y0258D02*
X108597D01*
X078608Y031107D02*
Y034078D01*
Y028109D02*
Y031107D01*
X085043Y025093D02*
X085293Y025343D01*
X083551Y0248D02*
X084336D01*
X076323Y041377D02*
X076324Y041376D01*
X076733Y040388D02*
X076733Y040387D01*
X072983Y045272D02*
X072983Y045272D01*
X073376Y044324D02*
X073376Y044324D01*
X077026Y036074D02*
X078315Y034785D01*
X076733Y036781D02*
Y038607D01*
X1094Y026294D02*
Y026559D01*
X087164Y02725D02*
X108709D01*
X093657Y0256D02*
X108706D01*
X086108Y031107D02*
Y034078D01*
X092543Y025093D02*
X09262Y02517D01*
X086108Y028305D02*
Y031107D01*
X091051Y0248D02*
X091836D01*
X089858Y017458D02*
Y023607D01*
X088921Y016107D02*
X089565Y016751D01*
X083823Y041377D02*
X083824Y041376D01*
X084233Y040388D02*
X084233Y040387D01*
X080876Y044324D02*
X080876Y044324D01*
X080483Y045272D02*
X080483Y045272D01*
X084233Y036781D02*
Y038607D01*
X084526Y036074D02*
X085815Y034785D01*
X063608Y027835D02*
Y031107D01*
X061533Y025267D02*
X062687Y024113D01*
X063909Y023607D02*
X067358D01*
X058376Y044324D02*
X061323Y041377D01*
X061733Y038607D02*
Y040387D01*
X057983Y045272D02*
Y046107D01*
X1069Y0215D02*
X106957Y021557D01*
X033608Y028951D02*
Y031107D01*
X041108Y028671D02*
Y031107D01*
X0275Y026249D02*
Y026546D01*
X028254Y0273D02*
X047438D01*
X028199Y02555D02*
X045293D01*
X048608Y028471D02*
Y031107D01*
X028338Y02705D02*
X054953D01*
X02775Y02635D02*
Y026462D01*
X02835Y02575D02*
X052408D01*
X056108Y028205D02*
Y031107D01*
X108767Y02515D02*
X108963D01*
X10725Y022264D02*
Y023633D01*
X102284Y02775D02*
X108894D01*
X1099Y026087D02*
Y026744D01*
X101108Y028926D02*
Y031107D01*
X11015Y026086D02*
Y028032D01*
X101108Y031107D02*
Y034078D01*
X107671Y022389D02*
Y023607D01*
X107671Y022389D02*
X107671Y022389D01*
X12445Y020664D02*
Y030786D01*
X126024Y042338D02*
Y043858D01*
X060443Y016457D02*
X0608Y0161D01*
X06015Y017164D02*
Y023037D01*
X056409Y023607D02*
X059581D01*
X107996Y021604D02*
X107996Y021604D01*
X110014Y019586D01*
X110483Y016107D02*
Y018453D01*
X125483Y036847D02*
Y038607D01*
Y039907D01*
Y023607D02*
Y031107D01*
X113296Y030427D02*
Y031107D01*
X113842Y029108D02*
X11737Y02558D01*
X117983Y023607D02*
Y0241D01*
X108901Y030049D02*
X109607Y029343D01*
X106733Y036781D02*
Y038607D01*
X106733Y040388D02*
X106733Y040387D01*
X107026Y036074D02*
X108315Y034785D01*
X102983Y045272D02*
X102983Y045272D01*
X106323Y041377D02*
X106324Y041376D01*
X103376Y044324D02*
X103376Y044324D01*
X108608Y030756D02*
Y033366D01*
X108608Y033367D02*
Y034078D01*
X088376Y044324D02*
X091323Y041377D01*
X065876Y044324D02*
X068823Y041377D01*
X073376Y044324D02*
X076323Y041377D01*
X108608Y033366D02*
X108608Y033367D01*
X029858Y023607D02*
Y02413D01*
X054358Y024942D02*
X055187Y024113D01*
X054357Y024943D02*
X054358Y024942D01*
X052408Y02575D02*
X052408Y02575D01*
X046927Y024873D02*
X047687Y024113D01*
X046927Y024873D02*
X046927Y024873D01*
X045293Y02555D02*
X045293Y02555D01*
X050876Y044324D02*
X053823Y041377D01*
X050876Y044324D02*
X050876Y044324D01*
X043376Y044324D02*
X043376Y044324D01*
X043376D02*
X046323Y041377D01*
X056108Y031107D02*
Y034078D01*
X048608Y031107D02*
Y034078D01*
X113296Y031107D02*
Y032656D01*
X114243Y034943D02*
X115286Y035986D01*
X116108Y037971D02*
Y038607D01*
Y041966D01*
X114233Y045272D02*
Y046107D01*
X102983Y045272D02*
Y046107D01*
X106733Y038607D02*
Y040387D01*
X103376Y044324D02*
X106323Y041377D01*
X099526Y036074D02*
X100815Y034785D01*
X095876Y044324D02*
X095876Y044324D01*
X098823Y041377D02*
X098824Y041376D01*
X099233Y040388D02*
X099233Y040387D01*
Y036781D02*
Y038607D01*
X095876Y044324D02*
X098823Y041377D01*
X095483Y045272D02*
Y046107D01*
X095483Y045272D02*
X095483Y045272D01*
X099233Y038607D02*
Y040387D01*
X091733Y038607D02*
Y040387D01*
X087983Y045272D02*
Y046107D01*
X080483Y045272D02*
Y046107D01*
X080876Y044324D02*
X083823Y041377D01*
X084233Y038607D02*
Y040387D01*
X072983Y045272D02*
Y046107D01*
X076733Y038607D02*
Y040387D01*
X065483Y045272D02*
Y046107D01*
X069233Y038607D02*
Y040387D01*
X053823Y041377D02*
X053824Y041376D01*
X054526Y036074D02*
X055815Y034785D01*
X050483Y045272D02*
Y046107D01*
X054233Y038607D02*
Y040387D01*
X050483Y045272D02*
X050483Y045272D01*
X054233Y036781D02*
Y038607D01*
X054233Y040388D02*
X054233Y040387D01*
X042983Y045272D02*
X042983Y045272D01*
X046323Y041377D02*
X046324Y041376D01*
X047026Y036074D02*
X048315Y034785D01*
X042983Y045272D02*
Y046107D01*
X046733Y038607D02*
Y040387D01*
X046733Y040388D02*
X046733Y040387D01*
Y036781D02*
Y038607D01*
X027983Y044504D02*
Y046107D01*
X020483Y044393D02*
Y046107D01*
X017671Y023607D02*
Y024804D01*
X016362Y026888D02*
X017122Y026128D01*
X015796Y028255D02*
Y031107D01*
X013921Y016107D02*
Y018214D01*
D16*
X05511Y017538D02*
G03*
X055129Y017545I0J000026D01*
G01*
X05315Y0177D02*
G03*
X053542Y017538I000392J000392D01*
G01*
X05315Y0177D02*
G03*
X052688Y017891I-000462J-000462D01*
G01*
X053542Y017538D02*
X05511D01*
X051451Y017891D02*
X052688D01*
D17*
X047Y01545D02*
D03*
X047959Y015192D02*
D03*
X055129Y017545D02*
D03*
X031733Y038607D02*
D03*
X052087Y01585D02*
D03*
X052402Y01555D02*
D03*
X052717Y01525D02*
D03*
X053032Y01495D02*
D03*
X095236Y01555D02*
D03*
X0421Y01515D02*
D03*
X0494Y01595D02*
D03*
X051451Y017891D02*
D03*
X054352Y0139D02*
D03*
X04765Y01475D02*
D03*
X0495Y0139D02*
D03*
X050452D02*
D03*
X049195Y016627D02*
D03*
X039448Y016102D02*
D03*
X067126Y01555D02*
D03*
X046972Y020381D02*
D03*
Y018959D02*
D03*
X048428D02*
D03*
X048428Y020381D02*
D03*
X03875Y0206D02*
D03*
X0382Y0209D02*
D03*
X053347Y01465D02*
D03*
X02985Y02035D02*
D03*
X057983Y046107D02*
D03*
X067358Y023607D02*
D03*
X061733Y038607D02*
D03*
X063608Y031107D02*
D03*
X106957Y021557D02*
D03*
X117985Y020476D02*
D03*
X12355Y0202D02*
D03*
X124157Y019957D02*
D03*
X12475Y0197D02*
D03*
X125484Y019536D02*
D03*
X0355Y043097D02*
D03*
X034431D02*
D03*
Y041916D02*
D03*
X0355D02*
D03*
X1235Y02885D02*
D03*
X12371Y036328D02*
D03*
X126024Y043858D02*
D03*
X032671Y016107D02*
D03*
X059885Y023619D02*
D03*
X0608Y0161D02*
D03*
X088921Y016107D02*
D03*
X098296D02*
D03*
X097358Y023607D02*
D03*
X117983Y016107D02*
D03*
X110483D02*
D03*
X117983Y023607D02*
D03*
X107671D02*
D03*
X089858D02*
D03*
X082358D02*
D03*
X074858D02*
D03*
X052358D02*
D03*
X044858D02*
D03*
X037358D02*
D03*
X029858D02*
D03*
X113296Y031107D02*
D03*
X125483D02*
D03*
Y023607D02*
D03*
Y016107D02*
D03*
Y038607D02*
D03*
Y046107D02*
D03*
X114233D02*
D03*
X116108Y038607D02*
D03*
X102983Y046107D02*
D03*
X106733Y038607D02*
D03*
X095483Y046107D02*
D03*
X099233Y038607D02*
D03*
X101108Y031107D02*
D03*
X093608D02*
D03*
X091733Y038607D02*
D03*
X087983Y046107D02*
D03*
X086108Y031107D02*
D03*
X084233Y038607D02*
D03*
X080483Y046107D02*
D03*
X078608Y031107D02*
D03*
X076733Y038607D02*
D03*
X072983Y046107D02*
D03*
X071108Y031107D02*
D03*
X069233Y038607D02*
D03*
X065483Y046107D02*
D03*
X056108Y031107D02*
D03*
X050483Y046107D02*
D03*
X054233Y038607D02*
D03*
X048608Y031107D02*
D03*
X046733Y038607D02*
D03*
X042983Y046107D02*
D03*
X041108Y031107D02*
D03*
X039233Y038607D02*
D03*
X0355Y04609D02*
D03*
X033608Y031107D02*
D03*
X027983Y046107D02*
D03*
X023296Y016107D02*
D03*
X026108Y031107D02*
D03*
X024233Y038607D02*
D03*
X020483Y046107D02*
D03*
X013921Y016107D02*
D03*
X017671Y023607D02*
D03*
X015796Y031107D02*
D03*
X014858Y038607D02*
D03*
X012983Y046107D02*
D03*
D18*
X03328Y042934D02*
D03*
Y04208D02*
D03*
M02*
