G04*
G04 #@! TF.GenerationSoftware,Altium Limited,Altium Designer,21.6.4 (81)*
G04*
G04 Layer_Color=16711935*
%FSTAX24Y24*%
%MOIN*%
G70*
G04*
G04 #@! TF.SameCoordinates,245CE46D-98AB-4B62-9B0C-93C9D4342F2A*
G04*
G04*
G04 #@! TF.FilePolarity,Positive*
G04*
G01*
G75*
%ADD53C,0.0050*%
%ADD54C,0.0060*%
%ADD55C,0.0039*%
D53*
X036645Y047766D02*
G03*
X035985Y047107I0J-000659D01*
G01*
X037275Y045447D02*
G03*
X037471Y045644I0J000197D01*
G01*
X038019Y046191D02*
G03*
X037471Y045644I0J-000547D01*
G01*
X04008Y046191D02*
G03*
X040276Y046388I0J000197D01*
G01*
X126645Y025266D02*
G03*
X125985Y024607I0J-000659D01*
G01*
X127275Y022947D02*
G03*
X127471Y023144I0J000197D01*
G01*
X128019Y023691D02*
G03*
X127471Y023144I0J-000547D01*
G01*
X13008Y023691D02*
G03*
X130276Y023888I0J000197D01*
G01*
X061957Y017766D02*
G03*
X061298Y017107I0J-000659D01*
G01*
X062587Y015447D02*
G03*
X062784Y015644I0J000197D01*
G01*
X063331Y016191D02*
G03*
X062784Y015644I0J-000547D01*
G01*
X065392Y016191D02*
G03*
X065589Y016388I0J000197D01*
G01*
X119145Y017766D02*
G03*
X118485Y017107I0J-000659D01*
G01*
X119775Y015447D02*
G03*
X119971Y015644I0J000197D01*
G01*
X120519Y016191D02*
G03*
X119971Y015644I0J-000547D01*
G01*
X12258Y016191D02*
G03*
X122776Y016388I0J000197D01*
G01*
X090082Y017766D02*
G03*
X089423Y017107I0J-000659D01*
G01*
X090712Y015447D02*
G03*
X090909Y015644I0J000197D01*
G01*
X091456Y016191D02*
G03*
X090909Y015644I0J-000547D01*
G01*
X093517Y016191D02*
G03*
X093714Y016388I0J000197D01*
G01*
X099457Y017766D02*
G03*
X098798Y017107I0J-000659D01*
G01*
X100087Y015447D02*
G03*
X100284Y015644I0J000197D01*
G01*
X100831Y016191D02*
G03*
X100284Y015644I0J-000547D01*
G01*
X102892Y016191D02*
G03*
X103089Y016388I0J000197D01*
G01*
X111645Y017766D02*
G03*
X110985Y017107I0J-000659D01*
G01*
X112275Y015447D02*
G03*
X112471Y015644I0J000197D01*
G01*
X113019Y016191D02*
G03*
X112471Y015644I0J-000547D01*
G01*
X11508Y016191D02*
G03*
X115276Y016388I0J000197D01*
G01*
X126645Y017766D02*
G03*
X125985Y017107I0J-000659D01*
G01*
X127275Y015447D02*
G03*
X127471Y015644I0J000197D01*
G01*
X128019Y016191D02*
G03*
X127471Y015644I0J-000547D01*
G01*
X13008Y016191D02*
G03*
X130276Y016388I0J000197D01*
G01*
X033832Y017766D02*
G03*
X033173Y017107I0J-000659D01*
G01*
X034462Y015447D02*
G03*
X034659Y015644I0J000197D01*
G01*
X035206Y016191D02*
G03*
X034659Y015644I0J-000547D01*
G01*
X037267Y016191D02*
G03*
X037464Y016388I0J000197D01*
G01*
X015082Y017766D02*
G03*
X014423Y017107I0J-000659D01*
G01*
X015712Y015447D02*
G03*
X015909Y015644I0J000197D01*
G01*
X016456Y016191D02*
G03*
X015909Y015644I0J-000547D01*
G01*
X018517Y016191D02*
G03*
X018714Y016388I0J000197D01*
G01*
X024457Y017766D02*
G03*
X023798Y017107I0J-000659D01*
G01*
X025087Y015447D02*
G03*
X025284Y015644I0J000197D01*
G01*
X025831Y016191D02*
G03*
X025284Y015644I0J-000547D01*
G01*
X027892Y016191D02*
G03*
X028089Y016388I0J000197D01*
G01*
X018832Y025266D02*
G03*
X018173Y024607I0J-000659D01*
G01*
X019462Y022947D02*
G03*
X019659Y023144I0J000197D01*
G01*
X020206Y023691D02*
G03*
X019659Y023144I0J-000547D01*
G01*
X022267Y023691D02*
G03*
X022464Y023888I0J000197D01*
G01*
X119145Y025266D02*
G03*
X118485Y024607I0J-000659D01*
G01*
X119775Y022947D02*
G03*
X119971Y023144I0J000197D01*
G01*
X120519Y023691D02*
G03*
X119971Y023144I0J-000547D01*
G01*
X12258Y023691D02*
G03*
X122776Y023888I0J000197D01*
G01*
X108832Y025266D02*
G03*
X108173Y024607I0J-000659D01*
G01*
X109462Y022947D02*
G03*
X109659Y023144I0J000197D01*
G01*
X110206Y023691D02*
G03*
X109659Y023144I0J-000547D01*
G01*
X112267Y023691D02*
G03*
X112464Y023888I0J000197D01*
G01*
X09852Y025266D02*
G03*
X09786Y024607I0J-000659D01*
G01*
X09915Y022947D02*
G03*
X099346Y023144I0J000197D01*
G01*
X099894Y023691D02*
G03*
X099346Y023144I0J-000547D01*
G01*
X101955Y023691D02*
G03*
X102151Y023888I0J000197D01*
G01*
X09102Y025266D02*
G03*
X09036Y024607I0J-000659D01*
G01*
X09165Y022947D02*
G03*
X091846Y023144I0J000197D01*
G01*
X092394Y023691D02*
G03*
X091846Y023144I0J-000547D01*
G01*
X094455Y023691D02*
G03*
X094651Y023888I0J000197D01*
G01*
X08352Y025266D02*
G03*
X08286Y024607I0J-000659D01*
G01*
X08415Y022947D02*
G03*
X084346Y023144I0J000197D01*
G01*
X084894Y023691D02*
G03*
X084346Y023144I0J-000547D01*
G01*
X086955Y023691D02*
G03*
X087151Y023888I0J000197D01*
G01*
X07602Y025266D02*
G03*
X07536Y024607I0J-000659D01*
G01*
X07665Y022947D02*
G03*
X076846Y023144I0J000197D01*
G01*
X077394Y023691D02*
G03*
X076846Y023144I0J-000547D01*
G01*
X079455Y023691D02*
G03*
X079651Y023888I0J000197D01*
G01*
X06852Y025266D02*
G03*
X06786Y024607I0J-000659D01*
G01*
X06915Y022947D02*
G03*
X069346Y023144I0J000197D01*
G01*
X069894Y023691D02*
G03*
X069346Y023144I0J-000547D01*
G01*
X071955Y023691D02*
G03*
X072151Y023888I0J000197D01*
G01*
X06102Y025266D02*
G03*
X06036Y024607I0J-000659D01*
G01*
X06165Y022947D02*
G03*
X061846Y023144I0J000197D01*
G01*
X062394Y023691D02*
G03*
X061846Y023144I0J-000547D01*
G01*
X064455Y023691D02*
G03*
X064651Y023888I0J000197D01*
G01*
X05352Y025266D02*
G03*
X05286Y024607I0J-000659D01*
G01*
X05415Y022947D02*
G03*
X054346Y023144I0J000197D01*
G01*
X054894Y023691D02*
G03*
X054346Y023144I0J-000547D01*
G01*
X056955Y023691D02*
G03*
X057151Y023888I0J000197D01*
G01*
X04602Y025266D02*
G03*
X04536Y024607I0J-000659D01*
G01*
X04665Y022947D02*
G03*
X046846Y023144I0J000197D01*
G01*
X047394Y023691D02*
G03*
X046846Y023144I0J-000547D01*
G01*
X049455Y023691D02*
G03*
X049651Y023888I0J000197D01*
G01*
X03852Y025266D02*
G03*
X03786Y024607I0J-000659D01*
G01*
X03915Y022947D02*
G03*
X039346Y023144I0J000197D01*
G01*
X039894Y023691D02*
G03*
X039346Y023144I0J-000547D01*
G01*
X041955Y023691D02*
G03*
X042151Y023888I0J000197D01*
G01*
X03102Y025266D02*
G03*
X03036Y024607I0J-000659D01*
G01*
X03165Y022947D02*
G03*
X031846Y023144I0J000197D01*
G01*
X032394Y023691D02*
G03*
X031846Y023144I0J-000547D01*
G01*
X034455Y023691D02*
G03*
X034651Y023888I0J000197D01*
G01*
X114457Y032766D02*
G03*
X113798Y032107I0J-000659D01*
G01*
X115087Y030447D02*
G03*
X115284Y030644I0J000197D01*
G01*
X115831Y031191D02*
G03*
X115284Y030644I0J-000547D01*
G01*
X117892Y031191D02*
G03*
X118089Y031388I0J000197D01*
G01*
X126645Y032766D02*
G03*
X125985Y032107I0J-000659D01*
G01*
X127275Y030447D02*
G03*
X127471Y030644I0J000197D01*
G01*
X128019Y031191D02*
G03*
X127471Y030644I0J-000547D01*
G01*
X13008Y031191D02*
G03*
X130276Y031388I0J000197D01*
G01*
X10227Y032766D02*
G03*
X10161Y032107I0J-000659D01*
G01*
X1029Y030447D02*
G03*
X103096Y030644I0J000197D01*
G01*
X103644Y031191D02*
G03*
X103096Y030644I0J-000547D01*
G01*
X105705Y031191D02*
G03*
X105901Y031388I0J000197D01*
G01*
X09477Y032766D02*
G03*
X09411Y032107I0J-000659D01*
G01*
X0954Y030447D02*
G03*
X095596Y030644I0J000197D01*
G01*
X096144Y031191D02*
G03*
X095596Y030644I0J-000547D01*
G01*
X098205Y031191D02*
G03*
X098401Y031388I0J000197D01*
G01*
X08727Y032766D02*
G03*
X08661Y032107I0J-000659D01*
G01*
X0879Y030447D02*
G03*
X088096Y030644I0J000197D01*
G01*
X088644Y031191D02*
G03*
X088096Y030644I0J-000547D01*
G01*
X090705Y031191D02*
G03*
X090901Y031388I0J000197D01*
G01*
X07977Y032766D02*
G03*
X07911Y032107I0J-000659D01*
G01*
X0804Y030447D02*
G03*
X080596Y030644I0J000197D01*
G01*
X081144Y031191D02*
G03*
X080596Y030644I0J-000547D01*
G01*
X083205Y031191D02*
G03*
X083401Y031388I0J000197D01*
G01*
X07227Y032766D02*
G03*
X07161Y032107I0J-000659D01*
G01*
X0729Y030447D02*
G03*
X073096Y030644I0J000197D01*
G01*
X073644Y031191D02*
G03*
X073096Y030644I0J-000547D01*
G01*
X075705Y031191D02*
G03*
X075901Y031388I0J000197D01*
G01*
X06477Y032766D02*
G03*
X06411Y032107I0J-000659D01*
G01*
X0654Y030447D02*
G03*
X065596Y030644I0J000197D01*
G01*
X066144Y031191D02*
G03*
X065596Y030644I0J-000547D01*
G01*
X068205Y031191D02*
G03*
X068401Y031388I0J000197D01*
G01*
X05727Y032766D02*
G03*
X05661Y032107I0J-000659D01*
G01*
X0579Y030447D02*
G03*
X058096Y030644I0J000197D01*
G01*
X058644Y031191D02*
G03*
X058096Y030644I0J-000547D01*
G01*
X060705Y031191D02*
G03*
X060901Y031388I0J000197D01*
G01*
X04977Y032766D02*
G03*
X04911Y032107I0J-000659D01*
G01*
X0504Y030447D02*
G03*
X050596Y030644I0J000197D01*
G01*
X051144Y031191D02*
G03*
X050596Y030644I0J-000547D01*
G01*
X053205Y031191D02*
G03*
X053401Y031388I0J000197D01*
G01*
X04227Y032766D02*
G03*
X04161Y032107I0J-000659D01*
G01*
X0429Y030447D02*
G03*
X043096Y030644I0J000197D01*
G01*
X043644Y031191D02*
G03*
X043096Y030644I0J-000547D01*
G01*
X045705Y031191D02*
G03*
X045901Y031388I0J000197D01*
G01*
X03477Y032766D02*
G03*
X03411Y032107I0J-000659D01*
G01*
X0354Y030447D02*
G03*
X035596Y030644I0J000197D01*
G01*
X036144Y031191D02*
G03*
X035596Y030644I0J-000547D01*
G01*
X038205Y031191D02*
G03*
X038401Y031388I0J000197D01*
G01*
X02727Y032766D02*
G03*
X02661Y032107I0J-000659D01*
G01*
X0279Y030447D02*
G03*
X028096Y030644I0J000197D01*
G01*
X028644Y031191D02*
G03*
X028096Y030644I0J-000547D01*
G01*
X030705Y031191D02*
G03*
X030901Y031388I0J000197D01*
G01*
X016957Y032766D02*
G03*
X016298Y032107I0J-000659D01*
G01*
X017587Y030447D02*
G03*
X017784Y030644I0J000197D01*
G01*
X018331Y031191D02*
G03*
X017784Y030644I0J-000547D01*
G01*
X020392Y031191D02*
G03*
X020589Y031388I0J000197D01*
G01*
X126645Y040266D02*
G03*
X125985Y039607I0J-000659D01*
G01*
X127275Y037947D02*
G03*
X127471Y038144I0J000197D01*
G01*
X128019Y038691D02*
G03*
X127471Y038144I0J-000547D01*
G01*
X13008Y038691D02*
G03*
X130276Y038888I0J000197D01*
G01*
X11727Y040266D02*
G03*
X11661Y039607I0J-000659D01*
G01*
X1179Y037947D02*
G03*
X118096Y038144I0J000197D01*
G01*
X118644Y038691D02*
G03*
X118096Y038144I0J-000547D01*
G01*
X120705Y038691D02*
G03*
X120901Y038888I0J000197D01*
G01*
X107895Y040266D02*
G03*
X107235Y039607I0J-000659D01*
G01*
X108525Y037947D02*
G03*
X108721Y038144I0J000197D01*
G01*
X109269Y038691D02*
G03*
X108721Y038144I0J-000547D01*
G01*
X11133Y038691D02*
G03*
X111526Y038888I0J000197D01*
G01*
X100395Y040266D02*
G03*
X099735Y039607I0J-000659D01*
G01*
X101025Y037947D02*
G03*
X101221Y038144I0J000197D01*
G01*
X101769Y038691D02*
G03*
X101221Y038144I0J-000547D01*
G01*
X10383Y038691D02*
G03*
X104026Y038888I0J000197D01*
G01*
X092895Y040266D02*
G03*
X092235Y039607I0J-000659D01*
G01*
X093525Y037947D02*
G03*
X093721Y038144I0J000197D01*
G01*
X094269Y038691D02*
G03*
X093721Y038144I0J-000547D01*
G01*
X09633Y038691D02*
G03*
X096526Y038888I0J000197D01*
G01*
X085395Y040266D02*
G03*
X084735Y039607I0J-000659D01*
G01*
X086025Y037947D02*
G03*
X086221Y038144I0J000197D01*
G01*
X086769Y038691D02*
G03*
X086221Y038144I0J-000547D01*
G01*
X08883Y038691D02*
G03*
X089026Y038888I0J000197D01*
G01*
X077895Y040266D02*
G03*
X077235Y039607I0J-000659D01*
G01*
X078525Y037947D02*
G03*
X078721Y038144I0J000197D01*
G01*
X079269Y038691D02*
G03*
X078721Y038144I0J-000547D01*
G01*
X08133Y038691D02*
G03*
X081526Y038888I0J000197D01*
G01*
X070395Y040266D02*
G03*
X069735Y039607I0J-000659D01*
G01*
X071025Y037947D02*
G03*
X071221Y038144I0J000197D01*
G01*
X071769Y038691D02*
G03*
X071221Y038144I0J-000547D01*
G01*
X07383Y038691D02*
G03*
X074026Y038888I0J000197D01*
G01*
X062895Y040266D02*
G03*
X062235Y039607I0J-000659D01*
G01*
X063525Y037947D02*
G03*
X063721Y038144I0J000197D01*
G01*
X064269Y038691D02*
G03*
X063721Y038144I0J-000547D01*
G01*
X06633Y038691D02*
G03*
X066526Y038888I0J000197D01*
G01*
X055395Y040266D02*
G03*
X054735Y039607I0J-000659D01*
G01*
X056025Y037947D02*
G03*
X056221Y038144I0J000197D01*
G01*
X056769Y038691D02*
G03*
X056221Y038144I0J-000547D01*
G01*
X05883Y038691D02*
G03*
X059026Y038888I0J000197D01*
G01*
X047895Y040266D02*
G03*
X047235Y039607I0J-000659D01*
G01*
X048525Y037947D02*
G03*
X048721Y038144I0J000197D01*
G01*
X049269Y038691D02*
G03*
X048721Y038144I0J-000547D01*
G01*
X05133Y038691D02*
G03*
X051526Y038888I0J000197D01*
G01*
X040395Y040266D02*
G03*
X039735Y039607I0J-000659D01*
G01*
X041025Y037947D02*
G03*
X041221Y038144I0J000197D01*
G01*
X041769Y038691D02*
G03*
X041221Y038144I0J-000547D01*
G01*
X04383Y038691D02*
G03*
X044026Y038888I0J000197D01*
G01*
X032895Y040266D02*
G03*
X032235Y039607I0J-000659D01*
G01*
X033525Y037947D02*
G03*
X033721Y038144I0J000197D01*
G01*
X034269Y038691D02*
G03*
X033721Y038144I0J-000547D01*
G01*
X03633Y038691D02*
G03*
X036526Y038888I0J000197D01*
G01*
X025395Y040266D02*
G03*
X024735Y039607I0J-000659D01*
G01*
X026025Y037947D02*
G03*
X026221Y038144I0J000197D01*
G01*
X026769Y038691D02*
G03*
X026221Y038144I0J-000547D01*
G01*
X02883Y038691D02*
G03*
X029026Y038888I0J000197D01*
G01*
X01602Y040266D02*
G03*
X01536Y039607I0J-000659D01*
G01*
X01665Y037947D02*
G03*
X016846Y038144I0J000197D01*
G01*
X017394Y038691D02*
G03*
X016846Y038144I0J-000547D01*
G01*
X019455Y038691D02*
G03*
X019651Y038888I0J000197D01*
G01*
X115395Y047766D02*
G03*
X114735Y047107I0J-000659D01*
G01*
X116025Y045447D02*
G03*
X116221Y045644I0J000197D01*
G01*
X116769Y046191D02*
G03*
X116221Y045644I0J-000547D01*
G01*
X11883Y046191D02*
G03*
X119026Y046388I0J000197D01*
G01*
X126645Y047766D02*
G03*
X125985Y047107I0J-000659D01*
G01*
X127275Y045447D02*
G03*
X127471Y045644I0J000197D01*
G01*
X128019Y046191D02*
G03*
X127471Y045644I0J-000547D01*
G01*
X13008Y046191D02*
G03*
X130276Y046388I0J000197D01*
G01*
X104145Y047766D02*
G03*
X103485Y047107I0J-000659D01*
G01*
X104775Y045447D02*
G03*
X104971Y045644I0J000197D01*
G01*
X105519Y046191D02*
G03*
X104971Y045644I0J-000547D01*
G01*
X10758Y046191D02*
G03*
X107776Y046388I0J000197D01*
G01*
X096645Y047766D02*
G03*
X095985Y047107I0J-000659D01*
G01*
X097275Y045447D02*
G03*
X097471Y045644I0J000197D01*
G01*
X098019Y046191D02*
G03*
X097471Y045644I0J-000547D01*
G01*
X10008Y046191D02*
G03*
X100276Y046388I0J000197D01*
G01*
X089145Y047766D02*
G03*
X088485Y047107I0J-000659D01*
G01*
X089775Y045447D02*
G03*
X089971Y045644I0J000197D01*
G01*
X090519Y046191D02*
G03*
X089971Y045644I0J-000547D01*
G01*
X09258Y046191D02*
G03*
X092776Y046388I0J000197D01*
G01*
X081645Y047766D02*
G03*
X080985Y047107I0J-000659D01*
G01*
X082275Y045447D02*
G03*
X082471Y045644I0J000197D01*
G01*
X083019Y046191D02*
G03*
X082471Y045644I0J-000547D01*
G01*
X08508Y046191D02*
G03*
X085276Y046388I0J000197D01*
G01*
X074145Y047766D02*
G03*
X073485Y047107I0J-000659D01*
G01*
X074775Y045447D02*
G03*
X074971Y045644I0J000197D01*
G01*
X075519Y046191D02*
G03*
X074971Y045644I0J-000547D01*
G01*
X07758Y046191D02*
G03*
X077776Y046388I0J000197D01*
G01*
X066645Y047766D02*
G03*
X065985Y047107I0J-000659D01*
G01*
X067275Y045447D02*
G03*
X067471Y045644I0J000197D01*
G01*
X068019Y046191D02*
G03*
X067471Y045644I0J-000547D01*
G01*
X07008Y046191D02*
G03*
X070276Y046388I0J000197D01*
G01*
X059145Y047766D02*
G03*
X058485Y047107I0J-000659D01*
G01*
X059775Y045447D02*
G03*
X059971Y045644I0J000197D01*
G01*
X060519Y046191D02*
G03*
X059971Y045644I0J-000547D01*
G01*
X06258Y046191D02*
G03*
X062776Y046388I0J000197D01*
G01*
X051645Y047766D02*
G03*
X050985Y047107I0J-000659D01*
G01*
X052275Y045447D02*
G03*
X052471Y045644I0J000197D01*
G01*
X053019Y046191D02*
G03*
X052471Y045644I0J-000547D01*
G01*
X05508Y046191D02*
G03*
X055276Y046388I0J000197D01*
G01*
X044145Y047766D02*
G03*
X043485Y047107I0J-000659D01*
G01*
X044775Y045447D02*
G03*
X044971Y045644I0J000197D01*
G01*
X045519Y046191D02*
G03*
X044971Y045644I0J-000547D01*
G01*
X04758Y046191D02*
G03*
X047776Y046388I0J000197D01*
G01*
X029145Y047766D02*
G03*
X028485Y047107I0J-000659D01*
G01*
X029775Y045447D02*
G03*
X029971Y045644I0J000197D01*
G01*
X030519Y046191D02*
G03*
X029971Y045644I0J-000547D01*
G01*
X03258Y046191D02*
G03*
X032776Y046388I0J000197D01*
G01*
X021645Y047766D02*
G03*
X020985Y047107I0J-000659D01*
G01*
X022275Y045447D02*
G03*
X022471Y045644I0J000197D01*
G01*
X023019Y046191D02*
G03*
X022471Y045644I0J-000547D01*
G01*
X02508Y046191D02*
G03*
X025276Y046388I0J000197D01*
G01*
X014145Y047766D02*
G03*
X013485Y047107I0J-000659D01*
G01*
X014775Y045447D02*
G03*
X014971Y045644I0J000197D01*
G01*
X015519Y046191D02*
G03*
X014971Y045644I0J-000547D01*
G01*
X01758Y046191D02*
G03*
X017776Y046388I0J000197D01*
G01*
X036645Y047766D02*
X040276D01*
X035985Y045447D02*
Y047107D01*
Y045447D02*
X037275D01*
X038019Y046191D02*
X04008D01*
X040276Y046388D02*
Y047766D01*
X126645Y025266D02*
X130276D01*
X125985Y022947D02*
Y024607D01*
Y022947D02*
X127275D01*
X128019Y023691D02*
X13008D01*
X130276Y023888D02*
Y025266D01*
X061957Y017766D02*
X065589D01*
X061298Y015447D02*
Y017107D01*
Y015447D02*
X062587D01*
X063331Y016191D02*
X065392D01*
X065589Y016388D02*
Y017766D01*
X119145D02*
X122776D01*
X118485Y015447D02*
Y017107D01*
Y015447D02*
X119775D01*
X120519Y016191D02*
X12258D01*
X122776Y016388D02*
Y017766D01*
X090082D02*
X093714D01*
X089423Y015447D02*
Y017107D01*
Y015447D02*
X090712D01*
X091456Y016191D02*
X093517D01*
X093714Y016388D02*
Y017766D01*
X099457D02*
X103089D01*
X098798Y015447D02*
Y017107D01*
Y015447D02*
X100087D01*
X100831Y016191D02*
X102892D01*
X103089Y016388D02*
Y017766D01*
X111645D02*
X115276D01*
X110985Y015447D02*
Y017107D01*
Y015447D02*
X112275D01*
X113019Y016191D02*
X11508D01*
X115276Y016388D02*
Y017766D01*
X126645D02*
X130276D01*
X125985Y015447D02*
Y017107D01*
Y015447D02*
X127275D01*
X128019Y016191D02*
X13008D01*
X130276Y016388D02*
Y017766D01*
X033832D02*
X037464D01*
X033173Y015447D02*
Y017107D01*
Y015447D02*
X034462D01*
X035206Y016191D02*
X037267D01*
X037464Y016388D02*
Y017766D01*
X015082D02*
X018714D01*
X014423Y015447D02*
Y017107D01*
Y015447D02*
X015712D01*
X016456Y016191D02*
X018517D01*
X018714Y016388D02*
Y017766D01*
X024457D02*
X028089D01*
X023798Y015447D02*
Y017107D01*
Y015447D02*
X025087D01*
X025831Y016191D02*
X027892D01*
X028089Y016388D02*
Y017766D01*
X018832Y025266D02*
X022464D01*
X018173Y022947D02*
Y024607D01*
Y022947D02*
X019462D01*
X020206Y023691D02*
X022267D01*
X022464Y023888D02*
Y025266D01*
X119145D02*
X122776D01*
X118485Y022947D02*
Y024607D01*
Y022947D02*
X119775D01*
X120519Y023691D02*
X12258D01*
X122776Y023888D02*
Y025266D01*
X108832D02*
X112464D01*
X108173Y022947D02*
Y024607D01*
Y022947D02*
X109462D01*
X110206Y023691D02*
X112267D01*
X112464Y023888D02*
Y025266D01*
X09852D02*
X102151D01*
X09786Y022947D02*
Y024607D01*
Y022947D02*
X09915D01*
X099894Y023691D02*
X101955D01*
X102151Y023888D02*
Y025266D01*
X09102D02*
X094651D01*
X09036Y022947D02*
Y024607D01*
Y022947D02*
X09165D01*
X092394Y023691D02*
X094455D01*
X094651Y023888D02*
Y025266D01*
X08352D02*
X087151D01*
X08286Y022947D02*
Y024607D01*
Y022947D02*
X08415D01*
X084894Y023691D02*
X086955D01*
X087151Y023888D02*
Y025266D01*
X07602D02*
X079651D01*
X07536Y022947D02*
Y024607D01*
Y022947D02*
X07665D01*
X077394Y023691D02*
X079455D01*
X079651Y023888D02*
Y025266D01*
X06852D02*
X072151D01*
X06786Y022947D02*
Y024607D01*
Y022947D02*
X06915D01*
X069894Y023691D02*
X071955D01*
X072151Y023888D02*
Y025266D01*
X06102D02*
X064651D01*
X06036Y022947D02*
Y024607D01*
Y022947D02*
X06165D01*
X062394Y023691D02*
X064455D01*
X064651Y023888D02*
Y025266D01*
X05352D02*
X057151D01*
X05286Y022947D02*
Y024607D01*
Y022947D02*
X05415D01*
X054894Y023691D02*
X056955D01*
X057151Y023888D02*
Y025266D01*
X04602D02*
X049651D01*
X04536Y022947D02*
Y024607D01*
Y022947D02*
X04665D01*
X047394Y023691D02*
X049455D01*
X049651Y023888D02*
Y025266D01*
X03852D02*
X042151D01*
X03786Y022947D02*
Y024607D01*
Y022947D02*
X03915D01*
X039894Y023691D02*
X041955D01*
X042151Y023888D02*
Y025266D01*
X03102D02*
X034651D01*
X03036Y022947D02*
Y024607D01*
Y022947D02*
X03165D01*
X032394Y023691D02*
X034455D01*
X034651Y023888D02*
Y025266D01*
X114457Y032766D02*
X118089D01*
X113798Y030447D02*
Y032107D01*
Y030447D02*
X115087D01*
X115831Y031191D02*
X117892D01*
X118089Y031388D02*
Y032766D01*
X126645D02*
X130276D01*
X125985Y030447D02*
Y032107D01*
Y030447D02*
X127275D01*
X128019Y031191D02*
X13008D01*
X130276Y031388D02*
Y032766D01*
X10227D02*
X105901D01*
X10161Y030447D02*
Y032107D01*
Y030447D02*
X1029D01*
X103644Y031191D02*
X105705D01*
X105901Y031388D02*
Y032766D01*
X09477D02*
X098401D01*
X09411Y030447D02*
Y032107D01*
Y030447D02*
X0954D01*
X096144Y031191D02*
X098205D01*
X098401Y031388D02*
Y032766D01*
X08727D02*
X090901D01*
X08661Y030447D02*
Y032107D01*
Y030447D02*
X0879D01*
X088644Y031191D02*
X090705D01*
X090901Y031388D02*
Y032766D01*
X07977D02*
X083401D01*
X07911Y030447D02*
Y032107D01*
Y030447D02*
X0804D01*
X081144Y031191D02*
X083205D01*
X083401Y031388D02*
Y032766D01*
X07227D02*
X075901D01*
X07161Y030447D02*
Y032107D01*
Y030447D02*
X0729D01*
X073644Y031191D02*
X075705D01*
X075901Y031388D02*
Y032766D01*
X06477D02*
X068401D01*
X06411Y030447D02*
Y032107D01*
Y030447D02*
X0654D01*
X066144Y031191D02*
X068205D01*
X068401Y031388D02*
Y032766D01*
X05727D02*
X060901D01*
X05661Y030447D02*
Y032107D01*
Y030447D02*
X0579D01*
X058644Y031191D02*
X060705D01*
X060901Y031388D02*
Y032766D01*
X04977D02*
X053401D01*
X04911Y030447D02*
Y032107D01*
Y030447D02*
X0504D01*
X051144Y031191D02*
X053205D01*
X053401Y031388D02*
Y032766D01*
X04227D02*
X045901D01*
X04161Y030447D02*
Y032107D01*
Y030447D02*
X0429D01*
X043644Y031191D02*
X045705D01*
X045901Y031388D02*
Y032766D01*
X03477D02*
X038401D01*
X03411Y030447D02*
Y032107D01*
Y030447D02*
X0354D01*
X036144Y031191D02*
X038205D01*
X038401Y031388D02*
Y032766D01*
X02727D02*
X030901D01*
X02661Y030447D02*
Y032107D01*
Y030447D02*
X0279D01*
X028644Y031191D02*
X030705D01*
X030901Y031388D02*
Y032766D01*
X016957D02*
X020589D01*
X016298Y030447D02*
Y032107D01*
Y030447D02*
X017587D01*
X018331Y031191D02*
X020392D01*
X020589Y031388D02*
Y032766D01*
X126645Y040266D02*
X130276D01*
X125985Y037947D02*
Y039607D01*
Y037947D02*
X127275D01*
X128019Y038691D02*
X13008D01*
X130276Y038888D02*
Y040266D01*
X11727D02*
X120901D01*
X11661Y037947D02*
Y039607D01*
Y037947D02*
X1179D01*
X118644Y038691D02*
X120705D01*
X120901Y038888D02*
Y040266D01*
X107895D02*
X111526D01*
X107235Y037947D02*
Y039607D01*
Y037947D02*
X108525D01*
X109269Y038691D02*
X11133D01*
X111526Y038888D02*
Y040266D01*
X100395D02*
X104026D01*
X099735Y037947D02*
Y039607D01*
Y037947D02*
X101025D01*
X101769Y038691D02*
X10383D01*
X104026Y038888D02*
Y040266D01*
X092895D02*
X096526D01*
X092235Y037947D02*
Y039607D01*
Y037947D02*
X093525D01*
X094269Y038691D02*
X09633D01*
X096526Y038888D02*
Y040266D01*
X085395D02*
X089026D01*
X084735Y037947D02*
Y039607D01*
Y037947D02*
X086025D01*
X086769Y038691D02*
X08883D01*
X089026Y038888D02*
Y040266D01*
X077895D02*
X081526D01*
X077235Y037947D02*
Y039607D01*
Y037947D02*
X078525D01*
X079269Y038691D02*
X08133D01*
X081526Y038888D02*
Y040266D01*
X070395D02*
X074026D01*
X069735Y037947D02*
Y039607D01*
Y037947D02*
X071025D01*
X071769Y038691D02*
X07383D01*
X074026Y038888D02*
Y040266D01*
X062895D02*
X066526D01*
X062235Y037947D02*
Y039607D01*
Y037947D02*
X063525D01*
X064269Y038691D02*
X06633D01*
X066526Y038888D02*
Y040266D01*
X055395D02*
X059026D01*
X054735Y037947D02*
Y039607D01*
Y037947D02*
X056025D01*
X056769Y038691D02*
X05883D01*
X059026Y038888D02*
Y040266D01*
X047895D02*
X051526D01*
X047235Y037947D02*
Y039607D01*
Y037947D02*
X048525D01*
X049269Y038691D02*
X05133D01*
X051526Y038888D02*
Y040266D01*
X040395D02*
X044026D01*
X039735Y037947D02*
Y039607D01*
Y037947D02*
X041025D01*
X041769Y038691D02*
X04383D01*
X044026Y038888D02*
Y040266D01*
X032895D02*
X036526D01*
X032235Y037947D02*
Y039607D01*
Y037947D02*
X033525D01*
X034269Y038691D02*
X03633D01*
X036526Y038888D02*
Y040266D01*
X025395D02*
X029026D01*
X024735Y037947D02*
Y039607D01*
Y037947D02*
X026025D01*
X026769Y038691D02*
X02883D01*
X029026Y038888D02*
Y040266D01*
X01602D02*
X019651D01*
X01536Y037947D02*
Y039607D01*
Y037947D02*
X01665D01*
X017394Y038691D02*
X019455D01*
X019651Y038888D02*
Y040266D01*
X115395Y047766D02*
X119026D01*
X114735Y045447D02*
Y047107D01*
Y045447D02*
X116025D01*
X116769Y046191D02*
X11883D01*
X119026Y046388D02*
Y047766D01*
X126645D02*
X130276D01*
X125985Y045447D02*
Y047107D01*
Y045447D02*
X127275D01*
X128019Y046191D02*
X13008D01*
X130276Y046388D02*
Y047766D01*
X104145D02*
X107776D01*
X103485Y045447D02*
Y047107D01*
Y045447D02*
X104775D01*
X105519Y046191D02*
X10758D01*
X107776Y046388D02*
Y047766D01*
X096645D02*
X100276D01*
X095985Y045447D02*
Y047107D01*
Y045447D02*
X097275D01*
X098019Y046191D02*
X10008D01*
X100276Y046388D02*
Y047766D01*
X089145D02*
X092776D01*
X088485Y045447D02*
Y047107D01*
Y045447D02*
X089775D01*
X090519Y046191D02*
X09258D01*
X092776Y046388D02*
Y047766D01*
X081645D02*
X085276D01*
X080985Y045447D02*
Y047107D01*
Y045447D02*
X082275D01*
X083019Y046191D02*
X08508D01*
X085276Y046388D02*
Y047766D01*
X074145D02*
X077776D01*
X073485Y045447D02*
Y047107D01*
Y045447D02*
X074775D01*
X075519Y046191D02*
X07758D01*
X077776Y046388D02*
Y047766D01*
X066645D02*
X070276D01*
X065985Y045447D02*
Y047107D01*
Y045447D02*
X067275D01*
X068019Y046191D02*
X07008D01*
X070276Y046388D02*
Y047766D01*
X059145D02*
X062776D01*
X058485Y045447D02*
Y047107D01*
Y045447D02*
X059775D01*
X060519Y046191D02*
X06258D01*
X062776Y046388D02*
Y047766D01*
X051645D02*
X055276D01*
X050985Y045447D02*
Y047107D01*
Y045447D02*
X052275D01*
X053019Y046191D02*
X05508D01*
X055276Y046388D02*
Y047766D01*
X044145D02*
X047776D01*
X043485Y045447D02*
Y047107D01*
Y045447D02*
X044775D01*
X045519Y046191D02*
X04758D01*
X047776Y046388D02*
Y047766D01*
X029145D02*
X032776D01*
X028485Y045447D02*
Y047107D01*
Y045447D02*
X029775D01*
X030519Y046191D02*
X03258D01*
X032776Y046388D02*
Y047766D01*
X021645D02*
X025276D01*
X020985Y045447D02*
Y047107D01*
Y045447D02*
X022275D01*
X023019Y046191D02*
X02508D01*
X025276Y046388D02*
Y047766D01*
X014145D02*
X017776D01*
X013485Y045447D02*
Y047107D01*
Y045447D02*
X014775D01*
X015519Y046191D02*
X01758D01*
X017776Y046388D02*
Y047766D01*
D54*
X052172Y021009D02*
X053432D01*
X052172Y020064D02*
Y021009D01*
Y020064D02*
X053432D01*
Y021009D01*
D55*
X050434Y014317D02*
X054371D01*
Y018254D01*
X050434D02*
X054371D01*
X050434Y014317D02*
Y018254D01*
Y014632D02*
X050749Y014317D01*
X033477Y042202D02*
X033851Y042576D01*
X032709Y042202D02*
X033851D01*
X032709D02*
Y042812D01*
X033851D01*
Y042202D02*
Y042812D01*
M02*
