G04*
G04 #@! TF.GenerationSoftware,Altium Limited,Altium Designer,21.6.4 (81)*
G04*
G04 Layer_Color=65535*
%FSTAX24Y24*%
%MOIN*%
G70*
G04*
G04 #@! TF.SameCoordinates,245CE46D-98AB-4B62-9B0C-93C9D4342F2A*
G04*
G04*
G04 #@! TF.FilePolarity,Positive*
G04*
G01*
G75*
%ADD10C,0.0080*%
D10*
X128075Y013949D02*
X128025Y013999D01*
X127925D01*
X127875Y013949D01*
Y013899D01*
X127925Y013849D01*
X128025D01*
X128075Y013799D01*
Y013749D01*
X128025Y013699D01*
X127925D01*
X127875Y013749D01*
X128175Y013999D02*
Y013699D01*
X128275Y013799D01*
X128375Y013699D01*
Y013999D01*
X128675D02*
X128575Y013949D01*
X128475Y013849D01*
Y013749D01*
X128525Y013699D01*
X128625D01*
X128675Y013749D01*
Y013799D01*
X128625Y013849D01*
X128475D01*
X128775Y013999D02*
X128975D01*
Y013949D01*
X128775Y013749D01*
Y013699D01*
X120575Y013949D02*
X120525Y013999D01*
X120425D01*
X120375Y013949D01*
Y013899D01*
X120425Y013849D01*
X120525D01*
X120575Y013799D01*
Y013749D01*
X120525Y013699D01*
X120425D01*
X120375Y013749D01*
X120675Y013999D02*
Y013699D01*
X120775Y013799D01*
X120875Y013699D01*
Y013999D01*
X121175D02*
X121075Y013949D01*
X120975Y013849D01*
Y013749D01*
X121025Y013699D01*
X121125D01*
X121175Y013749D01*
Y013799D01*
X121125Y013849D01*
X120975D01*
X121475Y013999D02*
X121375Y013949D01*
X121275Y013849D01*
Y013749D01*
X121325Y013699D01*
X121425D01*
X121475Y013749D01*
Y013799D01*
X121425Y013849D01*
X121275D01*
X113075Y013949D02*
X113025Y013999D01*
X112925D01*
X112875Y013949D01*
Y013899D01*
X112925Y013849D01*
X113025D01*
X113075Y013799D01*
Y013749D01*
X113025Y013699D01*
X112925D01*
X112875Y013749D01*
X113175Y013999D02*
Y013699D01*
X113275Y013799D01*
X113375Y013699D01*
Y013999D01*
X113675D02*
X113575Y013949D01*
X113475Y013849D01*
Y013749D01*
X113525Y013699D01*
X113625D01*
X113675Y013749D01*
Y013799D01*
X113625Y013849D01*
X113475D01*
X113975Y013999D02*
X113775D01*
Y013849D01*
X113875Y013899D01*
X113925D01*
X113975Y013849D01*
Y013749D01*
X113925Y013699D01*
X113825D01*
X113775Y013749D01*
X100888Y013949D02*
X100838Y013999D01*
X100738D01*
X100688Y013949D01*
Y013899D01*
X100738Y013849D01*
X100838D01*
X100888Y013799D01*
Y013749D01*
X100838Y013699D01*
X100738D01*
X100688Y013749D01*
X100988Y013999D02*
Y013699D01*
X101088Y013799D01*
X101188Y013699D01*
Y013999D01*
X101487D02*
X101387Y013949D01*
X101287Y013849D01*
Y013749D01*
X101337Y013699D01*
X101437D01*
X101487Y013749D01*
Y013799D01*
X101437Y013849D01*
X101287D01*
X101737Y013699D02*
Y013999D01*
X101587Y013849D01*
X101787D01*
X091513Y01395D02*
X091463Y014D01*
X091363D01*
X091313Y01395D01*
Y0139D01*
X091363Y01385D01*
X091463D01*
X091513Y0138D01*
Y01375D01*
X091463Y0137D01*
X091363D01*
X091313Y01375D01*
X091613Y014D02*
Y0137D01*
X091713Y0138D01*
X091813Y0137D01*
Y014D01*
X092112D02*
X092012Y01395D01*
X091912Y01385D01*
Y01375D01*
X091962Y0137D01*
X092062D01*
X092112Y01375D01*
Y0138D01*
X092062Y01385D01*
X091912D01*
X092212Y01395D02*
X092262Y014D01*
X092362D01*
X092412Y01395D01*
Y0139D01*
X092362Y01385D01*
X092312D01*
X092362D01*
X092412Y0138D01*
Y01375D01*
X092362Y0137D01*
X092262D01*
X092212Y01375D01*
X06334Y01395D02*
X06329Y014D01*
X06319D01*
X06314Y01395D01*
Y0139D01*
X06319Y01385D01*
X06329D01*
X06334Y0138D01*
Y01375D01*
X06329Y0137D01*
X06319D01*
X06314Y01375D01*
X06344Y014D02*
Y0137D01*
X06354Y0138D01*
X06364Y0137D01*
Y014D01*
X06394D02*
X06384Y01395D01*
X06374Y01385D01*
Y01375D01*
X06379Y0137D01*
X06389D01*
X06394Y01375D01*
Y0138D01*
X06389Y01385D01*
X06374D01*
X06424Y0137D02*
X06404D01*
X06424Y0139D01*
Y01395D01*
X06419Y014D01*
X06409D01*
X06404Y01395D01*
X035313Y013949D02*
X035263Y013999D01*
X035163D01*
X035113Y013949D01*
Y013899D01*
X035163Y013849D01*
X035263D01*
X035313Y013799D01*
Y013749D01*
X035263Y013699D01*
X035163D01*
X035113Y013749D01*
X035413Y013999D02*
Y013699D01*
X035513Y013799D01*
X035613Y013699D01*
Y013999D01*
X035912D02*
X035812Y013949D01*
X035712Y013849D01*
Y013749D01*
X035762Y013699D01*
X035862D01*
X035912Y013749D01*
Y013799D01*
X035862Y013849D01*
X035712D01*
X036012Y013699D02*
X036112D01*
X036062D01*
Y013999D01*
X036012Y013949D01*
X025888D02*
X025838Y013999D01*
X025738D01*
X025688Y013949D01*
Y013899D01*
X025738Y013849D01*
X025838D01*
X025888Y013799D01*
Y013749D01*
X025838Y013699D01*
X025738D01*
X025688Y013749D01*
X025988Y013999D02*
Y013699D01*
X026088Y013799D01*
X026188Y013699D01*
Y013999D01*
X026487D02*
X026387Y013949D01*
X026287Y013849D01*
Y013749D01*
X026337Y013699D01*
X026437D01*
X026487Y013749D01*
Y013799D01*
X026437Y013849D01*
X026287D01*
X026587Y013949D02*
X026637Y013999D01*
X026737D01*
X026787Y013949D01*
Y013749D01*
X026737Y013699D01*
X026637D01*
X026587Y013749D01*
Y013949D01*
X016513D02*
X016463Y013999D01*
X016363D01*
X016313Y013949D01*
Y013899D01*
X016363Y013849D01*
X016463D01*
X016513Y013799D01*
Y013749D01*
X016463Y013699D01*
X016363D01*
X016313Y013749D01*
X016613Y013999D02*
Y013699D01*
X016713Y013799D01*
X016813Y013699D01*
Y013999D01*
X017112D02*
X016912D01*
Y013849D01*
X017012Y013899D01*
X017062D01*
X017112Y013849D01*
Y013749D01*
X017062Y013699D01*
X016962D01*
X016912Y013749D01*
X017212D02*
X017262Y013699D01*
X017362D01*
X017412Y013749D01*
Y013949D01*
X017362Y013999D01*
X017262D01*
X017212Y013949D01*
Y013899D01*
X017262Y013849D01*
X017412D01*
X12803Y021489D02*
X12798Y021539D01*
X12788D01*
X12783Y021489D01*
Y021439D01*
X12788Y021389D01*
X12798D01*
X12803Y021339D01*
Y021289D01*
X12798Y021239D01*
X12788D01*
X12783Y021289D01*
X12813Y021539D02*
Y021239D01*
X12823Y021339D01*
X12833Y021239D01*
Y021539D01*
X12863D02*
X12843D01*
Y021389D01*
X12853Y021439D01*
X12858D01*
X12863Y021389D01*
Y021289D01*
X12858Y021239D01*
X12848D01*
X12843Y021289D01*
X12873Y021489D02*
X12878Y021539D01*
X12888D01*
X12893Y021489D01*
Y021439D01*
X12888Y021389D01*
X12893Y021339D01*
Y021289D01*
X12888Y021239D01*
X12878D01*
X12873Y021289D01*
Y021339D01*
X12878Y021389D01*
X12873Y021439D01*
Y021489D01*
X12878Y021389D02*
X12888D01*
X120536Y021489D02*
X120486Y021539D01*
X120386D01*
X120336Y021489D01*
Y021439D01*
X120386Y021389D01*
X120486D01*
X120536Y021339D01*
Y021289D01*
X120486Y021239D01*
X120386D01*
X120336Y021289D01*
X120636Y021539D02*
Y021239D01*
X120736Y021339D01*
X120836Y021239D01*
Y021539D01*
X121136D02*
X120936D01*
Y021389D01*
X121036Y021439D01*
X121086D01*
X121136Y021389D01*
Y021289D01*
X121086Y021239D01*
X120986D01*
X120936Y021289D01*
X121236Y021539D02*
X121435D01*
Y021489D01*
X121236Y021289D01*
Y021239D01*
X110223Y021489D02*
X110173Y021539D01*
X110073D01*
X110023Y021489D01*
Y021439D01*
X110073Y021389D01*
X110173D01*
X110223Y021339D01*
Y021289D01*
X110173Y021239D01*
X110073D01*
X110023Y021289D01*
X110323Y021539D02*
Y021239D01*
X110423Y021339D01*
X110523Y021239D01*
Y021539D01*
X110823D02*
X110623D01*
Y021389D01*
X110723Y021439D01*
X110773D01*
X110823Y021389D01*
Y021289D01*
X110773Y021239D01*
X110673D01*
X110623Y021289D01*
X111123Y021539D02*
X111023Y021489D01*
X110923Y021389D01*
Y021289D01*
X110973Y021239D01*
X111073D01*
X111123Y021289D01*
Y021339D01*
X111073Y021389D01*
X110923D01*
X099911Y021489D02*
X099861Y021539D01*
X099761D01*
X099711Y021489D01*
Y021439D01*
X099761Y021389D01*
X099861D01*
X099911Y021339D01*
Y021289D01*
X099861Y021239D01*
X099761D01*
X099711Y021289D01*
X100011Y021539D02*
Y021239D01*
X100111Y021339D01*
X100211Y021239D01*
Y021539D01*
X100511D02*
X100311D01*
Y021389D01*
X100411Y021439D01*
X100461D01*
X100511Y021389D01*
Y021289D01*
X100461Y021239D01*
X100361D01*
X100311Y021289D01*
X10081Y021539D02*
X100611D01*
Y021389D01*
X10071Y021439D01*
X10076D01*
X10081Y021389D01*
Y021289D01*
X10076Y021239D01*
X10066D01*
X100611Y021289D01*
X092411Y021489D02*
X092361Y021539D01*
X092261D01*
X092211Y021489D01*
Y021439D01*
X092261Y021389D01*
X092361D01*
X092411Y021339D01*
Y021289D01*
X092361Y021239D01*
X092261D01*
X092211Y021289D01*
X092511Y021539D02*
Y021239D01*
X092611Y021339D01*
X092711Y021239D01*
Y021539D01*
X093011D02*
X092811D01*
Y021389D01*
X092911Y021439D01*
X092961D01*
X093011Y021389D01*
Y021289D01*
X092961Y021239D01*
X092861D01*
X092811Y021289D01*
X09326Y021239D02*
Y021539D01*
X093111Y021389D01*
X09331D01*
X084911Y021489D02*
X084861Y021539D01*
X084761D01*
X084711Y021489D01*
Y021439D01*
X084761Y021389D01*
X084861D01*
X084911Y021339D01*
Y021289D01*
X084861Y021239D01*
X084761D01*
X084711Y021289D01*
X085011Y021539D02*
Y021239D01*
X085111Y021339D01*
X085211Y021239D01*
Y021539D01*
X085511D02*
X085311D01*
Y021389D01*
X085411Y021439D01*
X085461D01*
X085511Y021389D01*
Y021289D01*
X085461Y021239D01*
X085361D01*
X085311Y021289D01*
X085611Y021489D02*
X08566Y021539D01*
X08576D01*
X08581Y021489D01*
Y021439D01*
X08576Y021389D01*
X08571D01*
X08576D01*
X08581Y021339D01*
Y021289D01*
X08576Y021239D01*
X08566D01*
X085611Y021289D01*
X077411Y021489D02*
X077361Y021539D01*
X077261D01*
X077211Y021489D01*
Y021439D01*
X077261Y021389D01*
X077361D01*
X077411Y021339D01*
Y021289D01*
X077361Y021239D01*
X077261D01*
X077211Y021289D01*
X077511Y021539D02*
Y021239D01*
X077611Y021339D01*
X077711Y021239D01*
Y021539D01*
X078011D02*
X077811D01*
Y021389D01*
X077911Y021439D01*
X077961D01*
X078011Y021389D01*
Y021289D01*
X077961Y021239D01*
X077861D01*
X077811Y021289D01*
X07831Y021239D02*
X078111D01*
X07831Y021439D01*
Y021489D01*
X07826Y021539D01*
X078161D01*
X078111Y021489D01*
X069961D02*
X069911Y021539D01*
X069811D01*
X069761Y021489D01*
Y021439D01*
X069811Y021389D01*
X069911D01*
X069961Y021339D01*
Y021289D01*
X069911Y021239D01*
X069811D01*
X069761Y021289D01*
X070061Y021539D02*
Y021239D01*
X070161Y021339D01*
X070261Y021239D01*
Y021539D01*
X070561D02*
X070361D01*
Y021389D01*
X070461Y021439D01*
X070511D01*
X070561Y021389D01*
Y021289D01*
X070511Y021239D01*
X070411D01*
X070361Y021289D01*
X070661Y021239D02*
X07076D01*
X070711D01*
Y021539D01*
X070661Y021489D01*
X062411D02*
X062361Y021539D01*
X062261D01*
X062211Y021489D01*
Y021439D01*
X062261Y021389D01*
X062361D01*
X062411Y021339D01*
Y021289D01*
X062361Y021239D01*
X062261D01*
X062211Y021289D01*
X062511Y021539D02*
Y021239D01*
X062611Y021339D01*
X062711Y021239D01*
Y021539D01*
X063011D02*
X062811D01*
Y021389D01*
X062911Y021439D01*
X062961D01*
X063011Y021389D01*
Y021289D01*
X062961Y021239D01*
X062861D01*
X062811Y021289D01*
X063111Y021489D02*
X063161Y021539D01*
X06326D01*
X06331Y021489D01*
Y021289D01*
X06326Y021239D01*
X063161D01*
X063111Y021289D01*
Y021489D01*
X054911D02*
X054861Y021539D01*
X054761D01*
X054711Y021489D01*
Y021439D01*
X054761Y021389D01*
X054861D01*
X054911Y021339D01*
Y021289D01*
X054861Y021239D01*
X054761D01*
X054711Y021289D01*
X055011Y021539D02*
Y021239D01*
X055111Y021339D01*
X055211Y021239D01*
Y021539D01*
X055461Y021239D02*
Y021539D01*
X055311Y021389D01*
X055511D01*
X055611Y021289D02*
X055661Y021239D01*
X05576D01*
X05581Y021289D01*
Y021489D01*
X05576Y021539D01*
X055661D01*
X055611Y021489D01*
Y021439D01*
X055661Y021389D01*
X05581D01*
X047411Y021489D02*
X047361Y021539D01*
X047261D01*
X047211Y021489D01*
Y021439D01*
X047261Y021389D01*
X047361D01*
X047411Y021339D01*
Y021289D01*
X047361Y021239D01*
X047261D01*
X047211Y021289D01*
X047511Y021539D02*
Y021239D01*
X047611Y021339D01*
X047711Y021239D01*
Y021539D01*
X047961Y021239D02*
Y021539D01*
X047811Y021389D01*
X048011D01*
X048111Y021489D02*
X048161Y021539D01*
X04826D01*
X04831Y021489D01*
Y021439D01*
X04826Y021389D01*
X04831Y021339D01*
Y021289D01*
X04826Y021239D01*
X048161D01*
X048111Y021289D01*
Y021339D01*
X048161Y021389D01*
X048111Y021439D01*
Y021489D01*
X048161Y021389D02*
X04826D01*
X039911Y021489D02*
X039861Y021539D01*
X039761D01*
X039711Y021489D01*
Y021439D01*
X039761Y021389D01*
X039861D01*
X039911Y021339D01*
Y021289D01*
X039861Y021239D01*
X039761D01*
X039711Y021289D01*
X040011Y021539D02*
Y021239D01*
X040111Y021339D01*
X040211Y021239D01*
Y021539D01*
X040461Y021239D02*
Y021539D01*
X040311Y021389D01*
X040511D01*
X040611Y021539D02*
X04081D01*
Y021489D01*
X040611Y021289D01*
Y021239D01*
X032411Y021489D02*
X032361Y021539D01*
X032261D01*
X032211Y021489D01*
Y021439D01*
X032261Y021389D01*
X032361D01*
X032411Y021339D01*
Y021289D01*
X032361Y021239D01*
X032261D01*
X032211Y021289D01*
X032511Y021539D02*
Y021239D01*
X032611Y021339D01*
X032711Y021239D01*
Y021539D01*
X032961Y021239D02*
Y021539D01*
X032811Y021389D01*
X033011D01*
X03331Y021539D02*
X03321Y021489D01*
X033111Y021389D01*
Y021289D01*
X033161Y021239D01*
X03326D01*
X03331Y021289D01*
Y021339D01*
X03326Y021389D01*
X033111D01*
X02022Y021489D02*
X02017Y021539D01*
X02007D01*
X02002Y021489D01*
Y021439D01*
X02007Y021389D01*
X02017D01*
X02022Y021339D01*
Y021289D01*
X02017Y021239D01*
X02007D01*
X02002Y021289D01*
X02032Y021539D02*
Y021239D01*
X02042Y021339D01*
X02052Y021239D01*
Y021539D01*
X02077Y021239D02*
Y021539D01*
X02062Y021389D01*
X02082D01*
X02112Y021539D02*
X02092D01*
Y021389D01*
X02102Y021439D01*
X02107D01*
X02112Y021389D01*
Y021289D01*
X02107Y021239D01*
X02097D01*
X02092Y021289D01*
X128075Y02891D02*
X128025Y02896D01*
X127925D01*
X127875Y02891D01*
Y02886D01*
X127925Y02881D01*
X128025D01*
X128075Y02876D01*
Y02871D01*
X128025Y02866D01*
X127925D01*
X127875Y02871D01*
X128175Y02896D02*
Y02866D01*
X128275Y02876D01*
X128375Y02866D01*
Y02896D01*
X128625Y02866D02*
Y02896D01*
X128475Y02881D01*
X128675D01*
X128925Y02866D02*
Y02896D01*
X128775Y02881D01*
X128975D01*
X11584Y02891D02*
X11579Y02896D01*
X11569D01*
X11564Y02891D01*
Y02886D01*
X11569Y02881D01*
X11579D01*
X11584Y02876D01*
Y02871D01*
X11579Y02866D01*
X11569D01*
X11564Y02871D01*
X11594Y02896D02*
Y02866D01*
X11604Y02876D01*
X11614Y02866D01*
Y02896D01*
X11639Y02866D02*
Y02896D01*
X11624Y02881D01*
X11644D01*
X11654Y02891D02*
X11659Y02896D01*
X11669D01*
X11674Y02891D01*
Y02886D01*
X11669Y02881D01*
X11664D01*
X11669D01*
X11674Y02876D01*
Y02871D01*
X11669Y02866D01*
X11659D01*
X11654Y02871D01*
X1037Y02891D02*
X10365Y02896D01*
X10355D01*
X1035Y02891D01*
Y02886D01*
X10355Y02881D01*
X10365D01*
X1037Y02876D01*
Y02871D01*
X10365Y02866D01*
X10355D01*
X1035Y02871D01*
X1038Y02896D02*
Y02866D01*
X1039Y02876D01*
X104Y02866D01*
Y02896D01*
X10425Y02866D02*
Y02896D01*
X1041Y02881D01*
X1043D01*
X1046Y02866D02*
X1044D01*
X1046Y02886D01*
Y02891D01*
X10455Y02896D01*
X10445D01*
X1044Y02891D01*
X09625Y02891D02*
X0962Y02896D01*
X0961D01*
X09605Y02891D01*
Y02886D01*
X0961Y02881D01*
X0962D01*
X09625Y02876D01*
Y02871D01*
X0962Y02866D01*
X0961D01*
X09605Y02871D01*
X09635Y02896D02*
Y02866D01*
X09645Y02876D01*
X09655Y02866D01*
Y02896D01*
X0968Y02866D02*
Y02896D01*
X09665Y02881D01*
X09685D01*
X09695Y02866D02*
X09705D01*
X097D01*
Y02896D01*
X09695Y02891D01*
X0887D02*
X08865Y02896D01*
X08855D01*
X0885Y02891D01*
Y02886D01*
X08855Y02881D01*
X08865D01*
X0887Y02876D01*
Y02871D01*
X08865Y02866D01*
X08855D01*
X0885Y02871D01*
X0888Y02896D02*
Y02866D01*
X0889Y02876D01*
X089Y02866D01*
Y02896D01*
X08925Y02866D02*
Y02896D01*
X0891Y02881D01*
X0893D01*
X0894Y02891D02*
X08945Y02896D01*
X08955D01*
X0896Y02891D01*
Y02871D01*
X08955Y02866D01*
X08945D01*
X0894Y02871D01*
Y02891D01*
X0812D02*
X08115Y02896D01*
X08105D01*
X081Y02891D01*
Y02886D01*
X08105Y02881D01*
X08115D01*
X0812Y02876D01*
Y02871D01*
X08115Y02866D01*
X08105D01*
X081Y02871D01*
X0813Y02896D02*
Y02866D01*
X0814Y02876D01*
X0815Y02866D01*
Y02896D01*
X0816Y02891D02*
X08165Y02896D01*
X08175D01*
X0818Y02891D01*
Y02886D01*
X08175Y02881D01*
X0817D01*
X08175D01*
X0818Y02876D01*
Y02871D01*
X08175Y02866D01*
X08165D01*
X0816Y02871D01*
X0819D02*
X08195Y02866D01*
X08205D01*
X0821Y02871D01*
Y02891D01*
X08205Y02896D01*
X08195D01*
X0819Y02891D01*
Y02886D01*
X08195Y02881D01*
X0821D01*
X0737Y02891D02*
X07365Y02896D01*
X07355D01*
X0735Y02891D01*
Y02886D01*
X07355Y02881D01*
X07365D01*
X0737Y02876D01*
Y02871D01*
X07365Y02866D01*
X07355D01*
X0735Y02871D01*
X0738Y02896D02*
Y02866D01*
X0739Y02876D01*
X074Y02866D01*
Y02896D01*
X0741Y02891D02*
X07415Y02896D01*
X07425D01*
X0743Y02891D01*
Y02886D01*
X07425Y02881D01*
X0742D01*
X07425D01*
X0743Y02876D01*
Y02871D01*
X07425Y02866D01*
X07415D01*
X0741Y02871D01*
X0744Y02891D02*
X07445Y02896D01*
X07455D01*
X0746Y02891D01*
Y02886D01*
X07455Y02881D01*
X0746Y02876D01*
Y02871D01*
X07455Y02866D01*
X07445D01*
X0744Y02871D01*
Y02876D01*
X07445Y02881D01*
X0744Y02886D01*
Y02891D01*
X07445Y02881D02*
X07455D01*
X0662Y02891D02*
X06615Y02896D01*
X06605D01*
X066Y02891D01*
Y02886D01*
X06605Y02881D01*
X06615D01*
X0662Y02876D01*
Y02871D01*
X06615Y02866D01*
X06605D01*
X066Y02871D01*
X0663Y02896D02*
Y02866D01*
X0664Y02876D01*
X0665Y02866D01*
Y02896D01*
X0666Y02891D02*
X06665Y02896D01*
X06675D01*
X0668Y02891D01*
Y02886D01*
X06675Y02881D01*
X0667D01*
X06675D01*
X0668Y02876D01*
Y02871D01*
X06675Y02866D01*
X06665D01*
X0666Y02871D01*
X0669Y02896D02*
X0671D01*
Y02891D01*
X0669Y02871D01*
Y02866D01*
X0587Y02891D02*
X05865Y02896D01*
X05855D01*
X0585Y02891D01*
Y02886D01*
X05855Y02881D01*
X05865D01*
X0587Y02876D01*
Y02871D01*
X05865Y02866D01*
X05855D01*
X0585Y02871D01*
X0588Y02896D02*
Y02866D01*
X0589Y02876D01*
X059Y02866D01*
Y02896D01*
X0591Y02891D02*
X05915Y02896D01*
X05925D01*
X0593Y02891D01*
Y02886D01*
X05925Y02881D01*
X0592D01*
X05925D01*
X0593Y02876D01*
Y02871D01*
X05925Y02866D01*
X05915D01*
X0591Y02871D01*
X0596Y02896D02*
X0595Y02891D01*
X0594Y02881D01*
Y02871D01*
X05945Y02866D01*
X05955D01*
X0596Y02871D01*
Y02876D01*
X05955Y02881D01*
X0594D01*
X0512Y02891D02*
X05115Y02896D01*
X05105D01*
X051Y02891D01*
Y02886D01*
X05105Y02881D01*
X05115D01*
X0512Y02876D01*
Y02871D01*
X05115Y02866D01*
X05105D01*
X051Y02871D01*
X0513Y02896D02*
Y02866D01*
X0514Y02876D01*
X0515Y02866D01*
Y02896D01*
X0516Y02891D02*
X05165Y02896D01*
X05175D01*
X0518Y02891D01*
Y02886D01*
X05175Y02881D01*
X0517D01*
X05175D01*
X0518Y02876D01*
Y02871D01*
X05175Y02866D01*
X05165D01*
X0516Y02871D01*
X0521Y02896D02*
X0519D01*
Y02881D01*
X052Y02886D01*
X05205D01*
X0521Y02881D01*
Y02871D01*
X05205Y02866D01*
X05195D01*
X0519Y02871D01*
X0437Y02891D02*
X04365Y02896D01*
X04355D01*
X0435Y02891D01*
Y02886D01*
X04355Y02881D01*
X04365D01*
X0437Y02876D01*
Y02871D01*
X04365Y02866D01*
X04355D01*
X0435Y02871D01*
X0438Y02896D02*
Y02866D01*
X0439Y02876D01*
X044Y02866D01*
Y02896D01*
X0441Y02891D02*
X04415Y02896D01*
X04425D01*
X0443Y02891D01*
Y02886D01*
X04425Y02881D01*
X0442D01*
X04425D01*
X0443Y02876D01*
Y02871D01*
X04425Y02866D01*
X04415D01*
X0441Y02871D01*
X04455Y02866D02*
Y02896D01*
X0444Y02881D01*
X0446D01*
X0362Y02891D02*
X03615Y02896D01*
X03605D01*
X036Y02891D01*
Y02886D01*
X03605Y02881D01*
X03615D01*
X0362Y02876D01*
Y02871D01*
X03615Y02866D01*
X03605D01*
X036Y02871D01*
X0363Y02896D02*
Y02866D01*
X0364Y02876D01*
X0365Y02866D01*
Y02896D01*
X0366Y02891D02*
X03665Y02896D01*
X03675D01*
X0368Y02891D01*
Y02886D01*
X03675Y02881D01*
X0367D01*
X03675D01*
X0368Y02876D01*
Y02871D01*
X03675Y02866D01*
X03665D01*
X0366Y02871D01*
X0369Y02891D02*
X03695Y02896D01*
X03705D01*
X0371Y02891D01*
Y02886D01*
X03705Y02881D01*
X037D01*
X03705D01*
X0371Y02876D01*
Y02871D01*
X03705Y02866D01*
X03695D01*
X0369Y02871D01*
X0287Y02891D02*
X02865Y02896D01*
X02855D01*
X0285Y02891D01*
Y02886D01*
X02855Y02881D01*
X02865D01*
X0287Y02876D01*
Y02871D01*
X02865Y02866D01*
X02855D01*
X0285Y02871D01*
X0288Y02896D02*
Y02866D01*
X0289Y02876D01*
X029Y02866D01*
Y02896D01*
X0291Y02891D02*
X02915Y02896D01*
X02925D01*
X0293Y02891D01*
Y02886D01*
X02925Y02881D01*
X0292D01*
X02925D01*
X0293Y02876D01*
Y02871D01*
X02925Y02866D01*
X02915D01*
X0291Y02871D01*
X0296Y02866D02*
X0294D01*
X0296Y02886D01*
Y02891D01*
X02955Y02896D01*
X02945D01*
X0294Y02891D01*
X018438D02*
X018388Y02896D01*
X018288D01*
X018238Y02891D01*
Y02886D01*
X018288Y02881D01*
X018388D01*
X018438Y02876D01*
Y02871D01*
X018388Y02866D01*
X018288D01*
X018238Y02871D01*
X018538Y02896D02*
Y02866D01*
X018638Y02876D01*
X018738Y02866D01*
Y02896D01*
X018837Y02891D02*
X018887Y02896D01*
X018987D01*
X019037Y02891D01*
Y02886D01*
X018987Y02881D01*
X018937D01*
X018987D01*
X019037Y02876D01*
Y02871D01*
X018987Y02866D01*
X018887D01*
X018837Y02871D01*
X019137Y02866D02*
X019237D01*
X019187D01*
Y02896D01*
X019137Y02891D01*
X12803Y03641D02*
X12798Y03646D01*
X12788D01*
X12783Y03641D01*
Y03636D01*
X12788Y03631D01*
X12798D01*
X12803Y03626D01*
Y03621D01*
X12798Y03616D01*
X12788D01*
X12783Y03621D01*
X12813Y03646D02*
Y03616D01*
X12823Y03626D01*
X12833Y03616D01*
Y03646D01*
X12843Y03641D02*
X12848Y03646D01*
X12858D01*
X12863Y03641D01*
Y03636D01*
X12858Y03631D01*
X12853D01*
X12858D01*
X12863Y03626D01*
Y03621D01*
X12858Y03616D01*
X12848D01*
X12843Y03621D01*
X12873Y03641D02*
X12878Y03646D01*
X12888D01*
X12893Y03641D01*
Y03621D01*
X12888Y03616D01*
X12878D01*
X12873Y03621D01*
Y03641D01*
X11866D02*
X11861Y03646D01*
X11851D01*
X11846Y03641D01*
Y03636D01*
X11851Y03631D01*
X11861D01*
X11866Y03626D01*
Y03621D01*
X11861Y03616D01*
X11851D01*
X11846Y03621D01*
X11876Y03646D02*
Y03616D01*
X11886Y03626D01*
X11896Y03616D01*
Y03646D01*
X11926Y03616D02*
X11906D01*
X11926Y03636D01*
Y03641D01*
X11921Y03646D01*
X11911D01*
X11906Y03641D01*
X11936Y03621D02*
X11941Y03616D01*
X11951D01*
X11956Y03621D01*
Y03641D01*
X11951Y03646D01*
X11941D01*
X11936Y03641D01*
Y03636D01*
X11941Y03631D01*
X11956D01*
X109325Y03641D02*
X109275Y03646D01*
X109175D01*
X109125Y03641D01*
Y03636D01*
X109175Y03631D01*
X109275D01*
X109325Y03626D01*
Y03621D01*
X109275Y03616D01*
X109175D01*
X109125Y03621D01*
X109425Y03646D02*
Y03616D01*
X109525Y03626D01*
X109625Y03616D01*
Y03646D01*
X109925Y03616D02*
X109725D01*
X109925Y03636D01*
Y03641D01*
X109875Y03646D01*
X109775D01*
X109725Y03641D01*
X110025D02*
X110075Y03646D01*
X110175D01*
X110225Y03641D01*
Y03636D01*
X110175Y03631D01*
X110225Y03626D01*
Y03621D01*
X110175Y03616D01*
X110075D01*
X110025Y03621D01*
Y03626D01*
X110075Y03631D01*
X110025Y03636D01*
Y03641D01*
X110075Y03631D02*
X110175D01*
X101825Y03641D02*
X101775Y03646D01*
X101675D01*
X101625Y03641D01*
Y03636D01*
X101675Y03631D01*
X101775D01*
X101825Y03626D01*
Y03621D01*
X101775Y03616D01*
X101675D01*
X101625Y03621D01*
X101925Y03646D02*
Y03616D01*
X102025Y03626D01*
X102125Y03616D01*
Y03646D01*
X102425Y03616D02*
X102225D01*
X102425Y03636D01*
Y03641D01*
X102375Y03646D01*
X102275D01*
X102225Y03641D01*
X102525Y03646D02*
X102725D01*
Y03641D01*
X102525Y03621D01*
Y03616D01*
X094325Y03641D02*
X094275Y03646D01*
X094175D01*
X094125Y03641D01*
Y03636D01*
X094175Y03631D01*
X094275D01*
X094325Y03626D01*
Y03621D01*
X094275Y03616D01*
X094175D01*
X094125Y03621D01*
X094425Y03646D02*
Y03616D01*
X094525Y03626D01*
X094625Y03616D01*
Y03646D01*
X094925Y03616D02*
X094725D01*
X094925Y03636D01*
Y03641D01*
X094875Y03646D01*
X094775D01*
X094725Y03641D01*
X095225Y03646D02*
X095125Y03641D01*
X095025Y03631D01*
Y03621D01*
X095075Y03616D01*
X095175D01*
X095225Y03621D01*
Y03626D01*
X095175Y03631D01*
X095025D01*
X086825Y03641D02*
X086775Y03646D01*
X086675D01*
X086625Y03641D01*
Y03636D01*
X086675Y03631D01*
X086775D01*
X086825Y03626D01*
Y03621D01*
X086775Y03616D01*
X086675D01*
X086625Y03621D01*
X086925Y03646D02*
Y03616D01*
X087025Y03626D01*
X087125Y03616D01*
Y03646D01*
X087425Y03616D02*
X087225D01*
X087425Y03636D01*
Y03641D01*
X087375Y03646D01*
X087275D01*
X087225Y03641D01*
X087725Y03646D02*
X087525D01*
Y03631D01*
X087625Y03636D01*
X087675D01*
X087725Y03631D01*
Y03621D01*
X087675Y03616D01*
X087575D01*
X087525Y03621D01*
X079325Y03641D02*
X079275Y03646D01*
X079175D01*
X079125Y03641D01*
Y03636D01*
X079175Y03631D01*
X079275D01*
X079325Y03626D01*
Y03621D01*
X079275Y03616D01*
X079175D01*
X079125Y03621D01*
X079425Y03646D02*
Y03616D01*
X079525Y03626D01*
X079625Y03616D01*
Y03646D01*
X079925Y03616D02*
X079725D01*
X079925Y03636D01*
Y03641D01*
X079875Y03646D01*
X079775D01*
X079725Y03641D01*
X080175Y03616D02*
Y03646D01*
X080025Y03631D01*
X080225D01*
X071825Y03641D02*
X071775Y03646D01*
X071675D01*
X071625Y03641D01*
Y03636D01*
X071675Y03631D01*
X071775D01*
X071825Y03626D01*
Y03621D01*
X071775Y03616D01*
X071675D01*
X071625Y03621D01*
X071925Y03646D02*
Y03616D01*
X072025Y03626D01*
X072125Y03616D01*
Y03646D01*
X072425Y03616D02*
X072225D01*
X072425Y03636D01*
Y03641D01*
X072375Y03646D01*
X072275D01*
X072225Y03641D01*
X072525D02*
X072575Y03646D01*
X072675D01*
X072725Y03641D01*
Y03636D01*
X072675Y03631D01*
X072625D01*
X072675D01*
X072725Y03626D01*
Y03621D01*
X072675Y03616D01*
X072575D01*
X072525Y03621D01*
X064325Y03641D02*
X064275Y03646D01*
X064175D01*
X064125Y03641D01*
Y03636D01*
X064175Y03631D01*
X064275D01*
X064325Y03626D01*
Y03621D01*
X064275Y03616D01*
X064175D01*
X064125Y03621D01*
X064425Y03646D02*
Y03616D01*
X064525Y03626D01*
X064625Y03616D01*
Y03646D01*
X064925Y03616D02*
X064725D01*
X064925Y03636D01*
Y03641D01*
X064875Y03646D01*
X064775D01*
X064725Y03641D01*
X065225Y03616D02*
X065025D01*
X065225Y03636D01*
Y03641D01*
X065175Y03646D01*
X065075D01*
X065025Y03641D01*
X056875D02*
X056825Y03646D01*
X056725D01*
X056675Y03641D01*
Y03636D01*
X056725Y03631D01*
X056825D01*
X056875Y03626D01*
Y03621D01*
X056825Y03616D01*
X056725D01*
X056675Y03621D01*
X056975Y03646D02*
Y03616D01*
X057075Y03626D01*
X057175Y03616D01*
Y03646D01*
X057475Y03616D02*
X057275D01*
X057475Y03636D01*
Y03641D01*
X057425Y03646D01*
X057325D01*
X057275Y03641D01*
X057575Y03616D02*
X057675D01*
X057625D01*
Y03646D01*
X057575Y03641D01*
X049325D02*
X049275Y03646D01*
X049175D01*
X049125Y03641D01*
Y03636D01*
X049175Y03631D01*
X049275D01*
X049325Y03626D01*
Y03621D01*
X049275Y03616D01*
X049175D01*
X049125Y03621D01*
X049425Y03646D02*
Y03616D01*
X049525Y03626D01*
X049625Y03616D01*
Y03646D01*
X049925Y03616D02*
X049725D01*
X049925Y03636D01*
Y03641D01*
X049875Y03646D01*
X049775D01*
X049725Y03641D01*
X050025D02*
X050075Y03646D01*
X050175D01*
X050225Y03641D01*
Y03621D01*
X050175Y03616D01*
X050075D01*
X050025Y03621D01*
Y03641D01*
X041845D02*
X041795Y03646D01*
X041695D01*
X041645Y03641D01*
Y03636D01*
X041695Y03631D01*
X041795D01*
X041845Y03626D01*
Y03621D01*
X041795Y03616D01*
X041695D01*
X041645Y03621D01*
X041945Y03646D02*
Y03616D01*
X042045Y03626D01*
X042145Y03616D01*
Y03646D01*
X042245Y03616D02*
X042345D01*
X042295D01*
Y03646D01*
X042245Y03641D01*
X042495Y03621D02*
X042545Y03616D01*
X042645D01*
X042695Y03621D01*
Y03641D01*
X042645Y03646D01*
X042545D01*
X042495Y03641D01*
Y03636D01*
X042545Y03631D01*
X042695D01*
X034345Y03641D02*
X034295Y03646D01*
X034195D01*
X034145Y03641D01*
Y03636D01*
X034195Y03631D01*
X034295D01*
X034345Y03626D01*
Y03621D01*
X034295Y03616D01*
X034195D01*
X034145Y03621D01*
X034445Y03646D02*
Y03616D01*
X034545Y03626D01*
X034645Y03616D01*
Y03646D01*
X034745Y03616D02*
X034845D01*
X034795D01*
Y03646D01*
X034745Y03641D01*
X034995D02*
X035045Y03646D01*
X035145D01*
X035195Y03641D01*
Y03636D01*
X035145Y03631D01*
X035195Y03626D01*
Y03621D01*
X035145Y03616D01*
X035045D01*
X034995Y03621D01*
Y03626D01*
X035045Y03631D01*
X034995Y03636D01*
Y03641D01*
X035045Y03631D02*
X035145D01*
X026845Y03641D02*
X026795Y03646D01*
X026695D01*
X026645Y03641D01*
Y03636D01*
X026695Y03631D01*
X026795D01*
X026845Y03626D01*
Y03621D01*
X026795Y03616D01*
X026695D01*
X026645Y03621D01*
X026945Y03646D02*
Y03616D01*
X027045Y03626D01*
X027145Y03616D01*
Y03646D01*
X027245Y03616D02*
X027345D01*
X027295D01*
Y03646D01*
X027245Y03641D01*
X027495Y03646D02*
X027695D01*
Y03641D01*
X027495Y03621D01*
Y03616D01*
X01747Y03641D02*
X01742Y03646D01*
X01732D01*
X01727Y03641D01*
Y03636D01*
X01732Y03631D01*
X01742D01*
X01747Y03626D01*
Y03621D01*
X01742Y03616D01*
X01732D01*
X01727Y03621D01*
X01757Y03646D02*
Y03616D01*
X01767Y03626D01*
X01777Y03616D01*
Y03646D01*
X01787Y03616D02*
X01797D01*
X01792D01*
Y03646D01*
X01787Y03641D01*
X01832Y03646D02*
X01822Y03641D01*
X01812Y03631D01*
Y03621D01*
X01817Y03616D01*
X01827D01*
X01832Y03621D01*
Y03626D01*
X01827Y03631D01*
X01812D01*
X128056Y04391D02*
X128006Y04396D01*
X127906D01*
X127856Y04391D01*
Y04386D01*
X127906Y04381D01*
X128006D01*
X128056Y04376D01*
Y04371D01*
X128006Y04366D01*
X127906D01*
X127856Y04371D01*
X128156Y04396D02*
Y04366D01*
X128256Y04376D01*
X128356Y04366D01*
Y04396D01*
X128456Y04366D02*
X128556D01*
X128506D01*
Y04396D01*
X128456Y04391D01*
X128905Y04396D02*
X128706D01*
Y04381D01*
X128806Y04386D01*
X128855D01*
X128905Y04381D01*
Y04371D01*
X128855Y04366D01*
X128756D01*
X128706Y04371D01*
X116885Y04391D02*
X116835Y04396D01*
X116735D01*
X116685Y04391D01*
Y04386D01*
X116735Y04381D01*
X116835D01*
X116885Y04376D01*
Y04371D01*
X116835Y04366D01*
X116735D01*
X116685Y04371D01*
X116985Y04396D02*
Y04366D01*
X117085Y04376D01*
X117185Y04366D01*
Y04396D01*
X117285Y04366D02*
X117385D01*
X117335D01*
Y04396D01*
X117285Y04391D01*
X117684Y04366D02*
Y04396D01*
X117534Y04381D01*
X117734D01*
X105556Y04391D02*
X105506Y04396D01*
X105406D01*
X105356Y04391D01*
Y04386D01*
X105406Y04381D01*
X105506D01*
X105556Y04376D01*
Y04371D01*
X105506Y04366D01*
X105406D01*
X105356Y04371D01*
X105656Y04396D02*
Y04366D01*
X105756Y04376D01*
X105856Y04366D01*
Y04396D01*
X105956Y04366D02*
X106056D01*
X106006D01*
Y04396D01*
X105956Y04391D01*
X106206D02*
X106256Y04396D01*
X106355D01*
X106405Y04391D01*
Y04386D01*
X106355Y04381D01*
X106306D01*
X106355D01*
X106405Y04376D01*
Y04371D01*
X106355Y04366D01*
X106256D01*
X106206Y04371D01*
X098056Y04391D02*
X098006Y04396D01*
X097906D01*
X097856Y04391D01*
Y04386D01*
X097906Y04381D01*
X098006D01*
X098056Y04376D01*
Y04371D01*
X098006Y04366D01*
X097906D01*
X097856Y04371D01*
X098156Y04396D02*
Y04366D01*
X098256Y04376D01*
X098356Y04366D01*
Y04396D01*
X098456Y04366D02*
X098556D01*
X098506D01*
Y04396D01*
X098456Y04391D01*
X098905Y04366D02*
X098706D01*
X098905Y04386D01*
Y04391D01*
X098855Y04396D01*
X098756D01*
X098706Y04391D01*
X090606D02*
X090556Y04396D01*
X090456D01*
X090406Y04391D01*
Y04386D01*
X090456Y04381D01*
X090556D01*
X090606Y04376D01*
Y04371D01*
X090556Y04366D01*
X090456D01*
X090406Y04371D01*
X090706Y04396D02*
Y04366D01*
X090806Y04376D01*
X090906Y04366D01*
Y04396D01*
X091006Y04366D02*
X091106D01*
X091056D01*
Y04396D01*
X091006Y04391D01*
X091256Y04366D02*
X091355D01*
X091306D01*
Y04396D01*
X091256Y04391D01*
X083056D02*
X083006Y04396D01*
X082906D01*
X082856Y04391D01*
Y04386D01*
X082906Y04381D01*
X083006D01*
X083056Y04376D01*
Y04371D01*
X083006Y04366D01*
X082906D01*
X082856Y04371D01*
X083156Y04396D02*
Y04366D01*
X083256Y04376D01*
X083356Y04366D01*
Y04396D01*
X083456Y04366D02*
X083556D01*
X083506D01*
Y04396D01*
X083456Y04391D01*
X083706D02*
X083756Y04396D01*
X083855D01*
X083905Y04391D01*
Y04371D01*
X083855Y04366D01*
X083756D01*
X083706Y04371D01*
Y04391D01*
X075686D02*
X075636Y04396D01*
X075536D01*
X075486Y04391D01*
Y04386D01*
X075536Y04381D01*
X075636D01*
X075686Y04376D01*
Y04371D01*
X075636Y04366D01*
X075536D01*
X075486Y04371D01*
X075786Y04396D02*
Y04366D01*
X075886Y04376D01*
X075986Y04366D01*
Y04396D01*
X076086Y04371D02*
X076136Y04366D01*
X076236D01*
X076286Y04371D01*
Y04391D01*
X076236Y04396D01*
X076136D01*
X076086Y04391D01*
Y04386D01*
X076136Y04381D01*
X076286D01*
X068186Y04391D02*
X068136Y04396D01*
X068036D01*
X067986Y04391D01*
Y04386D01*
X068036Y04381D01*
X068136D01*
X068186Y04376D01*
Y04371D01*
X068136Y04366D01*
X068036D01*
X067986Y04371D01*
X068286Y04396D02*
Y04366D01*
X068386Y04376D01*
X068486Y04366D01*
Y04396D01*
X068586Y04391D02*
X068636Y04396D01*
X068736D01*
X068786Y04391D01*
Y04386D01*
X068736Y04381D01*
X068786Y04376D01*
Y04371D01*
X068736Y04366D01*
X068636D01*
X068586Y04371D01*
Y04376D01*
X068636Y04381D01*
X068586Y04386D01*
Y04391D01*
X068636Y04381D02*
X068736D01*
X060686Y04391D02*
X060636Y04396D01*
X060536D01*
X060486Y04391D01*
Y04386D01*
X060536Y04381D01*
X060636D01*
X060686Y04376D01*
Y04371D01*
X060636Y04366D01*
X060536D01*
X060486Y04371D01*
X060786Y04396D02*
Y04366D01*
X060886Y04376D01*
X060986Y04366D01*
Y04396D01*
X061086D02*
X061286D01*
Y04391D01*
X061086Y04371D01*
Y04366D01*
X053186Y04391D02*
X053136Y04396D01*
X053036D01*
X052986Y04391D01*
Y04386D01*
X053036Y04381D01*
X053136D01*
X053186Y04376D01*
Y04371D01*
X053136Y04366D01*
X053036D01*
X052986Y04371D01*
X053286Y04396D02*
Y04366D01*
X053386Y04376D01*
X053486Y04366D01*
Y04396D01*
X053786D02*
X053686Y04391D01*
X053586Y04381D01*
Y04371D01*
X053636Y04366D01*
X053736D01*
X053786Y04371D01*
Y04376D01*
X053736Y04381D01*
X053586D01*
X045686Y04391D02*
X045636Y04396D01*
X045536D01*
X045486Y04391D01*
Y04386D01*
X045536Y04381D01*
X045636D01*
X045686Y04376D01*
Y04371D01*
X045636Y04366D01*
X045536D01*
X045486Y04371D01*
X045786Y04396D02*
Y04366D01*
X045886Y04376D01*
X045986Y04366D01*
Y04396D01*
X046286D02*
X046086D01*
Y04381D01*
X046186Y04386D01*
X046236D01*
X046286Y04381D01*
Y04371D01*
X046236Y04366D01*
X046136D01*
X046086Y04371D01*
X038186Y04391D02*
X038136Y04396D01*
X038036D01*
X037986Y04391D01*
Y04386D01*
X038036Y04381D01*
X038136D01*
X038186Y04376D01*
Y04371D01*
X038136Y04366D01*
X038036D01*
X037986Y04371D01*
X038286Y04396D02*
Y04366D01*
X038386Y04376D01*
X038486Y04366D01*
Y04396D01*
X038736Y04366D02*
Y04396D01*
X038586Y04381D01*
X038786D01*
X030686Y04391D02*
X030636Y04396D01*
X030536D01*
X030486Y04391D01*
Y04386D01*
X030536Y04381D01*
X030636D01*
X030686Y04376D01*
Y04371D01*
X030636Y04366D01*
X030536D01*
X030486Y04371D01*
X030786Y04396D02*
Y04366D01*
X030886Y04376D01*
X030986Y04366D01*
Y04396D01*
X031086Y04391D02*
X031136Y04396D01*
X031236D01*
X031286Y04391D01*
Y04386D01*
X031236Y04381D01*
X031186D01*
X031236D01*
X031286Y04376D01*
Y04371D01*
X031236Y04366D01*
X031136D01*
X031086Y04371D01*
X023186Y04391D02*
X023136Y04396D01*
X023036D01*
X022986Y04391D01*
Y04386D01*
X023036Y04381D01*
X023136D01*
X023186Y04376D01*
Y04371D01*
X023136Y04366D01*
X023036D01*
X022986Y04371D01*
X023286Y04396D02*
Y04366D01*
X023386Y04376D01*
X023486Y04366D01*
Y04396D01*
X023786Y04366D02*
X023586D01*
X023786Y04386D01*
Y04391D01*
X023736Y04396D01*
X023636D01*
X023586Y04391D01*
X015736D02*
X015686Y04396D01*
X015586D01*
X015536Y04391D01*
Y04386D01*
X015586Y04381D01*
X015686D01*
X015736Y04376D01*
Y04371D01*
X015686Y04366D01*
X015586D01*
X015536Y04371D01*
X015836Y04396D02*
Y04366D01*
X015936Y04376D01*
X016036Y04366D01*
Y04396D01*
X016136Y04366D02*
X016236D01*
X016186D01*
Y04396D01*
X016136Y04391D01*
M02*
